<svg width="4000" height="4000" viewBox="0 0 4000 4000" fill="none" xmlns="http://www.w3.org/2000/svg">
<mask id="mask0_336_302" style="mask-type:alpha" maskUnits="userSpaceOnUse" x="0" y="0" width="4000" height="4000">
<path fill-rule="evenodd" clip-rule="evenodd" d="M4000 0H0V4000H4000V0ZM2000 1258C1723.31 1258 1499 1482.31 1499 1759V2242C1499 2518.69 1723.31 2743 2000 2743C2276.69 2743 2501 2518.69 2501 2242V1759C2501 1482.31 2276.69 1258 2000 1258Z" fill="#D9D9D9"/>
</mask>
<g mask="url(#mask0_336_302)">
<path fill-rule="evenodd" clip-rule="evenodd" d="M4000 0H0V4000H4000V0ZM2000 1258C1723.31 1258 1499 1482.31 1499 1759V2242C1499 2518.69 1723.31 2743 2000 2743C2276.69 2743 2501 2518.69 2501 2242V1759C2501 1482.31 2276.69 1258 2000 1258Z" fill="#D9D9D9"/>
<g filter="url(#filter0_f_336_302)">
<rect x="1458" y="1192" width="1076" height="1593" rx="538" fill="#F4CB78"/>
</g>
</g>
<defs>
<filter id="filter0_f_336_302" x="1208" y="942" width="1576" height="2093" filterUnits="userSpaceOnUse" color-interpolation-filters="sRGB">
<feFlood flood-opacity="0" result="BackgroundImageFix"/>
<feBlend mode="normal" in="SourceGraphic" in2="BackgroundImageFix" result="shape"/>
<feGaussianBlur stdDeviation="125" result="effect1_foregroundBlur_336_302"/>
</filter>
</defs>
</svg>
