<svg width="90" height="30" viewBox="0 0 90 30" fill="none" xmlns="http://www.w3.org/2000/svg">
<path d="M29 24.3959H30.5009V17.0503H34.7291V24.3959H36.2273V15.6113H29V24.3959Z" fill="#856F5D"/>
<path d="M38.1853 24.3959H44.5411V22.9596H39.6862V20.6626H43.6078V19.2236H39.6862V17.0503H44.5411V15.6113H38.1853V24.3959Z" fill="#856F5D"/>
<path d="M45.8806 17.0503H48.7451V24.3959H50.246V17.0503H53.1079V15.6113H45.8806V17.0503Z" fill="#856F5D"/>
<path d="M60.7386 16.4613C60.1172 15.8964 59.2888 15.6113 58.2802 15.6113H54.4473V24.3959H55.9482V21.5314H58.2802C59.2888 21.5314 60.1146 21.2463 60.7386 20.6814C61.3626 20.1166 61.6773 19.4065 61.6773 18.57C61.6773 17.7335 61.3626 17.0234 60.7386 16.4586V16.4613ZM60.1146 18.5727C60.1146 19.0407 59.9559 19.4173 59.6465 19.6862C59.3345 19.9579 58.8746 20.0951 58.2802 20.0951H55.9482V17.0503H58.2802C58.8746 17.0503 59.3345 17.1875 59.6465 17.4592C59.9559 17.7281 60.1146 18.1047 60.1146 18.5727Z" fill="#856F5D"/>
<path d="M67.4682 15.6113C66.2014 15.6113 65.1309 16.0336 64.2863 16.8701C63.4444 17.7039 63.0168 18.7583 63.0168 20.0036C63.0168 21.249 63.4444 22.3033 64.2863 23.1371C65.1282 23.971 66.1987 24.3959 67.4682 24.3959C68.7378 24.3959 69.8056 23.9736 70.6502 23.1371C71.4921 22.3006 71.9197 21.2463 71.9197 20.0036C71.9197 18.761 71.4921 17.7039 70.6502 16.8701C69.8083 16.0363 68.7378 15.6113 67.4682 15.6113ZM70.4377 20.0036C70.4377 20.8993 70.158 21.639 69.6066 22.1931C69.0552 22.7498 68.3343 23.0322 67.4682 23.0322C66.6022 23.0322 65.8732 22.7498 65.3245 22.1931C64.7758 21.6363 64.4988 20.8993 64.4988 20.0036C64.4988 19.108 64.7758 18.3683 65.3245 17.8142C65.8732 17.2574 66.5941 16.975 67.4682 16.975C68.3424 16.975 69.0525 17.2574 69.6066 17.8142C70.158 18.371 70.4377 19.108 70.4377 20.0036Z" fill="#856F5D"/>
<path d="M79.9835 20.0628C79.7549 19.9068 79.4886 19.7965 79.19 19.7266V19.7158C79.4321 19.6325 79.6446 19.5195 79.8248 19.3823C80.2713 19.038 80.4972 18.5324 80.4972 17.8868C80.4972 17.2413 80.2498 16.6953 79.7629 16.2622C79.2761 15.8319 78.6117 15.6113 77.786 15.6113H73.4556V24.3959H77.7241C78.7005 24.3959 79.4644 24.1592 79.9996 23.6966C80.5376 23.2313 80.8092 22.618 80.8092 21.8703C80.8092 21.0661 80.5322 20.4582 79.9835 20.0601V20.0628ZM74.9564 19.1591V17.0476H77.7241C78.1114 17.0476 78.4154 17.1418 78.6225 17.3247C78.8296 17.5076 78.9345 17.755 78.9345 18.059C78.9345 18.4033 78.8296 18.6776 78.6225 18.8686C78.4154 19.0622 78.1114 19.1591 77.7241 19.1591H74.9564ZM79.2465 21.7466C79.2465 22.5616 78.7274 22.9569 77.6623 22.9569H74.9564V20.5335H77.6623C78.7274 20.5335 79.2465 20.9289 79.2465 21.7439V21.7466Z" fill="#856F5D"/>
<path d="M87.6814 15.6382L87.6761 15.614H84.0745L81.8259 24.3556L81.8152 24.3986H83.3187L83.8782 22.1581H87.8347L88.4265 24.3744L88.4346 24.3986H90L87.6841 15.6382H87.6814ZM87.4663 20.7191H84.2655L85.1827 17.053H86.5007L87.4663 20.7191Z" fill="#856F5D"/>
<path d="M34.7205 9.55429H34.0131L33.2546 7.61501L33.2492 7.60425H32.4826L33.5316 10.259H34.4327L33.771 11.8836L33.7629 11.9051H34.5295L36.2428 7.62845L36.2509 7.60425H35.4817L34.7205 9.55429Z" fill="#856F5D"/>
<path d="M40.108 7.60425H39.3091L38.4242 9.43325H38.1714L37.2918 7.61232L37.2865 7.60425H36.4876L37.5635 9.78561L36.4258 11.9051H37.2246L38.1714 10.1057H38.4242L39.3656 11.897L39.371 11.9051H40.1698L39.0321 9.78561L40.108 7.60425Z" fill="#856F5D"/>
<path d="M43.9085 7.60425H40.3689V8.30895H41.7702V11.9051H42.5045V8.30895H43.9085V7.60425Z" fill="#856F5D"/>
<path d="M46.6036 7.60401H44.8392L43.7391 11.8833L43.7337 11.9049H44.4707L44.745 10.8075H46.6816L46.9721 11.8914V11.9049H47.7414L46.609 7.61477V7.60132L46.6036 7.60401ZM46.4987 10.1028H44.9333L45.3825 8.30603H46.028L46.5014 10.1028H46.4987Z" fill="#856F5D"/>
<path d="M32.1249 9.6296C31.8478 9.38215 31.4578 9.25573 30.971 9.25573H29.7418V8.23633H32.1061V7.60693H29.1124V11.9078H30.9683C31.4578 11.9078 31.8452 11.7814 32.1249 11.5339C32.4019 11.2865 32.5418 10.9664 32.5418 10.5818C32.5418 10.1971 32.4019 9.87705 32.1249 9.6296ZM31.9124 10.5818C31.9124 10.7942 31.8371 10.9637 31.6918 11.0874H31.6865C31.5412 11.2111 31.326 11.2703 31.0463 11.2703H29.7418V9.8905H31.0463C31.3287 9.8905 31.5466 9.95236 31.6918 10.0734C31.8398 10.1971 31.9124 10.3666 31.9124 10.5791V10.5818Z" fill="#856F5D"/>
<path d="M21.9249 9.94329C21.8976 9.69867 21.8612 9.44943 21.8181 9.20481C21.7476 8.80787 21.6749 8.47786 21.5908 8.16862C21.4977 7.82708 21.3863 7.49245 21.2659 7.16936C21.1682 6.91551 21.0569 6.65012 20.9205 6.36165C20.8137 6.13318 20.691 5.91164 20.5865 5.72009C20.2184 5.05546 19.8003 4.4439 19.3459 3.9062C19.1414 3.66388 18.9482 3.45157 18.7551 3.25772C18.7369 3.24156 18.7187 3.2231 18.7006 3.20695C18.6869 3.1931 18.671 3.18156 18.6574 3.16772C18.4847 2.99694 18.3097 2.8354 18.1416 2.6877C17.3986 2.04153 16.5828 1.50151 15.7171 1.0815C15.5921 1.0215 15.4581 0.9615 15.3195 0.901498C15.2127 0.855343 15.1036 0.809188 14.9877 0.763033C14.9218 0.737647 14.8559 0.71457 14.79 0.691492L14.681 0.65226C13.8425 0.347636 12.9881 0.149169 12.1429 0.0591669L12.0951 0.0545514C11.9315 0.0383971 11.7611 0.0245505 11.593 0.0153195H11.5453C11.5157 0.010704 11.4862 0.010704 11.4544 0.010704L11.3249 0.00608846C11.1067 -0.00083481 10.9045 -0.00314257 10.6568 0.00608846H10.5432C10.5137 0.010704 10.4841 0.010704 10.4523 0.0130117H10.4046C10.2365 0.0245505 10.0683 0.0383971 9.90243 0.0545514L9.85471 0.0591669C9.01171 0.149169 8.15735 0.347636 7.31662 0.65226L7.20528 0.691492C7.13938 0.71457 7.07349 0.737647 7.00759 0.763033C6.89171 0.809188 6.78264 0.855343 6.67585 0.901498C6.53724 0.9615 6.40545 1.0215 6.2782 1.0815C5.41248 1.50151 4.59675 2.04153 3.85372 2.6877C3.6833 2.8354 3.51061 2.99694 3.33792 3.16772C3.32429 3.18156 3.31066 3.1931 3.29702 3.20695C3.27885 3.2231 3.26067 3.23926 3.24249 3.25772C3.04935 3.45388 2.85621 3.66619 2.65171 3.9062C2.19726 4.44621 1.77917 5.05546 1.41106 5.72009C1.30427 5.91164 1.18384 6.13549 1.07704 6.36165C0.940708 6.65243 0.827096 6.91551 0.731662 7.16936C0.608961 7.49014 0.499893 7.82708 0.406731 8.16862C0.322658 8.47555 0.249947 8.80556 0.179507 9.20481C0.136335 9.44943 0.0999786 9.69636 0.0727117 9.94329C0.0227224 10.3933 0 10.7972 0 11.1756V18.8212C0 18.9712 0.00454448 19.1282 0.0113612 19.2966C0.0204502 19.5112 0.0386281 19.7397 0.0636228 19.9936C0.0863452 20.2243 0.11134 20.4159 0.140879 20.6028C0.165874 20.7597 0.195413 20.9213 0.227224 21.0828C0.259036 21.2398 0.290847 21.3851 0.324931 21.5236C0.340836 21.5836 0.356742 21.6413 0.372648 21.699L0.429454 21.9113C0.454448 22.0036 0.479443 22.0959 0.50671 22.1882C0.563516 22.3682 0.627139 22.5529 0.695306 22.7398C0.72939 22.8344 0.77029 22.929 0.813463 23.0306L0.854363 23.1275C0.867996 23.1621 0.883902 23.199 0.897536 23.236L0.906625 23.259C0.924802 23.3052 0.945253 23.3537 0.965703 23.3998C1.01115 23.5014 1.05886 23.5983 1.1134 23.7044L1.16339 23.806C1.26109 24.0021 1.36789 24.2029 1.49059 24.4198C1.6042 24.6206 1.73145 24.826 1.8746 25.0452C2.09728 25.3845 2.31541 25.6845 2.54264 25.9591C2.57899 26.0053 2.61989 26.0491 2.65852 26.0953L2.69715 26.1414C2.8403 26.3076 2.96755 26.4484 3.09707 26.5845C3.14705 26.6376 3.1925 26.6814 3.23794 26.7276L3.27657 26.7668C3.39473 26.8868 3.50834 26.9976 3.61514 27.0968C3.67876 27.1568 3.74693 27.2145 3.81282 27.2722L3.86054 27.3138C4.0355 27.4661 4.1832 27.5861 4.32408 27.6969C4.36725 27.7315 4.41042 27.7638 4.45587 27.7961L4.54903 27.8653C4.74444 28.0107 4.9194 28.133 5.083 28.2392C5.21934 28.3269 5.35567 28.4076 5.49655 28.493C5.76695 28.6523 5.98963 28.7769 6.20095 28.8807C6.55996 29.0584 6.94852 29.2223 7.35297 29.3677C7.9733 29.5892 8.61407 29.7554 9.25711 29.8592C9.83653 29.9538 10.4228 30 10.9999 30C12.4814 30 13.9198 29.7046 15.274 29.1207C15.683 28.9454 16.0966 28.733 16.5078 28.4907C16.6033 28.4353 16.6964 28.3776 16.7919 28.32C16.9941 28.193 17.21 28.043 17.4531 27.8653L17.5258 27.8122C17.5712 27.7799 17.6167 27.7453 17.6599 27.713C17.9371 27.4984 18.212 27.263 18.4733 27.0161C18.5279 26.963 18.5824 26.9099 18.6347 26.8545L18.7165 26.7691C18.921 26.5661 19.1141 26.3537 19.2959 26.1437C19.5913 25.7999 19.8685 25.4306 20.1207 25.0499L20.1843 24.9552C20.2207 24.9022 20.257 24.8514 20.2888 24.796C20.3184 24.7475 20.3457 24.6991 20.3843 24.6345L20.5206 24.4014C20.5797 24.3022 20.641 24.2006 20.6956 24.0968C20.7319 24.0275 20.766 23.9583 20.8001 23.8868L20.9024 23.6791C20.9273 23.6283 20.9546 23.5775 20.9773 23.5244C21.0773 23.3052 21.1728 23.0767 21.2636 22.839C21.4659 22.3059 21.6317 21.729 21.759 21.1267C21.8044 20.9074 21.8431 20.6859 21.8749 20.4667L21.893 20.3559C21.9021 20.2959 21.9135 20.2336 21.9203 20.1736C21.9476 19.9382 21.968 19.7189 21.9817 19.5043C21.9817 19.4743 21.9839 19.442 21.9839 19.412L21.9885 19.3151C21.993 19.1951 21.9998 19.0728 21.9998 18.9528V11.1756C22.0021 10.7948 21.9794 10.3933 21.9294 9.94329H21.9249ZM21.2818 11.1756V18.8212C21.2818 18.9066 21.2773 18.992 21.2727 19.0935L21.2636 19.3151C21.2636 19.3751 21.2614 19.4374 21.2568 19.4974C21.2432 19.7166 21.2205 19.9405 21.1932 20.1643C21.1864 20.2105 21.1796 20.2567 21.1728 20.3051L21.1591 20.3905C21.125 20.612 21.0864 20.8336 21.041 21.0505C20.9183 21.6228 20.7342 22.2136 20.4933 22.8021L20.4593 22.8875C20.4093 23.0121 20.3593 23.1344 20.3025 23.2567C20.1934 23.4898 20.0821 23.7137 19.9662 23.9191L19.9276 23.9906C19.9026 24.0368 19.8776 24.0829 19.8526 24.1268C19.8139 24.1937 19.773 24.2583 19.7253 24.3345C19.6435 24.466 19.5595 24.5929 19.4845 24.7037C19.4708 24.7245 19.4572 24.7475 19.4436 24.7683C19.4299 24.7914 19.414 24.8145 19.3981 24.8376C19.3845 24.8583 19.3686 24.8791 19.3527 24.8999L19.3141 24.9506C19.0482 25.3222 18.7483 25.6845 18.4256 26.0284C18.2075 26.2591 18.003 26.4599 17.7962 26.6445C17.3531 27.0415 16.8691 27.4038 16.3579 27.7222C15.9829 27.9553 15.5989 28.163 15.2149 28.3384C13.8766 28.9523 12.4564 29.2638 10.9977 29.2638C9.53887 29.2638 8.11645 28.9523 6.78037 28.3384C6.40545 28.1653 6.03507 27.9646 5.64425 27.7199C5.61698 27.7038 5.58972 27.6876 5.56245 27.6715C5.52609 27.6507 5.48974 27.6299 5.45338 27.6069C5.43293 27.593 5.41021 27.5792 5.38749 27.5676C5.36249 27.5538 5.3375 27.5376 5.31477 27.5215C5.12845 27.3969 4.93985 27.2561 4.71945 27.083L4.65582 27.0345C4.61947 27.0068 4.58311 26.9791 4.54903 26.9491C4.4286 26.8499 4.31044 26.7484 4.19456 26.6422C3.98324 26.453 3.77874 26.2522 3.56515 26.026C3.24703 25.6891 2.94937 25.3268 2.67897 24.9483C2.53128 24.7406 2.39267 24.5329 2.2677 24.3322C2.14727 24.136 2.04729 23.9606 1.95867 23.7968C1.86551 23.6237 1.79053 23.476 1.72463 23.3375C1.71554 23.3167 1.70645 23.2937 1.69055 23.2567L1.66783 23.206C1.65646 23.176 1.64283 23.1483 1.63147 23.1183L1.60193 23.049C1.57466 22.9867 1.5474 22.9221 1.52013 22.8575L1.48377 22.7721C1.47241 22.7444 1.46105 22.719 1.44969 22.6913C1.3588 22.4606 1.27246 22.2159 1.18838 21.9436C1.11567 21.7105 1.04978 21.4659 0.99297 21.219C0.908897 20.859 0.845274 20.4944 0.799829 20.1297C0.772562 19.9036 0.74984 19.6705 0.736206 19.4351C0.733934 19.3866 0.72939 18.3181 0.724845 16.2596L0.713484 11.1756C0.713484 10.8941 0.727117 10.5987 0.756657 10.2664C0.779379 9.99175 0.808918 9.74944 0.843002 9.52789C0.870269 9.35481 0.90208 9.18173 0.936164 9.01095C1.00888 8.65787 1.10431 8.30017 1.21792 7.94477C1.33153 7.58938 1.47468 7.22244 1.63829 6.8532C1.74508 6.6132 1.8496 6.40319 1.95413 6.20703C2.2427 5.66702 2.58127 5.15008 2.95846 4.66776C3.13797 4.43698 3.33338 4.21082 3.53561 3.99389C3.57196 3.95466 3.61059 3.91774 3.65149 3.88081C3.68103 3.85081 3.71284 3.82312 3.74238 3.79312C3.89008 3.64311 4.06277 3.47003 4.24455 3.30849C4.91259 2.71539 5.64425 2.21461 6.4259 1.81999C6.54406 1.75998 6.66903 1.7046 6.794 1.64921L6.88944 1.60767C6.92579 1.59152 6.95988 1.57536 6.99623 1.5569C7.04622 1.53382 7.09848 1.50844 7.15074 1.48767C7.23482 1.45305 7.32116 1.42305 7.40751 1.39074L7.51885 1.35151C8.32095 1.05612 9.13441 0.864574 9.95924 0.779187C10.1546 0.758417 10.3637 0.744571 10.6159 0.73534H10.6636C10.775 0.730724 10.8886 0.728416 10.9999 0.728416C11.1113 0.728416 11.2249 0.728416 11.3339 0.733032H11.3839C11.6384 0.744571 11.8475 0.758417 12.0565 0.779187C12.8632 0.864574 13.6789 1.05612 14.481 1.35151L14.5923 1.39074C14.6787 1.42074 14.765 1.45305 14.8491 1.48767C14.9014 1.50844 14.9514 1.53382 15.0013 1.5569C15.0377 1.57306 15.0741 1.59152 15.1104 1.60767L15.2127 1.65383C15.3354 1.70691 15.4558 1.76229 15.5739 1.81999C16.3533 2.21461 17.0873 2.71539 17.7553 3.30849C17.9348 3.46772 18.1075 3.64311 18.2575 3.79312C18.287 3.82312 18.3188 3.85312 18.3484 3.88081C18.387 3.91774 18.4256 3.95466 18.462 3.99389C18.6642 4.21082 18.8573 4.43698 19.0391 4.66776C19.4163 5.14777 19.7549 5.66702 20.0434 6.20703C20.148 6.40319 20.2502 6.6155 20.3593 6.8532C20.5252 7.22014 20.666 7.58707 20.7797 7.94477C20.8933 8.29786 20.9887 8.65556 21.0614 9.01095C21.0978 9.18173 21.1273 9.35481 21.1546 9.52789C21.1887 9.74713 21.2182 9.98944 21.2409 10.2664C21.2682 10.5987 21.2841 10.8964 21.2841 11.1756H21.2818Z" fill="#836F5D"/>
<path d="M20.3762 17.2937H6.58958V17.9214H20.3762V17.2937Z" fill="#5FCFCF"/>
<path d="M5.02723 17.2937H1.20789C1.20789 17.5176 1.20789 17.7276 1.20789 17.9214H5.02723V17.2937Z" fill="#5FCFCF"/>
<path d="M12.5898 19.02H1.21251C1.21251 19.1839 1.21251 19.2854 1.21251 19.3154C1.21943 19.4193 1.22866 19.5323 1.2402 19.65H12.5898V19.0223V19.02Z" fill="#5FCFCF"/>
<path d="M14.1521 19.6477H20.3254C20.3346 19.5462 20.3485 19.4446 20.3554 19.3454C20.36 19.2923 20.36 19.2439 20.3623 19.1954L20.3692 19.02H14.1544V19.6477H14.1521Z" fill="#5FCFCF"/>
<path d="M7.38115 21.3762H20C20.0577 21.1778 20.1085 20.9816 20.1523 20.7878C20.1546 20.7762 20.1569 20.7624 20.1592 20.7485H7.38115V21.3762Z" fill="#5FCFCF"/>
<path d="M5.8188 20.7463H1.41328C1.42713 20.811 1.43867 20.8779 1.45482 20.9425C1.48944 21.0879 1.53098 21.231 1.57252 21.374H5.8188V20.7463Z" fill="#5FCFCF"/>
<path d="M14.766 23.1023H19.3238C19.37 23.0123 19.4184 22.9246 19.46 22.8323C19.513 22.7192 19.5592 22.6062 19.6054 22.4931L19.6123 22.4746H14.7637V23.1023H14.766Z" fill="#5FCFCF"/>
<path d="M13.2036 22.4746H8.32733V23.1023H13.2036V22.4746Z" fill="#5FCFCF"/>
<path d="M6.76498 22.4746H1.94868L2.13792 22.9131C2.16561 22.9731 2.19792 23.0354 2.23254 23.1023H6.76498V22.4746Z" fill="#5FCFCF"/>
<path d="M11.7567 24.2009H2.88564C2.93179 24.2702 2.97795 24.3371 3.02872 24.4063C3.13257 24.5517 3.24334 24.6902 3.35642 24.8309H11.7567V24.2032V24.2009Z" fill="#5FCFCF"/>
<path d="M13.319 24.8286H18.2115C18.3245 24.6879 18.4353 24.5494 18.5392 24.404L18.6176 24.2979L18.6407 24.2632C18.6499 24.2471 18.6661 24.2217 18.6823 24.2009H13.319V24.8286Z" fill="#5FCFCF"/>
<path d="M9.37506 25.9272H4.38568C4.40414 25.9434 4.42261 25.9619 4.44107 25.978C4.54953 26.0749 4.658 26.1696 4.77108 26.2619C4.80108 26.2873 4.92801 26.3842 4.92801 26.3842C5.01108 26.4488 5.08263 26.5019 5.15417 26.555H9.37506V25.9272Z" fill="#5FCFCF"/>
<path d="M10.9374 26.5572H16.4045C16.6537 26.3748 16.896 26.1833 17.1245 25.9802C17.143 25.9641 17.1614 25.9456 17.1799 25.9294H10.9374V26.5572Z" fill="#5FCFCF"/>
<path d="M8.24888 28.0642C8.31811 28.0827 8.38734 28.1011 8.45658 28.1173C8.54427 28.1404 8.63427 28.1634 8.72197 28.1819C8.89274 28.2188 9.06352 28.2534 9.23429 28.2811C9.46738 28.3204 9.70277 28.3481 9.93816 28.3688C10.0028 28.3735 10.0651 28.3804 10.1297 28.385C10.1966 28.3896 10.2636 28.3942 10.3328 28.3988C10.4805 28.4058 10.6282 28.4104 10.7782 28.4104C10.9213 28.4104 11.0667 28.4058 11.2097 28.3988C11.302 28.3942 11.392 28.3873 11.4821 28.3804C11.5167 28.3781 11.5536 28.3758 11.5882 28.3711C11.8305 28.3504 12.0728 28.3181 12.3105 28.2788C12.6798 28.2188 13.0444 28.1358 13.4021 28.0342C13.4206 28.0296 13.439 28.0227 13.4575 28.0181C13.596 27.9765 13.7321 27.9327 13.8683 27.8865C13.956 27.8565 14.0414 27.8242 14.1267 27.7919C14.1844 27.7711 14.2421 27.748 14.3021 27.725C14.3598 27.7019 14.4175 27.6765 14.4729 27.6511H7.08807C7.46655 27.8127 7.85194 27.9511 8.24426 28.0596L8.24888 28.0642Z" fill="#5FCFCF"/>
<path d="M14.5121 15.2744L20.3762 13.7028V12.9897L14.3344 14.6097C14.2998 14.5151 14.2629 14.4228 14.2191 14.3328L20.3646 10.7835C20.3531 10.5296 20.3323 10.2757 20.3023 10.0242L13.8729 13.7351C13.8152 13.652 13.7552 13.5712 13.6906 13.4951L19.6492 7.53643C19.5569 7.31027 19.4507 7.08873 19.3423 6.86949L13.2059 13.0058C13.1298 12.9412 13.049 12.8812 12.9659 12.8235L17.7292 4.57096C17.5653 4.39788 17.3945 4.23633 17.2191 4.0771L12.3682 12.4797C12.2782 12.4381 12.1859 12.3989 12.0913 12.3643L14.7475 2.45013C14.6229 2.39243 14.5006 2.33243 14.376 2.28166C14.286 2.24474 14.196 2.21704 14.106 2.18243L11.4267 12.1843C11.3274 12.1681 11.2305 12.152 11.129 12.1427V1.59164C10.9974 1.58702 10.8913 1.58472 10.7851 1.58472C10.6789 1.58472 10.5636 1.58472 10.4551 1.59164C10.4505 1.59164 10.4459 1.59164 10.4412 1.59164V12.1473C10.3397 12.1566 10.2428 12.1704 10.1435 12.1889L7.46193 2.18473C7.37192 2.21704 7.28192 2.24704 7.19423 2.28166C7.06499 2.33243 6.94499 2.39243 6.82037 2.45013L9.4766 12.3643C9.38198 12.3989 9.28967 12.4358 9.19967 12.4797L4.34876 4.07941C4.17337 4.23864 4.00259 4.40019 3.83874 4.57327L8.60196 12.8258C8.51888 12.8835 8.43811 12.9435 8.36195 13.0081L2.22562 6.86949C2.11484 7.08873 2.01099 7.30797 1.91868 7.53643L7.87732 13.4951C7.81271 13.5712 7.7527 13.652 7.69501 13.7351L1.26559 10.0219C1.23559 10.2734 1.21482 10.5273 1.20328 10.7811L7.34885 14.3305C7.30731 14.4205 7.26807 14.5128 7.23346 14.6074L1.19405 12.9897C1.19405 13.2251 1.19405 13.4651 1.19405 13.7028L7.05345 15.272C7.0373 15.3713 7.02114 15.4682 7.01191 15.5697H1.20328C1.20328 15.8051 1.20328 16.0336 1.20328 16.2598H20.3762V15.5697H14.5537C14.5444 15.4682 14.5283 15.3713 14.5121 15.272V15.2744Z" fill="#F4CB78"/>
</svg>
