<svg width="1008" height="125" viewBox="0 0 1008 125" fill="none" xmlns="http://www.w3.org/2000/svg">
<path d="M164.15 56.4597H143.697L121.766 0.388582L121.611 0.0775604H99.4465L129.776 76.835H155.829L136.698 123.807L136.464 124.429H158.628L208.167 0.777448L208.4 0.0775604H186.158L164.15 56.4597Z" fill="white"/>
<path d="M319.92 0.0775604H296.823L271.237 52.9602H263.927L238.497 0.310856L238.341 0.0775604H215.244L246.351 63.1478L213.455 124.429H236.552L263.927 72.4023H271.237L298.456 124.196L298.612 124.429H321.709L288.813 63.1478L319.92 0.0775604Z" fill="white"/>
<path d="M429.808 0.0775604H327.465V20.4529H367.982V124.429H389.213V20.4529H429.808V0.0775604Z" fill="white"/>
<path d="M507.727 0.0778444H456.711L424.904 123.807L424.748 124.43H446.057L453.989 92.7H509.982L518.381 124.041V124.43H540.623L507.883 0.388866V0L507.727 0.0778444ZM504.694 72.3247H459.433L472.42 20.3754H491.085L504.772 72.3247H504.694Z" fill="white"/>
<path d="M89.1007 58.6374C81.0905 51.4827 69.8141 47.8276 55.738 47.8276H20.1978V18.3533H88.5563V0.155457H2V124.507H55.6603C69.8141 124.507 81.0128 120.852 89.1007 113.697C97.1109 106.543 101.155 97.2883 101.155 86.1674C101.155 75.0465 97.1109 65.7921 89.1007 58.6374V58.6374ZM82.957 86.1674C82.957 92.3111 80.7795 97.2105 76.58 100.788H76.4245C72.225 104.365 66.0034 106.076 57.9155 106.076H20.1978V66.1809H57.9155C66.0812 66.1809 72.3805 67.9696 76.58 71.4691C80.8572 75.0465 82.957 79.9459 82.957 86.0897V86.1674Z" fill="white"/>
</svg>
