<svg width="1008" height="137" viewBox="0 0 1008 137" fill="none" xmlns="http://www.w3.org/2000/svg">
<path d="M268.51 52.7086C266.186 53.4131 262.16 56.3045 259.012 59.5254C256.917 61.6665 254.373 65.2624 253.046 67.9709C252.342 69.3983 252.342 69.4349 252.909 69.8924C254.52 71.1917 256.368 71.3655 256.368 70.2218C256.368 69.078 259.259 64.5762 262.206 61.0168C264.594 58.1346 269.434 55.115 271.74 55.0784C274.668 55.0235 274.75 56.6156 272.024 60.6234C270.011 63.588 266.451 68.1539 262.407 72.9576C258.088 78.0908 256.679 80.726 256.679 83.6815C256.679 86.637 257.438 88.6591 259.021 90.1049C259.753 90.7728 260.531 91.3218 260.787 91.3401C261.638 91.4133 261.794 91.4591 262.032 91.697C262.407 92.0721 265.372 91.944 267.192 91.4682C268.117 91.2303 269.681 90.663 270.624 90.2146C272.655 89.263 276.992 86.1246 277.02 85.5847C277.02 85.3834 277.367 85.0083 277.797 84.7338C278.218 84.4593 278.557 83.9835 278.557 83.6541C278.557 83.3247 278.685 83.1417 278.85 83.2423C279.005 83.343 279.225 83.0593 279.335 82.6384C279.463 82.126 279.691 81.9064 279.984 82.0162C280.277 82.126 280.497 81.9705 280.588 81.577C280.671 81.2384 280.853 80.9731 280.982 80.9731C281.11 80.9731 281.32 80.5339 281.439 80.0123C281.558 79.4999 281.997 78.7039 282.409 78.2921C282.821 77.8804 283.571 76.883 284.065 76.087C284.559 75.3001 285.163 74.5589 285.419 74.4583C285.666 74.3576 285.795 74.1472 285.712 74.0008C285.621 73.8544 285.758 73.6531 286.005 73.5616C286.261 73.47 286.462 73.1224 286.462 72.7563C286.462 71.8779 287.039 70.8623 287.405 71.1002C287.551 71.1917 287.689 71.091 287.698 70.8806C287.771 69.6087 287.917 69.1238 288.338 68.712C288.723 68.3369 288.768 67.9983 288.549 67.0833C288.393 66.4428 288.265 65.7932 288.256 65.6285C288.256 65.4638 288.018 65.8755 287.753 66.5435C287.478 67.2206 286.746 68.529 286.096 69.5081C285.447 70.478 284.925 71.3838 284.925 71.5394C284.925 71.6949 284.742 71.942 284.532 72.0792C284.12 72.3446 283.553 73.1956 283.132 74.1655C282.985 74.5132 282.436 75.1628 281.915 75.5929C281.403 76.0229 280.972 76.5079 280.972 76.6543C280.972 76.8007 280.085 77.8529 278.996 78.9784C277.916 80.1038 277.02 81.1286 277.02 81.2384C277.02 81.3482 276.077 82.1809 274.897 83.1051C273.716 84.0292 272.774 84.8527 272.774 84.9717C272.774 85.0906 272.454 85.2828 272.088 85.3926C271.722 85.5115 270.862 85.9507 270.221 86.3533C267.522 88.0552 262.279 89.0526 260.623 88.1742C259.204 87.4239 259.552 85.1181 261.51 82.3273C262.105 81.4764 262.855 80.4058 263.212 79.8934C263.569 79.381 264.136 78.649 264.511 78.2189C265.774 76.7641 267.467 74.7053 268.226 73.6896C268.638 73.1406 269.297 72.2988 269.663 71.8413C270.029 71.3838 270.349 70.8348 270.349 70.661C270.349 70.4871 270.459 70.3224 270.596 70.3224C270.734 70.3224 271.209 69.8192 271.676 69.1878C272.143 68.5565 273.222 67.0742 274.101 65.8664C277.129 61.7031 278.044 59.7541 277.871 57.8509C277.697 55.9751 276.461 54.4471 274.183 53.3125C272.362 52.3975 270.276 52.1779 268.538 52.7086H268.51Z" fill="#F4CB78"/>
<path d="M340.092 55.9567C335.142 56.8991 328.865 63.5512 324.601 72.381C321.627 78.5482 320.538 86.527 322.194 89.9949C323.118 91.9347 324.72 93.3072 326.541 93.7281C327.419 93.9294 328.535 94.0941 329.002 94.0941C330.246 94.0941 333.348 92.9961 334.986 91.9713C335.773 91.4772 336.789 90.9099 337.2 90.7452C337.63 90.5622 338.381 90.1047 338.93 89.6838C339.479 89.2629 340.019 88.9426 340.156 88.9426C340.293 88.9426 340.943 88.4485 341.611 87.8172C342.279 87.195 342.928 86.7283 343.084 86.7649C343.239 86.8107 343.633 86.5911 343.999 86.2525C344.347 85.9323 345.124 85.4198 345.701 85.127C346.277 84.8342 346.835 84.514 346.918 84.4133C347 84.3127 347.403 84.0565 347.833 83.8369C348.245 83.6173 349.196 82.8944 349.928 82.2448C350.66 81.586 351.474 81.0461 351.722 81.0461C351.969 81.0461 352.481 80.7533 352.874 80.3782C354.906 78.4201 355.427 77.8345 355.427 77.4959C355.427 77.1574 356.031 76.956 356.736 77.0659C356.864 77.0842 357.056 76.892 357.148 76.6449C357.239 76.3979 357.431 76.2606 357.568 76.343C357.715 76.4253 357.907 76.224 358.008 75.8855C358.108 75.5469 358.319 75.3548 358.474 75.4463C358.63 75.5378 358.767 75.3365 358.767 75.0071C358.767 74.3391 359.426 73.7627 359.6 74.2751C359.71 74.5953 362.72 71.6033 362.72 71.1732C362.72 71.036 363.196 70.3863 363.8 69.6818C365.117 68.1628 365.282 67.9158 365.401 67.3759C365.447 67.1472 364.651 67.7694 363.653 68.7393C362.647 69.7184 361.576 70.6608 361.283 70.8164C360.991 70.9719 359.929 71.7771 358.932 72.5915C357.925 73.4058 356.846 74.3025 356.534 74.5679C356.214 74.8332 355.519 75.309 354.97 75.6293C354.421 75.9495 353.908 76.407 353.817 76.6449C353.716 76.9011 353.451 77.0841 353.176 77.0841C352.902 77.0841 352.71 77.2122 352.71 77.3861C352.71 77.56 352.527 77.6881 352.289 77.6881C352.06 77.6881 351.786 77.8985 351.694 78.1456C351.603 78.3926 351.41 78.5665 351.282 78.5299C350.935 78.4292 349.571 79.2344 349.16 79.7834C348.949 80.0579 348.784 80.1494 348.775 79.9939C348.775 79.8383 348.528 79.9207 348.226 80.1952C347.933 80.4605 347.092 80.9912 346.332 81.403C343.02 83.1872 340.558 84.5414 338.28 85.8316C334.876 87.7531 330.905 89.7295 329.35 90.2785C327.373 90.9739 326.632 90.8916 326.403 89.9674C326.229 89.272 326.403 85.0813 326.705 82.8578C326.824 81.9794 328.297 78.0449 328.682 77.5691C328.828 77.3861 329.377 76.4802 329.871 75.5652C330.805 73.8633 331.445 73.3143 331.445 74.2019C331.445 75.0894 332.387 76.5992 333.842 78.0907C335.389 79.6736 336.459 79.9115 338.253 79.0697C339.607 78.4292 344.356 73.5431 345.134 71.9876C345.362 71.5392 346.204 70.3131 347.009 69.2883C348.546 67.3119 350.267 64.2192 350.276 63.3957C350.276 63.1212 350.376 62.8192 350.495 62.7003C350.944 62.2611 351.749 59.4794 351.593 58.903C351.493 58.5095 350.852 58.0795 349.763 57.6677C344.603 55.7371 342.873 55.4351 340.11 55.9567H340.092ZM346.927 60.6964C346.927 62.5447 340.943 72.1523 337.969 75.0894C337.027 76.0136 336.13 76.8005 335.993 76.8005C335.855 76.8005 335.59 76.5992 335.37 76.3338C335.078 75.977 335.041 74.8881 335.187 71.7588C335.407 67.2295 335.7 66.3511 337.292 65.4087C337.795 65.1067 338.692 64.4296 339.296 63.8898C341.391 62.014 346.918 59.7082 346.918 60.7055L346.927 60.6964Z" fill="#F4CB78"/>
<path d="M297.881 54.3279C295.182 56.1396 291.668 59.4976 290.204 61.6662C289.573 62.6087 288.96 63.4688 288.859 63.5603C287.853 64.4844 285.382 69.1601 283.424 73.8724C282.555 75.9677 281.429 78.5572 280.926 79.6461C278.986 83.8093 278.108 87.4785 278.565 89.519C278.84 90.7359 280.615 92.7032 281.329 92.5934C282.271 92.4379 283.168 91.6784 284.54 89.885C285.327 88.8602 287.166 86.8289 288.594 85.4198C290.021 84.0106 292.025 81.8878 293.013 80.7441C294.011 79.5912 295.164 78.2736 295.575 77.8161C295.987 77.3586 296.536 76.6906 296.774 76.3429C297.03 75.9769 297.332 75.7024 297.488 75.7024C297.643 75.7024 299.675 73.79 302.017 71.4476C304.359 69.1052 306.327 67.1928 306.409 67.1928C306.491 67.1928 307.242 66.5249 308.129 65.6831C312.503 61.4924 312.356 61.529 311.551 64.823C311.176 66.3785 310.49 69.2882 310.042 71.2921C309.593 73.2959 309.008 75.8213 308.751 76.9102C308.486 78.0082 308.093 79.8291 307.855 81.0094C307.617 82.1898 307.306 83.4708 307.159 83.8917C307.013 84.3126 306.656 85.4747 306.372 86.472C305.695 88.8785 305.274 90.1503 303.938 93.7646C303.325 95.4391 302.502 97.69 302.118 98.7788C301.733 99.8677 301.056 101.396 300.599 102.192C300.15 102.979 299.885 103.638 300.004 103.638C300.123 103.638 300.041 103.866 299.775 104.168C299.528 104.461 299.089 105.248 298.805 105.916C297.963 107.892 296.344 110.93 296.133 110.93C296.024 110.93 295.877 111.131 295.767 111.397C295.658 111.671 295.713 111.79 295.886 111.69C296.06 111.58 296.188 111.708 296.188 111.982C296.188 112.257 296.014 112.449 295.767 112.449C295.127 112.449 291.677 116.759 292.181 116.923C292.757 117.116 291.787 118.442 290.817 118.799C290.268 119 289.811 119.312 289.811 119.485C289.811 119.659 290.149 119.586 290.57 119.321C290.991 119.046 291.33 118.946 291.33 119.074C291.33 119.431 290.268 121.041 289.564 121.736C288.887 122.413 283.095 127.812 280.999 129.733C280.24 130.429 279.874 130.896 280.176 130.786C281.173 130.429 280.688 131.161 279.48 131.847C278.812 132.222 278.099 132.698 277.888 132.909C277.678 133.119 276.781 133.595 275.866 133.988C274.951 134.382 274.036 134.876 273.798 135.114C273.56 135.352 273.13 135.535 272.856 135.535C272.462 135.535 272.444 135.471 272.764 135.269C273.954 134.519 270.943 134.656 268.848 135.452C268.601 135.544 268.07 135.599 267.713 135.562C267.347 135.525 267.027 135.644 267.027 135.809C267.027 136.12 267.448 136.102 269.973 135.672C270.852 135.516 271.282 135.562 271.282 135.8C271.282 136.001 271.584 136.148 271.977 136.148C272.737 136.148 275.802 135.05 276.378 134.565C276.589 134.391 276.744 134.363 276.744 134.51C276.744 134.638 276.955 134.446 277.211 134.089C277.467 133.723 277.952 133.421 278.273 133.421C278.593 133.421 278.867 133.275 278.867 133.082C278.867 132.89 279.078 132.826 279.352 132.927C279.645 133.037 280.203 132.808 280.752 132.35C281.265 131.92 281.786 131.591 281.951 131.591C282.106 131.591 282.628 131.198 283.076 130.74C283.525 130.282 284.083 129.944 284.275 130.008C284.485 130.081 284.641 129.935 284.641 129.66C284.641 129.386 285.245 128.681 286.004 128.032C286.764 127.391 287.313 126.705 287.23 126.494C287.157 126.284 287.459 125.927 287.917 125.689C288.374 125.451 289.271 124.683 289.948 123.96C290.625 123.237 290.927 122.834 290.634 123.063C290.332 123.301 290.039 123.411 289.948 123.319C289.738 123.109 290.131 122.166 290.433 122.166C290.579 122.166 290.707 121.956 290.707 121.709C290.707 121.444 290.964 121.251 291.33 121.251C291.668 121.251 291.87 121.389 291.769 121.553C291.668 121.718 291.787 121.773 292.025 121.672C292.281 121.562 292.537 121.297 292.647 121.023C292.803 120.62 292.757 120.62 292.327 120.977C291.87 121.37 291.842 121.343 292.062 120.638C292.318 119.815 293.032 119.138 293.645 119.129C293.864 119.129 294.038 118.927 294.038 118.68C294.038 118.433 294.212 118.131 294.413 117.994C294.624 117.857 294.981 117.509 295.218 117.207C295.594 116.722 295.584 116.621 295.127 116.292C294.66 115.963 294.752 115.761 295.996 114.306C296.746 113.428 297.378 112.431 297.378 112.138C297.378 111.561 299.757 109.237 300.05 109.53C300.15 109.631 299.958 109.896 299.592 110.152C299.226 110.399 298.888 110.866 298.805 111.232C298.659 111.845 298.686 111.854 299.409 111.369C299.83 111.086 300.086 111.003 299.986 111.168C299.885 111.342 299.986 111.543 300.233 111.635C300.699 111.809 301.02 111.598 301.02 111.113C301.02 110.939 300.882 110.994 300.718 111.232C300.461 111.616 300.416 111.607 300.416 111.186C300.416 110.912 300.626 110.518 300.873 110.317C301.12 110.125 301.331 109.786 301.331 109.585C301.331 109.384 301.742 108.762 302.273 108.185C302.795 107.618 303.417 106.602 303.655 105.934C303.893 105.266 304.295 104.498 304.533 104.214C304.771 103.939 304.881 103.619 304.78 103.519C304.68 103.418 304.753 103.125 304.963 102.878C305.174 102.631 305.238 102.274 305.119 102.073C304.954 101.817 305.046 101.771 305.412 101.908C305.805 102.055 305.887 101.972 305.759 101.542C305.649 101.185 305.805 100.792 306.171 100.462C306.482 100.179 306.83 99.6115 306.931 99.218C307.04 98.7971 307.278 98.5501 307.507 98.6416C308.001 98.8246 309.977 96.1253 310.06 95.1554C310.142 94.2404 310.993 92.3921 311.332 92.3921C311.487 92.3921 311.707 91.9529 311.835 91.4039C311.963 90.8549 312.256 90.1229 312.503 89.7477C312.906 89.1347 313.235 88.1099 313.665 86.042C313.747 85.6394 314.214 83.8551 314.69 82.0983C315.532 78.969 316.913 72.994 317.288 70.862C317.389 70.2856 317.517 69.7457 317.59 69.6359C317.654 69.5261 317.847 68.6202 318.011 67.6503C318.569 64.338 319.256 61.2911 319.603 60.6048C319.869 60.0741 319.86 59.7264 319.558 59.1499C319.109 58.299 316.392 56.7435 315.769 56.9814C315.522 57.0729 315.266 57.018 315.156 56.8441C314.909 56.4507 313.674 56.5056 313.244 56.9356C313.043 57.1369 312.878 57.6676 312.878 58.116C312.878 58.7016 312.539 59.2048 311.698 59.8819L310.517 60.8244L309.904 59.8545C309.282 58.8571 308.934 58.546 304.533 54.9135C301.468 52.388 300.864 52.3331 297.881 54.337V54.3279ZM308.01 61.0166L309.575 61.8218L306.629 64.5851C305 66.1131 302.172 68.8947 300.315 70.8071C298.448 72.7195 296.481 74.6867 295.914 75.1991C294.743 76.2514 294.642 76.3612 288.164 82.9218C285.647 85.4747 283.497 87.5426 283.369 87.5426C282.939 87.5426 283.113 86.9387 284.037 85.1727C284.54 84.2211 285.547 82.1349 286.288 80.5245C287.029 78.9141 288.237 76.8644 288.987 75.9403C289.728 75.0253 290.524 73.9364 290.735 73.543C290.936 73.1495 291.202 72.7469 291.311 72.6646C291.421 72.5822 291.906 71.9692 292.4 71.3012C295.081 67.6229 298.824 63.7158 300.416 62.9198C300.837 62.7093 301.532 62.2427 301.907 61.9041C302.593 61.3002 304.972 60.3211 305.942 60.2479C306.226 60.2296 307.168 60.5773 308.019 61.0166H308.01ZM311.414 89.2445C311.057 89.8667 310.957 89.6654 311.24 88.9059C311.341 88.6314 311.487 88.4759 311.57 88.5582C311.652 88.6314 311.579 88.9334 311.405 89.2445H311.414ZM309.721 93.5542C309.383 93.8927 309.264 93.4627 309.474 92.7032L309.685 91.9438L309.794 92.6575C309.849 93.0509 309.822 93.4535 309.721 93.5542ZM304.433 101.872C304.222 102.082 304.067 102.109 304.067 101.936C304.067 101.542 304.442 101.167 304.643 101.368C304.734 101.451 304.643 101.661 304.433 101.881V101.872ZM304.368 103.162C304.368 103.244 304.25 103.372 304.067 103.482C303.893 103.583 303.765 103.528 303.765 103.345C303.765 103.162 303.893 103.024 304.067 103.024C304.25 103.024 304.368 103.079 304.368 103.162ZM303.17 105.422C302.969 105.788 302.703 106.062 302.548 106.062C302.392 106.062 302.227 106.364 302.182 106.73C302.072 107.49 301.239 107.682 301.102 106.977C300.983 106.337 302.859 104.132 303.216 104.488C303.408 104.681 303.389 105.037 303.17 105.431V105.422ZM293.736 116.082C293.736 116.255 293.599 116.384 293.416 116.384C293.233 116.384 293.178 116.255 293.279 116.082C293.388 115.899 293.517 115.78 293.599 115.78C293.681 115.78 293.736 115.899 293.736 116.082ZM292.199 119.577C291.998 119.824 291.751 119.961 291.668 119.879C291.467 119.678 291.915 119.119 292.272 119.119C292.455 119.119 292.428 119.302 292.199 119.577Z" fill="#F4CB78"/>
<path d="M308.651 99.5382C308.423 99.8127 308.395 99.9957 308.578 99.9957C308.944 99.9957 309.392 99.4375 309.182 99.2362C309.1 99.1539 308.853 99.3003 308.651 99.5382Z" fill="#F4CB78"/>
<path d="M307.049 102.97C306.482 103.638 306.134 104.242 306.326 104.242C306.409 104.242 306.756 103.848 307.122 103.327C307.827 102.32 307.79 102.101 307.049 102.961V102.97Z" fill="#F4CB78"/>
<path d="M305.76 107.188C305.604 107.609 305.65 107.654 305.943 107.352C306.153 107.142 306.245 106.895 306.144 106.803C306.043 106.712 305.879 106.877 305.769 107.178L305.76 107.188Z" fill="#F4CB78"/>
<path d="M304.579 108.954C304.487 109.201 304.542 109.411 304.698 109.411C304.853 109.411 304.991 109.201 304.991 108.954C304.991 108.707 304.936 108.496 304.872 108.496C304.808 108.496 304.67 108.707 304.579 108.954Z" fill="#F4CB78"/>
<path d="M298.184 112.595C297.901 113.355 298.001 113.547 298.358 112.934C298.532 112.632 298.605 112.33 298.523 112.248C298.44 112.174 298.294 112.321 298.193 112.595H298.184Z" fill="#F4CB78"/>
<path d="M299.263 113.382C299.052 113.721 298.714 113.895 298.521 113.776C298.311 113.648 298.238 113.648 298.357 113.776C298.467 113.895 298.165 114.416 297.652 114.956C296.444 116.265 296.106 116.914 296.518 117.171C296.737 117.308 296.719 117.482 296.472 117.784C296.271 118.031 296.197 118.204 296.307 118.204C296.646 118.204 298.32 115.414 298.146 115.139C298.055 114.993 298.146 114.901 298.329 114.938C298.521 114.984 298.942 114.563 299.272 113.977C299.903 112.888 299.903 112.367 299.272 113.373L299.263 113.382Z" fill="#F4CB78"/>
<path d="M296.876 114.499C296.592 114.956 296.235 115.505 296.089 115.716C295.933 115.926 295.879 116.091 295.952 116.091C296.025 116.091 296.528 115.542 297.059 114.874C297.59 114.206 297.892 113.657 297.709 113.657C297.526 113.657 297.16 114.032 296.876 114.489V114.499Z" fill="#F4CB78"/>
<path d="M294.138 120.977C293.845 121.334 293.205 122.112 292.738 122.661C292.272 123.21 292.025 123.676 292.208 123.676C292.391 123.676 292.546 123.576 292.546 123.448C292.546 123.32 293.095 122.615 293.763 121.883C294.422 121.151 294.98 120.501 294.98 120.456C294.98 120.163 294.614 120.392 294.147 120.968L294.138 120.977Z" fill="#F4CB78"/>
<path d="M278.109 131.755C277.441 132.158 277.029 132.487 277.194 132.487C277.56 132.487 279.472 131.344 279.472 131.115C279.472 130.932 279.5 130.914 278.109 131.755Z" fill="#F4CB78"/>
<path d="M275.739 133.064C275.282 133.339 274.916 133.668 274.916 133.796C274.916 133.924 275.309 133.805 275.831 133.503C276.343 133.201 276.746 132.863 276.746 132.726C276.746 132.442 276.773 132.433 275.739 133.055V133.064Z" fill="#F4CB78"/>
<path d="M263.688 134.491C263.688 134.574 263.944 134.912 264.228 135.223C264.749 135.791 265.207 135.937 266.241 135.864C266.79 135.827 266.79 135.8 266.268 135.223C265.966 134.885 265.664 134.674 265.582 134.738C265.509 134.803 265.051 134.738 264.566 134.601C264.081 134.455 263.688 134.409 263.688 134.491Z" fill="#F4CB78"/>
<path d="M911.448 87.4876C912.957 86.8105 916.718 83.306 918.704 80.7348C919.847 79.2525 921.348 77.3676 922.007 76.5716C922.675 75.7664 923.745 74.3115 924.404 73.305C926.966 69.4254 928.201 67.4764 928.201 67.33C928.201 67.2568 928.522 66.717 928.924 66.1313C930.013 64.5392 932.109 60.2662 932.109 59.6531C932.109 59.3695 932.209 59.0766 932.319 59.0217C932.429 58.9668 932.731 58.4728 932.978 57.942C933.335 57.1643 933.847 56.7617 935.494 55.9473C936.638 55.38 937.891 54.8493 938.303 54.7578L939.044 54.5931L938.642 56.048C935.595 67.083 934.826 71.5024 934.826 77.9166C934.826 80.7897 935.467 84.1478 936.208 85.1543C936.501 85.5478 937.004 85.9778 937.37 86.1425C937.797 86.3377 937.958 85.9412 937.855 84.953C937.489 81.4852 937.416 78.0905 937.708 77.9166C937.864 77.8251 937.974 77.4134 937.955 76.9925C937.919 76.0958 938.504 73.003 938.788 72.6096C938.898 72.454 939.136 71.8318 939.31 71.2096C940.124 68.3914 941.131 65.2712 941.46 64.5026C941.661 64.0451 941.981 63.1759 942.164 62.5903C942.347 62.0047 942.677 61.1812 942.887 60.7786C943.107 60.3577 943.281 59.8544 943.281 59.6074C943.281 59.3603 943.445 58.9394 943.656 58.6283C943.866 58.3264 944.123 57.7773 944.242 57.3839C944.36 56.9904 944.635 56.478 944.864 56.2127C945.696 55.2611 944.333 52.1867 942.997 51.9945C942.759 51.9579 942.274 51.72 941.881 51.4455C940.984 50.8141 940.435 50.8416 939.566 51.5279C939.172 51.839 938.642 52.0769 938.349 52.0769C938.056 52.0769 937.178 52.3239 936.363 52.635C935.549 52.9461 934.79 53.1932 934.661 53.1932C934.533 53.1932 934.35 52.6899 934.268 52.0494C934.039 50.4298 932.804 49.222 930.709 48.5815C929.364 48.1698 928.586 48.1149 926.463 48.2887C925.036 48.4077 923.334 48.4809 922.675 48.4534C921.833 48.426 921.44 48.5449 921.321 48.856C921.229 49.1122 920.836 49.4874 920.415 49.7253C919.994 49.9632 919.308 50.3841 918.841 50.6861C918.365 50.9972 917.825 51.3174 917.587 51.4272C917.157 51.6285 914.623 53.3853 914.065 53.8703C913.882 54.0258 913.076 54.6755 912.29 55.2794C911.512 55.8833 910.423 56.8074 909.92 57.3015C909.416 57.7865 908.803 58.2074 908.593 58.2074C908.154 58.2074 907.248 59.8819 907.248 60.6962C907.248 60.9799 907.12 61.2727 906.964 61.3184C906.507 61.474 907.23 63.3772 908.172 64.5209C909.709 66.3876 911.741 66.7444 915.144 65.7562C916.178 65.4542 917.697 64.8961 918.539 64.5026C919.381 64.1092 920.14 63.7889 920.241 63.7889C920.342 63.7889 921.33 63.2491 922.419 62.5994C923.507 61.9498 924.734 61.2544 925.118 61.0622C925.511 60.8701 925.996 60.6047 926.234 60.4766C927.378 59.827 927.982 59.5616 928.073 59.6531C928.247 59.827 927.149 62.7184 926.847 62.9105C926.692 63.0112 926.262 63.6425 925.886 64.3379C925.228 65.5458 923.846 67.7418 921.311 71.6031C920.369 73.0305 917.13 77.1297 915.19 79.344C913.552 81.2198 910.606 83.9648 909.865 84.3125C908.995 84.7243 908.858 84.7243 908.273 84.34C907.403 83.7727 905.134 83.4524 904.887 83.8733C904.786 84.038 904.823 84.1844 904.979 84.1844C905.134 84.1844 905.665 84.77 906.141 85.4654C907.596 87.5882 909.535 88.3202 911.429 87.4693L911.448 87.4876ZM911.768 61.1263C913.781 58.5459 917.615 55.6179 923.928 51.8481C926.609 50.2468 928.494 50.3749 929.913 52.2507C930.48 53.001 930.599 53.3853 930.462 54.0807C930.306 54.9134 929.958 55.1238 923.59 58.1708C916.27 61.6753 912.994 62.9563 911.384 62.9746H910.322L911.759 61.1446L911.768 61.1263Z" fill="#F4CB78"/>
<path d="M802.479 0.881153C800.814 1.22886 797.831 3.03142 794.857 5.50193C792.606 7.36854 791.764 8.2927 792.185 8.4391C792.35 8.50315 792.688 8.2927 792.917 7.99075C793.146 7.6888 793.347 7.579 793.356 7.762C793.375 8.33845 791.956 9.49136 791.719 9.09791C791.563 8.85085 791.16 9.06131 790.465 9.73841C789.376 10.7998 789.138 11.4129 789.953 11.1018C790.309 10.9737 790.227 11.1933 789.678 11.9253C786.457 16.1801 782.605 21.9263 780.784 25.1929C780.363 25.9523 779.897 26.7575 779.732 27.0137C779.576 27.2608 778.972 28.5052 778.396 29.7496C777.82 30.994 777.115 32.5404 776.831 33.1626C776.539 33.8031 775.861 34.7913 775.285 35.4226C774.727 36.0265 774.233 36.7677 774.205 37.033C774.086 38.3049 773.62 40.1715 773.336 40.5284C773.199 40.7022 773.098 41.178 773.107 41.6355C773.107 42.0839 772.86 42.8159 772.513 43.31C772.174 43.7858 771.735 44.6184 771.524 45.1583C771.314 45.6981 771.021 46.0733 770.875 45.9818C770.728 45.8903 770.683 46.0275 770.783 46.2746C770.884 46.5216 770.728 47.3543 770.445 48.0771C770.17 48.8092 770.024 49.5869 770.124 49.7608C770.234 49.9438 770.188 50.0993 770.033 50.0993C769.877 50.0993 769.594 50.4745 769.411 50.932C769.136 51.6091 768.578 51.9476 766.391 52.7528C764.9 53.3018 763.545 53.741 763.353 53.741C763.17 53.741 763.006 53.8966 763.006 54.0796C763.006 54.2717 763.353 54.3449 763.838 54.2443C764.323 54.1436 765.449 53.9972 766.419 53.8966C767.388 53.7959 768.239 53.5946 768.331 53.4391C768.605 52.9907 769.072 53.1005 769.072 53.6221C769.072 53.8691 768.953 54.0064 768.816 53.924C768.679 53.8417 768.377 54.5279 768.166 55.4429C767.947 56.358 767.654 57.1815 767.517 57.2638C767.379 57.3462 767.26 58.0416 767.26 58.7644C767.26 59.4873 767.123 60.1186 766.958 60.1186C766.785 60.1186 766.73 60.4206 766.839 60.8506C766.94 61.2441 766.876 61.6741 766.702 61.7748C766.528 61.8846 766.446 62.4427 766.519 63.0192C766.602 63.6231 766.519 64.0715 766.355 64.0715C765.888 64.0715 765.44 65.4348 765.266 67.3838C765.183 68.2988 765.037 69.1772 764.945 69.3236C764.854 69.47 764.79 70.2386 764.79 70.9981C764.79 71.7575 764.68 72.5444 764.534 72.7274C764.195 73.1483 763.985 75.3077 764.287 75.3077C764.424 75.3077 764.534 75.5822 764.534 75.9116C764.534 76.241 764.415 76.5155 764.259 76.5155C763.436 76.5155 763.783 81.6213 764.808 84.5676C765.458 86.4525 766.849 88.0629 767.809 88.0629C768.111 88.0629 768.487 88.1819 768.642 88.3191C768.798 88.4564 769.566 88.6577 770.326 88.7583C771.506 88.9139 771.927 88.8132 773.062 88.0995C775.084 86.8185 778.286 82.7467 779.128 80.3769C779.348 79.773 779.64 79.2514 779.769 79.2514C779.897 79.2514 780.016 79.0501 780.016 78.8397C780.016 78.6109 780.336 77.824 780.748 77.0645C781.15 76.3051 781.58 75.2345 781.708 74.6672C781.836 74.0999 782.44 72.3248 783.072 70.7235C784.7 66.5328 785.881 61.848 785.725 60.1552C785.57 58.4533 784.161 55.4063 783.264 54.8299C781.516 53.7136 779.86 53.9789 777.188 55.7998C774.937 57.337 773.162 59.0664 771.744 61.0885C771.067 62.0584 770.454 62.8453 770.39 62.8453C770.134 62.8453 771.122 58.1971 771.744 56.4678C771.835 56.2207 771.881 55.8273 771.845 55.6168C771.808 55.3881 771.936 55.0403 772.137 54.7933C772.339 54.5462 772.403 54.2351 772.293 54.0521C772.183 53.8691 772.229 53.7319 772.412 53.7319C772.595 53.7319 772.732 53.4757 772.732 53.1371C772.732 52.7986 772.86 52.4692 773.034 52.3594C773.217 52.2496 773.29 52.094 773.217 51.9659C773.153 51.847 773.702 51.481 774.434 51.1607C775.166 50.8405 775.77 50.447 775.77 50.3098C775.77 50.1725 776.044 50.1359 776.346 50.2366C776.712 50.3555 776.987 50.2366 777.088 49.9438C777.179 49.6784 777.508 49.4771 777.847 49.4771C778.186 49.4771 778.835 49.1477 779.348 48.7177C779.86 48.2876 780.391 47.9582 780.565 47.9582C780.729 47.9582 780.949 47.7477 781.031 47.5007C781.114 47.2536 781.324 47.0798 781.47 47.1255C781.617 47.1713 782.349 46.7229 783.081 46.1373C783.813 45.5609 785.451 44.3348 786.695 43.4472C787.94 42.5597 789.038 41.7362 789.129 41.6264C789.211 41.5166 789.641 41.1963 790.071 40.9218C790.813 40.446 793.622 37.9297 795.571 36.0174C796.028 35.569 796.422 34.9743 796.422 34.7364C796.422 34.4985 796.614 34.2972 796.843 34.2972C797.236 34.2972 800.036 31.0214 801.161 29.228C801.463 28.7522 802.003 28.0019 802.397 27.5078C802.79 27.0229 803.092 26.4464 803.092 26.1902C803.092 25.934 803.412 25.3576 803.824 24.8726C804.217 24.406 804.648 23.4452 804.766 22.7772C804.885 22.1093 805.105 21.5511 805.251 21.5511C805.398 21.5511 805.526 21.2949 805.526 20.9564C805.526 20.6178 805.645 20.0597 805.8 19.6662C805.947 19.2819 806.304 18.1473 806.587 17.15C806.871 16.1526 807.31 14.716 807.557 13.9566C807.859 13.0507 808.015 11.175 808.024 8.3842L808.042 4.17517L806.112 2.38176C805.05 1.39356 804.044 0.606652 803.861 0.615802C803.687 0.634102 803.055 0.743902 802.479 0.862853V0.881153ZM803.696 7.7071C803.696 9.95801 802.635 15.933 801.683 19.0349C800.896 21.5877 800.082 23.2896 797.876 26.9588C797.236 28.0202 796.705 29.0084 796.705 29.1274C796.705 29.2463 796.376 29.6855 795.992 30.0881C795.607 30.4816 794.271 31.9822 793.073 33.3822C791.874 34.7821 790.502 36.2278 790.062 36.5664C789.614 36.9141 788.836 37.5912 788.287 38.1036C786.585 39.6957 785.066 40.9767 783.493 42.1296C782.642 42.7518 781.763 43.4747 781.489 43.7858C781.223 44.0877 780.848 44.3348 780.656 44.3348C780.473 44.3348 780.308 44.4812 780.308 44.6367C780.308 44.7923 780.153 44.9387 779.97 44.9387C779.686 44.9387 777.993 46.1007 776.2 47.5281C774.745 48.6902 773.794 48.9739 774.681 47.9765C775.093 47.519 775.139 47.2628 774.873 46.9608C774.608 46.6497 774.644 46.4484 775.01 46.1282C775.495 45.7073 775.98 44.6916 776.2 43.6302C776.264 43.3008 776.493 42.7793 776.731 42.4133C777.124 41.8094 778.277 38.9179 778.689 37.4905C778.78 37.1611 779.174 36.4017 779.531 35.8161C780.235 34.6906 780.748 33.1717 780.629 32.5404C780.592 32.3482 780.766 32.1744 780.976 32.1744C781.205 32.1744 781.9 31.2044 782.541 29.9875C784.801 25.7053 785.002 25.3484 785.368 25.1105C785.579 24.9733 785.762 24.6988 785.762 24.5158C785.762 24.1863 787.683 21.3864 790.556 17.5343C794.152 12.703 799.414 7.58815 801.884 6.52674C803.54 5.81303 803.678 5.90453 803.678 7.69795L803.696 7.7071ZM781.653 57.456C781.534 57.822 781.452 58.9474 781.47 59.9448C781.516 62.5525 779.512 69.2961 777.463 73.432C776.575 75.2254 775.669 77.156 775.441 77.7416C775.212 78.3272 774.425 79.9011 773.693 81.237C771.277 85.6107 769.886 86.8368 769.072 85.3087C768.477 84.1833 767.983 80.6605 768.02 77.7142L768.047 74.7953L769.932 71.0255C770.966 68.9576 771.817 67.1733 771.817 67.0818C771.817 66.725 774.059 63.0466 775.505 61.0428C776.548 59.5879 777.426 58.7736 778.835 57.9318C781.086 56.5959 781.992 56.4495 781.663 57.456H781.653ZM770.353 57.7579C770.143 57.9684 769.987 57.9958 769.987 57.822C769.987 57.4285 770.362 57.0534 770.564 57.2547C770.655 57.337 770.564 57.5475 770.353 57.7671V57.7579ZM768.77 59.8258C768.77 60.0088 768.651 60.1278 768.468 60.1278C768.285 60.1278 768.166 60.0088 768.166 59.8258C768.166 59.6428 768.285 59.5239 768.468 59.5239C768.651 59.5239 768.77 59.6428 768.77 59.8258Z" fill="#F4CB78"/>
<path d="M787.857 12.9683C787.491 13.4441 787.509 13.4532 787.994 13.0781C788.507 12.6755 788.653 12.4376 788.388 12.4376C788.315 12.4376 788.095 12.6663 787.857 12.9683Z" fill="#F4CB78"/>
<path d="M786.503 14.6426L785.927 15.3289L786.594 14.7616C787.235 14.2217 787.418 13.9655 787.171 13.9655C787.125 13.9655 786.814 14.2858 786.503 14.6518V14.6426Z" fill="#F4CB78"/>
<path d="M781.984 21.1207C781.709 21.5416 781.618 21.8161 781.801 21.7063C782.167 21.4867 782.853 20.3338 782.624 20.3338C782.56 20.3338 782.267 20.6998 781.984 21.1207Z" fill="#F4CB78"/>
<path d="M847.559 49.3376C842.608 50.2801 836.332 56.9322 832.068 65.762C829.094 71.9291 828.005 79.908 829.661 83.3758C830.585 85.3156 832.187 86.6882 834.007 87.1091C834.886 87.3104 836.002 87.4751 836.469 87.4751C837.713 87.4751 840.815 86.3771 842.453 85.3522C843.24 84.8581 844.255 84.2908 844.667 84.1261C845.097 83.9431 845.848 83.4856 846.397 83.0647C846.946 82.6438 847.485 82.3236 847.623 82.3236C847.76 82.3236 848.41 81.8295 849.078 81.1981C849.745 80.5759 850.395 80.1093 850.551 80.1459C850.706 80.1916 851.1 79.972 851.466 79.6335C851.813 79.3132 852.591 78.8008 853.168 78.508C853.744 78.2152 854.302 77.8949 854.385 77.7943C854.467 77.6936 854.87 77.4374 855.3 77.2178C855.711 76.9982 856.663 76.2754 857.395 75.6257C858.127 74.9669 858.941 74.4271 859.188 74.4271C859.435 74.4271 859.948 74.1343 860.341 73.7591C862.373 71.801 862.894 71.2154 862.894 70.8769C862.894 70.5383 863.498 70.337 864.203 70.4468C864.331 70.4651 864.523 70.273 864.614 70.0259C864.706 69.7788 864.898 69.6416 865.035 69.7239C865.182 69.8063 865.374 69.605 865.474 69.2664C865.575 68.9279 865.786 68.7357 865.941 68.8272C866.097 68.9187 866.234 68.7174 866.234 68.388C866.234 67.7201 866.893 67.1436 867.067 67.656C867.176 67.9763 870.187 64.9842 870.187 64.5542C870.187 64.4169 870.663 63.7673 871.266 63.0627C872.584 61.5438 872.749 61.2967 872.868 60.7569C872.913 60.5281 872.117 61.1503 871.12 62.1202C870.114 63.0993 869.043 64.0418 868.75 64.1973C868.457 64.3529 867.396 65.1581 866.399 65.9724C865.392 66.7868 864.312 67.6835 864.001 67.9488C863.681 68.2142 862.986 68.69 862.437 69.0102C861.888 69.3305 861.375 69.788 861.284 70.0259C861.183 70.2821 860.918 70.4651 860.643 70.4651C860.369 70.4651 860.177 70.5932 860.177 70.7671C860.177 70.9409 859.994 71.069 859.756 71.069C859.527 71.069 859.252 71.2795 859.161 71.5265C859.069 71.7736 858.877 71.9474 858.749 71.9108C858.401 71.8102 857.038 72.6154 856.626 73.1644C856.416 73.4389 856.251 73.5304 856.242 73.3748C856.242 73.2193 855.995 73.3016 855.693 73.5761C855.4 73.8415 854.558 74.3722 853.799 74.7839C850.487 76.5682 848.025 77.9224 845.747 79.2126C842.343 81.1341 838.372 83.1105 836.816 83.6595C834.84 84.3549 834.099 84.2725 833.87 83.3484C833.696 82.653 833.87 78.4623 834.172 76.2388C834.291 75.3604 835.764 71.4259 836.148 70.9501C836.295 70.767 836.844 69.8612 837.338 68.9462C838.271 67.2443 838.912 66.6953 838.912 67.5828C838.912 68.4704 839.854 69.9801 841.309 71.4716C842.855 73.0546 843.926 73.2925 845.719 72.4507C847.074 71.8102 851.823 66.924 852.6 65.3685C852.829 64.9202 853.671 63.6941 854.476 62.6693C856.013 60.6928 857.733 57.6001 857.743 56.7766C857.743 56.5021 857.843 56.2002 857.962 56.0812C858.411 55.642 859.216 52.8604 859.06 52.2839C858.96 51.8905 858.319 51.4604 857.23 51.0487C852.07 49.118 850.34 48.8161 847.577 49.3376H847.559ZM854.394 54.0773C854.394 55.9257 848.41 65.5332 845.436 68.4704C844.493 69.3945 843.597 70.1814 843.459 70.1814C843.322 70.1814 843.057 69.9801 842.837 69.7148C842.544 69.3579 842.508 68.2691 842.654 65.1398C842.874 60.6105 843.167 59.7321 844.759 58.7896C845.262 58.4877 846.159 57.8106 846.763 57.2707C848.858 55.395 854.385 53.0891 854.385 54.0865L854.394 54.0773Z" fill="#F4CB78"/>
<path d="M879.269 43.1268C878.446 43.7124 878.446 43.9594 879.297 44.3254C880.541 44.8653 880.358 47.5737 878.592 54.9212C878.116 56.8976 877.494 58.7825 877.22 59.0845C876.945 59.3864 876.808 59.7707 876.918 59.9537C877.027 60.1276 876.762 60.6949 876.341 61.2164C875.92 61.7288 875.563 62.4242 875.563 62.7536C875.563 63.083 875.435 63.266 875.271 63.1654C875.115 63.0647 874.896 63.3301 874.786 63.7601C874.676 64.181 874.465 64.5379 874.319 64.5379C874.173 64.5379 873.816 65.0411 873.514 65.6725C873.212 66.313 872.883 66.9444 872.754 67.1182C872.626 67.2829 872.022 68.1796 871.418 69.0946C867.676 74.7128 860.072 82.8655 859.286 82.0877C859.221 82.0237 858.81 80.6054 858.389 78.9584C857.254 74.5572 856.174 73.6971 855.067 76.314C854.262 78.2264 854.326 80.2302 855.241 82.0237C855.836 83.1857 856.321 83.6341 857.84 84.4393C859.542 85.336 859.816 85.4 860.942 85.1255C861.729 84.9334 862.433 84.4759 862.9 83.8628C863.302 83.3321 864.355 82.1609 865.27 81.2185C866.185 80.276 867.511 78.8028 868.28 77.8787C869.03 76.9637 869.726 76.1585 869.817 76.0761C869.909 75.9938 870.32 75.4356 870.714 74.8592C871.117 74.2644 871.885 73.2671 872.443 72.5991C873.001 71.9311 873.45 71.2266 873.45 71.007C873.45 70.7874 873.55 70.6135 873.679 70.6135C873.807 70.6135 874.356 69.8724 874.923 68.9299C875.49 67.9875 876.012 67.3195 876.103 67.411C876.195 67.5025 876.323 68.6371 876.378 69.9181C876.607 75.0513 877.759 77.9244 879.827 78.5009C881.502 78.9675 881.868 78.8669 883.066 77.6316C884.796 75.8565 884.887 75.7193 886.946 72.0409C889.508 67.4568 889.865 66.8529 891.421 64.3915C892.171 63.2111 892.985 61.8661 893.251 61.3537C893.516 60.8596 894.074 59.8073 894.477 59.0479C895.3 57.5015 897.441 54.5826 897.441 55.0127C897.441 55.1591 897.02 57.7485 896.517 60.7498C896.005 63.7601 895.382 67.8594 895.135 69.8632C894.888 71.8671 894.559 74.2278 894.403 75.1154C893.946 77.8146 894.724 86.1137 895.675 88.694C896.993 92.2443 898.301 94.0102 899.628 94.0102C900.296 94.0102 900.662 93.3148 900.296 92.7384C900.168 92.5371 900.022 92.1436 899.994 91.9332C899.958 91.7136 899.829 91.2927 899.701 91.0182C899.573 90.7437 899.454 90.3777 899.427 90.213C899.171 88.3646 898.896 85.7294 898.869 84.8053C898.85 84.2014 898.75 83.6798 898.649 83.6798C898.457 83.6798 898.576 82.6184 899.244 78.3636C899.399 77.348 899.619 75.6003 899.729 74.42C899.839 73.2396 900.168 71.5926 900.47 70.7142C900.772 69.8358 901.248 68.0149 901.531 66.615C901.815 65.215 902.154 63.8242 902.291 63.4856C902.675 62.534 904.597 56.3486 904.935 54.9852C905.1 54.3264 905.539 52.6794 905.905 51.371C906.546 49.0651 906.555 48.9462 906.015 48.3606C904.523 46.7227 901.019 45.8352 899.463 46.7044C898.53 47.226 898.338 47.5462 898.338 48.5802C898.338 49.056 897.99 49.9161 897.579 50.4651C897.167 51.0141 896.819 51.5357 896.819 51.618C896.819 51.7004 896.453 52.167 896.032 52.6245C895.099 53.631 893.177 56.5499 893.177 56.9708C893.177 57.1538 893.077 57.2728 892.93 57.2728C892.528 57.2728 890.14 60.9145 890.14 61.5275C890.14 61.8295 889.957 62.2229 889.746 62.3602C889.325 62.6347 887.715 64.9313 887.715 65.2699C887.715 65.3888 887.221 66.2398 886.635 67.1548C886.049 68.0698 885.473 69.058 885.372 69.3417C885.043 70.2567 882.197 74.2919 881.886 74.2919C881.694 74.2919 881.667 73.5324 881.804 72.2239C882.133 69.1221 882.197 68.7927 882.719 66.9993C883.204 65.3614 884.091 62.168 885.711 56.312C886.818 52.3043 886.928 47.5828 885.949 45.9267C885.592 45.3228 885.281 44.6091 885.281 44.3803C885.281 43.749 882.765 42.7059 881.246 42.7059C880.514 42.7059 879.644 42.9163 879.269 43.1817V43.1268Z" fill="#F4CB78"/>
<path d="M820.957 54.5105C819.026 55.4804 815.238 58.9574 812.74 62.0501C811.395 63.7246 807.625 69.0682 807.36 69.6721C807.25 69.9283 806.729 70.7335 806.18 71.493C804.981 73.1674 800.269 81.128 800.269 81.4848C800.269 81.6312 799.711 82.4547 799.043 83.3057C797.835 84.8246 797.78 84.8521 796.343 84.8063C795.126 84.7697 794.898 84.6782 795.035 84.2756C795.126 84.0011 795.099 83.8822 794.971 84.0011C794.843 84.1201 794.559 84.0286 794.321 83.7906C794.01 83.4795 793.973 83.1502 794.202 82.5737C794.367 82.1528 794.577 81.2378 794.66 80.5973C794.742 79.9476 795.163 78.6209 795.584 77.651C796.005 76.6902 796.618 74.8602 796.938 73.6158C797.249 72.3714 797.734 70.5231 797.999 69.5349C798.265 68.5284 798.539 67.3846 798.603 66.9545C798.667 66.5336 798.914 65.1611 799.134 63.9442C799.372 62.6723 799.464 60.9796 799.363 60.0097C799.198 58.4267 799.061 58.2071 797.542 56.8529C796.627 56.0385 795.419 55.2608 794.806 55.0869C793.443 54.7026 791.466 54.7026 791.466 55.0869C791.466 55.2333 792.015 55.7457 792.683 56.2124C793.351 56.679 793.983 57.3927 794.092 57.7953C794.303 58.6097 793.946 61.2541 792.784 67.3937C791.915 71.9962 791.521 73.5243 787.642 87.7069C786.04 93.5355 784.695 98.5222 784.64 98.7876C784.43 99.8399 783.552 103.646 782.957 106.108C779.956 118.588 779.123 123.182 778.894 128.525C778.812 130.41 778.675 132.048 778.583 132.204C778.345 132.579 780.093 135.15 780.971 135.717C782.206 136.522 782.82 136.211 782.874 134.747C782.902 134.052 783.121 133.192 783.378 132.789C783.625 132.396 784 131.252 784.201 130.255C784.403 129.248 784.686 128.159 784.823 127.821C784.97 127.482 785.144 126.942 785.226 126.604C785.72 124.563 788.456 115.523 789.828 111.415C791.896 105.22 792.079 104.689 792.747 103.216C793.058 102.521 793.306 101.807 793.306 101.606C793.306 101.405 793.434 101.011 793.607 100.709C793.772 100.416 794.294 99.236 794.779 98.0556C795.254 96.8752 796.243 94.5328 796.984 92.8035C798.283 89.7656 798.347 89.6833 799.198 89.8022C800.369 89.9761 802.84 89.5003 804.359 88.814C805.054 88.4938 805.887 88.1644 806.253 88.0546C806.601 87.9539 807.259 87.5422 807.653 87.1853C808.065 86.8193 809.336 85.8769 810.489 85.09C814.616 82.2809 821.113 75.9033 823.08 72.7282C826.74 66.8081 827.829 63.752 827.527 60.2201C827.023 54.2085 825.02 52.4609 820.966 54.5013L820.957 54.5105ZM823.766 56.8895C824.251 59.8541 821.533 66.1859 817.626 71.191C816.208 73.0119 810.755 78.4836 810.361 78.4836C810.197 78.4836 809.465 79.0875 808.723 79.847C808.001 80.5881 806.491 81.6953 805.429 82.2626C804.368 82.8299 803.508 83.4521 803.544 83.626C803.59 83.809 803.316 83.9462 802.922 83.9462C802.529 83.9462 802.062 84.1018 801.861 84.3122C801.65 84.5227 801.431 84.6142 801.348 84.5227C801.165 84.3397 804.972 76.9647 805.969 75.5648C806.363 75.0158 806.665 74.4576 806.665 74.2929C806.665 74.1099 806.756 73.9452 806.893 73.8811C807.021 73.8262 807.671 72.957 808.339 71.9505C812.301 66.0304 818.368 59.058 821.332 57.0267C822.366 56.3222 823.299 55.7274 823.4 55.7183C823.501 55.7183 823.675 56.249 823.775 56.8895H823.766ZM808.632 81.2195C808.522 81.4025 808.33 81.5214 808.147 81.5214C807.964 81.5214 807.918 81.4025 808.028 81.2195C808.138 81.0365 808.33 80.9175 808.513 80.9175C808.696 80.9175 808.742 81.0365 808.632 81.2195ZM806.353 82.5737C806.353 82.6561 806.235 82.7841 806.052 82.8939C805.878 82.9946 805.75 82.9397 805.75 82.7567C805.75 82.5737 805.878 82.4364 806.052 82.4364C806.235 82.4364 806.353 82.4914 806.353 82.5737ZM794.202 84.3946C794.202 84.4769 794.083 84.605 793.9 84.7148C793.726 84.8155 793.598 84.7606 793.598 84.5776C793.598 84.3946 793.726 84.2573 793.9 84.2573C794.083 84.2573 794.202 84.3122 794.202 84.3946ZM794.843 88.0271C794.998 88.3931 795.264 88.8689 795.465 89.1526C795.868 89.7107 795.007 92.1904 793.562 94.5877C793.113 95.3289 792.519 96.619 792.253 97.4151C791.988 98.202 791.576 99.1811 791.357 99.5379C791.128 99.9039 790.643 101.084 790.259 102.182C789.069 105.614 787.102 109.786 786.818 109.502C786.653 109.338 786.672 108.999 786.846 108.67C787.01 108.359 787.376 107.224 787.651 106.135C787.925 105.046 788.337 103.482 788.575 102.64C788.813 101.789 789.087 100.59 789.197 99.9039C789.307 99.236 790.002 96.7746 790.734 94.4688C791.466 92.163 792.07 90.0767 792.07 89.8663C792.07 89.6558 792.29 88.8049 792.574 87.9539C793.068 86.435 793.086 86.4259 793.818 86.9017C794.211 87.1579 794.687 87.6886 794.834 88.0271H794.843Z" fill="#F4CB78"/>
<path d="M730.744 88.7519C731.613 88.2943 732.958 87.3702 733.764 86.6748C734.578 85.9702 735.411 85.4212 735.667 85.4212C736.271 85.4212 738.384 83.3259 739.464 81.6514C739.967 80.8737 740.489 80.1051 740.654 79.9221C740.827 79.7299 740.946 79.4096 740.946 79.1534C740.946 78.8972 741.038 78.7234 741.166 78.7234C741.294 78.7234 741.752 78.0097 742.2 77.113C742.648 76.2163 743.17 75.3104 743.38 75.0634C743.884 74.4503 745.219 70.3145 745.174 69.5001C744.991 66.3251 742.676 65.5656 738.906 67.4231C736.692 68.5119 734.907 69.7838 732.537 71.9523L731 73.3523L732.492 68.9786C733.315 66.5721 734.002 64.2297 734.011 63.7722C734.029 63.2964 734.13 62.8114 734.258 62.6559C735.035 61.6494 735.328 57.541 734.77 55.4731C734.166 53.2405 731.751 51.0902 729.82 51.0719C729.024 51.0628 729.033 51.2824 729.902 52.4536C730.296 52.9843 730.607 53.698 730.607 54.0731C730.607 55.0705 729.82 57.9802 728.301 62.6467C725.254 71.9798 724.614 75.6581 724.998 81.6972C725.327 86.9767 725.858 88.1297 728.438 89.246C729.097 89.5296 729.39 89.4656 730.753 88.7519H730.744ZM728.484 84.5794C728.466 82.3102 728.877 81.2031 730.936 78.0737C731.522 77.177 732.007 76.3993 732.007 76.3444C732.007 75.8594 735.109 72.602 736.591 71.5315C737.369 70.9641 738.082 70.4151 738.156 70.3053C738.384 69.9942 741.029 68.6583 741.422 68.6583C741.88 68.6583 741.889 68.6034 741.12 70.6439C738.586 77.3509 734.331 83.5272 730.47 86.0983C728.786 87.2238 728.511 87.0133 728.484 84.5794Z" fill="#F4CB78"/>
<path d="M624.344 4.67173C622.679 5.01943 619.696 6.82199 616.722 9.29251C614.472 11.1591 613.63 12.0833 614.051 12.2297C614.215 12.2937 614.554 12.0833 614.783 11.7813C615.011 11.4794 615.213 11.3696 615.222 11.5526C615.24 12.129 613.822 13.2819 613.584 12.8885C613.428 12.6414 613.026 12.8519 612.33 13.529C611.242 14.5904 611.004 15.2034 611.818 14.8923C612.175 14.7642 612.093 14.9838 611.544 15.7158C608.323 19.9706 604.471 25.7169 602.65 28.9834C602.229 29.7429 601.762 30.5481 601.597 30.8043C601.442 31.0513 600.838 32.2958 600.261 33.5402C599.685 34.7846 598.98 36.3309 598.697 36.9531C598.404 37.5936 597.727 38.5818 597.15 39.2132C596.592 39.8171 596.098 40.5583 596.071 40.8236C595.952 42.0955 595.485 43.9621 595.202 44.3189C595.064 44.4928 594.964 44.9686 594.973 45.4261C594.973 45.8744 594.726 46.6064 594.378 47.1005C594.039 47.5763 593.6 48.409 593.39 48.9489C593.179 49.4887 592.887 49.8639 592.74 49.7724C592.594 49.6809 592.548 49.8181 592.649 50.0652C592.749 50.3122 592.594 51.1449 592.31 51.8677C592.036 52.5997 591.889 53.3775 591.99 53.5513C592.1 53.7343 592.054 53.8899 591.898 53.8899C591.743 53.8899 591.459 54.265 591.276 54.7225C591.002 55.3996 590.443 55.7382 588.257 56.5434C586.765 57.0924 585.411 57.5316 585.219 57.5316C585.036 57.5316 584.871 57.6872 584.871 57.8702C584.871 58.0623 585.219 58.1355 585.704 58.0349C586.189 57.9342 587.314 57.7878 588.284 57.6872C589.254 57.5865 590.105 57.3852 590.196 57.2297C590.471 56.7813 590.938 56.8911 590.938 57.4127C590.938 57.6597 590.819 57.797 590.681 57.7146C590.544 57.6323 590.242 58.3185 590.032 59.2335C589.812 60.1485 589.519 60.972 589.382 61.0544C589.245 61.1367 589.126 61.8321 589.126 62.555C589.126 63.2778 588.989 63.9092 588.824 63.9092C588.65 63.9092 588.595 64.2112 588.705 64.6412C588.806 65.0347 588.742 65.4647 588.568 65.5654C588.394 65.6752 588.312 66.2333 588.385 66.8098C588.467 67.4137 588.385 67.862 588.22 67.862C587.753 67.862 587.305 69.2254 587.131 71.1743C587.049 72.0894 586.902 72.9678 586.811 73.1142C586.719 73.2606 586.655 74.0292 586.655 74.7886C586.655 75.5481 586.546 76.335 586.399 76.518C586.061 76.9389 585.85 79.0983 586.152 79.0983C586.289 79.0983 586.399 79.3728 586.399 79.7022C586.399 80.0316 586.28 80.3061 586.125 80.3061C585.301 80.3061 585.649 85.4118 586.674 88.3582C587.323 90.2431 588.714 91.8535 589.675 91.8535C589.977 91.8535 590.352 91.9724 590.508 92.1097C590.663 92.2469 591.432 92.4482 592.191 92.5489C593.371 92.7044 593.792 92.6038 594.927 91.8901C596.949 90.6091 600.152 86.5373 600.993 84.1674C601.213 83.5635 601.506 83.042 601.634 83.042C601.762 83.042 601.881 82.8407 601.881 82.6302C601.881 82.4015 602.201 81.6146 602.613 80.8551C603.016 80.0957 603.446 79.0251 603.574 78.4578C603.702 77.8905 604.306 76.1154 604.937 74.5141C606.566 70.3234 607.746 65.6386 607.591 63.9458C607.435 62.2439 606.026 59.1969 605.129 58.6205C603.382 57.5042 601.726 57.7695 599.054 59.5904C596.803 61.1276 595.028 62.8569 593.609 64.8791C592.932 65.849 592.319 66.6359 592.255 66.6359C591.999 66.6359 592.987 61.9877 593.609 60.2583C593.701 60.0113 593.747 59.6178 593.71 59.4074C593.673 59.1786 593.802 58.8309 594.003 58.5839C594.204 58.3368 594.268 58.0257 594.158 57.8427C594.049 57.6597 594.094 57.5225 594.277 57.5225C594.46 57.5225 594.598 57.2663 594.598 56.9277C594.598 56.5892 594.726 56.2598 594.9 56.15C595.083 56.0401 595.156 55.8846 595.083 55.7565C595.019 55.6375 595.568 55.2715 596.3 54.9513C597.032 54.631 597.635 54.2376 597.635 54.1003C597.635 53.9631 597.91 53.9265 598.212 54.0271C598.578 54.1461 598.852 54.0271 598.953 53.7343C599.045 53.469 599.374 53.2677 599.712 53.2677C600.051 53.2677 600.701 52.9383 601.213 52.5082C601.726 52.0782 602.256 51.7488 602.43 51.7488C602.595 51.7488 602.814 51.5383 602.897 51.2913C602.979 51.0442 603.19 50.8704 603.336 50.9161C603.482 50.9619 604.214 50.5135 604.946 49.9279C605.678 49.3515 607.316 48.1254 608.561 47.2378C609.805 46.3502 610.903 45.5267 610.995 45.4169C611.077 45.3071 611.507 44.9869 611.937 44.7124C612.678 44.2366 615.487 41.7203 617.436 39.8079C617.894 39.3596 618.287 38.7648 618.287 38.5269C618.287 38.289 618.479 38.0877 618.708 38.0877C619.101 38.0877 621.901 34.812 623.027 33.0186C623.329 32.5428 623.869 31.7925 624.262 31.2984C624.656 30.8134 624.957 30.237 624.957 29.9808C624.957 29.7246 625.278 29.1481 625.69 28.6632C626.083 28.1965 626.513 27.2358 626.632 26.5678C626.751 25.8999 626.971 25.3417 627.117 25.3417C627.263 25.3417 627.391 25.0855 627.391 24.747C627.391 24.4084 627.51 23.8502 627.666 23.4568C627.812 23.0725 628.169 21.9379 628.453 20.9405C628.736 19.9432 629.176 18.5066 629.423 17.7472C629.725 16.8413 629.88 14.9655 629.889 12.1748L629.908 7.96575L627.977 6.17234C626.916 5.18413 625.909 4.39722 625.726 4.40637C625.552 4.42467 624.921 4.53448 624.344 4.65343V4.67173ZM625.561 11.4977C625.561 13.7486 624.5 19.7236 623.548 22.8254C622.761 25.3783 621.947 27.0802 619.742 30.7494C619.101 31.8108 618.571 32.799 618.571 32.918C618.571 33.0369 618.241 33.4761 617.857 33.8787C617.473 34.2722 616.137 35.7728 614.938 37.1727C613.74 38.5727 612.367 40.0184 611.928 40.357C611.479 40.7047 610.702 41.3818 610.153 41.8942C608.451 43.4863 606.932 44.7673 605.358 45.9202C604.507 46.5424 603.629 47.2652 603.354 47.5763C603.089 47.8783 602.714 48.1254 602.522 48.1254C602.339 48.1254 602.174 48.2718 602.174 48.4273C602.174 48.5829 602.018 48.7293 601.835 48.7293C601.552 48.7293 599.859 49.8913 598.065 51.3187C596.611 52.4808 595.659 52.7644 596.547 51.7671C596.958 51.3096 597.004 51.0534 596.739 50.7514C596.473 50.4403 596.51 50.239 596.876 49.9188C597.361 49.4979 597.846 48.4822 598.065 47.4208C598.13 47.0914 598.358 46.5698 598.596 46.2038C598.99 45.5999 600.143 42.7085 600.554 41.2811C600.646 40.9517 601.039 40.1922 601.396 39.6066C602.101 38.4812 602.613 36.9623 602.494 36.3309C602.458 36.1388 602.631 35.9649 602.842 35.9649C603.071 35.9649 603.766 34.995 604.406 33.7781C606.667 29.4958 606.868 29.139 607.234 28.9011C607.444 28.7638 607.627 28.4893 607.627 28.3063C607.627 27.9769 609.549 25.177 612.422 21.3248C616.018 16.4936 621.279 11.3787 623.75 10.3173C625.406 9.60361 625.543 9.69511 625.543 11.4885L625.561 11.4977ZM603.519 61.2465C603.4 61.6125 603.318 62.738 603.336 63.7354C603.382 66.3431 601.378 73.0867 599.328 77.2225C598.441 79.0159 597.535 80.9466 597.306 81.5322C597.077 82.1178 596.29 83.6916 595.558 85.0275C593.143 89.4013 591.752 90.6274 590.938 89.0993C590.343 87.9739 589.849 84.4511 589.885 81.5048L589.913 78.5859L591.798 74.8161C592.832 72.7482 593.683 70.9639 593.683 70.8724C593.683 70.5155 595.924 66.8372 597.37 64.8334C598.413 63.3785 599.292 62.5641 600.701 61.7223C602.952 60.3864 603.857 60.24 603.528 61.2465H603.519ZM592.219 61.5485C592.008 61.7589 591.853 61.7864 591.853 61.6125C591.853 61.2191 592.228 60.8439 592.429 61.0452C592.521 61.1276 592.429 61.338 592.219 61.5576V61.5485ZM590.636 63.6164C590.636 63.7994 590.517 63.9184 590.334 63.9184C590.151 63.9184 590.032 63.7994 590.032 63.6164C590.032 63.4334 590.151 63.3144 590.334 63.3144C590.517 63.3144 590.636 63.4334 590.636 63.6164Z" fill="#F4CB78"/>
<path d="M609.724 16.7589C609.358 17.2347 609.376 17.2438 609.861 16.8687C610.373 16.4661 610.52 16.2282 610.254 16.2282C610.181 16.2282 609.962 16.4569 609.724 16.7589Z" fill="#F4CB78"/>
<path d="M608.368 18.4333L607.791 19.1195L608.459 18.5522C609.1 18.0124 609.283 17.7561 609.036 17.7561C608.99 17.7561 608.679 18.0764 608.368 18.4424V18.4333Z" fill="#F4CB78"/>
<path d="M603.848 24.9113C603.574 25.3322 603.482 25.6067 603.665 25.4969C604.031 25.2773 604.718 24.1244 604.489 24.1244C604.425 24.1244 604.132 24.4904 603.848 24.9113Z" fill="#F4CB78"/>
<path d="M501.001 50.7002C500.333 51.1028 499.967 51.6243 499.775 52.4479C499.574 53.2988 499.254 53.738 498.604 54.0766C498.119 54.3236 497.643 54.6164 497.561 54.7171C494.77 58.2124 490.643 65.7886 491 66.7402C491.101 66.9964 490.918 67.5637 490.589 68.0121C489.728 69.2291 489.216 71.4068 489.71 71.7179C490.076 71.9466 489.866 72.1022 489.289 72.0381C489.024 72.0015 488.447 74.5178 488.255 76.5491C488.173 77.455 488.026 79.0105 487.935 79.9529C487.798 81.3529 487.898 81.9568 488.447 83.0822C489.07 84.3541 491.412 86.5776 492.144 86.5776C493.05 86.5776 497.835 81.0509 500.416 77.0066C500.956 76.1557 503.27 73.2368 503.655 72.9165C503.847 72.7518 505.101 71.1414 508.029 67.2801C508.925 66.0997 510.133 64.6174 510.746 63.9403L511.853 62.7234L511.606 66.0631C511.469 67.9023 511.359 72.4682 511.359 76.238C511.359 83.924 511.579 85.0861 513.482 87.5658C514.443 88.8193 515.861 89.6611 518.167 90.3565C518.789 90.5487 518.853 90.4755 518.762 89.716C518.688 89.103 518.295 88.618 517.352 87.9867C515.962 87.0442 515.358 86.1018 515.056 84.409C514.424 80.9137 515.495 68.3324 516.474 67.701C516.62 67.6003 517.124 66.0997 517.581 64.3704C518.039 62.641 518.899 60.1797 519.475 58.9352C520.052 57.6908 520.72 56.1719 520.948 55.5955C521.168 55.019 521.543 54.2504 521.763 53.921C522.833 52.3381 521.781 51.1851 518.981 50.874C516.675 50.6178 515.458 51.1302 515.458 52.3381C515.458 52.7224 515.001 53.4727 514.452 54.0034C513.363 55.0556 513.024 55.1929 513.015 54.589C513.006 53.7929 511.844 52.9054 509.081 51.5786C506.565 50.3616 505.924 50.1878 504.067 50.1603C502.456 50.1329 501.706 50.2701 500.983 50.7093L501.001 50.7002ZM510.462 54.9733C510.902 55.138 511.826 55.3027 512.466 55.3301L513.647 55.3759L511.881 57.2242C510.279 58.8986 507.983 61.6254 505.585 64.6906C504.039 66.667 501.047 70.2905 500.708 70.6107C500.525 70.7754 499.922 71.5074 499.391 72.212C498.86 72.9074 498.211 73.5021 497.982 73.5021C497.735 73.5021 497.561 73.6302 497.561 73.8041C497.561 74.3165 494.55 77.3452 494.541 76.8419C494.541 76.3936 495.282 74.1426 496.262 71.6813C496.49 71.1048 496.774 70.3362 496.875 70.0068C497.277 68.735 500.873 61.9914 502.328 59.7679C505.128 55.5131 507.791 53.9485 510.472 54.9641L510.462 54.9733Z" fill="#F4CB78"/>
<path d="M617.232 50.4407C616.445 50.761 616.299 51.7034 616.957 52.2524C617.36 52.5818 617.342 52.8106 616.82 54.119C616.491 54.9425 615.832 56.3974 615.338 57.3673C613.965 60.1032 611.165 68.0454 610.744 70.4244C610.534 71.5865 610.433 73.5812 610.525 74.8256C610.69 77.287 611.467 78.751 613.041 79.5928C613.727 79.9588 613.965 79.9405 614.908 79.4372C615.512 79.1078 616.051 78.6869 616.134 78.4673C616.216 78.2569 616.454 78.0739 616.646 78.0739C617.067 78.0739 619.529 75.4936 621.66 72.8218C622.411 71.8793 623.463 70.6074 624.021 69.9669C624.579 69.3264 625.028 68.7134 625.028 68.5853C625.028 68.4572 625.961 67.2677 627.077 65.9592C628.194 64.6508 629.877 62.6469 630.765 61.558C631.661 60.4692 632.458 59.6091 632.522 59.6731C632.586 59.7372 632.238 61.009 631.735 62.5005C630.481 66.2337 630.225 67.2677 629.685 71.0009C629.154 74.6426 628.999 76.2713 628.999 78.5314C628.999 79.3823 628.999 80.3705 628.981 80.7823C628.981 81.1849 629.154 82.1457 629.392 82.9417C630.481 86.5834 632.458 88.5324 635.468 88.9076C637.17 89.118 639.595 88.1206 640.125 86.986C640.665 85.8331 640.308 85.6044 639.357 86.5011C638.67 87.1416 638.323 87.2422 637.234 87.1141C635.596 86.922 634.535 86.1717 633.702 84.5979C633.19 83.628 633.071 82.8319 633.043 80.2516C633.016 77.0582 633.812 71.4035 634.388 70.7172C634.782 70.2414 635.953 67.1304 635.953 66.554C635.953 66.2886 636.429 65.2821 637.014 64.303C637.6 63.324 638.076 62.409 638.076 62.2351C638.076 62.0613 638.524 61.311 639.091 60.5149C639.659 59.728 640.208 58.7856 640.336 58.3738C640.464 57.9712 640.958 56.9739 641.443 56.1595C641.928 55.336 642.321 54.5491 642.321 54.3935C642.321 54.238 642.751 53.6798 643.245 53.1674C643.977 52.408 644.096 52.1243 643.813 51.7858C643.236 51.0995 641.644 50.4316 640.125 50.2394C638.121 49.9924 637.261 50.2852 636.895 51.3283C636.721 51.8315 635.029 53.7896 633.144 55.6745C629.932 58.8862 628.706 60.2038 625.796 63.5436C623.683 65.9775 620.91 69.0885 620.297 69.7382C619.968 70.0859 618.998 71.193 618.174 72.1721C616.582 74.057 616.079 74.5603 615.219 75.0635C614.441 75.5302 614.395 75.0269 615.063 73.5355C615.402 72.7943 616.015 71.4126 616.417 70.4976C616.82 69.5826 617.351 68.4297 617.589 67.9631C617.827 67.4781 618.01 66.9749 618.01 66.8285C618.01 66.6821 618.549 65.4285 619.227 64.0377C621.011 60.3319 622.264 56.2601 622.264 54.2014C622.264 52.8014 622.1 52.2067 621.487 51.3008C620.782 50.2577 620.59 50.1662 619.281 50.1754C618.495 50.1754 617.552 50.3126 617.186 50.459L617.232 50.4407Z" fill="#F4CB78"/>
<path d="M657.277 46.7535C656.875 47.0097 656.884 47.092 657.341 47.4489C658.366 48.2541 659.08 50.139 658.915 51.603C658.266 57.1296 657.826 59.7008 657.341 60.6799C655.841 63.7177 653.819 67.3319 652.574 69.1803C651.824 70.3057 651.211 71.3854 651.211 71.5959C651.211 71.8063 651.101 71.971 650.964 71.971C650.827 71.971 649.729 73.4625 648.53 75.2468C644.824 80.8008 637.861 88.4411 635.226 89.8319C634.485 90.2254 634.356 90.1796 633.112 88.9627L631.794 87.6725L631.602 88.7065C631.373 89.9509 631.721 90.9391 632.81 92.0737C633.441 92.7417 633.908 92.9247 634.942 92.9247C635.82 92.9247 636.315 92.7691 636.434 92.4672C636.525 92.2201 636.745 92.0097 636.9 92.0097C637.989 92.0097 642.61 86.6935 644.458 83.3262C644.678 82.9328 644.989 82.5942 645.144 82.5942C645.3 82.5942 645.437 82.4295 645.437 82.2191C645.437 82.0086 645.886 81.3498 646.444 80.7459C647.633 79.4558 649.719 76.4637 650.817 74.4598C651.247 73.6729 651.833 72.7579 652.117 72.4285C652.4 72.0991 653.233 70.8181 653.965 69.6012C655.685 66.7463 655.795 66.5725 656.6 65.2915L657.277 64.2301L657.296 69.0888C657.332 81.6884 657.588 84.0217 659.354 88.066C660.15 89.8868 660.983 90.8476 662.255 91.4332C664.533 92.4672 665.165 91.9731 664.012 90.0424C662.895 88.1758 662.648 86.7026 662.667 81.9354C662.676 77.1408 662.932 73.0965 663.316 71.5227C663.435 71.0286 663.563 69.8482 663.6 68.9424C663.673 67.1032 664.103 64.2667 664.725 61.5034C666.025 55.7937 666.244 53.6709 665.759 51.8501C664.982 48.9312 659.263 45.5091 657.268 46.7626L657.277 46.7535Z" fill="#F4CB78"/>
<path d="M552.16 48.447C551.373 48.6666 551.2 48.9136 550.879 50.2495C550.074 53.6533 546.89 58.5395 543.504 61.5864C540.622 64.1851 534.528 68.4673 533.723 68.4673C533.366 68.4673 533.421 67.3327 533.787 67.1039C533.952 67.0033 534.089 66.5824 534.089 66.1889C534.089 65.4844 534.51 63.755 535.901 58.6859C536.505 56.499 536.431 55.7213 535.525 54.4036C534.766 53.2965 533.476 52.6651 531.838 52.6011C530.777 52.5553 530.292 52.7109 529.679 53.2782C528.919 53.9827 528.91 54.0193 529.523 54.2481C530.237 54.5134 530.292 55.1631 529.825 57.5604C529.477 59.3447 528.809 63.755 528.132 68.7692C527.766 71.4685 527.592 72.0267 527.007 72.4201C525.332 73.5273 523.768 75.2566 523.594 76.1808C523.502 76.6932 523.63 78.1572 523.877 79.4016C524.124 80.646 524.417 82.3022 524.527 83.0433C524.811 85.0746 525.515 87.0602 526.266 87.902C527.235 88.9909 529.843 90.4457 530.2 90.0889C530.347 89.9425 530.511 87.9935 530.566 85.7426C530.694 80.1885 531.838 73.0698 532.716 72.3286C532.89 72.1914 533.686 71.6607 534.537 71.1208C538.179 68.8333 540.338 67.415 540.604 67.1222C540.768 66.9392 541.674 66.2804 542.58 65.6674C543.495 65.0543 544.923 63.9106 545.728 63.1511C546.551 62.3733 547.256 61.806 547.32 61.8792C547.384 61.9433 547.164 63.9472 546.835 66.317C545.957 72.5757 545.938 80.8199 546.798 84.0498C547.576 86.9962 549.37 90.464 550.541 91.2967C551.721 92.1385 553.569 92.3672 554.1 91.7359C554.603 91.1411 554.429 90.1987 553.826 90.1804C553.03 90.1621 552.471 89.6131 551.611 88.0027C550.266 85.4772 549.818 82.659 550.037 78.0748C550.367 71.1483 550.596 69.3182 551.547 66.0517C551.767 65.3014 552.169 63.6544 552.444 62.4099C552.718 61.1655 553.203 59.5826 553.505 58.9146C553.816 58.2467 554.512 56.6088 555.052 55.2729C555.592 53.937 556.15 52.72 556.278 52.5736C556.937 51.8233 556.159 49.3437 555.097 48.7947C554.173 48.3189 553.094 48.1999 552.151 48.4653L552.16 48.447ZM527.199 76.9128C527.098 78.1297 526.924 79.0997 526.805 79.0997C526.293 79.0997 525.588 76.7023 525.872 75.9429C526.11 75.3024 527.089 74.4423 527.318 74.671C527.354 74.7076 527.3 75.705 527.199 76.9219V76.9128Z" fill="#F4CB78"/>
<path d="M680.229 52.2517C678.618 52.6817 676.551 54.2921 674.51 56.6895C668.983 63.1951 666.467 76.1882 669.322 83.4168C669.77 84.5422 671.664 86.5735 672.817 87.1683C673.357 87.4428 674.73 87.7356 675.919 87.818C677.987 87.9644 678.097 87.9369 679.899 86.7657C681.574 85.6768 683.971 83.0965 683.971 82.3828C683.971 82.2273 684.099 81.9619 684.282 81.7423C684.831 81.1018 686.698 78.0548 686.698 77.7986C686.698 77.6705 686.936 77.1947 687.22 76.7647C687.878 75.7582 689.123 72.7112 689.123 72.089C689.123 71.8145 689.223 71.5034 689.351 71.3753C689.489 71.238 689.589 71.0642 689.608 70.9544C689.626 70.8446 689.736 70.4877 689.864 70.1492C690.559 68.3009 690.715 67.8159 690.98 66.7454C691.145 66.114 691.419 65.0435 691.593 64.3755C691.767 63.7076 691.978 62.82 692.051 62.3991C692.124 61.9782 692.234 61.5939 692.298 61.5298C692.362 61.4658 692.215 60.9534 691.968 60.3495C691.657 59.59 691.621 59.1783 691.849 58.9495C692.078 58.7208 692.17 58.7665 692.17 59.1325C692.17 59.407 692.298 59.709 692.444 59.8005C692.746 59.9835 692.691 58.5652 692.38 58.2633C692.279 58.1626 692.344 57.7143 692.508 57.2934C692.911 56.2869 692.883 54.0725 692.462 53.9353C692.307 53.8804 692.161 53.5601 692.161 53.2582C692.161 52.5628 691.172 51.968 690.733 52.4072C690.568 52.5719 690.495 53.3222 690.578 54.0817C690.751 55.628 690.065 60.8802 689.699 60.8802C689.562 60.8802 689.297 61.6579 689.095 62.6278C688.894 63.5977 688.546 64.586 688.317 64.8422C688.098 65.0984 687.814 65.9951 687.714 66.8186C687.604 67.6695 687.274 68.5571 686.954 68.8682C686.652 69.161 686.396 69.6551 686.396 69.9296C686.396 70.2041 685.966 71.2015 685.454 72.1165C684.932 73.0406 684.026 74.6693 683.431 75.7582C680.915 80.3424 677.301 84.6246 675.581 85.0546C674.428 85.3383 673.952 84.6886 673.293 81.9528C672.415 78.3019 672.744 75.9961 675.032 69.6825C675.306 68.9322 676.084 67.2852 676.752 66.0408C677.813 64.0736 678.518 63.0945 680.714 60.5782C681.327 59.8737 683.843 57.8424 685.911 56.3967C686.918 55.6921 687.851 54.9143 687.988 54.6581C688.391 53.9353 687.155 52.4438 686.003 52.2608C683.697 51.8948 681.583 51.8948 680.229 52.2608V52.2517Z" fill="#F4CB78"/>
<path d="M570.617 52.2517C569.006 52.6817 566.938 54.2921 564.898 56.6895C559.371 63.1951 556.855 76.1882 559.71 83.4168C560.158 84.5422 562.052 86.5735 563.205 87.1683C563.745 87.4428 565.117 87.7356 566.307 87.818C568.375 87.9644 568.485 87.9369 570.287 86.7657C571.962 85.6768 574.359 83.0965 574.359 82.3828C574.359 82.2273 574.487 81.9619 574.67 81.7423C575.219 81.1018 577.086 78.0548 577.086 77.7986C577.086 77.6705 577.324 77.1947 577.607 76.7647C578.266 75.7582 579.51 72.7112 579.51 72.089C579.51 71.8145 579.611 71.5034 579.739 71.3753C579.876 71.238 579.977 71.0642 579.995 70.9544C580.014 70.8446 580.123 70.4877 580.252 70.1492C580.947 68.3009 581.103 67.8159 581.368 66.7454C581.533 66.114 581.807 65.0435 581.981 64.3755C582.155 63.7076 582.365 62.82 582.438 62.3991C582.512 61.9782 582.621 61.5939 582.685 61.5298C582.75 61.4658 582.603 60.9534 582.356 60.3495C582.045 59.59 582.008 59.1783 582.237 58.9495C582.466 58.7208 582.557 58.7665 582.557 59.1325C582.557 59.407 582.685 59.709 582.832 59.8005C583.134 59.9835 583.079 58.5652 582.768 58.2633C582.667 58.1626 582.731 57.7143 582.896 57.2934C583.299 56.2869 583.271 54.0725 582.85 53.9353C582.695 53.8804 582.548 53.5601 582.548 53.2582C582.548 52.5628 581.56 51.968 581.121 52.4072C580.956 52.5719 580.883 53.3222 580.965 54.0817C581.139 55.628 580.453 60.8802 580.087 60.8802C579.95 60.8802 579.684 61.6579 579.483 62.6278C579.282 63.5977 578.934 64.586 578.705 64.8422C578.486 65.0984 578.202 65.9951 578.101 66.8186C577.992 67.6695 577.662 68.5571 577.342 68.8682C577.04 69.161 576.784 69.6551 576.784 69.9296C576.784 70.2041 576.354 71.2015 575.841 72.1165C575.32 73.0406 574.414 74.6693 573.819 75.7582C571.303 80.3424 567.689 84.6246 565.968 85.0546C564.815 85.3383 564.34 84.6886 563.681 81.9528C562.802 78.3019 563.132 75.9961 565.419 69.6825C565.694 68.9322 566.472 67.2852 567.14 66.0408C568.201 64.0736 568.905 63.0945 571.101 60.5782C571.715 59.8737 574.231 57.8424 576.299 56.3967C577.305 55.6921 578.239 54.9143 578.376 54.6581C578.778 53.9353 577.543 52.4438 576.39 52.2608C574.084 51.8948 571.971 51.8948 570.617 52.2608V52.2517Z" fill="#F4CB78"/>
<path d="M394.748 52.2517C393.137 52.6817 391.069 54.2921 389.029 56.6895C383.502 63.1951 380.986 76.1882 383.841 83.4168C384.289 84.5422 386.183 86.5735 387.336 87.1683C387.876 87.4428 389.248 87.7356 390.438 87.818C392.506 87.9644 392.616 87.9369 394.418 86.7657C396.093 85.6768 398.49 83.0965 398.49 82.3828C398.49 82.2273 398.618 81.9619 398.801 81.7423C399.35 81.1018 401.217 78.0548 401.217 77.7986C401.217 77.6705 401.455 77.1947 401.738 76.7647C402.397 75.7582 403.641 72.7112 403.641 72.089C403.641 71.8145 403.742 71.5034 403.87 71.3753C404.007 71.238 404.108 71.0642 404.126 70.9544C404.145 70.8446 404.255 70.4877 404.383 70.1492C405.078 68.3009 405.234 67.8159 405.499 66.7454C405.664 66.114 405.938 65.0435 406.112 64.3755C406.286 63.7076 406.496 62.82 406.57 62.3991C406.643 61.9782 406.753 61.5939 406.817 61.5298C406.881 61.4658 406.734 60.9534 406.487 60.3495C406.176 59.59 406.139 59.1783 406.368 58.9495C406.597 58.7208 406.688 58.7665 406.688 59.1325C406.688 59.407 406.817 59.709 406.963 59.8005C407.265 59.9835 407.21 58.5652 406.899 58.2633C406.798 58.1626 406.862 57.7143 407.027 57.2934C407.43 56.2869 407.402 54.0725 406.981 53.9353C406.826 53.8804 406.679 53.5601 406.679 53.2582C406.679 52.5628 405.691 51.968 405.252 52.4072C405.087 52.5719 405.014 53.3222 405.096 54.0817C405.27 55.628 404.584 60.8802 404.218 60.8802C404.081 60.8802 403.815 61.6579 403.614 62.6278C403.413 63.5977 403.065 64.586 402.836 64.8422C402.617 65.0984 402.333 65.9951 402.232 66.8186C402.123 67.6695 401.793 68.5571 401.473 68.8682C401.171 69.161 400.915 69.6551 400.915 69.9296C400.915 70.2041 400.485 71.2015 399.972 72.1165C399.451 73.0406 398.545 74.6693 397.95 75.7582C395.434 80.3424 391.82 84.6246 390.099 85.0546C388.947 85.3383 388.471 84.6886 387.812 81.9528C386.933 78.3019 387.263 75.9961 389.55 69.6825C389.825 68.9322 390.603 67.2852 391.271 66.0408C392.332 64.0736 393.037 63.0945 395.233 60.5782C395.846 59.8737 398.362 57.8424 400.43 56.3967C401.436 55.6921 402.37 54.9143 402.507 54.6581C402.91 53.9353 401.674 52.4438 400.521 52.2608C398.216 51.8948 396.102 51.8948 394.748 52.2608V52.2517Z" fill="#F4CB78"/>
<path d="M720.929 49.6472C721.02 49.8943 720.929 50.3152 720.736 50.5623C720.416 50.9649 720.133 50.9648 718.394 50.5988C715.658 50.0132 713.05 50.0315 712.813 50.6263C712.703 50.9008 712.511 51.0472 712.373 50.9648C711.934 50.6903 706.353 55.2471 704.495 57.4065C702.848 59.3189 700.78 62.1096 700.78 62.4207C700.78 62.4848 700.094 63.6926 699.261 65.0925C698.429 66.4925 697.742 67.7369 697.742 67.8559C697.742 67.9748 697.285 69.0728 696.727 70.2898C694.824 74.4531 694.092 81.4162 695.171 85.0763C696.297 88.8918 699.774 90.4748 704.934 89.5324C707.368 89.084 712.154 85.7534 713.197 83.7678C713.426 83.3469 713.792 82.9809 713.993 82.9809C714.194 82.9809 714.441 82.7064 714.524 82.377C714.606 82.0384 714.542 81.7731 714.386 81.7731C714.212 81.7731 714.167 81.6542 714.277 81.4711C714.386 81.2882 714.578 81.2332 714.743 81.3339C714.899 81.4254 715.036 81.2882 715.036 81.0411C715.036 80.5744 715.521 79.8607 716.646 78.6712C716.921 78.3784 717.168 77.802 717.168 77.4451C717.168 76.8961 717.113 76.8504 716.875 77.1981C716.72 77.4451 716.482 77.5366 716.363 77.4085C716.235 77.2804 716.335 77.0517 716.573 76.8961C716.866 76.704 717.131 76.7772 717.378 77.1066C717.689 77.5366 717.735 77.4817 717.68 76.7314C717.644 76.155 717.754 75.8805 718.019 75.9262C718.293 75.9811 718.33 75.853 718.129 75.487C717.973 75.2125 717.955 74.7459 718.083 74.4805C718.65 73.355 718.961 72.44 719.108 71.4427L719.263 70.3813L718.751 71.4427C718.467 72.0191 718.083 72.6413 717.9 72.806C717.717 72.9707 717.04 73.8674 716.408 74.7824C712.511 80.4006 704.513 86.9337 701.53 86.9337C698.548 86.9337 697.742 79.7692 699.993 74.4805C700.46 73.3916 701.036 71.9642 701.293 71.2871C702.134 69.0637 704.147 65.184 705.74 62.7227C707.606 59.8313 712.492 55.6314 715.805 54.0759C718.449 52.8315 718.998 52.9779 717.818 54.6066C717.305 55.3203 716.482 56.6562 715.969 57.6261C715.457 58.596 714.926 59.5202 714.771 59.7032C714.624 59.8862 714.405 60.5267 714.286 61.1031C714.167 61.6887 713.801 62.741 713.471 63.4455C712.73 65.0285 712.813 67.2794 713.618 67.4258C713.965 67.4899 714.231 67.2611 714.441 66.7395C714.606 66.3186 715.054 65.6232 715.42 65.2023C716.582 63.8939 720.636 59.7672 721.276 59.2457C722.704 58.0653 726.894 52.621 726.721 52.1727C726.647 51.9897 725.769 51.3034 724.735 50.6172C722.823 49.3636 720.581 48.7963 720.919 49.6472H720.929Z" fill="#F4CB78"/>
<path d="M433.617 49.6472C433.709 49.8943 433.617 50.3152 433.425 50.5623C433.105 50.9649 432.821 50.9648 431.083 50.5988C428.347 50.0132 425.739 50.0315 425.501 50.6263C425.391 50.9008 425.199 51.0472 425.062 50.9648C424.623 50.6903 419.041 55.2471 417.184 57.4065C415.537 59.3189 413.469 62.1096 413.469 62.4207C413.469 62.4848 412.782 63.6926 411.95 65.0925C411.117 66.4925 410.431 67.7369 410.431 67.8559C410.431 67.9748 409.973 69.0728 409.415 70.2898C407.512 74.4531 406.78 81.4162 407.86 85.0763C408.985 88.8918 412.462 90.4748 417.623 89.5324C420.057 89.084 424.842 85.7534 425.885 83.7678C426.114 83.3469 426.48 82.9809 426.681 82.9809C426.883 82.9809 427.13 82.7064 427.212 82.377C427.294 82.0384 427.23 81.7731 427.075 81.7731C426.901 81.7731 426.855 81.6542 426.965 81.4711C427.075 81.2882 427.267 81.2332 427.432 81.3339C427.587 81.4254 427.724 81.2882 427.724 81.0411C427.724 80.5744 428.209 79.8607 429.335 78.6712C429.609 78.3784 429.856 77.802 429.856 77.4451C429.856 76.8961 429.802 76.8504 429.564 77.1981C429.408 77.4451 429.17 77.5366 429.051 77.4085C428.923 77.2804 429.024 77.0517 429.262 76.8961C429.554 76.704 429.82 76.7772 430.067 77.1066C430.378 77.5366 430.424 77.4817 430.369 76.7314C430.332 76.155 430.442 75.8805 430.707 75.9262C430.982 75.9811 431.018 75.853 430.817 75.487C430.662 75.2125 430.643 74.7459 430.771 74.4805C431.339 73.355 431.65 72.44 431.796 71.4427L431.952 70.3813L431.439 71.4427C431.156 72.0191 430.771 72.6413 430.588 72.806C430.405 72.9707 429.728 73.8674 429.097 74.7824C425.199 80.4006 417.202 86.9337 414.219 86.9337C411.236 86.9337 410.431 79.7692 412.682 74.4805C413.148 73.3916 413.725 71.9642 413.981 71.2871C414.823 69.0637 416.836 65.184 418.428 62.7227C420.295 59.8313 425.181 55.6314 428.493 54.0759C431.137 52.8315 431.686 52.9779 430.506 54.6066C429.994 55.3203 429.17 56.6562 428.658 57.6261C428.145 58.596 427.615 59.5202 427.459 59.7032C427.313 59.8862 427.093 60.5267 426.974 61.1031C426.855 61.6887 426.489 62.741 426.16 63.4455C425.419 65.0285 425.501 67.2794 426.306 67.4258C426.654 67.4899 426.919 67.2611 427.13 66.7395C427.294 66.3186 427.743 65.6232 428.109 65.2023C429.271 63.8939 433.324 59.7672 433.965 59.2457C435.392 58.0653 439.583 52.621 439.409 52.1727C439.336 51.9897 438.457 51.3034 437.424 50.6172C435.511 49.3636 433.269 48.7963 433.608 49.6472H433.617Z" fill="#F4CB78"/>
<path d="M460.447 43.5153C459.797 44.2107 459.761 44.4303 459.962 46.6446C460.081 47.9531 460.383 49.4171 460.63 49.8929C461.023 50.634 461.225 50.7347 462.039 50.5791C462.56 50.4785 464.089 50.2589 465.424 50.085C469.524 49.5635 469.78 49.5269 472.497 49.0419C477.631 48.1269 478.82 47.9714 482.425 47.7701C484.429 47.6603 486.277 47.5779 486.524 47.5779C494.723 47.7701 496.672 47.9439 497.523 48.5753C498.529 49.3164 499.216 49.2798 499.975 48.4472C500.384 48.0019 500.323 47.2943 499.792 46.3243C498.95 44.778 497.468 43.7715 496.031 43.7715C495.428 43.7715 494.833 43.6068 494.714 43.3963C494.586 43.1859 494.357 43.1035 494.183 43.2133C494.018 43.3231 490.477 43.2499 486.287 43.0486C479.644 42.7284 477.649 42.7558 470.301 43.2316C462.496 43.744 461.874 43.744 461.527 43.2774C461.188 42.829 461.078 42.8565 460.447 43.5244V43.5153Z" fill="#F4CB78"/>
<path d="M444.671 49.8926C444.36 50.2769 444.415 50.4873 444.927 50.9997C445.714 51.7866 445.714 52.9761 444.909 56.014C444.296 58.3289 443.527 60.3602 439.501 70.1691C437.424 75.2382 435.979 79.5662 435.32 82.7138L434.871 84.8366L435.713 86.017C436.793 87.5359 438.788 88.3503 439.373 87.5084C440.325 86.1268 441.084 85.0196 442.082 83.5282C442.667 82.6498 443.582 81.4786 444.095 80.9479C444.891 80.1152 446.217 78.459 448.102 75.9336C448.423 75.5036 449.182 74.5794 449.768 73.9115C450.353 73.2435 451.415 71.9991 452.11 71.1756C452.796 70.3521 453.83 69.1443 454.37 68.5038C454.919 67.8633 457.024 65.8045 459.028 63.9471C462.459 60.772 462.697 60.6073 462.779 61.3667C462.825 61.8059 462.257 64.0569 461.507 66.3627C459.146 73.6553 457.701 79.2185 457.682 81.0942C457.682 82.3661 457.801 82.6406 458.899 83.6288C459.842 84.4798 460.327 84.7085 460.976 84.5987C462.139 84.4066 464.27 83.0066 465.606 81.5518C466.247 80.8563 467.07 79.9688 467.473 79.5479C467.866 79.1361 468.589 78.3035 469.047 77.727C472.075 73.9023 473.375 72.5024 476.376 69.7939C478.718 67.6894 480.978 66.0241 481.207 66.2437C481.409 66.445 480.695 69.7024 479.597 73.6278C477.511 81.0394 477.227 87.3163 478.773 91.8822C479.542 94.1605 480.384 95.5513 481.573 96.5396C482.635 97.418 482.726 97.4454 483.248 96.9696C483.98 96.3016 483.952 95.7984 483.028 93.3645C481.207 88.5515 481.372 84.8275 483.742 77.727C485.672 71.9259 486.414 69.2449 486.844 66.5182C487.283 63.7274 487.091 61.6504 486.34 61.1105C485.453 60.47 482.909 60.6256 481.601 61.4033C478.069 63.517 471.92 68.5861 467.812 72.7769C466.119 74.5062 464.609 75.9062 464.444 75.9062C464.097 75.9062 464.948 72.9599 466.329 69.373C467.198 67.1221 468.15 64.1209 468.397 62.8399C468.479 62.419 468.846 60.955 469.221 59.5642C470.017 56.5904 469.843 56.2244 467.391 55.593C465.451 55.0989 464.353 55.3551 463.246 56.5538C462.248 57.6427 461.745 58.0636 459.796 59.4086C458.469 60.3328 449.768 68.9979 445.751 73.4082C444.616 74.6526 443.701 75.4578 443.701 75.2108C443.701 74.9637 444.195 73.6736 444.79 72.3742C445.385 71.0749 446.144 69.3913 446.464 68.6868C446.776 67.9914 447.041 67.2868 447.041 67.1496C447.041 66.811 448.908 63.3431 449.2 63.1418C449.319 63.0595 449.621 62.3824 449.887 61.6229C450.152 60.8635 450.582 59.8021 450.856 59.2348C451.14 58.6675 451.424 57.3956 451.515 56.3616C451.698 54.1473 450.994 52.3082 449.328 50.6886C448.477 49.8651 448.011 49.6547 446.675 49.5449C445.458 49.4442 444.955 49.5266 444.671 49.8834V49.8926Z" fill="#F4CB78"/>
<path d="M114.827 53.3047C109.877 54.2471 103.6 60.8992 99.3364 69.729C96.3626 75.8962 95.2737 83.875 96.9299 87.3429C97.8541 89.2827 99.4553 90.6552 101.276 91.0761C102.155 91.2774 103.271 91.4421 103.738 91.4421C104.982 91.4421 108.084 90.3441 109.722 89.3193C110.509 88.8252 111.524 88.2579 111.936 88.0932C112.366 87.9102 113.116 87.4527 113.665 87.0318C114.214 86.6109 114.754 86.2906 114.891 86.2906C115.029 86.2906 115.678 85.7965 116.346 85.1652C117.014 84.543 117.664 84.0763 117.819 84.1129C117.975 84.1587 118.368 83.9391 118.734 83.6005C119.082 83.2803 119.86 82.7679 120.436 82.4751C121.013 82.1823 121.571 81.862 121.653 81.7614C121.736 81.6607 122.138 81.4045 122.568 81.1849C122.98 80.9653 123.932 80.2425 124.664 79.5928C125.396 78.934 126.21 78.3941 126.457 78.3941C126.704 78.3941 127.217 78.1013 127.61 77.7262C129.641 75.7681 130.163 75.1825 130.163 74.8439C130.163 74.5054 130.767 74.3041 131.471 74.4139C131.599 74.4322 131.792 74.24 131.883 73.993C131.975 73.7459 132.167 73.6087 132.304 73.691C132.45 73.7734 132.643 73.5721 132.743 73.2335C132.844 72.895 133.054 72.7028 133.21 72.7943C133.365 72.8858 133.503 72.6845 133.503 72.3551C133.503 71.6872 134.161 71.1107 134.335 71.6231C134.445 71.9434 137.456 68.9513 137.456 68.5212C137.456 68.384 137.931 67.7343 138.535 67.0298C139.853 65.5109 140.018 65.2638 140.136 64.724C140.182 64.4952 139.386 65.1174 138.389 66.0873C137.382 67.0664 136.312 68.0088 136.019 68.1644C135.726 68.3199 134.665 69.1251 133.667 69.9395C132.661 70.7539 131.581 71.6506 131.27 71.9159C130.95 72.1813 130.254 72.6571 129.705 72.9773C129.156 73.2976 128.644 73.7551 128.553 73.993C128.452 74.2492 128.186 74.4322 127.912 74.4322C127.637 74.4322 127.445 74.5603 127.445 74.7341C127.445 74.908 127.262 75.0361 127.024 75.0361C126.796 75.0361 126.521 75.2465 126.43 75.4936C126.338 75.7406 126.146 75.9145 126.018 75.8779C125.67 75.7772 124.307 76.5824 123.895 77.1314C123.685 77.4059 123.52 77.4974 123.511 77.3419C123.511 77.1863 123.264 77.2687 122.962 77.5432C122.669 77.8085 121.827 78.3392 121.068 78.751C117.755 80.5353 115.294 81.8895 113.016 83.1796C109.612 85.1011 105.641 87.0776 104.085 87.6266C102.109 88.322 101.368 88.2396 101.139 87.3155C100.965 86.62 101.139 82.4293 101.441 80.2059C101.56 79.3275 103.033 75.3929 103.417 74.9171C103.564 74.7341 104.113 73.8283 104.607 72.9133C105.54 71.2114 106.181 70.6623 106.181 71.5499C106.181 72.4375 107.123 73.9472 108.578 75.4387C110.124 77.0216 111.195 77.2595 112.988 76.4177C114.342 75.7772 119.091 70.8911 119.869 69.3356C120.098 68.8872 120.94 67.6611 121.745 66.6363C123.282 64.6599 125.002 61.5672 125.011 60.7437C125.011 60.4692 125.112 60.1672 125.231 60.0483C125.679 59.6091 126.485 56.8275 126.329 56.251C126.228 55.8576 125.588 55.4275 124.499 55.0157C119.338 53.0851 117.609 52.7831 114.846 53.3047H114.827ZM121.663 58.0444C121.663 59.8927 115.678 69.5003 112.705 72.4375C111.762 73.3616 110.865 74.1485 110.728 74.1485C110.591 74.1485 110.326 73.9472 110.106 73.6819C109.813 73.325 109.777 72.2362 109.923 69.1068C110.143 64.5776 110.435 63.6992 112.028 62.7567C112.531 62.4547 113.427 61.7776 114.031 61.2378C116.127 59.362 121.653 57.0562 121.653 58.0536L121.663 58.0444Z" fill="#F4CB78"/>
<path d="M68.7632 47.0938C67.9396 47.6794 67.9396 47.9265 68.7906 48.2925C70.035 48.8323 69.852 51.5408 68.0861 58.8883C67.6103 60.8647 66.988 62.7496 66.7135 63.0515C66.439 63.3535 66.3018 63.7378 66.4116 63.9208C66.5214 64.0946 66.256 64.6619 65.8351 65.1835C65.4142 65.6959 65.0574 66.3913 65.0574 66.7207C65.0574 67.0501 64.9293 67.2331 64.7646 67.1325C64.609 67.0318 64.3894 67.2972 64.2796 67.7272C64.1698 68.1481 63.9593 68.505 63.8129 68.505C63.6665 68.505 63.3097 69.0082 63.0077 69.6396C62.7058 70.2801 62.3764 70.9114 62.2483 71.0853C62.1202 71.25 61.5163 72.1467 60.9124 73.0617C57.17 78.6798 49.5663 86.8325 48.7794 86.0548C48.7153 85.9907 48.3036 84.5725 47.8827 82.9255C46.7481 78.5243 45.6684 77.6642 44.5612 80.2811C43.756 82.1935 43.8201 84.1973 44.7351 85.9907C45.3298 87.1528 45.8148 87.6011 47.3337 88.4063C49.0356 89.303 49.3101 89.3671 50.4356 89.0926C51.2225 88.9004 51.927 88.4429 52.3937 87.8299C52.7963 87.2992 53.8486 86.128 54.7636 85.1855C55.6786 84.2431 57.0053 82.7699 57.7739 81.8457C58.5242 80.9307 59.2196 80.1255 59.3111 80.0432C59.4026 79.9608 59.8144 79.4027 60.2078 78.8262C60.6104 78.2315 61.379 77.2341 61.9372 76.5662C62.4953 75.8982 62.9437 75.1937 62.9437 74.9741C62.9437 74.7545 63.0444 74.5806 63.1725 74.5806C63.3006 74.5806 63.8496 73.8395 64.4169 72.897C64.9842 71.9545 65.5057 71.2866 65.5972 71.3781C65.6887 71.4696 65.8168 72.6042 65.8717 73.8852C66.1005 79.0184 67.2534 81.8915 69.3213 82.468C70.9958 82.9346 71.3617 82.834 72.5604 81.5987C74.2898 79.8236 74.3813 79.6863 76.4401 76.008C79.0021 71.4238 79.3589 70.8199 80.9144 68.3586C81.6647 67.1782 82.4791 65.8332 82.7444 65.3207C83.0098 64.8266 83.5679 63.7744 83.9705 63.0149C84.794 61.4686 86.9352 58.5497 86.9352 58.9798C86.9352 59.1262 86.5142 61.7156 86.011 64.7168C85.4986 67.7272 84.8764 71.8264 84.6293 73.8303C84.3823 75.8342 84.0529 78.1949 83.8973 79.0824C83.4398 81.7817 84.2176 90.0808 85.1692 92.6611C86.4868 96.2113 87.7953 97.9773 89.122 97.9773C89.79 97.9773 90.156 97.2819 89.79 96.7054C89.6619 96.5041 89.5154 96.1107 89.488 95.9002C89.4514 95.6806 89.3233 95.2597 89.1952 94.9852C89.0671 94.7107 88.9482 94.3447 88.9207 94.18C88.6645 92.3317 88.39 89.6965 88.3626 88.7723C88.3443 88.1684 88.2436 87.6469 88.143 87.6469C87.9508 87.6469 88.0698 86.5855 88.7377 82.3307C88.8933 81.315 89.1129 79.5674 89.2227 78.387C89.3325 77.2067 89.6619 75.5597 89.9638 74.6813C90.2658 73.8028 90.7416 71.982 91.0253 70.582C91.3089 69.1821 91.6474 67.7913 91.7847 67.4527C92.169 66.5011 94.0905 60.3157 94.4291 58.9523C94.5938 58.2935 95.033 56.6465 95.399 55.338C96.0395 53.0322 96.0486 52.9133 95.5088 52.3277C94.0173 50.6898 90.5128 49.8022 88.9573 50.6715C88.024 51.1931 87.8318 51.5133 87.8318 52.5473C87.8318 53.0231 87.4842 53.8832 87.0724 54.4322C86.6607 54.9812 86.313 55.5027 86.313 55.5851C86.313 55.6674 85.947 56.1341 85.5261 56.5916C84.5928 57.5981 82.6712 60.517 82.6712 60.9379C82.6712 61.1209 82.5706 61.2398 82.4242 61.2398C82.0216 61.2398 79.6334 64.8815 79.6334 65.4946C79.6334 65.7965 79.4504 66.19 79.24 66.3273C78.8191 66.6018 77.2086 68.8984 77.2086 69.237C77.2086 69.3559 76.7145 70.2069 76.1289 71.1219C75.5433 72.0369 74.9669 73.0251 74.8662 73.3087C74.5368 74.2237 71.6912 78.2589 71.3801 78.2589C71.1879 78.2589 71.1604 77.4995 71.2977 76.191C71.6271 73.0891 71.6911 72.7597 72.2127 70.9663C72.6976 69.3285 73.5852 66.1351 75.2048 60.2791C76.3119 56.2713 76.4217 51.5499 75.4427 49.8937C75.0858 49.2898 74.7747 48.5761 74.7747 48.3474C74.7747 47.716 72.2584 46.6729 70.7395 46.6729C70.0075 46.6729 69.1383 46.8834 68.7632 47.1487V47.0938Z" fill="#F4CB78"/>
<path d="M222.626 54.258C221.015 54.688 218.947 56.2984 216.907 58.6957C211.38 65.2014 208.864 78.1945 211.719 85.4231C212.167 86.5485 214.061 88.5798 215.214 89.1746C215.754 89.4491 217.126 89.7419 218.316 89.8242C220.384 89.9706 220.494 89.9432 222.296 88.772C223.971 87.6831 226.368 85.1028 226.368 84.3891C226.368 84.2336 226.496 83.9682 226.679 83.7486C227.228 83.1081 229.095 80.0611 229.095 79.8049C229.095 79.6768 229.333 79.201 229.616 78.771C230.275 77.7645 231.519 74.7175 231.519 74.0953C231.519 73.8208 231.62 73.5097 231.748 73.3816C231.885 73.2443 231.986 73.0705 232.004 72.9607C232.023 72.8509 232.132 72.494 232.261 72.1555C232.956 70.3072 233.112 69.8222 233.377 68.7517C233.542 68.1203 233.816 67.0497 233.99 66.3818C234.164 65.7138 234.374 64.8263 234.447 64.4054C234.521 63.9845 234.63 63.6002 234.695 63.5361C234.759 63.4721 234.612 62.9597 234.365 62.3558C234.054 61.5963 234.017 61.1846 234.246 60.9558C234.475 60.7271 234.566 60.7728 234.566 61.1388C234.566 61.4133 234.694 61.7153 234.841 61.8068C235.143 61.9898 235.088 60.5715 234.777 60.2696C234.676 60.1689 234.74 59.7206 234.905 59.2996C235.308 58.2931 235.28 56.0788 234.859 55.9416C234.704 55.8867 234.557 55.5664 234.557 55.2645C234.557 54.5691 233.569 53.9743 233.13 54.4135C232.965 54.5782 232.892 55.3285 232.974 56.088C233.148 57.6343 232.462 62.8865 232.096 62.8865C231.959 62.8865 231.693 63.6642 231.492 64.6341C231.291 65.604 230.943 66.5922 230.714 66.8484C230.495 67.1046 230.211 68.0014 230.11 68.8249C230.001 69.6758 229.671 70.5634 229.351 70.8745C229.049 71.1673 228.793 71.6614 228.793 71.9359C228.793 72.2104 228.363 73.2077 227.85 74.1227C227.329 75.0469 226.423 76.6756 225.828 77.7645C223.312 82.3486 219.698 86.6309 217.977 87.0609C216.824 87.3446 216.349 86.6949 215.69 83.9591C214.811 80.3082 215.141 78.0024 217.428 71.6888C217.703 70.9385 218.481 69.2915 219.149 68.0471C220.21 66.0798 220.915 65.1008 223.111 62.5845C223.724 61.88 226.24 59.8487 228.308 58.4029C229.314 57.6984 230.248 56.9206 230.385 56.6644C230.787 55.9416 229.552 54.4501 228.399 54.2671C226.093 53.9011 223.98 53.9011 222.626 54.2671V54.258Z" fill="#F4CB78"/>
<g clip-path="url(#clip0_89_1388)">
<path d="M232.856 89.229C232.856 89.3599 233.043 89.6298 233.263 89.8015C233.824 90.2596 233.767 91.0693 233.043 92.9422C232.709 93.8173 232.083 95.7639 231.667 97.2279C231.057 99.4035 230.935 100.287 231.033 101.808C231.106 102.92 231.301 103.787 231.505 103.91C232.009 104.221 232.856 103.607 232.856 102.929C232.856 102.601 232.97 102.291 233.1 102.233C233.458 102.094 235.566 98.9046 236.86 96.5491C238.081 94.3244 238.269 93.114 237.683 91.3882C237.219 90.0387 236.698 89.6216 235.078 89.2781C233.344 88.9182 232.856 88.91 232.856 89.229Z" fill="#F4CB78"/>
</g>
<path d="M156.27 52.5682C156.361 52.8153 156.27 53.2362 156.078 53.4832C155.757 53.8858 155.474 53.8858 153.735 53.5198C150.999 52.9342 148.391 52.9525 148.154 53.5473C148.044 53.8218 147.852 53.9682 147.714 53.8858C147.275 53.6113 141.694 58.1681 139.836 60.3275C138.189 62.2398 136.121 65.0306 136.121 65.3417C136.121 65.4058 135.435 66.6136 134.602 68.0135C133.77 69.4135 133.083 70.6579 133.083 70.7768C133.083 70.8958 132.626 71.9938 132.068 73.2108C130.165 77.374 129.433 84.3372 130.512 87.9973C131.638 91.8128 135.115 93.3958 140.275 92.4533C142.709 92.005 147.495 88.6744 148.538 86.6888C148.767 86.2679 149.133 85.9019 149.334 85.9019C149.535 85.9019 149.782 85.6274 149.865 85.298C149.947 84.9594 149.883 84.6941 149.727 84.6941C149.554 84.6941 149.508 84.5751 149.618 84.3921C149.727 84.2091 149.92 84.1542 150.084 84.2549C150.24 84.3464 150.377 84.2091 150.377 83.9621C150.377 83.4954 150.862 82.7817 151.987 81.5922C152.262 81.2994 152.509 80.723 152.509 80.3661C152.509 79.8171 152.454 79.7714 152.216 80.1191C152.061 80.3661 151.823 80.4576 151.704 80.3295C151.576 80.2014 151.676 79.9727 151.914 79.8171C152.207 79.625 152.472 79.6982 152.719 80.0276C153.031 80.4576 153.076 80.4027 153.021 79.6524C152.985 79.0759 153.095 78.8014 153.36 78.8472C153.634 78.9021 153.671 78.774 153.47 78.408C153.314 78.1335 153.296 77.6668 153.424 77.4015C153.991 76.276 154.302 75.361 154.449 74.3637L154.604 73.3023L154.092 74.3637C153.808 74.9401 153.424 75.5623 153.241 75.727C153.058 75.8917 152.381 76.7884 151.75 77.7034C147.852 83.3216 139.854 89.8547 136.872 89.8547C133.889 89.8547 133.083 82.6902 135.334 77.4015C135.801 76.3126 136.377 74.8852 136.634 74.2081C137.475 71.9847 139.488 68.105 141.081 65.6437C142.947 62.7522 147.833 58.5524 151.146 56.9969C153.79 55.7525 154.339 55.8989 153.159 57.5276C152.646 58.2413 151.823 59.5772 151.31 60.5471C150.798 61.517 150.267 62.4411 150.112 62.6241C149.965 62.8071 149.746 63.4476 149.627 64.0241C149.508 64.6097 149.142 65.662 148.812 66.3665C148.071 67.9495 148.154 70.2004 148.959 70.3468C149.306 70.4108 149.572 70.1821 149.782 69.6605C149.947 69.2396 150.395 68.5442 150.761 68.1233C151.923 66.8149 155.977 62.6882 156.617 62.1666C158.045 60.9863 162.236 55.542 162.062 55.0936C161.988 54.9106 161.11 54.2244 160.076 53.5381C158.164 52.2846 155.922 51.7173 156.261 52.5682H156.27Z" fill="#F4CB78"/>
<path d="M183.037 45.5217C182.388 46.2171 182.351 46.4367 182.552 48.651C182.671 49.9595 182.973 51.4235 183.22 51.8993C183.614 52.6404 183.815 52.7411 184.629 52.5855C185.151 52.4849 186.679 52.2653 188.015 52.0914C192.114 51.5699 192.37 51.5333 195.088 51.0483C200.221 50.1333 201.41 49.9778 205.016 49.7765C207.019 49.6667 208.868 49.5843 209.115 49.5843C217.313 49.7765 219.262 49.9503 220.113 50.5817C221.12 51.3228 221.806 51.2862 222.565 50.4536C222.974 50.0083 222.913 49.3007 222.382 48.3308C221.541 46.7844 220.058 45.7779 218.622 45.7779C218.018 45.7779 217.423 45.6132 217.304 45.4027C217.176 45.1923 216.947 45.1099 216.773 45.2197C216.609 45.3295 213.068 45.2563 208.877 45.055C202.234 44.7348 200.239 44.7622 192.892 45.238C185.087 45.7505 184.465 45.7504 184.117 45.2838C183.778 44.8354 183.669 44.8629 183.037 45.5308V45.5217Z" fill="#F4CB78"/>
<path d="M167.262 51.8994C166.951 52.2837 167.005 52.4942 167.518 53.0066C168.305 53.7935 168.305 54.983 167.5 58.0208C166.886 60.3358 166.118 62.3671 162.092 72.1759C160.015 77.2451 158.569 81.5731 157.91 84.7207L157.462 86.8435L158.304 88.0238C159.383 89.5428 161.378 90.3571 161.964 89.5153C162.915 88.1337 163.675 87.0265 164.672 85.535C165.258 84.6566 166.173 83.4854 166.685 82.9547C167.481 82.1221 168.808 80.4659 170.693 77.9405C171.013 77.5104 171.773 76.5863 172.358 75.9183C172.944 75.2504 174.005 74.006 174.701 73.1825C175.387 72.359 176.421 71.1511 176.961 70.5106C177.51 69.8701 179.614 67.8114 181.618 65.9539C185.049 62.7788 185.287 62.6141 185.37 63.3736C185.415 63.8128 184.848 66.0637 184.098 68.3695C181.737 75.6621 180.291 81.2254 180.273 83.1011C180.273 84.373 180.392 84.6475 181.49 85.6357C182.432 86.4866 182.917 86.7154 183.567 86.6056C184.729 86.4134 186.861 85.0135 188.197 83.5586C188.837 82.8632 189.661 81.9757 190.064 81.5548C190.457 81.143 191.18 80.3104 191.637 79.7339C194.666 75.9092 195.965 74.5092 198.967 71.8008C201.309 69.6963 203.569 68.031 203.798 68.2506C203.999 68.4519 203.285 71.7093 202.187 75.6347C200.101 83.0462 199.818 89.3232 201.364 93.889C202.133 96.1674 202.974 97.5582 204.164 98.5464C205.225 99.4248 205.317 99.4523 205.838 98.9765C206.57 98.3085 206.543 97.8053 205.619 95.3713C203.798 90.5584 203.963 86.8343 206.332 79.7339C208.263 73.9328 209.004 71.2518 209.434 68.5251C209.873 65.7343 209.681 63.6572 208.931 63.1174C208.043 62.4769 205.5 62.6324 204.191 63.4102C200.659 65.5239 194.51 70.593 190.402 74.7837C188.709 76.5131 187.2 77.913 187.035 77.913C186.687 77.913 187.538 74.9667 188.92 71.3799C189.789 69.129 190.741 66.1278 190.988 64.8468C191.07 64.4259 191.436 62.9618 191.811 61.571C192.607 58.5973 192.433 58.2313 189.981 57.5999C188.041 57.1058 186.943 57.362 185.836 58.5607C184.839 59.6495 184.336 60.0704 182.387 61.4155C181.06 62.3396 172.358 71.0047 168.341 75.4151C167.207 76.6595 166.292 77.4647 166.292 77.2176C166.292 76.9706 166.786 75.6804 167.381 74.3811C167.975 73.0818 168.735 71.3982 169.055 70.6936C169.366 69.9982 169.631 69.2937 169.631 69.1564C169.631 68.8179 171.498 65.35 171.791 65.1487C171.91 65.0664 172.212 64.3892 172.477 63.6298C172.743 62.8703 173.173 61.8089 173.447 61.2416C173.731 60.6743 174.014 59.4025 174.106 58.3685C174.289 56.1542 173.584 54.315 171.919 52.6955C171.068 51.872 170.601 51.6615 169.265 51.5517C168.049 51.4511 167.545 51.5334 167.262 51.8903V51.8994Z" fill="#F4CB78"/>
<defs>
<clipPath id="clip0_89_1388">
<rect width="7" height="15" fill="white" transform="translate(231 89)"/>
</clipPath>
</defs>
</svg>
