<svg width="898" height="216" viewBox="0 0 898 216" fill="none" xmlns="http://www.w3.org/2000/svg">
<path d="M6.72 32.88H18.288V61.968H51.024V32.88H62.544V102H51.024V72.816H18.288V102H6.72V32.88ZM115.985 102L111.233 87.024H83.9693L79.2653 102H67.3613L89.1533 32.88H106.097L127.889 102H115.985ZM87.3773 76.224H107.777L97.5053 44.064L87.3773 76.224ZM175.226 103.44C167.45 103.44 160.938 101.6 155.69 97.92C150.474 94.208 146.826 88.768 144.746 81.6L156.074 78.768C156.938 81.52 158.234 83.936 159.962 86.016C161.722 88.096 163.834 89.712 166.298 90.864C168.794 92.016 171.53 92.576 174.506 92.544C177.802 92.48 180.842 91.84 183.626 90.624C186.442 89.408 188.714 87.6 190.442 85.2C192.938 81.968 194.458 77.84 195.002 72.816H170.522V61.968H195.098C194.586 58.064 193.466 54.64 191.738 51.696C190.042 48.752 187.77 46.464 184.922 44.832C182.074 43.2 178.746 42.384 174.938 42.384C170.138 42.384 166.058 43.68 162.698 46.272C159.37 48.832 157.082 52.352 155.834 56.832L144.266 55.2C145.418 50.176 147.386 45.888 150.17 42.336C152.986 38.784 156.506 36.08 160.73 34.224C164.986 32.368 169.818 31.44 175.226 31.44C181.818 31.44 187.546 32.944 192.41 35.952C197.274 38.928 201.002 43.136 203.594 48.576C206.218 54.016 207.546 60.304 207.578 67.44C207.61 74.192 206.33 80.304 203.738 85.776C201.146 91.248 197.402 95.568 192.506 98.736C187.61 101.872 181.85 103.44 175.226 103.44ZM228.093 43.728H205.725V32.88H262.029V43.728H239.661V102H228.093V43.728ZM295.096 103.44C288.312 103.44 282.424 101.952 277.432 98.976C272.472 95.968 268.664 91.744 266.008 86.304C263.352 80.864 262.024 74.576 262.024 67.44C262.024 60.304 263.352 54.016 266.008 48.576C268.664 43.136 272.472 38.928 277.432 35.952C282.424 32.944 288.312 31.44 295.096 31.44C301.912 31.44 307.8 32.944 312.76 35.952C317.752 38.928 321.576 43.136 324.232 48.576C326.888 54.016 328.216 60.304 328.216 67.44C328.216 74.576 326.888 80.864 324.232 86.304C321.576 91.744 317.752 95.968 312.76 98.976C307.8 101.952 301.912 103.44 295.096 103.44ZM295.096 92.544C299.64 92.576 303.464 91.568 306.568 89.52C309.704 87.472 312.056 84.56 313.624 80.784C315.192 77.008 315.976 72.56 315.976 67.44C315.976 62.352 315.192 57.936 313.624 54.192C312.056 50.448 309.704 47.552 306.568 45.504C303.464 43.456 299.64 42.4 295.096 42.336C290.552 42.304 286.728 43.312 283.624 45.36C280.52 47.408 278.184 50.32 276.616 54.096C275.08 57.872 274.296 62.32 274.264 67.44C274.232 72.528 275 76.944 276.568 80.688C278.136 84.432 280.472 87.328 283.576 89.376C286.712 91.424 290.552 92.48 295.096 92.544ZM361.626 27.024C358.97 27.024 356.522 26.384 354.282 25.104C352.074 23.792 350.314 22.032 349.002 19.824C347.722 17.584 347.082 15.136 347.082 12.48H356.106C356.106 14.016 356.634 15.328 357.69 16.416C358.778 17.472 360.09 18 361.626 18C363.162 18 364.458 17.472 365.514 16.416C366.602 15.328 367.146 14.016 367.146 12.48H376.17C376.17 15.136 375.514 17.584 374.202 19.824C372.922 22.032 371.162 23.792 368.922 25.104C366.714 26.384 364.282 27.024 361.626 27.024ZM333.93 32.88H345.642V81.6L377.706 32.88H389.418V102H377.706V53.28L345.642 102H333.93V32.88ZM443.607 103.44C436.823 103.44 430.935 101.952 425.943 98.976C420.983 95.968 417.175 91.744 414.519 86.304C411.863 80.864 410.535 74.576 410.535 67.44C410.535 60.304 411.863 54.016 414.519 48.576C417.175 43.136 420.983 38.928 425.943 35.952C430.935 32.944 436.823 31.44 443.607 31.44C448.823 31.44 453.511 32.336 457.671 34.128C461.863 35.888 465.383 38.432 468.231 41.76C471.111 45.056 473.271 48.976 474.711 53.52L463.047 56.736C461.671 52.128 459.351 48.576 456.087 46.08C452.823 43.584 448.663 42.336 443.607 42.336C439.063 42.336 435.223 43.376 432.087 45.456C428.983 47.504 426.647 50.416 425.079 54.192C423.511 57.936 422.711 62.352 422.679 67.44C422.679 72.528 423.463 76.96 425.031 80.736C426.599 84.48 428.951 87.392 432.087 89.472C435.223 91.52 439.063 92.544 443.607 92.544C448.663 92.544 452.823 91.296 456.087 88.8C459.351 86.304 461.671 82.752 463.047 78.144L474.711 81.36C473.271 85.904 471.111 89.84 468.231 93.168C465.383 96.464 461.863 99.008 457.671 100.8C453.511 102.56 448.823 103.44 443.607 103.44ZM498.018 43.728H475.65V32.88H531.954V43.728H509.586V102H498.018V43.728ZM564.349 32.88C566.461 32.88 568.301 33.008 569.869 33.264C575.693 34.16 580.077 36.592 583.021 40.56C585.997 44.496 587.485 49.44 587.485 55.392C587.485 59.264 586.829 62.752 585.517 65.856C584.237 68.96 582.269 71.52 579.613 73.536C576.989 75.552 573.741 76.864 569.869 77.472C568.301 77.728 566.461 77.856 564.349 77.856H547.357V102H535.789V32.88H564.349ZM563.869 67.056C565.661 67.056 567.117 66.896 568.237 66.576C570.893 65.904 572.813 64.512 573.997 62.4C575.213 60.288 575.821 57.952 575.821 55.392C575.821 52.832 575.213 50.496 573.997 48.384C572.813 46.24 570.893 44.832 568.237 44.16C567.085 43.872 565.629 43.728 563.869 43.728H547.357V67.056H563.869ZM632.304 102L627.552 87.024H600.288L595.584 102H583.68L605.472 32.88H622.416L644.208 102H632.304ZM603.696 76.224H624.096L613.824 44.064L603.696 76.224ZM649.046 32.88H660.614V61.968H693.35V32.88H704.87V102H693.35V72.816H660.614V102H649.046V32.88ZM769.976 102H758.264V53.28L726.2 102H714.488V32.88H726.2V81.6L758.264 32.88H769.976V102ZM832.306 102H779.554V32.88H791.122V91.728H824.626V34.464H836.194V91.728H843.874V112.896H832.306V102ZM847.714 32.88H892.354V43.728H859.282V60.768H886.594V71.616H859.282V91.152H892.354V102H847.714V32.88Z" fill="white"/>
<path d="M827.794 166.872C829.303 166.195 833.064 162.69 835.05 160.119C836.193 158.637 837.694 156.752 838.353 155.956C839.021 155.151 840.091 153.696 840.75 152.689C843.312 148.81 844.547 146.861 844.547 146.714C844.547 146.641 844.868 146.101 845.27 145.516C846.359 143.924 848.454 139.65 848.454 139.037C848.454 138.754 848.555 138.461 848.665 138.406C848.775 138.351 849.077 137.857 849.324 137.326C849.681 136.549 850.193 136.146 851.84 135.332C852.984 134.764 854.237 134.234 854.649 134.142L855.39 133.977L854.988 135.432C851.941 146.467 851.172 150.887 851.172 157.301C851.172 160.174 851.813 163.532 852.554 164.539C852.847 164.932 853.35 165.362 853.716 165.527C854.143 165.722 854.304 165.326 854.201 164.337C853.835 160.869 853.761 157.475 854.054 157.301C854.21 157.209 854.32 156.798 854.301 156.377C854.265 155.48 854.85 152.387 855.134 151.994C855.244 151.838 855.482 151.216 855.656 150.594C856.47 147.776 857.476 144.656 857.806 143.887C858.007 143.429 858.327 142.56 858.51 141.975C858.693 141.389 859.023 140.565 859.233 140.163C859.453 139.742 859.627 139.239 859.627 138.992C859.627 138.745 859.791 138.324 860.002 138.013C860.212 137.711 860.468 137.162 860.587 136.768C860.706 136.375 860.981 135.862 861.21 135.597C862.042 134.645 860.679 131.571 859.343 131.379C859.105 131.342 858.62 131.104 858.227 130.83C857.33 130.198 856.781 130.226 855.912 130.912C855.518 131.223 854.988 131.461 854.695 131.461C854.402 131.461 853.524 131.708 852.709 132.019C851.895 132.33 851.135 132.577 851.007 132.577C850.879 132.577 850.696 132.074 850.614 131.434C850.385 129.814 849.15 128.606 847.055 127.966C845.709 127.554 844.932 127.499 842.809 127.673C841.381 127.792 839.68 127.865 839.021 127.838C838.179 127.81 837.786 127.929 837.667 128.24C837.575 128.497 837.182 128.872 836.761 129.11C836.34 129.347 835.654 129.768 835.187 130.07C834.711 130.381 834.171 130.702 833.933 130.811C833.503 131.013 830.969 132.77 830.411 133.255C830.228 133.41 829.422 134.06 828.635 134.664C827.858 135.268 826.769 136.192 826.266 136.686C825.762 137.171 825.149 137.592 824.939 137.592C824.5 137.592 823.594 139.266 823.594 140.08C823.594 140.364 823.466 140.657 823.31 140.703C822.853 140.858 823.575 142.761 824.518 143.905C826.055 145.772 828.086 146.129 831.49 145.14C832.524 144.839 834.043 144.28 834.885 143.887C835.727 143.493 836.486 143.173 836.587 143.173C836.688 143.173 837.676 142.633 838.765 141.984C839.853 141.334 841.08 140.639 841.464 140.446C841.857 140.254 842.342 139.989 842.58 139.861C843.724 139.211 844.328 138.946 844.419 139.037C844.593 139.211 843.495 142.103 843.193 142.295C843.038 142.395 842.608 143.027 842.232 143.722C841.574 144.93 840.192 147.126 837.657 150.987C836.715 152.415 833.476 156.514 831.536 158.728C829.898 160.604 826.952 163.349 826.211 163.697C825.341 164.109 825.204 164.109 824.619 163.724C823.749 163.157 821.48 162.837 821.233 163.258C821.132 163.422 821.169 163.569 821.325 163.569C821.48 163.569 822.011 164.154 822.487 164.85C823.941 166.973 825.881 167.705 827.775 166.854L827.794 166.872ZM828.114 140.511C830.127 137.93 833.961 135.002 840.274 131.232C842.955 129.631 844.84 129.759 846.258 131.635C846.826 132.385 846.945 132.77 846.807 133.465C846.652 134.298 846.304 134.508 839.936 137.555C832.616 141.06 829.34 142.341 827.73 142.359H826.668L828.105 140.529L828.114 140.511Z" fill="#2F2F2F"/>
<path d="M718.825 80.2654C717.16 80.6131 714.177 82.4157 711.203 84.8862C708.952 86.7528 708.11 87.677 708.531 87.8234C708.696 87.8874 709.034 87.677 709.263 87.375C709.492 87.0731 709.693 86.9633 709.702 87.1463C709.721 87.7227 708.302 88.8756 708.064 88.4822C707.909 88.2351 707.506 88.4456 706.811 89.1227C705.722 90.1841 705.484 90.7971 706.298 90.486C706.655 90.3579 706.573 90.5775 706.024 91.3096C702.803 95.5643 698.951 101.311 697.13 104.577C696.709 105.337 696.243 106.142 696.078 106.398C695.922 106.645 695.318 107.889 694.742 109.134C694.166 110.378 693.461 111.925 693.177 112.547C692.884 113.187 692.207 114.176 691.631 114.807C691.073 115.411 690.579 116.152 690.551 116.417C690.432 117.689 689.966 119.556 689.682 119.913C689.545 120.086 689.444 120.562 689.453 121.02C689.453 121.468 689.206 122.2 688.858 122.694C688.52 123.17 688.081 124.003 687.87 124.543C687.66 125.082 687.367 125.458 687.221 125.366C687.074 125.275 687.028 125.412 687.129 125.659C687.23 125.906 687.074 126.739 686.791 127.461C686.516 128.193 686.37 128.971 686.47 129.145C686.58 129.328 686.534 129.484 686.379 129.484C686.223 129.484 685.94 129.859 685.757 130.316C685.482 130.993 684.924 131.332 682.737 132.137C681.246 132.686 679.891 133.125 679.699 133.125C679.516 133.125 679.352 133.281 679.352 133.464C679.352 133.656 679.699 133.729 680.184 133.629C680.669 133.528 681.795 133.382 682.765 133.281C683.734 133.18 684.585 132.979 684.677 132.823C684.951 132.375 685.418 132.485 685.418 133.006C685.418 133.253 685.299 133.391 685.162 133.308C685.025 133.226 684.723 133.912 684.512 134.827C684.293 135.742 684 136.566 683.863 136.648C683.725 136.73 683.606 137.426 683.606 138.149C683.606 138.872 683.469 139.503 683.304 139.503C683.131 139.503 683.076 139.805 683.185 140.235C683.286 140.628 683.222 141.058 683.048 141.159C682.874 141.269 682.792 141.827 682.865 142.403C682.948 143.007 682.865 143.456 682.7 143.456C682.234 143.456 681.785 144.819 681.612 146.768C681.529 147.683 681.383 148.561 681.291 148.708C681.2 148.854 681.136 149.623 681.136 150.382C681.136 151.142 681.026 151.929 680.88 152.112C680.541 152.533 680.331 154.692 680.633 154.692C680.77 154.692 680.88 154.966 680.88 155.296C680.88 155.625 680.761 155.9 680.605 155.9C679.782 155.9 680.129 161.006 681.154 163.952C681.804 165.837 683.195 167.447 684.155 167.447C684.457 167.447 684.832 167.566 684.988 167.703C685.144 167.841 685.912 168.042 686.672 168.143C687.852 168.298 688.273 168.197 689.407 167.484C691.43 166.203 694.632 162.131 695.474 159.761C695.694 159.157 695.986 158.636 696.114 158.636C696.243 158.636 696.362 158.434 696.362 158.224C696.362 157.995 696.682 157.208 697.094 156.449C697.496 155.689 697.926 154.619 698.054 154.052C698.182 153.484 698.786 151.709 699.418 150.108C701.046 145.917 702.227 141.232 702.071 139.54C701.916 137.838 700.506 134.791 699.61 134.214C697.862 133.098 696.206 133.363 693.534 135.184C691.283 136.721 689.508 138.451 688.09 140.473C687.413 141.443 686.8 142.23 686.736 142.23C686.479 142.23 687.468 137.581 688.09 135.852C688.181 135.605 688.227 135.212 688.191 135.001C688.154 134.772 688.282 134.425 688.483 134.178C688.685 133.931 688.749 133.619 688.639 133.436C688.529 133.253 688.575 133.116 688.758 133.116C688.941 133.116 689.078 132.86 689.078 132.521C689.078 132.183 689.206 131.853 689.38 131.744C689.563 131.634 689.636 131.478 689.563 131.35C689.499 131.231 690.048 130.865 690.78 130.545C691.512 130.225 692.116 129.831 692.116 129.694C692.116 129.557 692.39 129.52 692.692 129.621C693.058 129.74 693.333 129.621 693.434 129.328C693.525 129.063 693.854 128.861 694.193 128.861C694.532 128.861 695.181 128.532 695.694 128.102C696.206 127.672 696.737 127.342 696.911 127.342C697.075 127.342 697.295 127.132 697.377 126.885C697.46 126.638 697.67 126.464 697.816 126.51C697.963 126.556 698.695 126.107 699.427 125.522C700.159 124.945 701.797 123.719 703.041 122.832C704.285 121.944 705.383 121.12 705.475 121.011C705.557 120.901 705.987 120.581 706.417 120.306C707.159 119.83 709.968 117.314 711.917 115.402C712.374 114.953 712.768 114.359 712.768 114.121C712.768 113.883 712.96 113.681 713.188 113.681C713.582 113.681 716.382 110.406 717.507 108.612C717.809 108.137 718.349 107.386 718.743 106.892C719.136 106.407 719.438 105.831 719.438 105.574C719.438 105.318 719.758 104.742 720.17 104.257C720.563 103.79 720.993 102.829 721.112 102.162C721.231 101.494 721.451 100.935 721.597 100.935C721.744 100.935 721.872 100.679 721.872 100.341C721.872 100.002 721.991 99.444 722.146 99.0505C722.293 98.6662 722.65 97.5316 722.933 96.5342C723.217 95.5369 723.656 94.1003 723.903 93.3409C724.205 92.435 724.361 90.5592 724.37 87.7685L724.388 83.5595L722.457 81.766C721.396 80.7778 720.39 79.9909 720.207 80.0001C720.033 80.0184 719.401 80.1282 718.825 80.2471V80.2654ZM720.042 87.0914C720.042 89.3423 718.98 95.3173 718.029 98.4191C717.242 100.972 716.428 102.674 714.222 106.343C713.582 107.405 713.051 108.393 713.051 108.512C713.051 108.631 712.722 109.07 712.338 109.472C711.953 109.866 710.617 111.366 709.419 112.766C708.22 114.166 706.847 115.612 706.408 115.951C705.96 116.298 705.182 116.975 704.633 117.488C702.931 119.08 701.412 120.361 699.839 121.514C698.988 122.136 698.109 122.859 697.835 123.17C697.569 123.472 697.194 123.719 697.002 123.719C696.819 123.719 696.654 123.865 696.654 124.021C696.654 124.177 696.499 124.323 696.316 124.323C696.032 124.323 694.339 125.485 692.546 126.912C691.091 128.074 690.139 128.358 691.027 127.361C691.439 126.903 691.485 126.647 691.219 126.345C690.954 126.034 690.99 125.833 691.356 125.512C691.841 125.092 692.326 124.076 692.546 123.014C692.61 122.685 692.839 122.164 693.077 121.798C693.47 121.194 694.623 118.302 695.035 116.875C695.126 116.545 695.52 115.786 695.877 115.2C696.581 114.075 697.094 112.556 696.975 111.925C696.938 111.732 697.112 111.559 697.322 111.559C697.551 111.559 698.246 110.589 698.887 109.372C701.147 105.09 701.348 104.733 701.714 104.495C701.925 104.358 702.108 104.083 702.108 103.9C702.108 103.571 704.029 100.771 706.902 96.9185C710.498 92.0873 715.76 86.9724 718.23 85.911C719.886 85.1973 720.024 85.2888 720.024 87.0822L720.042 87.0914ZM697.999 136.84C697.88 137.206 697.798 138.332 697.816 139.329C697.862 141.937 695.858 148.68 693.809 152.816C692.921 154.61 692.015 156.54 691.786 157.126C691.558 157.712 690.771 159.285 690.039 160.621C687.623 164.995 686.232 166.221 685.418 164.693C684.823 163.568 684.329 160.045 684.366 157.098L684.393 154.18L686.278 150.41C687.312 148.342 688.163 146.558 688.163 146.466C688.163 146.109 690.405 142.431 691.851 140.427C692.894 138.972 693.772 138.158 695.181 137.316C697.432 135.98 698.338 135.834 698.009 136.84H697.999ZM686.699 137.142C686.489 137.353 686.333 137.38 686.333 137.206C686.333 136.813 686.708 136.438 686.91 136.639C687.001 136.721 686.91 136.932 686.699 137.151V137.142ZM685.116 139.21C685.116 139.393 684.997 139.512 684.814 139.512C684.631 139.512 684.512 139.393 684.512 139.21C684.512 139.027 684.631 138.908 684.814 138.908C684.997 138.908 685.116 139.027 685.116 139.21Z" fill="#2F2F2F"/>
<path d="M704.203 92.3525C703.837 92.8283 703.855 92.8375 704.34 92.4623C704.853 92.0597 704.999 91.8218 704.734 91.8218C704.661 91.8218 704.441 92.0506 704.203 92.3525Z" fill="#2F2F2F"/>
<path d="M702.849 94.0269L702.272 94.7132L702.94 94.1459C703.581 93.606 703.764 93.3498 703.517 93.3498C703.471 93.3498 703.16 93.6701 702.849 94.0361V94.0269Z" fill="#2F2F2F"/>
<path d="M698.329 100.505C698.055 100.926 697.963 101.2 698.146 101.091C698.512 100.871 699.199 99.7181 698.97 99.7181C698.906 99.7181 698.613 100.084 698.329 100.505Z" fill="#2F2F2F"/>
<path d="M763.905 128.722C758.954 129.664 752.677 136.316 748.414 145.146C745.44 151.313 744.351 159.292 746.007 162.76C746.931 164.7 748.532 166.072 750.353 166.493C751.232 166.695 752.348 166.859 752.815 166.859C754.059 166.859 757.161 165.761 758.799 164.737C759.586 164.242 760.601 163.675 761.013 163.51C761.443 163.327 762.194 162.87 762.743 162.449C763.292 162.028 763.831 161.708 763.969 161.708C764.106 161.708 764.756 161.214 765.423 160.582C766.091 159.96 766.741 159.494 766.897 159.53C767.052 159.576 767.446 159.356 767.812 159.018C768.159 158.697 768.937 158.185 769.514 157.892C770.09 157.599 770.648 157.279 770.731 157.179C770.813 157.078 771.215 156.822 771.646 156.602C772.057 156.383 773.009 155.66 773.741 155.01C774.473 154.351 775.287 153.811 775.534 153.811C775.781 153.811 776.294 153.519 776.687 153.143C778.719 151.185 779.24 150.6 779.24 150.261C779.24 149.923 779.844 149.721 780.549 149.831C780.677 149.849 780.869 149.657 780.96 149.41C781.052 149.163 781.244 149.026 781.381 149.108C781.528 149.191 781.72 148.989 781.82 148.651C781.921 148.312 782.131 148.12 782.287 148.212C782.443 148.303 782.58 148.102 782.58 147.772C782.58 147.104 783.239 146.528 783.412 147.04C783.522 147.361 786.533 144.368 786.533 143.938C786.533 143.801 787.008 143.152 787.612 142.447C788.93 140.928 789.095 140.681 789.214 140.141C789.259 139.912 788.463 140.535 787.466 141.505C786.459 142.484 785.389 143.426 785.096 143.582C784.803 143.737 783.742 144.542 782.745 145.357C781.738 146.171 780.658 147.068 780.347 147.333C780.027 147.598 779.332 148.074 778.783 148.395C778.234 148.715 777.721 149.172 777.63 149.41C777.529 149.666 777.264 149.849 776.989 149.849C776.715 149.849 776.523 149.977 776.523 150.151C776.523 150.325 776.339 150.453 776.102 150.453C775.873 150.453 775.598 150.664 775.507 150.911C775.415 151.158 775.223 151.332 775.095 151.295C774.747 151.194 773.384 152 772.972 152.549C772.762 152.823 772.597 152.915 772.588 152.759C772.588 152.604 772.341 152.686 772.039 152.96C771.746 153.226 770.904 153.756 770.145 154.168C766.833 155.952 764.371 157.307 762.093 158.597C758.689 160.518 754.718 162.495 753.162 163.044C751.186 163.739 750.445 163.657 750.216 162.733C750.042 162.037 750.216 157.847 750.518 155.623C750.637 154.745 752.11 150.81 752.494 150.334C752.641 150.151 753.19 149.245 753.684 148.33C754.617 146.629 755.258 146.08 755.258 146.967C755.258 147.855 756.2 149.364 757.655 150.856C759.201 152.439 760.272 152.677 762.065 151.835C763.42 151.194 768.169 146.308 768.946 144.753C769.175 144.304 770.017 143.078 770.822 142.054C772.359 140.077 774.079 136.984 774.089 136.161C774.089 135.886 774.189 135.584 774.308 135.465C774.757 135.026 775.562 132.245 775.406 131.668C775.306 131.275 774.665 130.845 773.576 130.433C768.416 128.502 766.686 128.2 763.923 128.722H763.905ZM770.74 133.462C770.74 135.31 764.756 144.917 761.782 147.855C760.839 148.779 759.943 149.566 759.805 149.566C759.668 149.566 759.403 149.364 759.183 149.099C758.89 148.742 758.854 147.653 759 144.524C759.22 139.995 759.513 139.116 761.105 138.174C761.608 137.872 762.505 137.195 763.109 136.655C765.204 134.779 770.731 132.473 770.731 133.471L770.74 133.462Z" fill="#2F2F2F"/>
<path d="M795.615 122.511C794.792 123.097 794.792 123.344 795.643 123.71C796.887 124.25 796.704 126.958 794.938 134.305C794.462 136.282 793.84 138.167 793.566 138.469C793.291 138.771 793.154 139.155 793.264 139.338C793.373 139.512 793.108 140.079 792.687 140.601C792.266 141.113 791.909 141.809 791.909 142.138C791.909 142.467 791.781 142.65 791.617 142.55C791.461 142.449 791.241 142.714 791.132 143.144C791.022 143.565 790.811 143.922 790.665 143.922C790.519 143.922 790.162 144.425 789.86 145.057C789.558 145.697 789.228 146.329 789.1 146.502C788.972 146.667 788.368 147.564 787.764 148.479C784.022 154.097 776.418 162.25 775.631 161.472C775.567 161.408 775.156 159.99 774.735 158.343C773.6 153.941 772.52 153.081 771.413 155.698C770.608 157.611 770.672 159.615 771.587 161.408C772.182 162.57 772.667 163.018 774.186 163.824C775.888 164.72 776.162 164.784 777.288 164.51C778.075 164.318 778.779 163.86 779.246 163.247C779.648 162.716 780.701 161.545 781.616 160.603C782.531 159.66 783.857 158.187 784.626 157.263C785.376 156.348 786.072 155.543 786.163 155.46C786.255 155.378 786.666 154.82 787.06 154.243C787.462 153.649 788.231 152.651 788.789 151.983C789.347 151.315 789.796 150.611 789.796 150.391C789.796 150.172 789.896 149.998 790.025 149.998C790.153 149.998 790.702 149.257 791.269 148.314C791.836 147.372 792.358 146.704 792.449 146.795C792.541 146.887 792.669 148.021 792.724 149.302C792.953 154.436 794.105 157.309 796.173 157.885C797.848 158.352 798.214 158.251 799.412 157.016C801.142 155.241 801.233 155.104 803.292 151.425C805.854 146.841 806.211 146.237 807.766 143.776C808.517 142.595 809.331 141.25 809.596 140.738C809.862 140.244 810.42 139.192 810.823 138.432C811.646 136.886 813.787 133.967 813.787 134.397C813.787 134.543 813.366 137.133 812.863 140.134C812.351 143.144 811.728 147.244 811.481 149.248C811.234 151.251 810.905 153.612 810.749 154.5C810.292 157.199 811.07 165.498 812.021 168.078C813.339 171.629 814.647 173.395 815.974 173.395C816.642 173.395 817.008 172.699 816.642 172.123C816.514 171.921 816.368 171.528 816.34 171.317C816.303 171.098 816.175 170.677 816.047 170.402C815.919 170.128 815.8 169.762 815.773 169.597C815.517 167.749 815.242 165.114 815.215 164.19C815.196 163.586 815.096 163.064 814.995 163.064C814.803 163.064 814.922 162.003 815.59 157.748C815.745 156.732 815.965 154.985 816.075 153.804C816.185 152.624 816.514 150.977 816.816 150.098C817.118 149.22 817.594 147.399 817.877 145.999C818.161 144.599 818.499 143.208 818.637 142.87C819.021 141.918 820.943 135.733 821.281 134.37C821.446 133.711 821.885 132.064 822.251 130.755C822.892 128.449 822.901 128.33 822.361 127.745C820.869 126.107 817.365 125.219 815.809 126.089C814.876 126.61 814.684 126.931 814.684 127.964C814.684 128.44 814.336 129.3 813.924 129.849C813.513 130.398 813.165 130.92 813.165 131.002C813.165 131.085 812.799 131.551 812.378 132.009C811.445 133.015 809.523 135.934 809.523 136.355C809.523 136.538 809.423 136.657 809.276 136.657C808.874 136.657 806.485 140.299 806.485 140.912C806.485 141.214 806.302 141.607 806.092 141.744C805.671 142.019 804.061 144.316 804.061 144.654C804.061 144.773 803.567 145.624 802.981 146.539C802.395 147.454 801.819 148.442 801.718 148.726C801.389 149.641 798.543 153.676 798.232 153.676C798.04 153.676 798.012 152.917 798.15 151.608C798.479 148.506 798.543 148.177 799.065 146.384C799.55 144.746 800.437 141.552 802.057 135.696C803.164 131.689 803.274 126.967 802.295 125.311C801.938 124.707 801.627 123.993 801.627 123.765C801.627 123.133 799.11 122.09 797.592 122.09C796.86 122.09 795.99 122.301 795.615 122.566V122.511Z" fill="#2F2F2F"/>
<path d="M737.303 133.895C735.372 134.865 731.584 138.342 729.086 141.434C727.741 143.109 723.971 148.452 723.706 149.056C723.596 149.313 723.075 150.118 722.526 150.877C721.327 152.552 716.615 160.512 716.615 160.869C716.615 161.016 716.057 161.839 715.389 162.69C714.181 164.209 714.126 164.236 712.689 164.191C711.472 164.154 711.244 164.062 711.381 163.66C711.472 163.385 711.445 163.266 711.317 163.385C711.189 163.504 710.905 163.413 710.667 163.175C710.356 162.864 710.319 162.534 710.548 161.958C710.713 161.537 710.923 160.622 711.006 159.982C711.088 159.332 711.509 158.005 711.93 157.035C712.351 156.074 712.964 154.244 713.284 153C713.595 151.756 714.08 149.907 714.345 148.919C714.611 147.913 714.885 146.769 714.949 146.339C715.013 145.918 715.26 144.545 715.48 143.328C715.718 142.057 715.809 140.364 715.709 139.394C715.544 137.811 715.407 137.591 713.888 136.237C712.973 135.423 711.765 134.645 711.152 134.471C709.789 134.087 707.812 134.087 707.812 134.471C707.812 134.618 708.361 135.13 709.029 135.597C709.697 136.063 710.329 136.777 710.438 137.18C710.649 137.994 710.292 140.638 709.13 146.778C708.261 151.381 707.867 152.909 703.988 167.091C702.386 172.92 701.041 177.907 700.986 178.172C700.776 179.224 699.897 183.031 699.303 185.492C696.302 197.973 695.469 202.566 695.24 207.91C695.158 209.794 695.021 211.432 694.929 211.588C694.691 211.963 696.439 214.534 697.317 215.102C698.552 215.907 699.165 215.596 699.22 214.132C699.248 213.436 699.467 212.576 699.724 212.173C699.971 211.78 700.346 210.636 700.547 209.639C700.748 208.632 701.032 207.544 701.169 207.205C701.316 206.866 701.49 206.327 701.572 205.988C702.066 203.948 704.802 194.907 706.174 190.799C708.242 184.604 708.425 184.074 709.093 182.601C709.404 181.905 709.651 181.191 709.651 180.99C709.651 180.789 709.78 180.395 709.953 180.093C710.118 179.801 710.64 178.62 711.125 177.44C711.6 176.26 712.589 173.917 713.33 172.188C714.629 169.15 714.693 169.068 715.544 169.187C716.715 169.36 719.186 168.885 720.705 168.198C721.4 167.878 722.233 167.549 722.599 167.439C722.946 167.338 723.605 166.926 723.999 166.57C724.411 166.204 725.682 165.261 726.835 164.474C730.962 161.665 737.458 155.288 739.426 152.113C743.086 146.192 744.175 143.136 743.873 139.604C743.369 133.593 741.366 131.845 737.312 133.886L737.303 133.895ZM740.112 136.274C740.597 139.238 737.879 145.57 733.972 150.575C732.554 152.396 727.101 157.868 726.707 157.868C726.542 157.868 725.81 158.472 725.069 159.231C724.346 159.972 722.837 161.08 721.775 161.647C720.714 162.214 719.854 162.836 719.89 163.01C719.936 163.193 719.662 163.33 719.268 163.33C718.875 163.33 718.408 163.486 718.207 163.696C717.996 163.907 717.777 163.998 717.694 163.907C717.511 163.724 721.318 156.349 722.315 154.949C722.709 154.4 723.011 153.842 723.011 153.677C723.011 153.494 723.102 153.329 723.239 153.265C723.367 153.211 724.017 152.341 724.685 151.335C728.647 145.415 734.713 138.442 737.678 136.411C738.712 135.706 739.645 135.112 739.746 135.103C739.847 135.103 740.021 135.633 740.121 136.274H740.112ZM724.978 160.604C724.868 160.787 724.676 160.906 724.493 160.906C724.31 160.906 724.264 160.787 724.374 160.604C724.484 160.421 724.676 160.302 724.859 160.302C725.042 160.302 725.088 160.421 724.978 160.604ZM722.699 161.958C722.699 162.04 722.58 162.168 722.397 162.278C722.224 162.379 722.096 162.324 722.096 162.141C722.096 161.958 722.224 161.821 722.397 161.821C722.58 161.821 722.699 161.876 722.699 161.958ZM710.548 163.779C710.548 163.861 710.429 163.989 710.246 164.099C710.072 164.2 709.944 164.145 709.944 163.962C709.944 163.779 710.072 163.642 710.246 163.642C710.429 163.642 710.548 163.696 710.548 163.779ZM711.189 167.411C711.344 167.777 711.61 168.253 711.811 168.537C712.213 169.095 711.353 171.575 709.908 173.972C709.459 174.713 708.865 176.003 708.599 176.799C708.334 177.586 707.922 178.565 707.702 178.922C707.474 179.288 706.989 180.469 706.604 181.567C705.415 184.998 703.448 189.17 703.164 188.887C702.999 188.722 703.018 188.383 703.192 188.054C703.356 187.743 703.722 186.608 703.997 185.519C704.271 184.431 704.683 182.866 704.921 182.024C705.159 181.173 705.433 179.974 705.543 179.288C705.653 178.62 706.348 176.159 707.08 173.853C707.812 171.547 708.416 169.461 708.416 169.251C708.416 169.04 708.636 168.189 708.919 167.338C709.414 165.819 709.432 165.81 710.164 166.286C710.557 166.542 711.033 167.073 711.18 167.411H711.189Z" fill="#2F2F2F"/>
<path d="M647.09 168.136C647.959 167.679 649.304 166.754 650.109 166.059C650.924 165.354 651.756 164.805 652.013 164.805C652.616 164.805 654.73 162.71 655.81 161.036C656.313 160.258 656.835 159.489 656.999 159.306C657.173 159.114 657.292 158.794 657.292 158.538C657.292 158.281 657.384 158.108 657.512 158.108C657.64 158.108 658.097 157.394 658.546 156.497C658.994 155.601 659.516 154.695 659.726 154.448C660.229 153.835 661.565 149.699 661.519 148.884C661.336 145.709 659.021 144.95 655.252 146.807C653.037 147.896 651.253 149.168 648.883 151.337L647.346 152.737L648.837 148.363C649.661 145.956 650.347 143.614 650.356 143.156C650.375 142.681 650.475 142.196 650.603 142.04C651.381 141.034 651.674 136.925 651.116 134.857C650.512 132.625 648.096 130.474 646.166 130.456C645.37 130.447 645.379 130.667 646.248 131.838C646.641 132.369 646.953 133.082 646.953 133.457C646.953 134.455 646.166 137.364 644.647 142.031C641.6 151.364 640.959 155.042 641.344 161.081C641.673 166.361 642.204 167.514 644.784 168.63C645.443 168.914 645.736 168.85 647.099 168.136H647.09ZM644.83 163.964C644.811 161.694 645.223 160.587 647.282 157.458C647.868 156.561 648.353 155.784 648.353 155.729C648.353 155.244 651.454 151.986 652.937 150.916C653.714 150.348 654.428 149.799 654.501 149.69C654.73 149.378 657.374 148.043 657.768 148.043C658.225 148.043 658.235 147.988 657.466 150.028C654.931 156.735 650.677 162.911 646.815 165.483C645.132 166.608 644.857 166.398 644.83 163.964Z" fill="#2F2F2F"/>
<path d="M540.69 84.056C539.025 84.4037 536.042 86.2063 533.068 88.6768C530.817 90.5434 529.976 91.4675 530.397 91.6139C530.561 91.678 530.9 91.4675 531.129 91.1656C531.357 90.8636 531.559 90.7538 531.568 90.9368C531.586 91.5133 530.168 92.6662 529.93 92.2727C529.774 92.0257 529.372 92.2361 528.676 92.9133C527.588 93.9747 527.35 94.5877 528.164 94.2766C528.521 94.1485 528.438 94.3681 527.889 95.1001C524.669 99.3549 520.816 105.101 518.996 108.368C518.575 109.127 518.108 109.932 517.943 110.189C517.788 110.436 517.184 111.68 516.607 112.924C516.031 114.169 515.326 115.715 515.043 116.337C514.75 116.978 514.073 117.966 513.496 118.597C512.938 119.201 512.444 119.943 512.417 120.208C512.298 121.48 511.831 123.346 511.547 123.703C511.41 123.877 511.31 124.353 511.319 124.81C511.319 125.259 511.072 125.991 510.724 126.485C510.385 126.961 509.946 127.793 509.736 128.333C509.525 128.873 509.232 129.248 509.086 129.157C508.94 129.065 508.894 129.202 508.995 129.449C509.095 129.696 508.94 130.529 508.656 131.252C508.382 131.984 508.235 132.762 508.336 132.936C508.446 133.119 508.4 133.274 508.244 133.274C508.089 133.274 507.805 133.649 507.622 134.107C507.348 134.784 506.789 135.122 504.603 135.928C503.111 136.477 501.757 136.916 501.565 136.916C501.382 136.916 501.217 137.071 501.217 137.254C501.217 137.447 501.565 137.52 502.05 137.419C502.535 137.318 503.66 137.172 504.63 137.071C505.6 136.971 506.451 136.769 506.542 136.614C506.817 136.166 507.284 136.275 507.284 136.797C507.284 137.044 507.165 137.181 507.027 137.099C506.89 137.017 506.588 137.703 506.378 138.618C506.158 139.533 505.865 140.356 505.728 140.439C505.591 140.521 505.472 141.216 505.472 141.939C505.472 142.662 505.335 143.293 505.17 143.293C504.996 143.293 504.941 143.595 505.051 144.025C505.152 144.419 505.088 144.849 504.914 144.95C504.74 145.059 504.657 145.618 504.731 146.194C504.813 146.798 504.731 147.246 504.566 147.246C504.099 147.246 503.651 148.61 503.477 150.559C503.395 151.474 503.248 152.352 503.157 152.498C503.065 152.645 503.001 153.413 503.001 154.173C503.001 154.932 502.891 155.719 502.745 155.902C502.407 156.323 502.196 158.483 502.498 158.483C502.635 158.483 502.745 158.757 502.745 159.086C502.745 159.416 502.626 159.69 502.471 159.69C501.647 159.69 501.995 164.796 503.02 167.742C503.669 169.627 505.06 171.238 506.021 171.238C506.323 171.238 506.698 171.357 506.853 171.494C507.009 171.631 507.778 171.833 508.537 171.933C509.717 172.089 510.138 171.988 511.273 171.274C513.295 169.993 516.498 165.922 517.339 163.552C517.559 162.948 517.852 162.426 517.98 162.426C518.108 162.426 518.227 162.225 518.227 162.014C518.227 161.786 518.547 160.999 518.959 160.239C519.362 159.48 519.792 158.409 519.92 157.842C520.048 157.275 520.652 155.5 521.283 153.898C522.912 149.708 524.092 145.023 523.937 143.33C523.781 141.628 522.372 138.581 521.475 138.005C519.728 136.888 518.071 137.154 515.4 138.975C513.149 140.512 511.374 142.241 509.955 144.263C509.278 145.233 508.665 146.02 508.601 146.02C508.345 146.02 509.333 141.372 509.955 139.643C510.047 139.396 510.093 139.002 510.056 138.792C510.019 138.563 510.147 138.215 510.349 137.968C510.55 137.721 510.614 137.41 510.504 137.227C510.395 137.044 510.44 136.907 510.623 136.907C510.806 136.907 510.944 136.651 510.944 136.312C510.944 135.973 511.072 135.644 511.246 135.534C511.429 135.424 511.502 135.269 511.429 135.141C511.364 135.022 511.913 134.656 512.645 134.336C513.377 134.015 513.981 133.622 513.981 133.485C513.981 133.347 514.256 133.311 514.558 133.411C514.924 133.53 515.198 133.411 515.299 133.119C515.39 132.853 515.72 132.652 516.058 132.652C516.397 132.652 517.047 132.323 517.559 131.892C518.071 131.462 518.602 131.133 518.776 131.133C518.941 131.133 519.16 130.923 519.243 130.676C519.325 130.428 519.535 130.255 519.682 130.3C519.828 130.346 520.56 129.898 521.292 129.312C522.024 128.736 523.662 127.51 524.907 126.622C526.151 125.735 527.249 124.911 527.34 124.801C527.423 124.691 527.853 124.371 528.283 124.097C529.024 123.621 531.833 121.105 533.782 119.192C534.24 118.744 534.633 118.149 534.633 117.911C534.633 117.673 534.825 117.472 535.054 117.472C535.447 117.472 538.247 114.196 539.373 112.403C539.675 111.927 540.215 111.177 540.608 110.683C541.001 110.198 541.303 109.621 541.303 109.365C541.303 109.109 541.624 108.532 542.035 108.047C542.429 107.581 542.859 106.62 542.978 105.952C543.097 105.284 543.316 104.726 543.463 104.726C543.609 104.726 543.737 104.47 543.737 104.131C543.737 103.793 543.856 103.235 544.012 102.841C544.158 102.457 544.515 101.322 544.799 100.325C545.082 99.3274 545.522 97.8909 545.769 97.1314C546.071 96.2256 546.226 94.3498 546.235 91.559L546.254 87.35L544.323 85.5566C543.262 84.5684 542.255 83.7815 542.072 83.7906C541.898 83.8089 541.267 83.9187 540.69 84.0377V84.056ZM541.907 90.8819C541.907 93.1329 540.846 99.1078 539.894 102.21C539.107 104.763 538.293 106.464 536.088 110.134C535.447 111.195 534.917 112.183 534.917 112.302C534.917 112.421 534.587 112.86 534.203 113.263C533.819 113.656 532.483 115.157 531.284 116.557C530.085 117.957 528.713 119.403 528.274 119.741C527.825 120.089 527.048 120.766 526.499 121.278C524.797 122.871 523.278 124.152 521.704 125.304C520.853 125.927 519.975 126.65 519.7 126.961C519.435 127.263 519.06 127.51 518.867 127.51C518.684 127.51 518.52 127.656 518.52 127.812C518.52 127.967 518.364 128.114 518.181 128.114C517.898 128.114 516.205 129.276 514.411 130.703C512.957 131.865 512.005 132.149 512.893 131.151C513.304 130.694 513.35 130.438 513.085 130.136C512.819 129.825 512.856 129.623 513.222 129.303C513.707 128.882 514.192 127.866 514.411 126.805C514.475 126.476 514.704 125.954 514.942 125.588C515.336 124.984 516.488 122.093 516.9 120.665C516.992 120.336 517.385 119.577 517.742 118.991C518.447 117.865 518.959 116.347 518.84 115.715C518.803 115.523 518.977 115.349 519.188 115.349C519.417 115.349 520.112 114.379 520.752 113.162C523.012 108.88 523.214 108.523 523.58 108.285C523.79 108.148 523.973 107.874 523.973 107.691C523.973 107.361 525.895 104.561 528.768 100.709C532.364 95.8779 537.625 90.763 540.096 89.7016C541.752 88.9879 541.889 89.0794 541.889 90.8728L541.907 90.8819ZM519.865 140.631C519.746 140.997 519.664 142.122 519.682 143.12C519.728 145.727 517.724 152.471 515.674 156.607C514.787 158.4 513.881 160.331 513.652 160.916C513.423 161.502 512.636 163.076 511.904 164.412C509.489 168.786 508.098 170.012 507.284 168.484C506.689 167.358 506.195 163.835 506.231 160.889L506.259 157.97L508.144 154.2C509.178 152.132 510.029 150.348 510.029 150.257C510.029 149.9 512.27 146.221 513.716 144.218C514.759 142.763 515.638 141.948 517.047 141.107C519.298 139.771 520.203 139.624 519.874 140.631H519.865ZM508.565 140.933C508.354 141.143 508.199 141.171 508.199 140.997C508.199 140.603 508.574 140.228 508.775 140.43C508.866 140.512 508.775 140.722 508.565 140.942V140.933ZM506.982 143.001C506.982 143.184 506.863 143.303 506.68 143.303C506.497 143.303 506.378 143.184 506.378 143.001C506.378 142.818 506.497 142.699 506.68 142.699C506.863 142.699 506.982 142.818 506.982 143.001Z" fill="#2F2F2F"/>
<path d="M526.07 96.1431C525.704 96.6189 525.722 96.6281 526.207 96.2529C526.719 95.8503 526.866 95.6124 526.6 95.6124C526.527 95.6124 526.308 95.8412 526.07 96.1431Z" fill="#2F2F2F"/>
<path d="M524.714 97.8175L524.137 98.5038L524.805 97.9365C525.446 97.3966 525.629 97.1404 525.382 97.1404C525.336 97.1404 525.025 97.4607 524.714 97.8267V97.8175Z" fill="#2F2F2F"/>
<path d="M520.194 104.296C519.92 104.716 519.828 104.991 520.011 104.881C520.377 104.662 521.063 103.509 520.835 103.509C520.771 103.509 520.478 103.875 520.194 104.296Z" fill="#2F2F2F"/>
<path d="M417.347 130.084C416.679 130.487 416.313 131.009 416.121 131.832C415.92 132.683 415.6 133.122 414.95 133.461C414.465 133.708 413.989 134.001 413.907 134.101C411.116 137.597 406.989 145.173 407.346 146.124C407.447 146.381 407.264 146.948 406.934 147.396C406.074 148.613 405.562 150.791 406.056 151.102C406.422 151.331 406.212 151.486 405.635 151.422C405.37 151.386 404.793 153.902 404.601 155.933C404.519 156.839 404.372 158.395 404.281 159.337C404.144 160.737 404.244 161.341 404.793 162.466C405.416 163.738 407.758 165.962 408.49 165.962C409.396 165.962 414.181 160.435 416.762 156.391C417.301 155.54 419.616 152.621 420.001 152.301C420.193 152.136 421.446 150.526 424.374 146.664C425.271 145.484 426.479 144.002 427.092 143.325L428.199 142.108L427.952 145.447C427.815 147.287 427.705 151.852 427.705 155.622C427.705 163.308 427.925 164.47 429.828 166.95C430.789 168.204 432.207 169.045 434.513 169.741C435.135 169.933 435.199 169.86 435.107 169.1C435.034 168.487 434.641 168.002 433.698 167.371C432.308 166.428 431.704 165.486 431.402 163.793C430.77 160.298 431.841 147.717 432.82 147.085C432.966 146.985 433.47 145.484 433.927 143.755C434.385 142.025 435.245 139.564 435.821 138.319C436.398 137.075 437.066 135.556 437.294 134.98C437.514 134.403 437.889 133.635 438.109 133.305C439.179 131.722 438.127 130.569 435.327 130.258C433.021 130.002 431.804 130.514 431.804 131.722C431.804 132.107 431.347 132.857 430.798 133.388C429.709 134.44 429.37 134.577 429.361 133.973C429.352 133.177 428.19 132.29 425.427 130.963C422.91 129.746 422.27 129.572 420.412 129.545C418.802 129.517 418.052 129.654 417.329 130.094L417.347 130.084ZM426.808 134.358C427.248 134.522 428.172 134.687 428.812 134.714L429.993 134.76L428.227 136.608C426.625 138.283 424.329 141.01 421.931 144.075C420.385 146.051 417.393 149.675 417.054 149.995C416.871 150.16 416.268 150.892 415.737 151.596C415.206 152.292 414.556 152.886 414.328 152.886C414.081 152.886 413.907 153.014 413.907 153.188C413.907 153.701 410.896 156.729 410.887 156.226C410.887 155.778 411.628 153.527 412.607 151.066C412.836 150.489 413.12 149.72 413.221 149.391C413.623 148.119 417.219 141.376 418.674 139.152C421.474 134.897 424.137 133.333 426.818 134.348L426.808 134.358Z" fill="#2F2F2F"/>
<path d="M533.578 129.825C532.791 130.145 532.644 131.088 533.303 131.637C533.706 131.966 533.688 132.195 533.166 133.503C532.837 134.327 532.178 135.782 531.684 136.752C530.311 139.487 527.511 147.43 527.09 149.809C526.88 150.971 526.779 152.965 526.871 154.21C527.036 156.671 527.813 158.135 529.387 158.977C530.073 159.343 530.311 159.325 531.254 158.821C531.858 158.492 532.397 158.071 532.48 157.852C532.562 157.641 532.8 157.458 532.992 157.458C533.413 157.458 535.874 154.878 538.006 152.206C538.757 151.264 539.809 149.992 540.367 149.351C540.925 148.711 541.374 148.098 541.374 147.97C541.374 147.841 542.307 146.652 543.423 145.343C544.54 144.035 546.223 142.031 547.111 140.942C548.007 139.853 548.803 138.993 548.868 139.057C548.932 139.121 548.584 140.393 548.081 141.885C546.827 145.618 546.571 146.652 546.031 150.385C545.5 154.027 545.345 155.656 545.345 157.916C545.345 158.767 545.345 159.755 545.326 160.167C545.326 160.569 545.5 161.53 545.738 162.326C546.827 165.968 548.803 167.917 551.814 168.292C553.516 168.502 555.941 167.505 556.471 166.37C557.011 165.217 556.654 164.989 555.703 165.885C555.016 166.526 554.669 166.626 553.58 166.498C551.942 166.306 550.881 165.556 550.048 163.982C549.536 163.012 549.417 162.216 549.389 159.636C549.362 156.442 550.158 150.788 550.734 150.101C551.128 149.626 552.299 146.515 552.299 145.938C552.299 145.673 552.775 144.666 553.36 143.687C553.946 142.708 554.422 141.793 554.422 141.619C554.422 141.446 554.87 140.695 555.437 139.899C556.005 139.112 556.554 138.17 556.682 137.758C556.81 137.355 557.304 136.358 557.789 135.544C558.274 134.72 558.667 133.933 558.667 133.778C558.667 133.622 559.097 133.064 559.591 132.552C560.323 131.792 560.442 131.509 560.159 131.17C559.582 130.484 557.99 129.816 556.471 129.624C554.467 129.377 553.607 129.669 553.241 130.713C553.067 131.216 551.375 133.174 549.49 135.059C546.278 138.27 545.052 139.588 542.142 142.928C540.029 145.362 537.256 148.473 536.643 149.122C536.314 149.47 535.344 150.577 534.52 151.556C532.928 153.441 532.425 153.945 531.565 154.448C530.787 154.914 530.741 154.411 531.409 152.92C531.748 152.179 532.361 150.797 532.763 149.882C533.166 148.967 533.697 147.814 533.935 147.347C534.173 146.862 534.356 146.359 534.356 146.213C534.356 146.066 534.895 144.813 535.573 143.422C537.357 139.716 538.61 135.644 538.61 133.586C538.61 132.186 538.446 131.591 537.833 130.685C537.128 129.642 536.936 129.55 535.627 129.56C534.841 129.56 533.898 129.697 533.532 129.843L533.578 129.825Z" fill="#2F2F2F"/>
<path d="M573.623 126.138C573.221 126.394 573.23 126.476 573.687 126.833C574.712 127.638 575.426 129.523 575.261 130.987C574.611 136.514 574.172 139.085 573.687 140.064C572.187 143.102 570.165 146.716 568.92 148.565C568.17 149.69 567.557 150.77 567.557 150.98C567.557 151.191 567.447 151.355 567.31 151.355C567.172 151.355 566.074 152.847 564.876 154.631C561.17 160.185 554.207 167.825 551.572 169.216C550.83 169.61 550.702 169.564 549.458 168.347L548.14 167.057L547.948 168.091C547.719 169.335 548.067 170.323 549.156 171.458C549.787 172.126 550.254 172.309 551.288 172.309C552.166 172.309 552.661 172.153 552.779 171.851C552.871 171.604 553.091 171.394 553.246 171.394C554.335 171.394 558.956 166.078 560.804 162.711C561.024 162.317 561.335 161.979 561.49 161.979C561.646 161.979 561.783 161.814 561.783 161.603C561.783 161.393 562.231 160.734 562.79 160.13C563.979 158.84 566.065 155.848 567.163 153.844C567.593 153.057 568.179 152.142 568.463 151.813C568.746 151.483 569.579 150.202 570.311 148.985C572.031 146.131 572.141 145.957 572.946 144.676L573.623 143.614L573.642 148.473C573.678 161.073 573.934 163.406 575.7 167.45C576.496 169.271 577.329 170.232 578.601 170.817C580.879 171.851 581.511 171.357 580.358 169.427C579.241 167.56 578.994 166.087 579.013 161.32C579.022 156.525 579.278 152.481 579.662 150.907C579.781 150.413 579.909 149.232 579.946 148.327C580.019 146.487 580.449 143.651 581.071 140.888C582.371 135.178 582.59 133.055 582.105 131.234C581.328 128.315 575.609 124.893 573.614 126.147L573.623 126.138Z" fill="#2F2F2F"/>
<path d="M468.506 127.831C467.719 128.051 467.545 128.298 467.225 129.634C466.42 133.038 463.236 137.924 459.85 140.971C456.968 143.569 450.874 147.852 450.069 147.852C449.712 147.852 449.767 146.717 450.133 146.488C450.297 146.388 450.435 145.967 450.435 145.573C450.435 144.869 450.856 143.139 452.246 138.07C452.85 135.883 452.777 135.106 451.871 133.788C451.112 132.681 449.822 132.049 448.184 131.985C447.122 131.94 446.637 132.095 446.024 132.662C445.265 133.367 445.256 133.404 445.869 133.632C446.583 133.898 446.637 134.547 446.171 136.945C445.823 138.729 445.155 143.139 444.478 148.154C444.112 150.853 443.938 151.411 443.353 151.804C441.678 152.912 440.113 154.641 439.94 155.565C439.848 156.077 439.976 157.541 440.223 158.786C440.47 160.03 440.763 161.686 440.873 162.428C441.157 164.459 441.861 166.444 442.611 167.286C443.581 168.375 446.189 169.83 446.546 169.473C446.692 169.327 446.857 167.378 446.912 165.127C447.04 159.573 448.184 152.454 449.062 151.713C449.236 151.576 450.032 151.045 450.883 150.505C454.525 148.218 456.684 146.799 456.95 146.507C457.114 146.323 458.02 145.665 458.926 145.052C459.841 144.439 461.268 143.295 462.074 142.535C462.897 141.758 463.602 141.19 463.666 141.264C463.73 141.328 463.51 143.331 463.181 145.701C462.302 151.96 462.284 160.204 463.144 163.434C463.922 166.38 465.715 169.848 466.887 170.681C468.067 171.523 469.915 171.752 470.446 171.12C470.949 170.525 470.775 169.583 470.171 169.565C469.375 169.546 468.817 168.997 467.957 167.387C466.612 164.862 466.164 162.043 466.383 157.459C466.713 150.533 466.941 148.703 467.893 145.436C468.113 144.686 468.515 143.039 468.79 141.794C469.064 140.55 469.549 138.967 469.851 138.299C470.162 137.631 470.858 135.993 471.398 134.657C471.937 133.321 472.496 132.104 472.624 131.958C473.282 131.208 472.505 128.728 471.443 128.179C470.519 127.703 469.439 127.584 468.497 127.85L468.506 127.831ZM443.545 156.297C443.444 157.514 443.27 158.484 443.151 158.484C442.639 158.484 441.934 156.087 442.218 155.327C442.456 154.687 443.435 153.827 443.664 154.055C443.7 154.092 443.645 155.089 443.545 156.306V156.297Z" fill="#2F2F2F"/>
<path d="M596.575 131.636C594.964 132.066 592.896 133.676 590.856 136.074C585.329 142.579 582.813 155.572 585.668 162.801C586.116 163.926 588.01 165.958 589.163 166.553C589.703 166.827 591.076 167.12 592.265 167.202C594.333 167.349 594.443 167.321 596.245 166.15C597.92 165.061 600.317 162.481 600.317 161.767C600.317 161.612 600.445 161.346 600.628 161.127C601.177 160.486 603.044 157.439 603.044 157.183C603.044 157.055 603.282 156.579 603.565 156.149C604.224 155.142 605.469 152.095 605.469 151.473C605.469 151.199 605.569 150.888 605.697 150.76C605.835 150.622 605.935 150.448 605.954 150.339C605.972 150.229 606.082 149.872 606.21 149.533C606.905 147.685 607.061 147.2 607.326 146.13C607.491 145.498 607.765 144.428 607.939 143.76C608.113 143.092 608.323 142.204 608.397 141.783C608.47 141.362 608.58 140.978 608.644 140.914C608.708 140.85 608.561 140.338 608.314 139.734C608.003 138.974 607.967 138.563 608.195 138.334C608.424 138.105 608.516 138.151 608.516 138.517C608.516 138.791 608.644 139.093 608.79 139.185C609.092 139.368 609.037 137.949 608.726 137.648C608.625 137.547 608.689 137.099 608.854 136.678C609.257 135.671 609.229 133.457 608.808 133.32C608.653 133.265 608.506 132.944 608.506 132.642C608.506 131.947 607.518 131.352 607.079 131.791C606.914 131.956 606.841 132.706 606.924 133.466C607.097 135.012 606.411 140.264 606.045 140.264C605.908 140.264 605.643 141.042 605.441 142.012C605.24 142.982 604.892 143.97 604.663 144.226C604.444 144.483 604.16 145.379 604.06 146.203C603.95 147.054 603.62 147.941 603.3 148.252C602.998 148.545 602.742 149.039 602.742 149.314C602.742 149.588 602.312 150.586 601.799 151.501C601.278 152.425 600.372 154.054 599.777 155.142C597.261 159.727 593.647 164.009 591.927 164.439C590.774 164.723 590.298 164.073 589.639 161.337C588.761 157.686 589.09 155.38 591.378 149.067C591.652 148.316 592.43 146.669 593.098 145.425C594.159 143.458 594.864 142.479 597.06 139.962C597.673 139.258 600.189 137.227 602.257 135.781C603.263 135.076 604.197 134.299 604.334 134.042C604.737 133.32 603.501 131.828 602.348 131.645C600.043 131.279 597.929 131.279 596.575 131.645V131.636Z" fill="#2F2F2F"/>
<path d="M486.963 131.636C485.352 132.066 483.284 133.676 481.244 136.074C475.717 142.579 473.201 155.572 476.056 162.801C476.504 163.926 478.398 165.958 479.551 166.553C480.091 166.827 481.463 167.12 482.653 167.202C484.721 167.349 484.831 167.321 486.633 166.15C488.308 165.061 490.705 162.481 490.705 161.767C490.705 161.612 490.833 161.346 491.016 161.127C491.565 160.486 493.432 157.439 493.432 157.183C493.432 157.055 493.67 156.579 493.953 156.149C494.612 155.142 495.856 152.095 495.856 151.473C495.856 151.199 495.957 150.888 496.085 150.76C496.222 150.622 496.323 150.448 496.341 150.339C496.36 150.229 496.469 149.872 496.597 149.533C497.293 147.685 497.448 147.2 497.714 146.13C497.879 145.498 498.153 144.428 498.327 143.76C498.501 143.092 498.711 142.204 498.784 141.783C498.858 141.362 498.967 140.978 499.031 140.914C499.095 140.85 498.949 140.338 498.702 139.734C498.391 138.974 498.354 138.563 498.583 138.334C498.812 138.105 498.903 138.151 498.903 138.517C498.903 138.791 499.031 139.093 499.178 139.185C499.48 139.368 499.425 137.949 499.114 137.648C499.013 137.547 499.077 137.099 499.242 136.678C499.644 135.671 499.617 133.457 499.196 133.32C499.041 133.265 498.894 132.944 498.894 132.642C498.894 131.947 497.906 131.352 497.467 131.791C497.302 131.956 497.229 132.706 497.311 133.466C497.485 135.012 496.799 140.264 496.433 140.264C496.296 140.264 496.03 141.042 495.829 142.012C495.628 142.982 495.28 143.97 495.051 144.226C494.832 144.483 494.548 145.379 494.447 146.203C494.337 147.054 494.008 147.941 493.688 148.252C493.386 148.545 493.13 149.039 493.13 149.314C493.13 149.588 492.7 150.586 492.187 151.501C491.666 152.425 490.76 154.054 490.165 155.142C487.649 159.727 484.034 164.009 482.314 164.439C481.161 164.723 480.686 164.073 480.027 161.337C479.148 157.686 479.478 155.38 481.765 149.067C482.04 148.316 482.818 146.669 483.485 145.425C484.547 143.458 485.251 142.479 487.447 139.962C488.06 139.258 490.577 137.227 492.645 135.781C493.651 135.076 494.584 134.299 494.722 134.042C495.124 133.32 493.889 131.828 492.736 131.645C490.43 131.279 488.317 131.279 486.963 131.645V131.636Z" fill="#2F2F2F"/>
<path d="M311.093 131.636C309.483 132.066 307.415 133.676 305.375 136.074C299.848 142.579 297.332 155.572 300.187 162.801C300.635 163.926 302.529 165.958 303.682 166.553C304.222 166.827 305.594 167.12 306.784 167.202C308.852 167.349 308.962 167.321 310.764 166.15C312.439 165.061 314.836 162.481 314.836 161.767C314.836 161.612 314.964 161.346 315.147 161.127C315.696 160.486 317.563 157.439 317.563 157.183C317.563 157.055 317.8 156.579 318.084 156.149C318.743 155.142 319.987 152.095 319.987 151.473C319.987 151.199 320.088 150.888 320.216 150.76C320.353 150.622 320.454 150.448 320.472 150.339C320.491 150.229 320.6 149.872 320.728 149.533C321.424 147.685 321.579 147.2 321.845 146.13C322.01 145.498 322.284 144.428 322.458 143.76C322.632 143.092 322.842 142.204 322.915 141.783C322.989 141.362 323.098 140.978 323.162 140.914C323.226 140.85 323.08 140.338 322.833 139.734C322.522 138.974 322.485 138.563 322.714 138.334C322.943 138.105 323.034 138.151 323.034 138.517C323.034 138.791 323.162 139.093 323.309 139.185C323.611 139.368 323.556 137.949 323.245 137.648C323.144 137.547 323.208 137.099 323.373 136.678C323.775 135.671 323.748 133.457 323.327 133.32C323.172 133.265 323.025 132.944 323.025 132.642C323.025 131.947 322.037 131.352 321.598 131.791C321.433 131.956 321.36 132.706 321.442 133.466C321.616 135.012 320.93 140.264 320.564 140.264C320.427 140.264 320.161 141.042 319.96 142.012C319.759 142.982 319.411 143.97 319.182 144.226C318.963 144.483 318.679 145.379 318.578 146.203C318.468 147.054 318.139 147.941 317.819 148.252C317.517 148.545 317.261 149.039 317.261 149.314C317.261 149.588 316.831 150.586 316.318 151.501C315.797 152.425 314.891 154.054 314.296 155.142C311.78 159.727 308.165 164.009 306.445 164.439C305.292 164.723 304.817 164.073 304.158 161.337C303.279 157.686 303.609 155.38 305.896 149.067C306.171 148.316 306.949 146.669 307.616 145.425C308.678 143.458 309.382 142.479 311.578 139.962C312.191 139.258 314.708 137.227 316.776 135.781C317.782 135.076 318.715 134.299 318.853 134.042C319.255 133.32 318.02 131.828 316.867 131.645C314.561 131.279 312.448 131.279 311.093 131.645V131.636Z" fill="#2F2F2F"/>
<path d="M637.275 129.032C637.366 129.279 637.275 129.699 637.083 129.947C636.762 130.349 636.479 130.349 634.74 129.983C632.004 129.398 629.396 129.416 629.159 130.011C629.049 130.285 628.857 130.431 628.719 130.349C628.28 130.075 622.699 134.631 620.841 136.791C619.194 138.703 617.126 141.494 617.126 141.805C617.126 141.869 616.44 143.077 615.607 144.477C614.775 145.877 614.088 147.121 614.088 147.24C614.088 147.359 613.631 148.457 613.073 149.674C611.17 153.837 610.438 160.801 611.517 164.461C612.643 168.276 616.12 169.859 621.28 168.917C623.714 168.468 628.5 165.138 629.543 163.152C629.772 162.731 630.138 162.365 630.339 162.365C630.54 162.365 630.787 162.091 630.87 161.761C630.952 161.423 630.888 161.157 630.732 161.157C630.559 161.157 630.513 161.038 630.623 160.855C630.732 160.672 630.925 160.618 631.089 160.718C631.245 160.81 631.382 160.672 631.382 160.425C631.382 159.959 631.867 159.245 632.992 158.055C633.267 157.763 633.514 157.186 633.514 156.829C633.514 156.28 633.459 156.235 633.221 156.582C633.066 156.829 632.828 156.921 632.709 156.793C632.581 156.665 632.681 156.436 632.919 156.28C633.212 156.088 633.477 156.161 633.724 156.491C634.036 156.921 634.081 156.866 634.026 156.116C633.99 155.539 634.1 155.265 634.365 155.31C634.639 155.365 634.676 155.237 634.475 154.871C634.319 154.597 634.301 154.13 634.429 153.865C634.996 152.739 635.307 151.824 635.454 150.827L635.609 149.766L635.097 150.827C634.813 151.403 634.429 152.026 634.246 152.19C634.063 152.355 633.386 153.252 632.755 154.167C628.857 159.785 620.859 166.318 617.877 166.318C614.894 166.318 614.088 159.154 616.339 153.865C616.806 152.776 617.382 151.349 617.639 150.671C618.48 148.448 620.493 144.568 622.086 142.107C623.952 139.216 628.838 135.016 632.151 133.46C634.795 132.216 635.344 132.362 634.164 133.991C633.651 134.705 632.828 136.04 632.315 137.01C631.803 137.98 631.272 138.904 631.117 139.087C630.97 139.27 630.751 139.911 630.632 140.487C630.513 141.073 630.147 142.125 629.817 142.83C629.076 144.413 629.159 146.664 629.964 146.81C630.311 146.874 630.577 146.645 630.787 146.124C630.952 145.703 631.4 145.008 631.766 144.587C632.928 143.278 636.982 139.151 637.622 138.63C639.05 137.45 643.241 132.005 643.067 131.557C642.993 131.374 642.115 130.688 641.081 130.001C639.169 128.748 636.927 128.181 637.266 129.032H637.275Z" fill="#2F2F2F"/>
<path d="M349.963 129.032C350.055 129.279 349.963 129.699 349.771 129.947C349.451 130.349 349.167 130.349 347.429 129.983C344.693 129.398 342.085 129.416 341.847 130.011C341.737 130.285 341.545 130.431 341.408 130.349C340.969 130.075 335.387 134.631 333.53 136.791C331.883 138.703 329.815 141.494 329.815 141.805C329.815 141.869 329.128 143.077 328.296 144.477C327.463 145.877 326.777 147.121 326.777 147.24C326.777 147.359 326.319 148.457 325.761 149.674C323.858 153.837 323.126 160.801 324.206 164.461C325.331 168.276 328.808 169.859 333.969 168.917C336.403 168.468 341.188 165.138 342.231 163.152C342.46 162.731 342.826 162.365 343.027 162.365C343.229 162.365 343.476 162.091 343.558 161.761C343.64 161.423 343.576 161.157 343.421 161.157C343.247 161.157 343.201 161.038 343.311 160.855C343.421 160.672 343.613 160.618 343.778 160.718C343.933 160.81 344.071 160.672 344.071 160.425C344.071 159.959 344.555 159.245 345.681 158.055C345.955 157.763 346.202 157.186 346.202 156.829C346.202 156.28 346.148 156.235 345.91 156.582C345.754 156.829 345.516 156.921 345.397 156.793C345.269 156.665 345.37 156.436 345.608 156.28C345.901 156.088 346.166 156.161 346.413 156.491C346.724 156.921 346.77 156.866 346.715 156.116C346.678 155.539 346.788 155.265 347.053 155.31C347.328 155.365 347.365 155.237 347.163 154.871C347.008 154.597 346.989 154.13 347.117 153.865C347.685 152.739 347.996 151.824 348.142 150.827L348.298 149.766L347.785 150.827C347.502 151.403 347.117 152.026 346.934 152.19C346.751 152.355 346.074 153.252 345.443 154.167C341.545 159.785 333.548 166.318 330.565 166.318C327.582 166.318 326.777 159.154 329.028 153.865C329.494 152.776 330.071 151.349 330.327 150.671C331.169 148.448 333.182 144.568 334.774 142.107C336.641 139.216 341.527 135.016 344.839 133.46C347.483 132.216 348.033 132.362 346.852 133.991C346.34 134.705 345.516 136.04 345.004 137.01C344.491 137.98 343.961 138.904 343.805 139.087C343.659 139.27 343.439 139.911 343.32 140.487C343.201 141.073 342.835 142.125 342.506 142.83C341.765 144.413 341.847 146.664 342.652 146.81C343 146.874 343.265 146.645 343.476 146.124C343.64 145.703 344.089 145.008 344.455 144.587C345.617 143.278 349.67 139.151 350.311 138.63C351.738 137.45 355.929 132.005 355.755 131.557C355.682 131.374 354.804 130.688 353.77 130.001C351.857 128.748 349.615 128.181 349.954 129.032H349.963Z" fill="#2F2F2F"/>
<path d="M376.793 122.9C376.143 123.595 376.107 123.815 376.308 126.029C376.427 127.337 376.729 128.801 376.976 129.277C377.369 130.018 377.571 130.119 378.385 129.963C378.907 129.863 380.435 129.643 381.771 129.469C385.87 128.948 386.126 128.911 388.844 128.426C393.977 127.511 395.166 127.356 398.771 127.154C400.775 127.045 402.624 126.962 402.871 126.962C411.069 127.154 413.018 127.328 413.869 127.96C414.875 128.701 415.562 128.664 416.321 127.831C416.73 127.386 416.669 126.679 416.138 125.709C415.296 124.162 413.814 123.156 412.377 123.156C411.774 123.156 411.179 122.991 411.06 122.781C410.932 122.57 410.703 122.488 410.529 122.598C410.364 122.707 406.823 122.634 402.633 122.433C395.99 122.113 393.995 122.14 386.648 122.616C378.843 123.128 378.22 123.128 377.873 122.662C377.534 122.213 377.424 122.241 376.793 122.909V122.9Z" fill="#2F2F2F"/>
<path d="M361.017 129.277C360.706 129.661 360.761 129.872 361.273 130.384C362.06 131.171 362.06 132.36 361.255 135.398C360.642 137.713 359.873 139.745 355.847 149.553C353.77 154.623 352.324 158.95 351.666 162.098L351.217 164.221L352.059 165.401C353.139 166.92 355.134 167.735 355.719 166.893C356.671 165.511 357.43 164.404 358.428 162.912C359.013 162.034 359.928 160.863 360.441 160.332C361.237 159.499 362.563 157.843 364.448 155.318C364.769 154.888 365.528 153.964 366.114 153.296C366.699 152.628 367.761 151.383 368.456 150.56C369.142 149.736 370.176 148.529 370.716 147.888C371.265 147.248 373.37 145.189 375.373 143.331C378.805 140.156 379.043 139.992 379.125 140.751C379.171 141.19 378.603 143.441 377.853 145.747C375.492 153.04 374.047 158.603 374.028 160.479C374.028 161.75 374.147 162.025 375.245 163.013C376.188 163.864 376.673 164.093 377.322 163.983C378.484 163.791 380.616 162.391 381.952 160.936C382.593 160.241 383.416 159.353 383.819 158.932C384.212 158.52 384.935 157.688 385.393 157.111C388.421 153.287 389.721 151.887 392.722 149.178C395.064 147.074 397.324 145.408 397.553 145.628C397.754 145.829 397.041 149.087 395.943 153.012C393.857 160.424 393.573 166.701 395.119 171.266C395.888 173.545 396.73 174.936 397.919 175.924C398.981 176.802 399.072 176.83 399.594 176.354C400.326 175.686 400.298 175.183 399.374 172.749C397.553 167.936 397.718 164.212 400.088 157.111C402.018 151.31 402.76 148.629 403.19 145.903C403.629 143.112 403.437 141.035 402.686 140.495C401.799 139.854 399.255 140.01 397.947 140.788C394.415 142.901 388.266 147.97 384.157 152.161C382.465 153.891 380.955 155.29 380.79 155.29C380.443 155.29 381.294 152.344 382.675 148.757C383.544 146.506 384.496 143.505 384.743 142.224C384.825 141.803 385.191 140.339 385.567 138.948C386.363 135.975 386.189 135.609 383.737 134.977C381.797 134.483 380.699 134.739 379.592 135.938C378.594 137.027 378.091 137.448 376.142 138.793C374.815 139.717 366.114 148.382 362.097 152.792C360.962 154.037 360.047 154.842 360.047 154.595C360.047 154.348 360.541 153.058 361.136 151.759C361.731 150.459 362.49 148.776 362.81 148.071C363.122 147.376 363.387 146.671 363.387 146.534C363.387 146.195 365.253 142.727 365.546 142.526C365.665 142.444 365.967 141.767 366.233 141.007C366.498 140.248 366.928 139.186 367.202 138.619C367.486 138.052 367.77 136.78 367.861 135.746C368.044 133.532 367.34 131.692 365.674 130.073C364.823 129.249 364.357 129.039 363.021 128.929C361.804 128.828 361.301 128.911 361.017 129.268V129.277Z" fill="#2F2F2F"/>
</svg>
