<svg width="65" height="59" viewBox="0 0 65 59" fill="none" xmlns="http://www.w3.org/2000/svg">
<path d="M59.4883 9.25781V53.2234" stroke="#856F5D" stroke-width="2" stroke-linecap="round" stroke-linejoin="round"/>
<path d="M50.6337 53.2236V22.7172C44.4734 22.7172 38.2955 16.2764 32.1352 16.2764C25.9749 16.2764 19.797 22.7172 13.6367 22.7172V53.2236" stroke="#856F5D" stroke-width="2" stroke-linecap="round" stroke-linejoin="round"/>
<path d="M4.7832 53.2234V9.25781" stroke="#856F5D" stroke-width="2" stroke-linecap="round" stroke-linejoin="round"/>
<path d="M63.4829 53.2236H1.10547" stroke="#856F5D" stroke-width="2" stroke-linecap="round" stroke-linejoin="round"/>
<path d="M31.8895 1.25977H63.2895L59.7869 8.69821H4.48497L1 1.25977H31.8895Z" stroke="#856F5D" stroke-width="2" stroke-linecap="round" stroke-linejoin="round"/>
<path d="M21.5 52.9998C18.9479 50.742 17.5803 46.4157 19.1996 41.7601C20.2381 38.7498 21.8925 37.6821 20.2909 33.6741C23.459 35.2668 26.2928 37.9447 25.0783 41.0601C22.4558 47.7284 30.6578 50.9488 30.2177 45.7682C29.8305 43.5629 25.6767 40.29 29.9537 37.6471C34.8292 34.6367 38.1381 34.0417 35.4804 28.3359C36.8357 28.546 38.8598 30.6112 39.7398 32.7465C41.6583 37.3671 36.6773 36.9295 36.9413 41.2526C37.2053 45.3831 43.6824 47.3784 43.26 37.017C47.7658 44.0004 45.4074 49.9719 41.5 52.9998" stroke="#856F5D" stroke-width="2" stroke-linecap="round" stroke-linejoin="round"/>
<path d="M63.3772 57.7393H1.21094" stroke="#856F5D" stroke-width="2" stroke-linecap="round" stroke-linejoin="round"/>
<path d="M1.10547 57.6867V53.2236" stroke="#856F5D" stroke-width="2" stroke-linecap="round" stroke-linejoin="round"/>
<path d="M63.4648 57.6867V53.2236" stroke="#856F5D" stroke-width="2" stroke-linecap="round" stroke-linejoin="round"/>
</svg>
