<svg width="49" height="66" viewBox="0 0 49 66" fill="none" xmlns="http://www.w3.org/2000/svg">
<path d="M24.2365 32.6347C24.2466 32.5944 24.2566 32.549 24.2667 32.5087C24.2566 32.549 24.2415 32.5944 24.2314 32.6347H24.2365Z" fill="#5FCFCF"/>
<mask id="path-2-inside-1_104_1766" fill="white">
<path d="M48.3567 21.5931C48.2966 21.0619 48.2164 20.5206 48.1212 19.9894C47.9658 19.1274 47.8055 18.4107 47.62 17.7392C47.4146 16.9975 47.169 16.2708 46.9034 15.5692C46.6879 15.0179 46.4423 14.4416 46.1416 13.8151C45.9061 13.319 45.6354 12.8379 45.4049 12.4219C44.593 10.9786 43.6709 9.65049 42.6686 8.48279C42.2175 7.95657 41.7916 7.49551 41.3656 7.07454C41.3255 7.03946 41.2854 6.99936 41.2453 6.96428C41.2152 6.93421 41.1801 6.90916 41.1501 6.87909C40.7692 6.50823 40.3833 6.15742 40.0124 5.83668C38.3737 4.43344 36.5745 3.26073 34.6651 2.34862C34.3895 2.21832 34.0938 2.08802 33.7881 1.95771C33.5525 1.85748 33.312 1.75725 33.0564 1.65702C32.911 1.60189 32.7657 1.55178 32.6204 1.50166L32.3798 1.41646C30.5305 0.754936 28.6462 0.32394 26.7819 0.128488L26.6766 0.118465C26.3158 0.083384 25.9399 0.0533145 25.5691 0.0332682H25.4638C25.3987 0.023245 25.3335 0.023245 25.2634 0.023245L24.9777 0.0132218C24.4966 -0.00181289 24.0506 -0.00682447 23.5043 0.0132218H23.2537C23.1886 0.023245 23.1234 0.023245 23.0533 0.0282566H22.948C22.5772 0.0533145 22.2063 0.083384 21.8405 0.118465L21.7352 0.128488C19.8759 0.32394 17.9916 0.754936 16.1373 1.41646L15.8917 1.50166C15.7464 1.55178 15.601 1.60189 15.4557 1.65702C15.2001 1.75725 14.9596 1.85748 14.724 1.95771C14.4183 2.08802 14.1276 2.21832 13.847 2.34862C11.9376 3.26073 10.1384 4.43344 8.49964 5.83668C8.12377 6.15742 7.74289 6.50823 7.36201 6.87909C7.33194 6.90916 7.30187 6.93421 7.2718 6.96428C7.23171 6.99936 7.19162 7.03444 7.15152 7.07454C6.72554 7.50052 6.29956 7.96159 5.84851 8.48279C4.8462 9.6555 3.92407 10.9786 3.11219 12.4219C2.87665 12.8379 2.61103 13.324 2.37549 13.8151C2.07479 14.4466 1.82421 15.0179 1.61373 15.5692C1.3431 16.2658 1.10255 16.9975 0.897073 17.7392C0.711644 18.4057 0.551274 19.1224 0.395915 19.9894C0.300695 20.5206 0.22051 21.0568 0.160371 21.5931C0.0501158 22.5703 0 23.4474 0 24.2693V40.8726C0 41.1984 0.0100232 41.5392 0.0250579 41.905C0.0451042 42.3711 0.0851969 42.8672 0.140324 43.4185C0.19044 43.9197 0.245567 44.3356 0.310718 44.7416C0.365845 45.0824 0.430996 45.4332 0.501158 45.784C0.57132 46.1248 0.641482 46.4405 0.716656 46.7412C0.751737 46.8715 0.786818 46.9968 0.821899 47.1221L0.947188 47.5831C1.00232 47.7836 1.05744 47.9841 1.11758 48.1845C1.24287 48.5754 1.3832 48.9764 1.53354 49.3823C1.60872 49.5878 1.69893 49.7932 1.79415 50.0138L1.88435 50.2242C1.91442 50.2994 1.9495 50.3796 1.97957 50.4598L1.99962 50.5099C2.03971 50.6101 2.08482 50.7154 2.12992 50.8156C2.23015 51.0361 2.3354 51.2466 2.45567 51.4771L2.56593 51.6976C2.78143 52.1236 3.01697 52.5596 3.2876 53.0307C3.53818 53.4667 3.81882 53.9128 4.13455 54.3889C4.62569 55.1256 5.1068 55.7771 5.60796 56.3734C5.68814 56.4737 5.77835 56.5689 5.86355 56.6691L5.94874 56.7694C6.26447 57.1302 6.54512 57.4359 6.83078 57.7316C6.94104 57.8469 7.04127 57.9421 7.1415 58.0423L7.2267 58.1275C7.4873 58.3881 7.73788 58.6287 7.97342 58.8442C8.11375 58.9745 8.26409 59.0997 8.40943 59.225L8.51467 59.3152C8.90056 59.646 9.22632 59.9066 9.53703 60.1472C9.63225 60.2223 9.72747 60.2925 9.82771 60.3627L10.0332 60.513C10.4642 60.8287 10.8501 61.0944 11.2109 61.3249C11.5116 61.5153 11.8123 61.6907 12.123 61.8762C12.7194 62.222 13.2105 62.4926 13.6766 62.7181C14.4684 63.104 15.3254 63.4598 16.2175 63.7755C17.5856 64.2567 18.9989 64.6175 20.4172 64.843C21.6951 65.0485 22.9881 65.1487 24.2611 65.1487C27.5286 65.1487 30.7009 64.5072 33.6878 63.2393C34.5899 62.8584 35.502 62.3974 36.4091 61.8711C36.6196 61.7509 36.8251 61.6256 37.0356 61.5003C37.4816 61.2247 37.9577 60.8989 38.4939 60.513L38.6543 60.3977C38.7545 60.3276 38.8548 60.2524 38.95 60.1822C39.5614 59.7162 40.1678 59.205 40.7441 58.6687C40.8644 58.5535 40.9847 58.4382 41.1 58.3179L41.2804 58.1325C41.7314 57.6915 42.1574 57.2304 42.5583 56.7744C43.2098 56.0276 43.8212 55.2258 44.3775 54.3989L44.5179 54.1934C44.598 54.0781 44.6782 53.9679 44.7484 53.8476C44.8135 53.7424 44.8737 53.6371 44.9589 53.4968L45.2596 52.9906C45.3899 52.7751 45.5252 52.5546 45.6455 52.3291C45.7257 52.1788 45.8008 52.0284 45.876 51.873L46.1015 51.422C46.1566 51.3117 46.2168 51.2015 46.2669 51.0862C46.4874 50.6101 46.6979 50.114 46.8984 49.5978C47.3444 48.4401 47.7102 47.1872 47.9909 45.8792C48.0911 45.4031 48.1763 44.922 48.2465 44.4459L48.2866 44.2053C48.3066 44.075 48.3317 43.9397 48.3467 43.8094C48.4068 43.2982 48.4519 42.8221 48.482 42.3561C48.482 42.2909 48.487 42.2207 48.487 42.1556L48.4971 41.9451C48.5071 41.6845 48.5221 41.4189 48.5221 41.1583V24.2693C48.5271 23.4424 48.477 22.5703 48.3668 21.5931H48.3567ZM46.9385 24.2693V40.8726C46.9385 41.0581 46.9284 41.2435 46.9184 41.464L46.8984 41.9451C46.8984 42.0754 46.8933 42.2107 46.8833 42.341C46.8533 42.8171 46.8031 43.3032 46.743 43.7894C46.728 43.8896 46.7129 43.9898 46.6979 44.0951L46.6678 44.2805C46.5927 44.7616 46.5075 45.2427 46.4072 45.7138C46.1366 46.9567 45.7307 48.2397 45.1994 49.5176L45.1243 49.703C45.014 49.9737 44.9038 50.2393 44.7785 50.5049C44.5379 51.0111 44.2923 51.4972 44.0367 51.9432L43.9515 52.0986C43.8964 52.1988 43.8413 52.299 43.7862 52.3943C43.701 52.5396 43.6108 52.6799 43.5055 52.8453C43.3251 53.131 43.1397 53.4066 42.9743 53.6471C42.9442 53.6923 42.9142 53.7424 42.8841 53.7875C42.854 53.8376 42.8189 53.8877 42.7839 53.9378C42.7538 53.9829 42.7187 54.028 42.6836 54.0731L42.5984 54.1834C42.0121 54.9902 41.3505 55.7771 40.6389 56.5238C40.1578 57.025 39.7067 57.461 39.2507 57.8619C38.2734 58.7239 37.206 59.5107 36.0784 60.2023C35.2514 60.7085 34.4045 61.1595 33.5575 61.5404C30.6057 62.8735 27.4735 63.55 24.256 63.55C21.0386 63.55 17.9014 62.8735 14.9546 61.5404C14.1276 61.1645 13.3108 60.7285 12.4488 60.1973C12.3886 60.1622 12.3285 60.1271 12.2683 60.092C12.1882 60.0469 12.108 60.0018 12.0278 59.9517C11.9827 59.9216 11.9326 59.8916 11.8825 59.8665C11.8273 59.8364 11.7722 59.8014 11.7221 59.7663C11.3111 59.4957 10.8952 59.19 10.409 58.8141L10.2687 58.7088C10.1885 58.6487 10.1084 58.5886 10.0332 58.5234C9.76757 58.3079 9.50697 58.0874 9.25138 57.8569C8.7853 57.4459 8.33426 57.0099 7.86317 56.5188C7.16155 55.7871 6.50503 55.0003 5.90865 54.1784C5.5829 53.7273 5.27719 53.2763 5.00156 52.8403C4.73594 52.4143 4.51543 52.0334 4.31998 51.6776C4.11451 51.3017 3.94912 50.981 3.80379 50.6803C3.78374 50.6352 3.7637 50.5851 3.72862 50.5049L3.6785 50.3946C3.65344 50.3295 3.62337 50.2693 3.59831 50.2042L3.53316 50.0538C3.47302 49.9185 3.41289 49.7782 3.35275 49.6379L3.27256 49.4525C3.2475 49.3923 3.22245 49.3372 3.19739 49.277C2.99692 48.7759 2.80648 48.2447 2.62106 47.6533C2.46069 47.1471 2.31535 46.6159 2.19006 46.0797C2.00463 45.2979 1.86431 44.506 1.76408 43.7142C1.70394 43.2231 1.65382 42.7169 1.62375 42.2057C1.61874 42.1005 1.60872 39.7801 1.59869 35.3098L1.57364 24.2693C1.57364 23.6579 1.60371 23.0164 1.66886 22.2947C1.71897 21.6983 1.78412 21.1721 1.8593 20.691C1.91943 20.3151 1.9896 19.9393 2.06477 19.5684C2.22514 18.8016 2.43563 18.0248 2.68621 17.2531C2.93679 16.4813 3.25252 15.6844 3.61335 14.8826C3.84889 14.3614 4.07943 13.9053 4.30996 13.4793C4.94643 12.3066 5.69315 11.184 6.52508 10.1366C6.92099 9.63545 7.35199 9.14432 7.79802 8.67323C7.8782 8.58803 7.9634 8.50785 8.05361 8.42766C8.11876 8.36251 8.18892 8.30237 8.25407 8.23722C8.57982 7.91147 8.9607 7.5356 9.36163 7.18479C10.835 5.89682 12.4488 4.8093 14.1727 3.95232C14.4333 3.82202 14.709 3.70174 14.9846 3.58147L15.1951 3.49126C15.2753 3.45618 15.3505 3.4211 15.4307 3.381C15.5409 3.33089 15.6562 3.27576 15.7714 3.23066C15.9569 3.15548 16.1473 3.09033 16.3377 3.02017L16.5833 2.93497C18.3524 2.29349 20.1465 1.87753 21.9658 1.6921C22.3967 1.647 22.8578 1.61693 23.4141 1.59688H23.5193C23.7649 1.58686 24.0155 1.58185 24.2611 1.58185C24.5066 1.58185 24.7572 1.58185 24.9978 1.59187H25.108C25.6693 1.61693 26.1304 1.647 26.5914 1.6921C28.3705 1.87753 30.1697 2.29349 31.9388 2.93497L32.1844 3.02017C32.3748 3.08532 32.5652 3.15548 32.7507 3.23066C32.8659 3.27576 32.9762 3.33089 33.0864 3.381C33.1666 3.41608 33.2468 3.45618 33.327 3.49126L33.5525 3.59149C33.8231 3.70676 34.0888 3.82703 34.3494 3.95232C36.0683 4.8093 37.6871 5.89682 39.1605 7.18479C39.5564 7.53059 39.9373 7.91147 40.268 8.23722C40.3332 8.30237 40.4034 8.36752 40.4685 8.42766C40.5537 8.50785 40.6389 8.58803 40.7191 8.67323C41.1651 9.14432 41.5911 9.63545 41.992 10.1366C42.8239 11.179 43.5707 12.3066 44.2071 13.4793C44.4377 13.9053 44.6632 14.3664 44.9038 14.8826C45.2696 15.6794 45.5803 16.4763 45.8309 17.2531C46.0815 18.0198 46.292 18.7966 46.4523 19.5684C46.5325 19.9393 46.5977 20.3151 46.6578 20.691C46.733 21.1671 46.7981 21.6933 46.8482 22.2947C46.9084 23.0164 46.9435 23.6629 46.9435 24.2693H46.9385Z"/>
</mask>
<path d="M48.3567 21.5931C48.2966 21.0619 48.2164 20.5206 48.1212 19.9894C47.9658 19.1274 47.8055 18.4107 47.62 17.7392C47.4146 16.9975 47.169 16.2708 46.9034 15.5692C46.6879 15.0179 46.4423 14.4416 46.1416 13.8151C45.9061 13.319 45.6354 12.8379 45.4049 12.4219C44.593 10.9786 43.6709 9.65049 42.6686 8.48279C42.2175 7.95657 41.7916 7.49551 41.3656 7.07454C41.3255 7.03946 41.2854 6.99936 41.2453 6.96428C41.2152 6.93421 41.1801 6.90916 41.1501 6.87909C40.7692 6.50823 40.3833 6.15742 40.0124 5.83668C38.3737 4.43344 36.5745 3.26073 34.6651 2.34862C34.3895 2.21832 34.0938 2.08802 33.7881 1.95771C33.5525 1.85748 33.312 1.75725 33.0564 1.65702C32.911 1.60189 32.7657 1.55178 32.6204 1.50166L32.3798 1.41646C30.5305 0.754936 28.6462 0.32394 26.7819 0.128488L26.6766 0.118465C26.3158 0.083384 25.9399 0.0533145 25.5691 0.0332682H25.4638C25.3987 0.023245 25.3335 0.023245 25.2634 0.023245L24.9777 0.0132218C24.4966 -0.00181289 24.0506 -0.00682447 23.5043 0.0132218H23.2537C23.1886 0.023245 23.1234 0.023245 23.0533 0.0282566H22.948C22.5772 0.0533145 22.2063 0.083384 21.8405 0.118465L21.7352 0.128488C19.8759 0.32394 17.9916 0.754936 16.1373 1.41646L15.8917 1.50166C15.7464 1.55178 15.601 1.60189 15.4557 1.65702C15.2001 1.75725 14.9596 1.85748 14.724 1.95771C14.4183 2.08802 14.1276 2.21832 13.847 2.34862C11.9376 3.26073 10.1384 4.43344 8.49964 5.83668C8.12377 6.15742 7.74289 6.50823 7.36201 6.87909C7.33194 6.90916 7.30187 6.93421 7.2718 6.96428C7.23171 6.99936 7.19162 7.03444 7.15152 7.07454C6.72554 7.50052 6.29956 7.96159 5.84851 8.48279C4.8462 9.6555 3.92407 10.9786 3.11219 12.4219C2.87665 12.8379 2.61103 13.324 2.37549 13.8151C2.07479 14.4466 1.82421 15.0179 1.61373 15.5692C1.3431 16.2658 1.10255 16.9975 0.897073 17.7392C0.711644 18.4057 0.551274 19.1224 0.395915 19.9894C0.300695 20.5206 0.22051 21.0568 0.160371 21.5931C0.0501158 22.5703 0 23.4474 0 24.2693V40.8726C0 41.1984 0.0100232 41.5392 0.0250579 41.905C0.0451042 42.3711 0.0851969 42.8672 0.140324 43.4185C0.19044 43.9197 0.245567 44.3356 0.310718 44.7416C0.365845 45.0824 0.430996 45.4332 0.501158 45.784C0.57132 46.1248 0.641482 46.4405 0.716656 46.7412C0.751737 46.8715 0.786818 46.9968 0.821899 47.1221L0.947188 47.5831C1.00232 47.7836 1.05744 47.9841 1.11758 48.1845C1.24287 48.5754 1.3832 48.9764 1.53354 49.3823C1.60872 49.5878 1.69893 49.7932 1.79415 50.0138L1.88435 50.2242C1.91442 50.2994 1.9495 50.3796 1.97957 50.4598L1.99962 50.5099C2.03971 50.6101 2.08482 50.7154 2.12992 50.8156C2.23015 51.0361 2.3354 51.2466 2.45567 51.4771L2.56593 51.6976C2.78143 52.1236 3.01697 52.5596 3.2876 53.0307C3.53818 53.4667 3.81882 53.9128 4.13455 54.3889C4.62569 55.1256 5.1068 55.7771 5.60796 56.3734C5.68814 56.4737 5.77835 56.5689 5.86355 56.6691L5.94874 56.7694C6.26447 57.1302 6.54512 57.4359 6.83078 57.7316C6.94104 57.8469 7.04127 57.9421 7.1415 58.0423L7.2267 58.1275C7.4873 58.3881 7.73788 58.6287 7.97342 58.8442C8.11375 58.9745 8.26409 59.0997 8.40943 59.225L8.51467 59.3152C8.90056 59.646 9.22632 59.9066 9.53703 60.1472C9.63225 60.2223 9.72747 60.2925 9.82771 60.3627L10.0332 60.513C10.4642 60.8287 10.8501 61.0944 11.2109 61.3249C11.5116 61.5153 11.8123 61.6907 12.123 61.8762C12.7194 62.222 13.2105 62.4926 13.6766 62.7181C14.4684 63.104 15.3254 63.4598 16.2175 63.7755C17.5856 64.2567 18.9989 64.6175 20.4172 64.843C21.6951 65.0485 22.9881 65.1487 24.2611 65.1487C27.5286 65.1487 30.7009 64.5072 33.6878 63.2393C34.5899 62.8584 35.502 62.3974 36.4091 61.8711C36.6196 61.7509 36.8251 61.6256 37.0356 61.5003C37.4816 61.2247 37.9577 60.8989 38.4939 60.513L38.6543 60.3977C38.7545 60.3276 38.8548 60.2524 38.95 60.1822C39.5614 59.7162 40.1678 59.205 40.7441 58.6687C40.8644 58.5535 40.9847 58.4382 41.1 58.3179L41.2804 58.1325C41.7314 57.6915 42.1574 57.2304 42.5583 56.7744C43.2098 56.0276 43.8212 55.2258 44.3775 54.3989L44.5179 54.1934C44.598 54.0781 44.6782 53.9679 44.7484 53.8476C44.8135 53.7424 44.8737 53.6371 44.9589 53.4968L45.2596 52.9906C45.3899 52.7751 45.5252 52.5546 45.6455 52.3291C45.7257 52.1788 45.8008 52.0284 45.876 51.873L46.1015 51.422C46.1566 51.3117 46.2168 51.2015 46.2669 51.0862C46.4874 50.6101 46.6979 50.114 46.8984 49.5978C47.3444 48.4401 47.7102 47.1872 47.9909 45.8792C48.0911 45.4031 48.1763 44.922 48.2465 44.4459L48.2866 44.2053C48.3066 44.075 48.3317 43.9397 48.3467 43.8094C48.4068 43.2982 48.4519 42.8221 48.482 42.3561C48.482 42.2909 48.487 42.2207 48.487 42.1556L48.4971 41.9451C48.5071 41.6845 48.5221 41.4189 48.5221 41.1583V24.2693C48.5271 23.4424 48.477 22.5703 48.3668 21.5931H48.3567ZM46.9385 24.2693V40.8726C46.9385 41.0581 46.9284 41.2435 46.9184 41.464L46.8984 41.9451C46.8984 42.0754 46.8933 42.2107 46.8833 42.341C46.8533 42.8171 46.8031 43.3032 46.743 43.7894C46.728 43.8896 46.7129 43.9898 46.6979 44.0951L46.6678 44.2805C46.5927 44.7616 46.5075 45.2427 46.4072 45.7138C46.1366 46.9567 45.7307 48.2397 45.1994 49.5176L45.1243 49.703C45.014 49.9737 44.9038 50.2393 44.7785 50.5049C44.5379 51.0111 44.2923 51.4972 44.0367 51.9432L43.9515 52.0986C43.8964 52.1988 43.8413 52.299 43.7862 52.3943C43.701 52.5396 43.6108 52.6799 43.5055 52.8453C43.3251 53.131 43.1397 53.4066 42.9743 53.6471C42.9442 53.6923 42.9142 53.7424 42.8841 53.7875C42.854 53.8376 42.8189 53.8877 42.7839 53.9378C42.7538 53.9829 42.7187 54.028 42.6836 54.0731L42.5984 54.1834C42.0121 54.9902 41.3505 55.7771 40.6389 56.5238C40.1578 57.025 39.7067 57.461 39.2507 57.8619C38.2734 58.7239 37.206 59.5107 36.0784 60.2023C35.2514 60.7085 34.4045 61.1595 33.5575 61.5404C30.6057 62.8735 27.4735 63.55 24.256 63.55C21.0386 63.55 17.9014 62.8735 14.9546 61.5404C14.1276 61.1645 13.3108 60.7285 12.4488 60.1973C12.3886 60.1622 12.3285 60.1271 12.2683 60.092C12.1882 60.0469 12.108 60.0018 12.0278 59.9517C11.9827 59.9216 11.9326 59.8916 11.8825 59.8665C11.8273 59.8364 11.7722 59.8014 11.7221 59.7663C11.3111 59.4957 10.8952 59.19 10.409 58.8141L10.2687 58.7088C10.1885 58.6487 10.1084 58.5886 10.0332 58.5234C9.76757 58.3079 9.50697 58.0874 9.25138 57.8569C8.7853 57.4459 8.33426 57.0099 7.86317 56.5188C7.16155 55.7871 6.50503 55.0003 5.90865 54.1784C5.5829 53.7273 5.27719 53.2763 5.00156 52.8403C4.73594 52.4143 4.51543 52.0334 4.31998 51.6776C4.11451 51.3017 3.94912 50.981 3.80379 50.6803C3.78374 50.6352 3.7637 50.5851 3.72862 50.5049L3.6785 50.3946C3.65344 50.3295 3.62337 50.2693 3.59831 50.2042L3.53316 50.0538C3.47302 49.9185 3.41289 49.7782 3.35275 49.6379L3.27256 49.4525C3.2475 49.3923 3.22245 49.3372 3.19739 49.277C2.99692 48.7759 2.80648 48.2447 2.62106 47.6533C2.46069 47.1471 2.31535 46.6159 2.19006 46.0797C2.00463 45.2979 1.86431 44.506 1.76408 43.7142C1.70394 43.2231 1.65382 42.7169 1.62375 42.2057C1.61874 42.1005 1.60872 39.7801 1.59869 35.3098L1.57364 24.2693C1.57364 23.6579 1.60371 23.0164 1.66886 22.2947C1.71897 21.6983 1.78412 21.1721 1.8593 20.691C1.91943 20.3151 1.9896 19.9393 2.06477 19.5684C2.22514 18.8016 2.43563 18.0248 2.68621 17.2531C2.93679 16.4813 3.25252 15.6844 3.61335 14.8826C3.84889 14.3614 4.07943 13.9053 4.30996 13.4793C4.94643 12.3066 5.69315 11.184 6.52508 10.1366C6.92099 9.63545 7.35199 9.14432 7.79802 8.67323C7.8782 8.58803 7.9634 8.50785 8.05361 8.42766C8.11876 8.36251 8.18892 8.30237 8.25407 8.23722C8.57982 7.91147 8.9607 7.5356 9.36163 7.18479C10.835 5.89682 12.4488 4.8093 14.1727 3.95232C14.4333 3.82202 14.709 3.70174 14.9846 3.58147L15.1951 3.49126C15.2753 3.45618 15.3505 3.4211 15.4307 3.381C15.5409 3.33089 15.6562 3.27576 15.7714 3.23066C15.9569 3.15548 16.1473 3.09033 16.3377 3.02017L16.5833 2.93497C18.3524 2.29349 20.1465 1.87753 21.9658 1.6921C22.3967 1.647 22.8578 1.61693 23.4141 1.59688H23.5193C23.7649 1.58686 24.0155 1.58185 24.2611 1.58185C24.5066 1.58185 24.7572 1.58185 24.9978 1.59187H25.108C25.6693 1.61693 26.1304 1.647 26.5914 1.6921C28.3705 1.87753 30.1697 2.29349 31.9388 2.93497L32.1844 3.02017C32.3748 3.08532 32.5652 3.15548 32.7507 3.23066C32.8659 3.27576 32.9762 3.33089 33.0864 3.381C33.1666 3.41608 33.2468 3.45618 33.327 3.49126L33.5525 3.59149C33.8231 3.70676 34.0888 3.82703 34.3494 3.95232C36.0683 4.8093 37.6871 5.89682 39.1605 7.18479C39.5564 7.53059 39.9373 7.91147 40.268 8.23722C40.3332 8.30237 40.4034 8.36752 40.4685 8.42766C40.5537 8.50785 40.6389 8.58803 40.7191 8.67323C41.1651 9.14432 41.5911 9.63545 41.992 10.1366C42.8239 11.179 43.5707 12.3066 44.2071 13.4793C44.4377 13.9053 44.6632 14.3664 44.9038 14.8826C45.2696 15.6794 45.5803 16.4763 45.8309 17.2531C46.0815 18.0198 46.292 18.7966 46.4523 19.5684C46.5325 19.9393 46.5977 20.3151 46.6578 20.691C46.733 21.1671 46.7981 21.6933 46.8482 22.2947C46.9084 23.0164 46.9435 23.6629 46.9435 24.2693H46.9385Z" stroke="#856F5D" stroke-width="2" mask="url(#path-2-inside-1_104_1766)"/>
<path d="M45.0749 37.5562H15.1357V38.9193H45.0749V37.5562Z" fill="#5FCFCF"/>
<path d="M11.7434 37.5558H3.44922C3.44922 38.042 3.44922 38.498 3.44922 38.919H11.7434V37.5558Z" fill="#5FCFCF"/>
<path d="M28.1661 41.3052H3.45898C3.45898 41.661 3.45898 41.8815 3.45898 41.9467C3.47402 42.1722 3.49407 42.4178 3.51912 42.6734H28.1661V41.3102V41.3052Z" fill="#5FCFCF"/>
<path d="M31.5586 42.6683H44.9646C44.9846 42.4478 45.0147 42.2273 45.0297 42.0118C45.0397 41.8966 45.0397 41.7913 45.0448 41.6861L45.0598 41.3052H31.5636V42.6683H31.5586Z" fill="#5FCFCF"/>
<path d="M16.8545 46.422H44.2578C44.3831 45.991 44.4934 45.5651 44.5886 45.1441C44.5936 45.119 44.5986 45.089 44.6036 45.0589H16.8545V46.422Z" fill="#5FCFCF"/>
<path d="M13.4626 45.0529H3.89551C3.92558 45.1932 3.95064 45.3386 3.98572 45.4789C4.06089 45.7946 4.1511 46.1053 4.24131 46.4161H13.4626V45.0529Z" fill="#5FCFCF"/>
<path d="M32.8917 50.1711H42.7896C42.8898 49.9756 42.9951 49.7852 43.0853 49.5847C43.2006 49.3391 43.3008 49.0936 43.401 48.848L43.416 48.8079H32.8867V50.1711H32.8917Z" fill="#5FCFCF"/>
<path d="M29.4986 48.8079H18.9092V50.1711H29.4986V48.8079Z" fill="#5FCFCF"/>
<path d="M15.5168 48.8079H5.05762L5.46857 49.7601C5.52871 49.8904 5.59887 50.0257 5.67404 50.1711H15.5168V48.8079Z" fill="#5FCFCF"/>
<path d="M26.3563 52.5558H7.0918C7.19203 52.7062 7.29226 52.8515 7.40252 53.0018C7.62804 53.3176 7.86859 53.6183 8.11416 53.924H26.3563V52.5608V52.5558Z" fill="#5FCFCF"/>
<path d="M29.749 53.919H40.3736C40.6191 53.6133 40.8597 53.3126 41.0852 52.9968L41.2556 52.7663L41.3057 52.6911C41.3258 52.656 41.3609 52.6009 41.3959 52.5558H29.749V53.919Z" fill="#5FCFCF"/>
<path d="M21.1846 56.3043H10.3496C10.3897 56.3393 10.4298 56.3794 10.4699 56.4145C10.7054 56.625 10.941 56.8305 11.1865 57.0309C11.2517 57.0861 11.5273 57.2966 11.5273 57.2966C11.7077 57.4369 11.8631 57.5521 12.0185 57.6674H21.1846V56.3043Z" fill="#5FCFCF"/>
<path d="M24.5771 57.6732H36.4496C36.9908 57.2773 37.517 56.8613 38.0132 56.4203C38.0533 56.3852 38.0934 56.3452 38.1335 56.3101H24.5771V57.6732Z" fill="#5FCFCF"/>
<path d="M18.7386 60.9446C18.8889 60.9847 19.0393 61.0248 19.1896 61.0598C19.3801 61.11 19.5755 61.1601 19.766 61.2002C20.1368 61.2804 20.5077 61.3555 20.8785 61.4157C21.3847 61.5009 21.8959 61.561 22.4071 61.6061C22.5474 61.6161 22.6827 61.6312 22.823 61.6412C22.9684 61.6512 23.1137 61.6612 23.2641 61.6713C23.5848 61.6863 23.9055 61.6963 24.2313 61.6963C24.542 61.6963 24.8577 61.6863 25.1685 61.6713C25.3689 61.6612 25.5644 61.6462 25.7598 61.6312C25.835 61.6262 25.9152 61.6211 25.9904 61.6111C26.5166 61.566 27.0428 61.4958 27.559 61.4107C28.3608 61.2803 29.1527 61.0999 29.9295 60.8794C29.9695 60.8694 30.0096 60.8544 30.0497 60.8443C30.3504 60.7541 30.6461 60.6589 30.9418 60.5587C31.1322 60.4935 31.3177 60.4234 31.5031 60.3532C31.6284 60.3081 31.7537 60.258 31.884 60.2079C32.0093 60.1578 32.1345 60.1026 32.2548 60.0475H16.2178C17.0397 60.3983 17.8766 60.699 18.7286 60.9346L18.7386 60.9446Z" fill="#5FCFCF"/>
<path d="M32.3398 33.1704L45.0742 29.7575V28.2089L31.9539 31.7271C31.8787 31.5216 31.7985 31.3211 31.7033 31.1257L45.0492 23.4179C45.0241 22.8666 44.979 22.3153 44.9138 21.769L30.9516 29.8277C30.8263 29.6472 30.696 29.4718 30.5557 29.3065L43.4956 16.3666C43.2951 15.8754 43.0646 15.3943 42.829 14.9182L29.5032 28.244C29.3379 28.1037 29.1625 27.9734 28.982 27.8481L39.3259 9.92668C38.9701 9.55081 38.5993 9.2 38.2184 8.8542L27.684 27.1014C27.4886 27.0112 27.2881 26.926 27.0826 26.8508L32.851 5.32104C32.5803 5.19575 32.3147 5.06545 32.0441 4.95519C31.8487 4.87501 31.6532 4.81487 31.4578 4.7397L25.6393 26.4599C25.4238 26.4248 25.2133 26.3897 24.9928 26.3697V3.45673C24.7072 3.44671 24.4766 3.4417 24.2461 3.4417C24.0156 3.4417 23.765 3.4417 23.5294 3.45673C23.5194 3.45673 23.5094 3.45673 23.4994 3.45673V26.3797C23.2789 26.3997 23.0684 26.4298 22.8529 26.4699L17.0294 4.74471C16.834 4.81487 16.6385 4.88002 16.4481 4.95519C16.1674 5.06545 15.9068 5.19575 15.6362 5.32104L21.4045 26.8508C21.1991 26.926 20.9986 27.0061 20.8031 27.1014L10.2688 8.85921C9.88792 9.20501 9.51706 9.55582 9.16124 9.93169L19.5051 27.8531C19.3247 27.9784 19.1493 28.1087 18.9839 28.249L5.65814 14.9182C5.41759 15.3943 5.19207 15.8704 4.9916 16.3666L17.9315 29.3065C17.7912 29.4718 17.6609 29.6472 17.5356 29.8277L3.57333 21.764C3.50818 22.3103 3.46307 22.8616 3.43802 23.4128L16.7838 31.1207C16.6936 31.3161 16.6084 31.5166 16.5333 31.722L3.41797 28.2089C3.41797 28.7201 3.41797 29.2413 3.41797 29.7575L16.1424 33.1654C16.1073 33.3809 16.0722 33.5914 16.0522 33.8119H3.43802C3.43802 34.3231 3.43802 34.8192 3.43802 35.3103H45.0742V33.8119H32.43C32.41 33.5914 32.3749 33.3809 32.3398 33.1654V33.1704Z" fill="#F4CB78"/>
</svg>
