<svg width="132" height="37" viewBox="0 0 132 37" fill="none" xmlns="http://www.w3.org/2000/svg">
<path d="M0 36.2321H3.23791V20.3849H12.3598V36.2321H15.5919V17.2805H0V36.2321Z" fill="#2F2F2F"/>
<path d="M19.8164 36.2321H33.5282V33.1335H23.0543V28.178H31.5147V25.0735H23.0543V20.3849H33.5282V17.2805H19.8164V36.2321Z" fill="#2F2F2F"/>
<path d="M36.4175 20.3849H42.5974V36.2321H45.8353V20.3849H52.0093V17.2805H36.4175V20.3849Z" fill="#2F2F2F"/>
<path d="M68.4719 19.1141C67.1315 17.8956 65.3443 17.2805 63.1683 17.2805H54.8994V36.2321H58.1373V30.0522H63.1683C65.3443 30.0522 67.1257 29.4371 68.4719 28.2186C69.8182 27 70.4971 25.4681 70.4971 23.6635C70.4971 21.8588 69.8182 20.3269 68.4719 19.1083V19.1141ZM67.1257 23.6693C67.1257 24.6789 66.7834 25.4913 66.116 26.0716C65.4429 26.6577 64.4507 26.9536 63.1683 26.9536H58.1373V20.3849H63.1683C64.4507 20.3849 65.4429 20.6809 66.116 21.2669C66.7834 21.8472 67.1257 22.6596 67.1257 23.6693Z" fill="#2F2F2F"/>
<path d="M82.9902 17.2805C80.2571 17.2805 77.9476 18.1915 76.1256 19.9961C74.3093 21.795 73.3867 24.0696 73.3867 26.7563C73.3867 29.4429 74.3093 31.7176 76.1256 33.5165C77.9418 35.3153 80.2513 36.2321 82.9902 36.2321C85.7291 36.2321 88.0327 35.3211 89.8548 33.5165C91.671 31.7118 92.5937 29.4371 92.5937 26.7563C92.5937 24.0754 91.671 21.795 89.8548 19.9961C88.0385 18.1973 85.7291 17.2805 82.9902 17.2805ZM89.3964 26.7563C89.3964 28.6886 88.7929 30.2843 87.6033 31.4797C86.4138 32.6809 84.8587 33.2901 82.9902 33.2901C81.1217 33.2901 79.5492 32.6809 78.3654 31.4797C77.1817 30.2785 76.584 28.6886 76.584 26.7563C76.584 24.824 77.1817 23.2283 78.3654 22.0329C79.5492 20.8317 81.1043 20.2225 82.9902 20.2225C84.8761 20.2225 86.408 20.8317 87.6033 22.0329C88.7929 23.2341 89.3964 24.824 89.3964 26.7563Z" fill="#2F2F2F"/>
<path d="M109.99 26.884C109.497 26.5474 108.923 26.3095 108.279 26.1586V26.1354C108.801 25.9555 109.259 25.7118 109.648 25.4159C110.611 24.6731 111.099 23.5822 111.099 22.1896C111.099 20.7969 110.565 19.619 109.515 18.6847C108.464 17.7563 107.031 17.2805 105.25 17.2805H95.9072V36.2321H105.116C107.222 36.2321 108.87 35.7215 110.025 34.7234C111.186 33.7195 111.772 32.3965 111.772 30.7834C111.772 29.0484 111.174 27.737 109.99 26.8782V26.884ZM99.1451 24.9342V20.3791H105.116C105.952 20.3791 106.607 20.5822 107.054 20.9768C107.501 21.3714 107.727 21.9052 107.727 22.5609C107.727 23.3037 107.501 23.8956 107.054 24.3076C106.607 24.7253 105.952 24.9342 105.116 24.9342H99.1451ZM108.4 30.5165C108.4 32.2747 107.281 33.1277 104.983 33.1277H99.1451V27.8994H104.983C107.281 27.8994 108.4 28.7524 108.4 30.5106V30.5165Z" fill="#2F2F2F"/>
<path d="M126.598 17.3385L126.586 17.2863H118.816L113.965 36.1451L113.942 36.2379H117.186L118.393 31.4043H126.928L128.205 36.1857L128.222 36.2379H131.6L126.603 17.3385H126.598ZM126.133 28.2998H119.228L121.207 20.3907H124.05L126.133 28.2998Z" fill="#2F2F2F"/>
<path d="M57.801 4.21279H56.2749L54.6385 0.0290358L54.6269 0.00582886H52.9731L55.2362 5.73309H57.1801L55.7526 9.23792L55.7352 9.28435H57.389L61.0853 0.0580511L61.1027 0.00582886H59.4432L57.801 4.21279Z" fill="#2F2F2F"/>
<path d="M69.4239 0.00582886H67.7005L65.7914 3.95167H65.2459L63.3485 0.0232363L63.3368 0.00582886H61.6134L63.9345 4.71182L61.48 9.28435H63.2034L65.2459 5.40234H65.7914L67.8223 9.26694L67.8339 9.28435H69.5573L67.1028 4.71182L69.4239 0.00582886Z" fill="#2F2F2F"/>
<path d="M77.6232 0.00582886H69.9868V1.52613H73.01V9.28435H74.5942V1.52613H77.6232V0.00582886Z" fill="#2F2F2F"/>
<path d="M83.4371 0.00582744H79.6305L77.2572 9.23792L77.2456 9.28434H78.8355L79.4274 6.91684H83.6054L84.2321 9.25534V9.28434H85.8916L83.4487 0.0290344V1.90735e-05L83.4371 0.00582744ZM83.2108 5.39653H79.8336L80.8027 1.52033H82.1953L83.2166 5.39653H83.2108Z" fill="#2F2F2F"/>
<path d="M52.2012 4.37526C51.6035 3.84141 50.7621 3.56869 49.7118 3.56869H47.06V1.36946H52.1606V0.0116272H45.7021V9.29015H49.706C50.7621 9.29015 51.5977 9.01743 52.2012 8.48358C52.7989 7.94973 53.1006 7.2592 53.1006 6.42942C53.1006 5.59963 52.7989 4.90911 52.2012 4.37526ZM51.7428 6.42942C51.7428 6.88783 51.5803 7.2534 51.2669 7.52033H51.2553C50.942 7.78725 50.4778 7.91491 49.8743 7.91491H47.06V4.93813H49.8743C50.4836 4.93813 50.9536 5.07158 51.2669 5.3327C51.5861 5.59963 51.7428 5.9652 51.7428 6.42362V6.42942Z" fill="#2F2F2F"/>
</svg>
