<svg width="181" height="67" viewBox="0 0 181 67" fill="none" xmlns="http://www.w3.org/2000/svg">
<path d="M24.7547 33.3328C24.765 33.2916 24.7752 33.2453 24.7855 33.2041C24.7752 33.2453 24.7598 33.2916 24.7495 33.3328H24.7547Z" fill="#5FCFCF"/>
<path d="M49.3911 22.055C49.3297 21.5124 49.2478 20.9595 49.1505 20.417C48.9918 19.5365 48.828 18.8045 48.6386 18.1186C48.4287 17.361 48.1779 16.6188 47.9066 15.9022C47.6865 15.3391 47.4357 14.7505 47.1286 14.1106C46.888 13.6039 46.6116 13.1125 46.3761 12.6876C45.5469 11.2134 44.605 9.85691 43.5813 8.66424C43.1206 8.12677 42.6855 7.65584 42.2504 7.22586C42.2094 7.19003 42.1685 7.14908 42.1275 7.11325C42.0968 7.08254 42.061 7.05694 42.0303 7.02623C41.6413 6.64744 41.2471 6.28913 40.8683 5.96152C39.1945 4.52827 37.3568 3.33047 35.4066 2.39885C35.125 2.26577 34.823 2.13268 34.5108 1.99959C34.2702 1.89721 34.0245 1.79484 33.7635 1.69246C33.615 1.63616 33.4666 1.58497 33.3181 1.53378L33.0724 1.44676C31.1836 0.771084 29.2589 0.330869 27.3547 0.131237L27.2473 0.120999C26.8787 0.0851675 26.4948 0.0544549 26.116 0.0339798H26.0085C25.942 0.0237422 25.8754 0.0237422 25.8038 0.0237422L25.512 0.0135047C25.0206 -0.00185167 24.565 -0.00697045 24.0071 0.0135047H23.7511C23.6846 0.0237422 23.618 0.0237422 23.5464 0.028861H23.4389C23.0601 0.0544549 22.6813 0.0851675 22.3076 0.120999L22.2001 0.131237C20.3011 0.330869 18.3764 0.771084 16.4825 1.44676L16.2316 1.53378C16.0832 1.58497 15.9348 1.63616 15.7863 1.69246C15.5253 1.79484 15.2795 1.89721 15.039 1.99959C14.7267 2.13268 14.4298 2.26577 14.1432 2.39885C12.1929 3.33047 10.3553 4.52827 8.68145 5.96152C8.29754 6.28913 7.90851 6.64744 7.51948 7.02623C7.48877 7.05694 7.45806 7.08254 7.42735 7.11325C7.3864 7.14908 7.34545 7.18491 7.3045 7.22586C6.8694 7.66096 6.4343 8.13188 5.97361 8.66424C4.94986 9.86203 4.008 11.2134 3.17876 12.6876C2.93818 13.1125 2.66688 13.609 2.4263 14.1106C2.11917 14.7556 1.86323 15.3391 1.64825 15.9022C1.37183 16.6137 1.12613 17.361 0.916261 18.1186C0.726866 18.7994 0.563065 19.5314 0.404383 20.417C0.307127 20.9595 0.225226 21.5072 0.163801 22.055C0.0511878 23.0531 0 23.9489 0 24.7884V41.7469C0 42.0796 0.0102376 42.4277 0.0255939 42.8014C0.046069 43.2774 0.0870192 43.7842 0.143326 44.3472C0.194514 44.8591 0.25082 45.284 0.317364 45.6986C0.373671 46.0467 0.440215 46.405 0.511878 46.7633C0.583541 47.1114 0.655204 47.4339 0.731985 47.741C0.767817 47.8741 0.803648 48.002 0.839479 48.13L0.967449 48.6009C1.02376 48.8057 1.08006 49.0104 1.14149 49.2152C1.26946 49.6145 1.41278 50.024 1.56635 50.4386C1.64313 50.6484 1.73527 50.8583 1.83252 51.0835L1.92466 51.2985C1.95537 51.3753 1.9912 51.4572 2.02192 51.5391L2.04239 51.5903C2.08334 51.6927 2.12941 51.8002 2.17548 51.9025C2.27786 52.1278 2.38535 52.3428 2.5082 52.5782L2.62081 52.8035C2.84092 53.2386 3.0815 53.6839 3.35792 54.165C3.61386 54.6104 3.90051 55.066 4.22299 55.5522C4.72463 56.3047 5.21603 56.9701 5.72791 57.5793C5.80981 57.6817 5.90195 57.7789 5.98897 57.8813L6.07599 57.9837C6.39847 58.3522 6.68512 58.6645 6.97689 58.9665C7.08951 59.0842 7.19188 59.1814 7.29426 59.2838L7.38128 59.3708C7.64745 59.637 7.90339 59.8827 8.14397 60.1028C8.2873 60.2359 8.44086 60.3639 8.58931 60.4919L8.6968 60.584C9.09095 60.9218 9.42367 61.188 9.74103 61.4337C9.83829 61.5105 9.93555 61.5822 10.0379 61.6538L10.2478 61.8074C10.688 62.1299 11.0822 62.4012 11.4507 62.6366C11.7578 62.8311 12.065 63.0103 12.3823 63.1997C12.9915 63.5529 13.4931 63.8293 13.9691 64.0596C14.7779 64.4538 15.6532 64.8172 16.5644 65.1397C17.9618 65.6311 19.4053 65.9997 20.8539 66.23C22.1592 66.4399 23.4798 66.5423 24.78 66.5423C28.1174 66.5423 31.3576 65.887 34.4084 64.592C35.3298 64.203 36.2614 63.732 37.1879 63.1946C37.4029 63.0717 37.6128 62.9438 37.8278 62.8158C38.2833 62.5342 38.7696 62.2015 39.3173 61.8074L39.4811 61.6897C39.5835 61.618 39.6859 61.5412 39.7831 61.4695C40.4076 60.9935 41.027 60.4714 41.6157 59.9237C41.7385 59.8059 41.8614 59.6882 41.9791 59.5654L42.1634 59.376C42.6241 58.9255 43.0592 58.4546 43.4687 57.9888C44.1341 57.2261 44.7586 56.4071 45.3268 55.5625L45.4701 55.3526C45.552 55.2349 45.6339 55.1223 45.7056 54.9994C45.7721 54.8919 45.8335 54.7844 45.9206 54.6411L46.2277 54.1241C46.3608 53.904 46.499 53.6788 46.6218 53.4484C46.7037 53.2949 46.7805 53.1413 46.8573 52.9826L47.0876 52.5219C47.1439 52.4093 47.2054 52.2967 47.2565 52.179C47.4818 51.6927 47.6968 51.1859 47.9015 50.6587C48.3571 49.4762 48.7308 48.1966 49.0174 46.8606C49.1198 46.3743 49.2068 45.8829 49.2785 45.3966L49.3194 45.1509C49.3399 45.0178 49.3655 44.8796 49.3808 44.7465C49.4423 44.2244 49.4883 43.7381 49.5191 43.2621C49.5191 43.1955 49.5242 43.1238 49.5242 43.0573L49.5344 42.8423C49.5446 42.5761 49.56 42.3048 49.56 42.0387V24.7884C49.5651 23.9438 49.5139 23.0531 49.4013 22.055H49.3911ZM47.9425 24.7884V41.7469C47.9425 41.9363 47.9322 42.1257 47.922 42.3509L47.9015 42.8423C47.9015 42.9754 47.8964 43.1136 47.8862 43.2467C47.8554 43.733 47.8043 44.2295 47.7428 44.726C47.7275 44.8284 47.7121 44.9308 47.6968 45.0383L47.6661 45.2277C47.5893 45.7191 47.5023 46.2105 47.3999 46.6916C47.1235 47.9611 46.7088 49.2715 46.1663 50.5768L46.0895 50.7662C45.9769 51.0426 45.8642 51.3139 45.7363 51.5852C45.4906 52.1022 45.2398 52.5987 44.9787 53.0543L44.8917 53.213C44.8354 53.3153 44.7791 53.4177 44.7228 53.515C44.6357 53.6634 44.5436 53.8067 44.4361 53.9757C44.2518 54.2674 44.0624 54.549 43.8935 54.7947C43.8628 54.8407 43.8321 54.8919 43.8014 54.938C43.7707 54.9892 43.7348 55.0404 43.699 55.0915C43.6683 55.1376 43.6325 55.1837 43.5966 55.2298L43.5096 55.3424C42.9107 56.1665 42.235 56.9701 41.5082 57.7328C41.0168 58.2447 40.5561 58.69 40.0903 59.0995C39.0921 59.98 38.0018 60.7836 36.8501 61.49C36.0055 62.007 35.1404 62.4677 34.2753 62.8567C31.2604 64.2183 28.0611 64.9094 24.7749 64.9094C21.4886 64.9094 18.2843 64.2183 15.2744 62.8567C14.4298 62.4728 13.5955 62.0275 12.715 61.4849C12.6536 61.4491 12.5922 61.4132 12.5308 61.3774C12.4489 61.3313 12.367 61.2853 12.2851 61.2341C12.239 61.2034 12.1878 61.1727 12.1366 61.1471C12.0803 61.1163 12.024 61.0805 11.9728 61.0447C11.5531 60.7683 11.1282 60.456 10.6317 60.0721L10.4884 59.9646C10.4065 59.9032 10.3246 59.8418 10.2478 59.7752C9.9765 59.5551 9.71032 59.3299 9.44926 59.0944C8.97322 58.6747 8.51253 58.2294 8.03136 57.7277C7.31473 56.9804 6.64417 56.1767 6.03504 55.3372C5.70232 54.8766 5.39007 54.4159 5.10854 53.9705C4.83724 53.5354 4.61202 53.1464 4.41239 52.783C4.20252 52.3991 4.0336 52.0715 3.88515 51.7643C3.86468 51.7183 3.8442 51.6671 3.80837 51.5852L3.75718 51.4726C3.73159 51.406 3.70088 51.3446 3.67528 51.2781L3.60874 51.1245C3.54731 50.9863 3.48589 50.843 3.42446 50.6996L3.34256 50.5102C3.31697 50.4488 3.29137 50.3925 3.26578 50.3311C3.06103 49.8192 2.86652 49.2766 2.67712 48.6726C2.51332 48.1556 2.36488 47.613 2.23691 47.0653C2.04751 46.2668 1.90419 45.458 1.80181 44.6492C1.74038 44.1476 1.6892 43.6306 1.65848 43.1085C1.65337 43.001 1.64313 40.631 1.63289 36.0651L1.6073 24.7884C1.6073 24.1639 1.63801 23.5087 1.70455 22.7716C1.75574 22.1625 1.82228 21.625 1.89907 21.1336C1.96049 20.7497 2.03215 20.3658 2.10894 19.987C2.27274 19.2038 2.48773 18.4104 2.74366 17.6221C2.9996 16.8338 3.32209 16.0199 3.69064 15.2009C3.93122 14.6686 4.16668 14.2028 4.40215 13.7677C5.05223 12.5699 5.81493 11.4233 6.66465 10.3534C7.06903 9.84156 7.50925 9.33992 7.96482 8.85875C8.04672 8.77173 8.13374 8.68983 8.22587 8.60793C8.29242 8.54139 8.36408 8.47996 8.43063 8.41342C8.76335 8.0807 9.15237 7.69679 9.56188 7.33847C11.0668 6.02295 12.715 4.91217 14.4759 4.03686C14.7421 3.90378 15.0236 3.78092 15.3051 3.65807L15.5201 3.56594C15.602 3.5301 15.6788 3.49427 15.7607 3.45332C15.8733 3.40213 15.9911 3.34583 16.1088 3.29976C16.2982 3.22298 16.4927 3.15643 16.6872 3.08477L16.938 2.99775C18.745 2.34255 20.5775 1.91769 22.4356 1.72829C22.8758 1.68223 23.3467 1.65151 23.9149 1.63104H24.0224C24.2732 1.6208 24.5292 1.61568 24.78 1.61568C25.0308 1.61568 25.2868 1.61568 25.5325 1.62592H25.6451C26.2184 1.65151 26.6893 1.68223 27.1602 1.72829C28.9774 1.91769 30.815 2.34255 32.622 2.99775L32.8728 3.08477C33.0673 3.15131 33.2618 3.22298 33.4512 3.29976C33.5689 3.34583 33.6816 3.40213 33.7942 3.45332C33.8761 3.48915 33.958 3.5301 34.0399 3.56594L34.2702 3.66831C34.5466 3.78604 34.8179 3.90889 35.0841 4.03686C36.8398 4.91217 38.4932 6.02295 39.9981 7.33847C40.4025 7.69167 40.7915 8.0807 41.1294 8.41342C41.1959 8.47996 41.2676 8.54651 41.3341 8.60793C41.4211 8.68983 41.5082 8.77173 41.5901 8.85875C42.0456 9.33992 42.4807 9.84156 42.8902 10.3534C43.74 11.4181 44.5026 12.5699 45.1527 13.7677C45.3882 14.2028 45.6185 14.6737 45.8642 15.2009C46.2379 16.0148 46.5553 16.8287 46.8112 17.6221C47.0672 18.4053 47.2821 19.1987 47.4459 19.987C47.5278 20.3658 47.5944 20.7497 47.6558 21.1336C47.7326 21.6199 47.7991 22.1573 47.8503 22.7716C47.9118 23.5087 47.9476 24.169 47.9476 24.7884H47.9425Z" fill="white"/>
<path d="M46.0386 38.3594H15.459V39.7517H46.0386V38.3594Z" fill="#5FCFCF"/>
<path d="M11.9935 38.3594H3.52197C3.52197 38.8559 3.52197 39.3217 3.52197 39.7517H11.9935V38.3594Z" fill="#5FCFCF"/>
<path d="M28.7678 42.1885H3.53223C3.53223 42.5519 3.53223 42.7771 3.53223 42.8437C3.54758 43.074 3.56806 43.3248 3.59365 43.5859H28.7678V42.1936V42.1885Z" fill="#5FCFCF"/>
<path d="M32.2334 43.5808H45.9261C45.9466 43.3556 45.9773 43.1303 45.9927 42.9102C46.0029 42.7925 46.0029 42.685 46.008 42.5775L46.0234 42.1885H32.2385V43.5808H32.2334Z" fill="#5FCFCF"/>
<path d="M17.2148 47.4148H45.2043C45.3323 46.9746 45.4449 46.5395 45.5422 46.1095C45.5473 46.0839 45.5524 46.0532 45.5575 46.0225H17.2148V47.4148Z" fill="#5FCFCF"/>
<path d="M13.7493 46.0166H3.97754C4.00825 46.1599 4.03385 46.3084 4.06968 46.4517C4.14646 46.7742 4.2386 47.0915 4.33073 47.4089H13.7493V46.0166Z" fill="#5FCFCF"/>
<path d="M33.595 51.2439H43.7045C43.8069 51.0442 43.9144 50.8497 44.0066 50.645C44.1243 50.3942 44.2267 50.1433 44.329 49.8925L44.3444 49.8516H33.5898V51.2439H33.595Z" fill="#5FCFCF"/>
<path d="M30.1295 49.8516H19.3135V51.2439H30.1295V49.8516Z" fill="#5FCFCF"/>
<path d="M15.8479 49.8516H5.16504L5.58478 50.8241C5.6462 50.9572 5.71787 51.0954 5.79465 51.2439H15.8479V49.8516Z" fill="#5FCFCF"/>
<path d="M26.9197 53.6797H7.24316C7.34554 53.8333 7.44792 53.9817 7.56053 54.1353C7.79087 54.4577 8.03657 54.7649 8.28739 55.0771H26.9197V53.6848V53.6797Z" fill="#5FCFCF"/>
<path d="M30.3853 55.072H41.2371C41.4879 54.7598 41.7336 54.4526 41.9639 54.1301L42.138 53.8947L42.1892 53.8179C42.2096 53.7821 42.2455 53.7258 42.2813 53.6797H30.3853V55.072Z" fill="#5FCFCF"/>
<path d="M21.6371 57.5088H10.5703C10.6113 57.5446 10.6522 57.5856 10.6932 57.6214C10.9337 57.8364 11.1743 58.0463 11.4251 58.251C11.4917 58.3073 11.7732 58.5223 11.7732 58.5223C11.9575 58.6656 12.1162 58.7834 12.2749 58.9011H21.6371V57.5088Z" fill="#5FCFCF"/>
<path d="M25.1025 58.906H37.2289C37.7817 58.5016 38.3192 58.0767 38.826 57.6263C38.8669 57.5905 38.9079 57.5495 38.9488 57.5137H25.1025V58.906Z" fill="#5FCFCF"/>
<path d="M19.1392 62.2483C19.2928 62.2892 19.4463 62.3302 19.5999 62.366C19.7944 62.4172 19.994 62.4684 20.1885 62.5094C20.5673 62.5913 20.9461 62.668 21.3249 62.7295C21.8419 62.8165 22.364 62.8779 22.8861 62.924C23.0295 62.9342 23.1677 62.9496 23.311 62.9598C23.4594 62.97 23.6079 62.9803 23.7615 62.9905C24.0891 63.0059 24.4167 63.0161 24.7494 63.0161C25.0667 63.0161 25.3892 63.0059 25.7066 62.9905C25.9113 62.9803 26.111 62.9649 26.3106 62.9496C26.3874 62.9444 26.4693 62.9393 26.5461 62.9291C27.0835 62.883 27.621 62.8114 28.1482 62.7243C28.9672 62.5913 29.776 62.407 30.5694 62.1818C30.6104 62.1715 30.6513 62.1562 30.6923 62.1459C30.9994 62.0538 31.3014 61.9565 31.6034 61.8541C31.7979 61.7876 31.9873 61.7159 32.1767 61.6443C32.3047 61.5982 32.4327 61.547 32.5658 61.4958C32.6937 61.4446 32.8217 61.3883 32.9445 61.332H16.5645C17.4039 61.6903 18.2588 61.9975 19.129 62.2381L19.1392 62.2483Z" fill="#5FCFCF"/>
<path d="M33.0317 33.8802L46.0385 30.3943V28.8126L32.6375 32.406C32.5607 32.1961 32.4788 31.9914 32.3816 31.7918L46.0129 23.9191C45.9873 23.356 45.9412 22.7929 45.8747 22.235L31.6138 30.466C31.4858 30.2817 31.3527 30.1026 31.2094 29.9336L44.4261 16.717C44.2213 16.2153 43.9859 15.7239 43.7453 15.2376L30.1344 28.8485C29.9655 28.7051 29.7864 28.572 29.6021 28.4441L40.1673 10.1393C39.8038 9.75541 39.425 9.3971 39.036 9.0439L28.2763 27.6814C28.0767 27.5892 27.8719 27.5022 27.6621 27.4254L33.5538 5.43517C33.2774 5.3072 33.0061 5.17411 32.7297 5.0615C32.53 4.9796 32.3304 4.91817 32.1308 4.84139L26.1879 27.0262C25.9678 26.9903 25.7528 26.9545 25.5275 26.934V3.53098C25.2358 3.52074 25.0003 3.51562 24.7648 3.51562C24.5294 3.51562 24.2734 3.51562 24.0329 3.53098C24.0226 3.53098 24.0124 3.53098 24.0022 3.53098V26.9443C23.7769 26.9647 23.5619 26.9955 23.3418 27.0364L17.3938 4.84651C17.1942 4.91817 16.9945 4.98471 16.8 5.0615C16.5134 5.17411 16.2472 5.3072 15.9708 5.43517L21.8625 27.4254C21.6526 27.5022 21.4479 27.5841 21.2482 27.6814L10.4886 9.04902C10.0996 9.40222 9.72076 9.76053 9.35733 10.1444L19.9225 28.4492C19.7382 28.5772 19.5591 28.7102 19.3901 28.8536L5.7793 15.2376C5.5336 15.7239 5.30326 16.2102 5.09851 16.717L18.3152 29.9336C18.1719 30.1026 18.0388 30.2817 17.9108 30.466L3.64989 22.2299C3.58335 22.7878 3.53728 23.3509 3.51169 23.914L17.143 31.7866C17.0509 31.9863 16.9638 32.191 16.887 32.4009L3.49121 28.8126C3.49121 29.3347 3.49121 29.8671 3.49121 30.3943L16.4878 33.8751C16.452 34.0952 16.4161 34.3102 16.3956 34.5354H3.51169C3.51169 35.0575 3.51169 35.5643 3.51169 36.0659H46.0385V34.5354H33.1238C33.1033 34.3102 33.0675 34.0952 33.0317 33.8751V33.8802Z" fill="#F4CB78"/>
<path d="M64.9111 48.3449H67.7674V34.3655H75.8141V48.3449H78.6704V31.627H64.9111V48.3449Z" fill="white"/>
<path d="M82.3916 48.3449H94.4924V45.6115H85.2479V41.24H92.7111V38.5015H85.2479V34.3655H94.4924V31.627H82.3916V48.3449Z" fill="white"/>
<path d="M97.042 34.3655H102.488V48.3449H105.345V34.3655H110.796V31.627H97.042V34.3655Z" fill="white"/>
<path d="M125.313 33.2445C124.13 32.1695 122.554 31.627 120.634 31.627H113.34V48.3449H116.196V42.8934H120.634C122.554 42.8934 124.125 42.3508 125.313 41.2758C126.5 40.2009 127.099 38.8495 127.099 37.2576C127.099 35.6657 126.5 34.3143 125.313 33.2394V33.2445ZM124.125 37.2627C124.125 38.1534 123.823 38.87 123.234 39.3819C122.641 39.8989 121.765 40.16 120.634 40.16H116.196V34.3655H120.634C121.765 34.3655 122.641 34.6266 123.234 35.1436C123.823 35.6554 124.125 36.3721 124.125 37.2627Z" fill="white"/>
<path d="M138.12 31.627C135.709 31.627 133.672 32.4306 132.065 34.0225C130.462 35.6094 129.648 37.6159 129.648 39.9859C129.648 42.3559 130.462 44.3625 132.065 45.9493C133.667 47.5361 135.704 48.3449 138.12 48.3449C140.536 48.3449 142.568 47.5412 144.176 45.9493C145.778 44.3574 146.592 42.3508 146.592 39.9859C146.592 37.621 145.778 35.6094 144.176 34.0225C142.573 32.4357 140.536 31.627 138.12 31.627ZM143.771 39.9859C143.771 41.6905 143.239 43.0981 142.189 44.1526C141.14 45.2122 139.768 45.7497 138.12 45.7497C136.472 45.7497 135.085 45.2122 134.04 44.1526C132.996 43.093 132.469 41.6905 132.469 39.9859C132.469 38.2814 132.996 36.8737 134.04 35.8192C135.085 34.7596 136.456 34.2222 138.12 34.2222C139.784 34.2222 141.135 34.7596 142.189 35.8192C143.239 36.8788 143.771 38.2814 143.771 39.9859Z" fill="white"/>
<path d="M161.938 40.0985C161.503 39.8016 160.996 39.5918 160.428 39.4587V39.4382C160.889 39.2795 161.293 39.0645 161.636 38.8035C162.486 38.1483 162.916 37.1859 162.916 35.9574C162.916 34.7289 162.445 33.6898 161.518 32.8657C160.592 32.0467 159.327 31.627 157.756 31.627H149.515V48.3449H157.638C159.496 48.3449 160.95 47.8944 161.969 47.014C162.992 46.1284 163.509 44.9614 163.509 43.5383C163.509 42.0078 162.982 40.851 161.938 40.0934V40.0985ZM152.371 38.3786V34.3604H157.638C158.375 34.3604 158.954 34.5395 159.348 34.8876C159.742 35.2357 159.942 35.7066 159.942 36.285C159.942 36.9402 159.742 37.4624 159.348 37.8258C158.954 38.1943 158.375 38.3786 157.638 38.3786H152.371ZM160.535 43.3029C160.535 44.8539 159.547 45.6063 157.52 45.6063H152.371V40.9943H157.52C159.547 40.9943 160.535 41.7468 160.535 43.2978V43.3029Z" fill="white"/>
<path d="M176.587 31.6779L176.577 31.6318H169.723L165.444 48.2679L165.423 48.3498H168.285L169.349 44.0858H176.879L178.005 48.3037L178.021 48.3498H181L176.593 31.6779H176.587ZM176.178 41.3473H170.087L171.832 34.3704H174.34L176.178 41.3473Z" fill="white"/>
<path d="M75.5891 22.1518H74.2378L72.7943 18.456L72.7892 18.4355H71.3252L73.3266 23.4878H75.0414L73.7822 26.5795L73.7617 26.6205H75.2257L78.4812 18.4816L78.4966 18.4355H77.0377L75.5891 22.1518Z" fill="white"/>
<path d="M85.8418 18.4355H84.3164L82.6375 21.9163H82.1512L80.4773 18.456L80.4722 18.4355H78.9468L80.9943 22.5869L78.8291 26.6205H80.3545L82.1512 23.2011H82.6375L84.4239 26.6051L84.4342 26.6205H85.9596L83.7943 22.5869L85.8418 18.4355Z" fill="white"/>
<path d="M93.0698 18.4355H86.3335V19.7767H89.0055V26.6205H90.4029V19.7767H93.0698V18.4355Z" fill="white"/>
<path d="M98.1986 18.4358H94.8406L92.747 26.5798L92.7368 26.6207H94.1394L94.6615 24.5322H98.347L98.8998 26.5951V26.6207H100.364L98.2088 18.4563V18.4307L98.1986 18.4358ZM97.9989 23.1911H95.0198L95.8746 19.7718H97.1031L98.004 23.1911H97.9989Z" fill="white"/>
<path d="M70.6442 22.2898C70.1169 21.8188 69.3747 21.5782 68.4482 21.5782H66.1089V19.6382H70.6083V18.4404H64.9111V26.6254H68.4431C69.3747 26.6254 70.1118 26.3848 70.6442 25.9138C71.1714 25.4429 71.4376 24.8338 71.4376 24.1018C71.4376 23.3698 71.1714 22.7607 70.6442 22.2898ZM70.2398 24.1018C70.2398 24.5062 70.0965 24.8287 69.82 25.0641H69.8098C69.5334 25.2996 69.1239 25.4122 68.5915 25.4122H66.1089V22.7863H68.5915C69.129 22.7863 69.5436 22.904 69.82 23.1343C70.1016 23.3698 70.2398 23.6923 70.2398 24.0967V24.1018Z" fill="white"/>
</svg>
