<svg width="353" height="54" viewBox="0 0 353 54" fill="none" xmlns="http://www.w3.org/2000/svg">
<path d="M88.2698 20.1112C87.3597 20.3871 85.7831 21.5194 84.5504 22.7807C83.7299 23.6192 82.7338 25.0274 82.2142 26.088C81.9383 26.647 81.9383 26.6613 82.1604 26.8405C82.7911 27.3493 83.5149 27.4174 83.5149 26.9695C83.5149 26.5216 84.6472 24.7586 85.801 23.3648C86.7362 22.2361 88.6317 21.0536 89.5347 21.0393C90.6813 21.0178 90.7135 21.6412 89.6458 23.2107C88.8574 24.3716 87.4636 26.1597 85.8798 28.0408C84.1885 30.051 83.6367 31.083 83.6367 32.2404C83.6367 33.3977 83.9341 34.1896 84.554 34.7558C84.8407 35.0173 85.1453 35.2323 85.2456 35.2395C85.5788 35.2682 85.6397 35.2861 85.7329 35.3792C85.8798 35.5261 87.0408 35.476 87.7538 35.2897C88.1157 35.1965 88.7285 34.9743 89.0975 34.7988C89.893 34.4261 91.5914 33.1971 91.6022 32.9857C91.6022 32.9068 91.7383 32.7599 91.9068 32.6524C92.0716 32.5449 92.2042 32.3586 92.2042 32.2296C92.2042 32.1006 92.2543 32.0289 92.3188 32.0684C92.3797 32.1078 92.4657 31.9967 92.5087 31.8319C92.5589 31.6312 92.6485 31.5452 92.7631 31.5882C92.8778 31.6312 92.9638 31.5703 92.9996 31.4162C93.0319 31.2836 93.1035 31.1797 93.1537 31.1797C93.2039 31.1797 93.2863 31.0077 93.3329 30.8035C93.3794 30.6028 93.5514 30.2911 93.7127 30.1298C93.8739 29.9686 94.1678 29.578 94.3612 29.2663C94.5547 28.9581 94.7912 28.6679 94.8916 28.6285C94.9883 28.5891 95.0385 28.5067 95.0062 28.4493C94.9704 28.392 95.0241 28.3132 95.1209 28.2773C95.2212 28.2415 95.3 28.1053 95.3 27.962C95.3 27.618 95.5258 27.2203 95.6691 27.3135C95.7264 27.3493 95.7802 27.3099 95.7838 27.2275C95.8124 26.7294 95.8698 26.5395 96.0346 26.3782C96.1851 26.2313 96.203 26.0987 96.117 25.7404C96.0561 25.4896 96.0059 25.2352 96.0024 25.1707C96.0024 25.1062 95.9092 25.2674 95.8053 25.529C95.6978 25.7942 95.4111 26.3066 95.1567 26.69C94.9023 27.0698 94.6981 27.4245 94.6981 27.4854C94.6981 27.5464 94.6264 27.6431 94.544 27.6969C94.3827 27.8008 94.1606 28.134 93.9958 28.5138C93.9384 28.65 93.7234 28.9044 93.5192 29.0728C93.3185 29.2412 93.1501 29.4311 93.1501 29.4885C93.1501 29.5458 92.8025 29.9579 92.3761 30.3986C91.9533 30.8393 91.6022 31.2406 91.6022 31.2836C91.6022 31.3266 91.2331 31.6527 90.7709 32.0146C90.3086 32.3765 89.9396 32.699 89.9396 32.7456C89.9396 32.7922 89.8142 32.8674 89.6708 32.9104C89.5275 32.957 89.1907 33.129 88.9399 33.2866C87.8828 33.9531 85.8296 34.3437 85.1811 33.9997C84.6257 33.7059 84.7618 32.8029 85.5287 31.71C85.7616 31.3768 86.0554 30.9576 86.1951 30.7569C86.3349 30.5562 86.557 30.2696 86.7039 30.1012C87.1984 29.5315 87.8613 28.7252 88.1587 28.3275C88.32 28.1125 88.578 27.7829 88.7213 27.6037C88.8646 27.4245 88.99 27.2095 88.99 27.1415C88.99 27.0734 89.033 27.0089 89.0868 27.0089C89.1405 27.0089 89.3268 26.8118 89.5096 26.5646C89.6923 26.3173 90.1152 25.7368 90.4591 25.2639C91.6452 23.6335 92.0035 22.8703 91.9354 22.125C91.8673 21.3904 91.3836 20.792 90.4914 20.3477C89.7783 19.9894 88.9614 19.9034 88.2806 20.1112H88.2698Z" fill="#856F5D"/>
<path d="M116.302 21.3832C114.363 21.7522 111.905 24.3572 110.235 27.815C109.071 30.2301 108.644 33.3546 109.293 34.7127C109.655 35.4723 110.282 36.0098 110.995 36.1746C111.339 36.2534 111.776 36.3179 111.959 36.3179C112.446 36.3179 113.661 35.888 114.302 35.4866C114.61 35.2932 115.008 35.071 115.169 35.0065C115.338 34.9348 115.632 34.7557 115.847 34.5908C116.062 34.426 116.273 34.3006 116.327 34.3006C116.381 34.3006 116.635 34.1071 116.896 33.8599C117.158 33.6162 117.412 33.4335 117.473 33.4478C117.534 33.4657 117.688 33.3797 117.832 33.2471C117.968 33.1217 118.272 32.9211 118.498 32.8064C118.724 32.6917 118.943 32.5663 118.975 32.5269C119.007 32.4875 119.165 32.3872 119.333 32.3012C119.494 32.2152 119.867 31.9321 120.154 31.6777C120.44 31.4197 120.759 31.2083 120.856 31.2083C120.953 31.2083 121.153 31.0936 121.307 30.9467C122.103 30.1799 122.307 29.9506 122.307 29.818C122.307 29.6854 122.544 29.6066 122.82 29.6496C122.87 29.6568 122.945 29.5815 122.981 29.4848C123.017 29.388 123.092 29.3343 123.146 29.3665C123.203 29.3988 123.278 29.32 123.318 29.1874C123.357 29.0548 123.439 28.9796 123.5 29.0154C123.561 29.0512 123.615 28.9724 123.615 28.8434C123.615 28.5818 123.873 28.3561 123.941 28.5567C123.984 28.6821 125.163 27.5104 125.163 27.342C125.163 27.2883 125.349 27.0339 125.586 26.758C126.102 26.1632 126.166 26.0664 126.213 25.855C126.231 25.7654 125.919 26.0091 125.528 26.3889C125.134 26.7723 124.715 27.1414 124.6 27.2023C124.486 27.2632 124.07 27.5785 123.679 27.8974C123.285 28.2163 122.863 28.5675 122.741 28.6714C122.615 28.7753 122.343 28.9616 122.128 29.087C121.913 29.2125 121.712 29.3916 121.676 29.4848C121.637 29.5851 121.533 29.6568 121.426 29.6568C121.318 29.6568 121.243 29.7069 121.243 29.775C121.243 29.8431 121.171 29.8933 121.078 29.8933C120.989 29.8933 120.881 29.9757 120.845 30.0724C120.809 30.1692 120.734 30.2373 120.684 30.2229C120.548 30.1835 120.014 30.4988 119.853 30.7138C119.77 30.8213 119.706 30.8571 119.702 30.7962C119.702 30.7353 119.605 30.7676 119.487 30.8751C119.372 30.979 119.043 31.1868 118.745 31.348C117.448 32.0468 116.484 32.5771 115.592 33.0823C114.259 33.8348 112.704 34.6088 112.095 34.8238C111.321 35.0961 111.031 35.0638 110.941 34.7019C110.873 34.4296 110.941 32.7885 111.059 31.9178C111.106 31.5738 111.683 30.033 111.833 29.8467C111.891 29.775 112.106 29.4203 112.299 29.062C112.665 28.3955 112.916 28.1805 112.916 28.5281C112.916 28.8756 113.285 29.4669 113.854 30.0509C114.46 30.6708 114.879 30.764 115.581 30.4343C116.112 30.1835 117.971 28.2701 118.276 27.6609C118.366 27.4854 118.695 27.0052 119.011 26.6039C119.613 25.8299 120.286 24.6188 120.29 24.2963C120.29 24.1888 120.329 24.0706 120.376 24.024C120.551 23.852 120.867 22.7627 120.806 22.537C120.766 22.3829 120.516 22.2145 120.089 22.0532C118.068 21.2972 117.391 21.1789 116.309 21.3832H116.302ZM118.978 23.2393C118.978 23.9631 116.635 27.7254 115.47 28.8756C115.101 29.2375 114.75 29.5457 114.696 29.5457C114.643 29.5457 114.539 29.4669 114.453 29.363C114.338 29.2232 114.324 28.7968 114.381 27.5714C114.467 25.7977 114.582 25.4537 115.205 25.0846C115.402 24.9664 115.753 24.7012 115.99 24.4898C116.811 23.7552 118.975 22.8523 118.975 23.2428L118.978 23.2393Z" fill="#856F5D"/>
<path d="M99.7718 20.7453C98.7147 21.4548 97.3388 22.7698 96.7655 23.6191C96.5182 23.9881 96.2781 24.325 96.2387 24.3608C95.8446 24.7227 94.8771 26.5537 94.1103 28.3991C93.7699 29.2196 93.3292 30.2337 93.1321 30.6601C92.3725 32.2904 92.0285 33.7273 92.2076 34.5263C92.3151 35.0029 93.0103 35.7733 93.2898 35.7303C93.6588 35.6694 94.01 35.372 94.5475 34.6697C94.8556 34.2683 95.5758 33.4729 96.1348 32.9211C96.6938 32.3692 97.4785 31.5379 97.8655 31.09C98.2561 30.6386 98.7076 30.1226 98.8688 29.9434C99.03 29.7643 99.245 29.5027 99.3382 29.3665C99.4385 29.2232 99.5568 29.1157 99.6177 29.1157C99.6786 29.1157 100.474 28.3668 101.391 27.4495C102.309 26.5322 103.079 25.7833 103.111 25.7833C103.144 25.7833 103.437 25.5217 103.785 25.1921C105.498 23.551 105.44 23.5653 105.125 24.8553C104.978 25.4644 104.709 26.6039 104.534 27.3886C104.358 28.1733 104.129 29.1623 104.029 29.5887C103.925 30.0187 103.771 30.7317 103.677 31.1939C103.584 31.6562 103.462 32.1578 103.405 32.3227C103.348 32.4875 103.208 32.9426 103.097 33.3331C102.832 34.2755 102.667 34.7736 102.144 36.1889C101.904 36.8447 101.581 37.7261 101.431 38.1525C101.28 38.5789 101.015 39.1773 100.836 39.4891C100.66 39.7972 100.556 40.0552 100.603 40.0552C100.65 40.0552 100.617 40.1448 100.513 40.263C100.417 40.3777 100.245 40.6858 100.134 40.9474C99.804 41.7214 99.1698 42.911 99.0874 42.911C99.0444 42.911 98.987 42.9898 98.944 43.0938C98.901 43.2013 98.9225 43.2478 98.9906 43.2084C99.0587 43.1654 99.1089 43.2156 99.1089 43.3231C99.1089 43.4306 99.0408 43.5058 98.944 43.5058C98.6932 43.5058 97.3424 45.1935 97.5394 45.258C97.7652 45.3333 97.3853 45.8528 97.0055 45.9926C96.7905 46.0714 96.6114 46.1932 96.6114 46.2613C96.6114 46.3294 96.744 46.3007 96.9088 46.1968C97.0736 46.0893 97.2062 46.0499 97.2062 46.1001C97.2062 46.2398 96.7905 46.8704 96.5146 47.1428C96.2495 47.4079 93.9813 49.522 93.1608 50.2745C92.8634 50.5468 92.72 50.7296 92.8383 50.6866C93.2288 50.5468 93.0389 50.8335 92.5659 51.1022C92.3044 51.2491 92.0249 51.4354 91.9425 51.5179C91.8601 51.6003 91.5089 51.7866 91.1506 51.9407C90.7923 52.0948 90.4339 52.2882 90.3408 52.3814C90.2476 52.4746 90.0792 52.5462 89.9717 52.5462C89.8176 52.5462 89.8105 52.5212 89.9359 52.4423C90.4017 52.1485 89.2228 52.2023 88.4023 52.514C88.3055 52.5498 88.0977 52.5713 87.9579 52.557C87.8146 52.5427 87.6892 52.5892 87.6892 52.6537C87.6892 52.7756 87.854 52.7684 88.843 52.6C89.187 52.5391 89.3554 52.557 89.3554 52.6502C89.3554 52.729 89.4736 52.7863 89.6277 52.7863C89.9251 52.7863 91.1255 52.3563 91.3512 52.1664C91.4337 52.0983 91.4946 52.0876 91.4946 52.1449C91.4946 52.1951 91.577 52.1198 91.6773 51.9801C91.7776 51.8368 91.9676 51.7185 92.093 51.7185C92.2184 51.7185 92.3259 51.6612 92.3259 51.5859C92.3259 51.5107 92.4083 51.4856 92.5158 51.525C92.6304 51.568 92.849 51.4784 93.064 51.2993C93.2647 51.1309 93.4689 51.0019 93.5334 51.0019C93.5943 51.0019 93.7986 50.8478 93.9741 50.6686C94.1497 50.4895 94.3683 50.3569 94.4435 50.382C94.526 50.4107 94.5869 50.3533 94.5869 50.2458C94.5869 50.1383 94.8234 49.8624 95.1208 49.608C95.4182 49.3572 95.6332 49.0885 95.6009 49.006C95.5723 48.9236 95.6905 48.7839 95.8697 48.6907C96.0488 48.5976 96.4 48.2966 96.6651 48.0135C96.9303 47.7304 97.0485 47.5728 96.9339 47.6623C96.8156 47.7555 96.701 47.7985 96.6651 47.7627C96.5827 47.6803 96.7368 47.3112 96.855 47.3112C96.9124 47.3112 96.9625 47.2288 96.9625 47.132C96.9625 47.0281 97.0629 46.9529 97.2062 46.9529C97.3388 46.9529 97.4176 47.0066 97.3782 47.0711C97.3388 47.1356 97.3854 47.1571 97.4785 47.1177C97.5788 47.0747 97.6792 46.9708 97.7222 46.8633C97.7831 46.7056 97.7652 46.7056 97.5968 46.8454C97.4176 46.9994 97.4068 46.9887 97.4928 46.7128C97.5932 46.3903 97.8727 46.1251 98.1127 46.1216C98.1987 46.1216 98.2668 46.0427 98.2668 45.946C98.2668 45.8492 98.3349 45.731 98.4137 45.6772C98.4961 45.6235 98.6359 45.4873 98.7291 45.3691C98.876 45.1792 98.8724 45.1398 98.6932 45.0108C98.5105 44.8818 98.5463 44.8029 99.0336 44.2332C99.3274 43.8892 99.5747 43.4987 99.5747 43.384C99.5747 43.1583 100.506 42.2481 100.621 42.3628C100.66 42.4022 100.585 42.5061 100.442 42.6064C100.298 42.7032 100.166 42.8859 100.134 43.0293C100.076 43.2693 100.087 43.2729 100.37 43.083C100.535 42.9719 100.635 42.9397 100.596 43.0042C100.556 43.0723 100.596 43.1511 100.693 43.1869C100.875 43.255 101.001 43.1726 101.001 42.9827C101.001 42.9146 100.947 42.9361 100.883 43.0293C100.782 43.1798 100.764 43.1762 100.764 43.0113C100.764 42.9038 100.847 42.7498 100.943 42.6709C101.04 42.5957 101.123 42.4631 101.123 42.3843C101.123 42.3055 101.284 42.0618 101.492 41.8361C101.696 41.6139 101.94 41.2162 102.033 40.9546C102.126 40.693 102.284 40.392 102.377 40.2809C102.47 40.1734 102.513 40.048 102.473 40.0086C102.434 39.9692 102.463 39.8545 102.545 39.7578C102.628 39.6611 102.653 39.5213 102.606 39.4425C102.542 39.3421 102.577 39.3242 102.721 39.378C102.875 39.4353 102.907 39.4031 102.857 39.2346C102.814 39.0949 102.875 38.9408 103.018 38.8118C103.14 38.7008 103.276 38.4786 103.316 38.3245C103.359 38.1597 103.452 38.0629 103.541 38.0988C103.735 38.1704 104.509 37.1134 104.541 36.7336C104.573 36.3753 104.906 35.6515 105.039 35.6515C105.1 35.6515 105.186 35.4795 105.236 35.2645C105.286 35.0495 105.401 34.7628 105.498 34.6159C105.655 34.3758 105.784 33.9745 105.953 33.1647C105.985 33.007 106.168 32.3083 106.354 31.6203C106.684 30.3949 107.225 28.0551 107.372 27.2202C107.411 26.9944 107.461 26.783 107.49 26.74C107.515 26.697 107.59 26.3423 107.655 25.9625C107.873 24.6654 108.142 23.4722 108.278 23.2034C108.382 22.9956 108.379 22.8594 108.26 22.6337C108.085 22.3004 107.021 21.6913 106.777 21.7845C106.68 21.8203 106.58 21.7988 106.537 21.7307C106.44 21.5766 105.956 21.5981 105.788 21.7665C105.709 21.8454 105.645 22.0532 105.645 22.2288C105.645 22.4581 105.512 22.6552 105.182 22.9203L104.72 23.2894L104.48 22.9096C104.236 22.519 104.1 22.3972 102.377 20.9747C101.176 19.9857 100.94 19.9642 99.7718 20.7489V20.7453ZM103.738 23.3647L104.351 23.68L103.197 24.7621C102.559 25.3605 101.452 26.4498 100.725 27.1987C99.9939 27.9476 99.2235 28.718 99.0014 28.9186C98.5427 29.3307 98.5033 29.3737 95.9664 31.9428C94.981 32.9426 94.139 33.7524 94.0888 33.7524C93.9204 33.7524 93.9885 33.5159 94.3504 32.8243C94.5475 32.4517 94.9416 31.6347 95.2318 31.004C95.5221 30.3734 95.9951 29.5708 96.2889 29.2089C96.5791 28.8505 96.8909 28.4241 96.9733 28.2701C97.0521 28.116 97.156 27.9583 97.199 27.9261C97.242 27.8938 97.4319 27.6537 97.6254 27.3922C98.6753 25.9517 100.141 24.4217 100.764 24.11C100.929 24.0275 101.201 23.8448 101.348 23.7122C101.617 23.4757 102.549 23.0923 102.929 23.0637C103.04 23.0565 103.409 23.1927 103.742 23.3647H103.738ZM105.071 34.4188C104.932 34.6625 104.892 34.5837 105.003 34.2863C105.043 34.1788 105.1 34.1178 105.132 34.1501C105.164 34.1788 105.136 34.297 105.068 34.4188H105.071ZM104.408 36.1065C104.276 36.2391 104.229 36.0707 104.312 35.7733L104.394 35.4759L104.437 35.7554C104.459 35.9094 104.448 36.0671 104.408 36.1065ZM102.337 39.3636C102.255 39.4461 102.194 39.4568 102.194 39.3887C102.194 39.2346 102.341 39.0877 102.42 39.1666C102.456 39.1988 102.42 39.2812 102.337 39.3672V39.3636ZM102.312 39.8689C102.312 39.9011 102.266 39.9513 102.194 39.9943C102.126 40.0337 102.076 40.0122 102.076 39.9405C102.076 39.8689 102.126 39.8151 102.194 39.8151C102.266 39.8151 102.312 39.8366 102.312 39.8689ZM101.843 40.7539C101.764 40.8973 101.66 41.0048 101.599 41.0048C101.538 41.0048 101.474 41.123 101.456 41.2663C101.413 41.5637 101.087 41.639 101.033 41.3631C100.986 41.1122 101.721 40.2487 101.861 40.3884C101.936 40.4637 101.929 40.6034 101.843 40.7575V40.7539ZM98.1486 44.9284C98.1486 44.9964 98.0948 45.0466 98.0232 45.0466C97.9515 45.0466 97.93 44.9964 97.9694 44.9284C98.0124 44.8567 98.0626 44.8101 98.0948 44.8101C98.1271 44.8101 98.1486 44.8567 98.1486 44.9284ZM97.5466 46.2971C97.4678 46.3939 97.371 46.4476 97.3388 46.4154C97.2599 46.3366 97.4355 46.118 97.5753 46.118C97.6469 46.118 97.6362 46.1896 97.5466 46.2971Z" fill="#856F5D"/>
<path d="M103.989 38.4499C103.9 38.5574 103.889 38.629 103.961 38.629C104.104 38.629 104.28 38.4105 104.197 38.3316C104.165 38.2994 104.068 38.3567 103.989 38.4499Z" fill="#856F5D"/>
<path d="M103.362 39.7937C103.14 40.0553 103.004 40.2918 103.079 40.2918C103.111 40.2918 103.247 40.1377 103.391 39.9335C103.667 39.5393 103.652 39.4533 103.362 39.7901V39.7937Z" fill="#856F5D"/>
<path d="M102.857 41.4454C102.796 41.6102 102.814 41.6282 102.929 41.5099C103.011 41.4275 103.047 41.3307 103.008 41.2949C102.968 41.2591 102.904 41.3236 102.861 41.4418L102.857 41.4454Z" fill="#856F5D"/>
<path d="M102.395 42.1371C102.359 42.2339 102.38 42.3163 102.441 42.3163C102.502 42.3163 102.556 42.2339 102.556 42.1371C102.556 42.0404 102.534 41.9579 102.509 41.9579C102.484 41.9579 102.43 42.0404 102.395 42.1371Z" fill="#856F5D"/>
<path d="M99.8904 43.5631C99.7794 43.8605 99.8188 43.9358 99.9585 43.6957C100.027 43.5775 100.055 43.4592 100.023 43.427C99.9908 43.3983 99.9335 43.4556 99.894 43.5631H99.8904Z" fill="#856F5D"/>
<path d="M100.313 43.8713C100.23 44.0039 100.098 44.072 100.023 44.0254C99.9402 43.9752 99.9115 43.9752 99.9581 44.0254C100.001 44.072 99.8829 44.2762 99.6822 44.4876C99.2092 45 99.0766 45.2544 99.2379 45.3548C99.3239 45.4085 99.3167 45.4766 99.22 45.5948C99.1411 45.6916 99.1125 45.7597 99.1555 45.7597C99.288 45.7597 99.9438 44.6668 99.8757 44.5593C99.8399 44.502 99.8757 44.4661 99.9474 44.4805C100.023 44.4984 100.187 44.3336 100.316 44.1042C100.564 43.6778 100.564 43.4736 100.316 43.8677L100.313 43.8713Z" fill="#856F5D"/>
<path d="M99.3779 44.3084C99.2668 44.4876 99.127 44.7026 99.0697 44.785C99.0088 44.8674 98.9873 44.9319 99.016 44.9319C99.0446 44.9319 99.2417 44.7169 99.4495 44.4553C99.6574 44.1938 99.7756 43.9788 99.7039 43.9788C99.6323 43.9788 99.489 44.1257 99.3779 44.3048V44.3084Z" fill="#856F5D"/>
<path d="M98.3059 46.8455C98.1913 46.9852 97.9404 47.2898 97.7577 47.5048C97.5749 47.7198 97.4782 47.9025 97.5499 47.9025C97.6215 47.9025 97.6824 47.8631 97.6824 47.8129C97.6824 47.7628 97.8974 47.4868 98.159 47.2002C98.417 46.9135 98.6356 46.6591 98.6356 46.6412C98.6356 46.5265 98.4922 46.6161 98.3095 46.8419L98.3059 46.8455Z" fill="#856F5D"/>
<path d="M92.0288 51.0662C91.7672 51.2239 91.606 51.3529 91.6705 51.3529C91.8138 51.3529 92.5627 50.905 92.5627 50.8154C92.5627 50.7438 92.5734 50.7366 92.0288 51.0662Z" fill="#856F5D"/>
<path d="M91.1011 51.5788C90.9219 51.6863 90.7786 51.8153 90.7786 51.8654C90.7786 51.9156 90.9326 51.869 91.1369 51.7508C91.3375 51.6325 91.4952 51.4999 91.4952 51.4462C91.4952 51.3351 91.506 51.3315 91.1011 51.5752V51.5788Z" fill="#856F5D"/>
<path d="M86.3816 52.1378C86.3816 52.17 86.4819 52.3026 86.593 52.4244C86.7972 52.6466 86.9764 52.7039 87.3813 52.6752C87.5963 52.6609 87.5963 52.6501 87.3921 52.4244C87.2738 52.2918 87.1556 52.2094 87.1233 52.2345C87.0947 52.2596 86.9155 52.2345 86.7256 52.1808C86.5357 52.1234 86.3816 52.1055 86.3816 52.1378Z" fill="#856F5D"/>
<path d="M339.696 34.0194C340.288 33.7543 341.76 32.3819 342.538 31.375C342.986 30.7945 343.573 30.0564 343.831 29.7447C344.093 29.4293 344.512 28.8596 344.77 28.4655C345.774 26.9462 346.257 26.183 346.257 26.1256C346.257 26.097 346.383 25.8856 346.54 25.6562C346.967 25.0327 347.787 23.3594 347.787 23.1193C347.787 23.0082 347.827 22.8936 347.87 22.8721C347.913 22.8506 348.031 22.6571 348.128 22.4493C348.267 22.1447 348.468 21.987 349.113 21.6681C349.561 21.446 350.052 21.2381 350.213 21.2023L350.503 21.1378L350.346 21.7075C349.152 26.0289 348.852 27.7596 348.852 30.2714C348.852 31.3965 349.102 32.7116 349.393 33.1057C349.507 33.2598 349.704 33.4282 349.848 33.4927C350.015 33.5691 350.078 33.4139 350.038 33.0269C349.894 31.6688 349.866 30.3395 349.98 30.2714C350.041 30.2356 350.084 30.0743 350.077 29.9095C350.063 29.5583 350.292 28.3472 350.403 28.1931C350.446 28.1322 350.539 27.8886 350.607 27.6449C350.926 26.5413 351.32 25.3194 351.449 25.0184C351.528 24.8393 351.654 24.4989 351.725 24.2695C351.797 24.0402 351.926 23.7177 352.008 23.5601C352.094 23.3952 352.162 23.1982 352.162 23.1014C352.162 23.0047 352.227 22.8398 352.309 22.718C352.392 22.5998 352.492 22.3848 352.539 22.2307C352.585 22.0766 352.693 21.876 352.782 21.772C353.108 21.3994 352.574 20.1954 352.051 20.1202C351.958 20.1058 351.768 20.0127 351.614 19.9052C351.263 19.6579 351.048 19.6687 350.708 19.9374C350.554 20.0593 350.346 20.1524 350.231 20.1524C350.116 20.1524 349.772 20.2492 349.453 20.371C349.135 20.4928 348.837 20.5896 348.787 20.5896C348.737 20.5896 348.665 20.3925 348.633 20.1417C348.543 19.5075 348.06 19.0345 347.239 18.7837C346.712 18.6224 346.408 18.6009 345.576 18.669C345.017 18.7156 344.351 18.7442 344.093 18.7335C343.763 18.7227 343.609 18.7693 343.563 18.8911C343.527 18.9915 343.373 19.1384 343.208 19.2316C343.043 19.3247 342.774 19.4895 342.592 19.6078C342.405 19.7296 342.194 19.855 342.101 19.898C341.932 19.9769 340.94 20.6648 340.721 20.8547C340.65 20.9157 340.334 21.1701 340.026 21.4066C339.722 21.643 339.295 22.0049 339.098 22.1984C338.901 22.3883 338.661 22.5532 338.578 22.5532C338.406 22.5532 338.052 23.2089 338.052 23.5278C338.052 23.6389 338.002 23.7535 337.941 23.7715C337.761 23.8324 338.045 24.5777 338.414 25.0256C339.016 25.7566 339.811 25.8963 341.144 25.5093C341.549 25.3911 342.144 25.1725 342.473 25.0184C342.803 24.8643 343.1 24.7389 343.14 24.7389C343.179 24.7389 343.566 24.5275 343.993 24.2731C344.419 24.0187 344.899 23.7464 345.05 23.6711C345.204 23.5959 345.394 23.492 345.487 23.4418C345.935 23.1874 346.171 23.0835 346.207 23.1193C346.275 23.1874 345.845 24.3197 345.727 24.3949C345.666 24.4344 345.498 24.6816 345.351 24.9539C345.093 25.4269 344.552 26.2869 343.559 27.799C343.19 28.358 341.922 29.9632 341.162 30.8304C340.521 31.5649 339.367 32.6399 339.077 32.7761C338.736 32.9373 338.682 32.9373 338.453 32.7868C338.113 32.5646 337.224 32.4392 337.127 32.6041C337.088 32.6686 337.102 32.7259 337.163 32.7259C337.224 32.7259 337.432 32.9552 337.618 33.2275C338.188 34.0588 338.948 34.3455 339.689 34.0123L339.696 34.0194ZM339.822 23.6962C340.61 22.6858 342.111 21.5391 344.584 20.0629C345.634 19.4358 346.372 19.486 346.927 20.2205C347.149 20.5143 347.196 20.6648 347.142 20.9372C347.081 21.2632 346.945 21.3456 344.451 22.5388C341.585 23.9112 340.302 24.4129 339.671 24.42H339.256L339.818 23.7034L339.822 23.6962Z" fill="#856F5D"/>
<path d="M297.024 0.103944C296.371 0.240105 295.203 0.945996 294.039 1.91346C293.157 2.64443 292.828 3.00634 292.992 3.06367C293.057 3.08875 293.19 3.00634 293.279 2.88809C293.369 2.76985 293.448 2.72685 293.451 2.79851C293.458 3.02425 292.903 3.47574 292.81 3.32166C292.749 3.22491 292.591 3.30733 292.319 3.57248C291.892 3.98813 291.799 4.22821 292.118 4.10638C292.258 4.05621 292.226 4.14221 292.011 4.42887C290.749 6.09506 289.241 8.34531 288.528 9.62451C288.363 9.92191 288.18 10.2372 288.116 10.3376C288.055 10.4343 287.818 10.9216 287.593 11.4089C287.367 11.8963 287.091 12.5018 286.98 12.7455C286.865 12.9963 286.6 13.3833 286.374 13.6305C286.156 13.867 285.962 14.1573 285.952 14.2612C285.905 14.7592 285.722 15.4902 285.611 15.63C285.557 15.698 285.518 15.8844 285.522 16.0635C285.522 16.2391 285.425 16.5258 285.289 16.7192C285.156 16.9056 284.984 17.2316 284.902 17.4431C284.819 17.6545 284.705 17.8014 284.647 17.7655C284.59 17.7297 284.572 17.7835 284.611 17.8802C284.651 17.9769 284.59 18.303 284.479 18.5861C284.371 18.8727 284.314 19.1773 284.353 19.2454C284.396 19.3171 284.378 19.378 284.318 19.378C284.257 19.378 284.146 19.5249 284.074 19.7041C283.966 19.9692 283.748 20.1018 282.891 20.4171C282.307 20.6321 281.777 20.8041 281.702 20.8041C281.63 20.8041 281.566 20.865 281.566 20.9367C281.566 21.0119 281.702 21.0406 281.892 21.0012C282.082 20.9618 282.522 20.9044 282.902 20.865C283.282 20.8256 283.615 20.7468 283.651 20.6858C283.759 20.5103 283.941 20.5533 283.941 20.7575C283.941 20.8543 283.895 20.908 283.841 20.8758C283.787 20.8435 283.669 21.1122 283.587 21.4706C283.501 21.8289 283.386 22.1514 283.332 22.1836C283.278 22.2159 283.232 22.4882 283.232 22.7713C283.232 23.0543 283.178 23.3016 283.114 23.3016C283.046 23.3016 283.024 23.4198 283.067 23.5882C283.106 23.7423 283.081 23.9107 283.013 23.9501C282.945 23.9931 282.913 24.2117 282.942 24.4375C282.974 24.674 282.942 24.8495 282.877 24.8495C282.694 24.8495 282.519 25.3834 282.451 26.1466C282.418 26.505 282.361 26.849 282.325 26.9063C282.289 26.9636 282.264 27.2646 282.264 27.562C282.264 27.8594 282.221 28.1676 282.164 28.2392C282.031 28.4041 281.949 29.2497 282.067 29.2497C282.121 29.2497 282.164 29.3572 282.164 29.4862C282.164 29.6152 282.117 29.7227 282.057 29.7227C281.734 29.7227 281.87 31.7221 282.272 32.8759C282.526 33.614 283.071 34.2447 283.447 34.2447C283.565 34.2447 283.712 34.2913 283.773 34.345C283.834 34.3988 284.135 34.4776 284.432 34.517C284.894 34.5779 285.059 34.5385 285.504 34.259C286.296 33.7574 287.55 32.1628 287.879 31.2348C287.965 30.9983 288.08 30.7941 288.13 30.7941C288.18 30.7941 288.227 30.7152 288.227 30.6328C288.227 30.5432 288.352 30.2351 288.513 29.9377C288.671 29.6403 288.84 29.221 288.89 28.9989C288.94 28.7767 289.176 28.0816 289.424 27.4545C290.061 25.8134 290.524 23.9788 290.463 23.3159C290.402 22.6494 289.85 21.4562 289.499 21.2305C288.814 20.7933 288.166 20.8973 287.12 21.6103C286.238 22.2123 285.543 22.8895 284.988 23.6814C284.722 24.0612 284.482 24.3694 284.457 24.3694C284.357 24.3694 284.744 22.5491 284.988 21.8719C285.023 21.7751 285.041 21.6211 285.027 21.5387C285.013 21.4491 285.063 21.3129 285.142 21.2162C285.221 21.1194 285.246 20.9976 285.203 20.9259C285.16 20.8543 285.178 20.8005 285.249 20.8005C285.321 20.8005 285.375 20.7002 285.375 20.5676C285.375 20.435 285.425 20.306 285.493 20.263C285.565 20.22 285.593 20.1591 285.565 20.109C285.539 20.0624 285.754 19.919 286.041 19.7936C286.328 19.6682 286.564 19.5141 286.564 19.4604C286.564 19.4066 286.672 19.3923 286.79 19.4317C286.933 19.4783 287.041 19.4317 287.08 19.3171C287.116 19.2132 287.245 19.1343 287.378 19.1343C287.51 19.1343 287.765 19.0053 287.965 18.8369C288.166 18.6685 288.374 18.5395 288.442 18.5395C288.506 18.5395 288.592 18.4571 288.625 18.3604C288.657 18.2636 288.739 18.1955 288.797 18.2134C288.854 18.2314 289.141 18.0558 289.427 17.8265C289.714 17.6007 290.355 17.1206 290.843 16.773C291.33 16.4254 291.76 16.1029 291.796 16.0599C291.828 16.0169 291.996 15.8915 292.165 15.784C292.455 15.5977 293.555 14.6123 294.318 13.8634C294.497 13.6879 294.652 13.4549 294.652 13.3618C294.652 13.2686 294.727 13.1898 294.816 13.1898C294.97 13.1898 296.067 11.907 296.508 11.2047C296.626 11.0184 296.837 10.7246 296.991 10.5311C297.145 10.3411 297.264 10.1154 297.264 10.0151C297.264 9.91475 297.389 9.68901 297.55 9.4991C297.704 9.31635 297.873 8.94012 297.919 8.67854C297.966 8.41697 298.052 8.19839 298.109 8.19839C298.167 8.19839 298.217 8.09807 298.217 7.96549C298.217 7.83291 298.263 7.61433 298.324 7.46026C298.382 7.30976 298.521 6.86544 298.632 6.47488C298.744 6.08431 298.916 5.52174 299.012 5.22434C299.131 4.8696 299.191 4.13505 299.195 3.04217L299.202 1.3939L298.446 0.691588C298.03 0.304603 297.636 -0.00355227 297.565 3.0934e-05C297.497 0.00719734 297.249 0.0501956 297.024 0.0967772V0.103944ZM297.5 2.77701C297.5 3.65848 297.085 5.99831 296.712 7.21301C296.404 8.21273 296.085 8.8792 295.221 10.3161C294.97 10.7317 294.763 11.1187 294.763 11.1653C294.763 11.2119 294.634 11.3839 294.483 11.5415C294.333 11.6956 293.809 12.2832 293.34 12.8315C292.871 13.3797 292.333 13.9458 292.161 14.0784C291.986 14.2146 291.681 14.4797 291.466 14.6804C290.8 15.3039 290.205 15.8055 289.588 16.257C289.255 16.5007 288.911 16.7837 288.804 16.9056C288.7 17.0238 288.553 17.1206 288.478 17.1206C288.406 17.1206 288.342 17.1779 288.342 17.2388C288.342 17.2997 288.281 17.3571 288.209 17.3571C288.098 17.3571 287.435 17.8121 286.733 18.3711C286.163 18.8262 285.79 18.9372 286.138 18.5467C286.299 18.3675 286.317 18.2672 286.213 18.1489C286.109 18.0271 286.124 17.9483 286.267 17.8229C286.457 17.658 286.647 17.2603 286.733 16.8447C286.758 16.7157 286.847 16.5114 286.94 16.3681C287.095 16.1316 287.546 14.9993 287.707 14.4403C287.743 14.3113 287.897 14.0139 288.037 13.7846C288.313 13.3439 288.513 12.7491 288.467 12.5018C288.453 12.4266 288.521 12.3585 288.603 12.3585C288.693 12.3585 288.965 11.9787 289.216 11.5021C290.101 9.82517 290.18 9.68542 290.323 9.59226C290.405 9.53851 290.477 9.43102 290.477 9.35935C290.477 9.23036 291.23 8.1339 292.355 6.62537C293.763 4.73344 295.823 2.73043 296.791 2.31478C297.439 2.03529 297.493 2.07112 297.493 2.77343L297.5 2.77701ZM288.868 22.2589C288.822 22.4022 288.789 22.8429 288.797 23.2335C288.814 24.2547 288.03 26.8955 287.227 28.5151C286.88 29.2175 286.525 29.9735 286.435 30.2028C286.346 30.4322 286.038 31.0485 285.751 31.5716C284.805 33.2844 284.26 33.7645 283.941 33.1661C283.708 32.7254 283.515 31.3459 283.529 30.1921L283.54 29.049L284.278 27.5728C284.683 26.763 285.016 26.0642 285.016 26.0284C285.016 25.8887 285.894 24.4482 286.46 23.6635C286.869 23.0938 287.213 22.7749 287.765 22.4452C288.646 21.9221 289.001 21.8647 288.872 22.2589H288.868ZM284.443 22.3771C284.361 22.4595 284.3 22.4703 284.3 22.4022C284.3 22.2481 284.447 22.1012 284.525 22.18C284.561 22.2123 284.525 22.2947 284.443 22.3807V22.3771ZM283.823 23.1869C283.823 23.2586 283.777 23.3052 283.705 23.3052C283.633 23.3052 283.587 23.2586 283.587 23.1869C283.587 23.1153 283.633 23.0687 283.705 23.0687C283.777 23.0687 283.823 23.1153 283.823 23.1869Z" fill="#856F5D"/>
<path d="M291.298 4.83734C291.155 5.02367 291.162 5.02725 291.352 4.88034C291.552 4.72268 291.61 4.62952 291.506 4.62952C291.477 4.62952 291.391 4.7191 291.298 4.83734Z" fill="#856F5D"/>
<path d="M290.767 5.49306L290.542 5.7618L290.803 5.53964C291.054 5.32824 291.126 5.22791 291.029 5.22791C291.011 5.22791 290.889 5.35332 290.767 5.49665V5.49306Z" fill="#856F5D"/>
<path d="M288.998 8.0299C288.89 8.19472 288.854 8.30222 288.926 8.25922C289.069 8.17322 289.338 7.72174 289.248 7.72174C289.223 7.72174 289.109 7.86507 288.998 8.0299Z" fill="#856F5D"/>
<path d="M314.677 19.0798C312.739 19.4488 310.281 22.0538 308.611 25.5116C307.446 27.9267 307.02 31.0512 307.668 32.4093C308.03 33.1689 308.657 33.7064 309.37 33.8712C309.714 33.95 310.152 34.0145 310.334 34.0145C310.822 34.0145 312.036 33.5846 312.678 33.1832C312.986 32.9897 313.384 32.7676 313.545 32.7031C313.713 32.6314 314.007 32.4523 314.222 32.2874C314.437 32.1226 314.649 31.9972 314.702 31.9972C314.756 31.9972 315.01 31.8037 315.272 31.5565C315.534 31.3128 315.788 31.1301 315.849 31.1444C315.91 31.1623 316.064 31.0763 316.207 30.9437C316.343 30.8183 316.648 30.6177 316.874 30.503C317.099 30.3883 317.318 30.2629 317.35 30.2235C317.382 30.1841 317.54 30.0838 317.709 29.9978C317.87 29.9118 318.242 29.6287 318.529 29.3743C318.816 29.1163 319.135 28.9049 319.231 28.9049C319.328 28.9049 319.529 28.7902 319.683 28.6433C320.478 27.8765 320.683 27.6472 320.683 27.5146C320.683 27.382 320.919 27.3032 321.195 27.3462C321.245 27.3534 321.32 27.2781 321.356 27.1814C321.392 27.0846 321.467 27.0309 321.521 27.0631C321.578 27.0954 321.654 27.0166 321.693 26.884C321.732 26.7514 321.815 26.6761 321.876 26.712C321.937 26.7478 321.99 26.669 321.99 26.54C321.99 26.2784 322.248 26.0527 322.317 26.2533C322.36 26.3787 323.538 25.207 323.538 25.0386C323.538 24.9849 323.725 24.7305 323.961 24.4546C324.477 23.8598 324.542 23.763 324.588 23.5516C324.606 23.462 324.294 23.7057 323.904 24.0855C323.51 24.4689 323.091 24.838 322.976 24.8989C322.861 24.9598 322.446 25.2751 322.055 25.594C321.661 25.9129 321.238 26.2641 321.116 26.368C320.991 26.4719 320.718 26.6582 320.503 26.7836C320.288 26.9091 320.088 27.0882 320.052 27.1814C320.013 27.2817 319.909 27.3534 319.801 27.3534C319.694 27.3534 319.618 27.4035 319.618 27.4716C319.618 27.5397 319.547 27.5899 319.454 27.5899C319.364 27.5899 319.257 27.6723 319.221 27.769C319.185 27.8658 319.11 27.9339 319.059 27.9195C318.923 27.8801 318.389 28.1954 318.228 28.4104C318.146 28.5179 318.081 28.5537 318.078 28.4928C318.078 28.4319 317.981 28.4642 317.863 28.5717C317.748 28.6756 317.418 28.8834 317.121 29.0446C315.824 29.7434 314.86 30.2737 313.968 30.7789C312.635 31.5314 311.08 32.3054 310.47 32.5203C309.697 32.7927 309.406 32.7604 309.317 32.3985C309.249 32.1262 309.317 30.4851 309.435 29.6144C309.482 29.2704 310.058 27.7296 310.209 27.5433C310.266 27.4716 310.481 27.1169 310.675 26.7586C311.04 26.0921 311.291 25.8771 311.291 26.2247C311.291 26.5722 311.66 27.1635 312.23 27.7475C312.835 28.3674 313.255 28.4606 313.957 28.1309C314.487 27.8801 316.347 25.9667 316.652 25.3575C316.741 25.182 317.071 24.7018 317.386 24.3005C317.988 23.5265 318.662 22.3154 318.665 21.9929C318.665 21.8854 318.705 21.7672 318.751 21.7206C318.927 21.5486 319.242 20.4593 319.181 20.2336C319.142 20.0795 318.891 19.9111 318.465 19.7498C316.444 18.9938 315.766 18.8755 314.684 19.0798H314.677ZM317.354 20.9359C317.354 21.6597 315.01 25.422 313.846 26.5722C313.477 26.9341 313.126 27.2423 313.072 27.2423C313.018 27.2423 312.914 27.1635 312.828 27.0595C312.714 26.9198 312.699 26.4934 312.757 25.2679C312.843 23.4943 312.957 23.1503 313.581 22.7812C313.778 22.663 314.129 22.3978 314.365 22.1864C315.186 21.4518 317.35 20.5489 317.35 20.9394L317.354 20.9359Z" fill="#856F5D"/>
<path d="M327.095 16.6476C326.773 16.8769 326.773 16.9736 327.106 17.117C327.593 17.3284 327.521 18.389 326.83 21.2663C326.644 22.0403 326.4 22.7784 326.292 22.8967C326.185 23.0149 326.131 23.1654 326.174 23.2371C326.217 23.3051 326.113 23.5273 325.948 23.7315C325.784 23.9322 325.644 24.2045 325.644 24.3335C325.644 24.4625 325.594 24.5342 325.529 24.4948C325.468 24.4553 325.382 24.5593 325.339 24.7277C325.296 24.8925 325.214 25.0322 325.157 25.0322C325.099 25.0322 324.959 25.2293 324.841 25.4766C324.723 25.7274 324.594 25.9746 324.544 26.0427C324.494 26.1072 324.257 26.4584 324.021 26.8167C322.555 29.0168 319.577 32.2094 319.269 31.9048C319.244 31.8797 319.083 31.3243 318.918 30.6794C318.474 28.9558 318.051 28.619 317.617 29.6438C317.302 30.3927 317.327 31.1774 317.686 31.8797C317.918 32.3348 318.108 32.5104 318.703 32.8257C319.37 33.1769 319.477 33.2019 319.918 33.0944C320.226 33.0192 320.502 32.84 320.685 32.6C320.842 32.3921 321.254 31.9335 321.613 31.5644C321.971 31.1953 322.491 30.6185 322.792 30.2565C323.085 29.8982 323.358 29.5829 323.394 29.5507C323.429 29.5184 323.591 29.2998 323.745 29.0741C323.902 28.8412 324.203 28.4506 324.422 28.189C324.641 27.9275 324.816 27.6516 324.816 27.5656C324.816 27.4796 324.856 27.4115 324.906 27.4115C324.956 27.4115 325.171 27.1212 325.393 26.7522C325.615 26.3831 325.819 26.1215 325.855 26.1574C325.891 26.1932 325.941 26.6375 325.963 27.1392C326.052 29.1493 326.504 30.2745 327.314 30.5002C327.969 30.683 328.113 30.6435 328.582 30.1598C329.259 29.4647 329.295 29.4109 330.101 27.9705C331.105 26.1753 331.244 25.9388 331.854 24.9749C332.147 24.5127 332.466 23.9859 332.57 23.7853C332.674 23.5918 332.893 23.1797 333.05 22.8823C333.373 22.2768 334.211 21.1337 334.211 21.3021C334.211 21.3595 334.046 22.3735 333.849 23.5488C333.649 24.7277 333.405 26.3329 333.308 27.1177C333.212 27.9024 333.083 28.8269 333.022 29.1744C332.843 30.2315 333.147 33.4814 333.52 34.4919C334.036 35.8822 334.548 36.5737 335.068 36.5737C335.329 36.5737 335.473 36.3014 335.329 36.0757C335.279 35.9968 335.222 35.8428 335.211 35.7603C335.197 35.6743 335.147 35.5095 335.096 35.402C335.046 35.2945 335 35.1512 334.989 35.0867C334.889 34.3629 334.781 33.3309 334.77 32.969C334.763 32.7325 334.724 32.5283 334.684 32.5283C334.609 32.5283 334.656 32.1126 334.917 30.4465C334.978 30.0487 335.064 29.3643 335.107 28.9021C335.15 28.4399 335.279 27.7949 335.397 27.4509C335.516 27.1069 335.702 26.3939 335.813 25.8456C335.924 25.2974 336.057 24.7528 336.11 24.6202C336.261 24.2475 337.013 21.8253 337.146 21.2914C337.21 21.0334 337.382 20.3884 337.526 19.876C337.777 18.9731 337.78 18.9265 337.569 18.6971C336.985 18.0558 335.612 17.7082 335.003 18.0486C334.638 18.2528 334.562 18.3782 334.562 18.7831C334.562 18.9695 334.426 19.3063 334.265 19.5213C334.104 19.7363 333.968 19.9405 333.968 19.9728C333.968 20.005 333.824 20.1878 333.659 20.3669C333.294 20.7611 332.542 21.9041 332.542 22.0689C332.542 22.1406 332.502 22.1872 332.445 22.1872C332.287 22.1872 331.352 23.6133 331.352 23.8534C331.352 23.9716 331.28 24.1257 331.198 24.1794C331.033 24.2869 330.402 25.1863 330.402 25.3189C330.402 25.3655 330.209 25.6987 329.98 26.057C329.75 26.4154 329.524 26.8023 329.485 26.9134C329.356 27.2717 328.242 28.8519 328.12 28.8519C328.045 28.8519 328.034 28.5545 328.088 28.0421C328.217 26.8274 328.242 26.6984 328.446 25.9961C328.636 25.3547 328.983 24.1042 329.618 21.8109C330.051 20.2415 330.094 18.3926 329.711 17.744C329.571 17.5075 329.449 17.228 329.449 17.1385C329.449 16.8912 328.464 16.4827 327.869 16.4827C327.582 16.4827 327.242 16.5651 327.095 16.6691V16.6476Z" fill="#856F5D"/>
<path d="M304.26 21.1054C303.504 21.4852 302.02 22.8469 301.042 24.058C300.515 24.7137 299.039 26.8063 298.935 27.0428C298.892 27.1431 298.688 27.4584 298.473 27.7559C298.003 28.4116 296.158 31.529 296.158 31.6687C296.158 31.726 295.939 32.0485 295.678 32.3818C295.205 32.9766 295.183 32.9873 294.621 32.9694C294.144 32.9551 294.055 32.9192 294.108 32.7616C294.144 32.6541 294.134 32.6075 294.083 32.6541C294.033 32.7007 293.922 32.6648 293.829 32.5717C293.707 32.4498 293.693 32.3209 293.782 32.0951C293.847 31.9303 293.929 31.572 293.962 31.3211C293.994 31.0667 294.159 30.5472 294.323 30.1673C294.488 29.7911 294.728 29.0745 294.854 28.5872C294.976 28.0998 295.165 27.376 295.269 26.989C295.373 26.5949 295.481 26.147 295.506 25.9786C295.531 25.8138 295.628 25.2763 295.714 24.7997C295.807 24.3016 295.843 23.6388 295.803 23.2589C295.739 22.639 295.685 22.553 295.09 22.0227C294.732 21.7038 294.259 21.3993 294.019 21.3312C293.485 21.1807 292.711 21.1807 292.711 21.3312C292.711 21.3885 292.926 21.5892 293.188 21.7719C293.449 21.9546 293.696 22.2341 293.739 22.3918C293.822 22.7107 293.682 23.7462 293.227 26.1506C292.887 27.9529 292.733 28.5513 291.213 34.1053C290.586 36.3878 290.059 38.3406 290.038 38.4445C289.956 38.8566 289.612 40.3472 289.379 41.3111C288.203 46.1986 287.877 47.9974 287.788 50.0899C287.755 50.8281 287.702 51.4695 287.666 51.5304C287.573 51.6773 288.257 52.6842 288.601 52.9063C289.085 53.2217 289.325 53.0998 289.346 52.5265C289.357 52.2542 289.443 51.9174 289.543 51.7597C289.64 51.6056 289.787 51.1577 289.866 50.7672C289.945 50.373 290.056 49.9466 290.11 49.814C290.167 49.6815 290.235 49.47 290.267 49.3375C290.461 48.5384 291.532 44.9982 292.07 43.3894C292.879 40.9635 292.951 40.7557 293.213 40.1788C293.334 39.9065 293.431 39.627 293.431 39.5482C293.431 39.4693 293.481 39.3153 293.549 39.197C293.614 39.0823 293.818 38.6201 294.008 38.1579C294.194 37.6957 294.581 36.7784 294.872 36.1011C295.38 34.9115 295.406 34.8793 295.739 34.9258C296.197 34.9939 297.165 34.8076 297.76 34.5389C298.032 34.4134 298.358 34.2844 298.501 34.2414C298.638 34.202 298.896 34.0408 299.05 33.901C299.211 33.7577 299.709 33.3886 300.16 33.0805C301.776 31.9804 304.321 29.483 305.091 28.2396C306.524 25.9213 306.951 24.7245 306.832 23.3413C306.635 20.9872 305.851 20.3028 304.263 21.1018L304.26 21.1054ZM305.36 22.0371C305.55 23.198 304.485 25.6776 302.955 27.6376C302.4 28.3507 300.264 30.4934 300.11 30.4934C300.046 30.4934 299.759 30.7299 299.469 31.0273C299.186 31.3176 298.595 31.7511 298.179 31.9733C297.763 32.1954 297.426 32.4391 297.441 32.5072C297.459 32.5788 297.351 32.6326 297.197 32.6326C297.043 32.6326 296.86 32.6935 296.782 32.7759C296.699 32.8583 296.613 32.8942 296.581 32.8583C296.509 32.7867 298 29.8986 298.39 29.3504C298.544 29.1354 298.663 28.9168 298.663 28.8523C298.663 28.7806 298.699 28.7162 298.752 28.6911C298.802 28.6696 299.057 28.3292 299.318 27.935C300.87 25.6167 303.246 22.8863 304.407 22.0908C304.811 21.8149 305.177 21.582 305.216 21.5784C305.256 21.5784 305.324 21.7862 305.363 22.0371H305.36ZM299.433 31.5648C299.39 31.6365 299.315 31.683 299.243 31.683C299.172 31.683 299.154 31.6365 299.197 31.5648C299.24 31.4931 299.315 31.4465 299.387 31.4465C299.458 31.4465 299.476 31.4931 299.433 31.5648ZM298.541 32.0951C298.541 32.1274 298.494 32.1775 298.423 32.2205C298.355 32.2599 298.304 32.2384 298.304 32.1668C298.304 32.0951 298.355 32.0414 298.423 32.0414C298.494 32.0414 298.541 32.0629 298.541 32.0951ZM293.782 32.8082C293.782 32.8404 293.736 32.8906 293.664 32.9336C293.596 32.973 293.546 32.9515 293.546 32.8798C293.546 32.8082 293.596 32.7544 293.664 32.7544C293.736 32.7544 293.782 32.7759 293.782 32.8082ZM294.033 34.2307C294.094 34.374 294.198 34.5603 294.277 34.6714C294.435 34.89 294.098 35.8611 293.532 36.7999C293.356 37.0901 293.123 37.5953 293.019 37.9071C292.915 38.2152 292.754 38.5986 292.668 38.7384C292.578 38.8817 292.389 39.3439 292.238 39.7739C291.772 41.1176 291.002 42.7515 290.891 42.6405C290.826 42.576 290.833 42.4434 290.901 42.3144C290.966 42.1926 291.109 41.7483 291.217 41.3219C291.324 40.8955 291.486 40.2827 291.579 39.9531C291.672 39.6198 291.779 39.1504 291.822 38.8817C291.865 38.6201 292.138 37.6562 292.424 36.7533C292.711 35.8503 292.947 35.0333 292.947 34.9509C292.947 34.8685 293.033 34.5353 293.145 34.202C293.338 33.6072 293.345 33.6036 293.632 33.79C293.786 33.8903 293.972 34.0981 294.03 34.2307H294.033Z" fill="#856F5D"/>
<path d="M268.932 34.5145C269.272 34.3354 269.799 33.9734 270.114 33.7011C270.433 33.4252 270.759 33.2102 270.859 33.2102C271.096 33.2102 271.924 32.3897 272.346 31.7339C272.544 31.4294 272.748 31.1284 272.812 31.0567C272.88 30.9815 272.927 30.8561 272.927 30.7557C272.927 30.6554 272.963 30.5873 273.013 30.5873C273.063 30.5873 273.242 30.3078 273.418 29.9567C273.593 29.6055 273.798 29.2508 273.88 29.154C274.077 28.914 274.6 27.2944 274.582 26.9755C274.511 25.7321 273.604 25.4347 272.128 26.1621C271.261 26.5885 270.562 27.0865 269.634 27.9358L269.032 28.484L269.616 26.7712C269.939 25.8288 270.207 24.9115 270.211 24.7324C270.218 24.546 270.257 24.3561 270.308 24.2952C270.612 23.9011 270.727 22.2922 270.508 21.4824C270.272 20.6081 269.326 19.7661 268.57 19.7589C268.258 19.7553 268.262 19.8413 268.602 20.3C268.756 20.5078 268.878 20.7873 268.878 20.9342C268.878 21.3248 268.57 22.4642 267.975 24.2916C266.782 27.9465 266.531 29.387 266.681 31.7519C266.81 33.8194 267.018 34.2709 268.029 34.708C268.287 34.8191 268.401 34.794 268.935 34.5145H268.932ZM268.047 32.8806C268.039 31.9919 268.201 31.5584 269.007 30.3329C269.236 29.9818 269.426 29.6772 269.426 29.6557C269.426 29.4658 270.641 28.1902 271.221 27.7709C271.526 27.5488 271.805 27.3338 271.834 27.2908C271.924 27.1689 272.959 26.6458 273.113 26.6458C273.292 26.6458 273.296 26.6243 272.995 27.4234C272.002 30.0498 270.336 32.4685 268.824 33.4754C268.165 33.9161 268.057 33.8337 268.047 32.8806Z" fill="#856F5D"/>
<path d="M227.265 1.58832C226.613 1.72448 225.445 2.43037 224.28 3.39784C223.399 4.12881 223.069 4.49071 223.234 4.54804C223.299 4.57313 223.431 4.49071 223.521 4.37247C223.61 4.25422 223.689 4.21122 223.693 4.28289C223.7 4.50863 223.145 4.96011 223.051 4.80603C222.991 4.70929 222.833 4.7917 222.561 5.05686C222.134 5.47251 222.041 5.71258 222.36 5.59075C222.5 5.54059 222.467 5.62659 222.252 5.91324C220.991 7.57943 219.483 9.82968 218.77 11.1089C218.605 11.4063 218.422 11.7216 218.357 11.8219C218.297 11.9187 218.06 12.406 217.834 12.8933C217.609 13.3806 217.333 13.9862 217.222 14.2299C217.107 14.4807 216.842 14.8677 216.616 15.1149C216.397 15.3514 216.204 15.6416 216.193 15.7455C216.147 16.2436 215.964 16.9746 215.853 17.1143C215.799 17.1824 215.76 17.3687 215.763 17.5479C215.763 17.7235 215.666 18.0101 215.53 18.2036C215.398 18.3899 215.226 18.716 215.143 18.9274C215.061 19.1388 214.946 19.2857 214.889 19.2499C214.832 19.2141 214.814 19.2678 214.853 19.3646C214.893 19.4613 214.832 19.7874 214.721 20.0705C214.613 20.3571 214.556 20.6617 214.595 20.7298C214.638 20.8014 214.62 20.8624 214.559 20.8624C214.498 20.8624 214.387 21.0093 214.316 21.1884C214.208 21.4536 213.99 21.5862 213.133 21.9015C212.549 22.1165 212.019 22.2885 211.944 22.2885C211.872 22.2885 211.807 22.3494 211.807 22.421C211.807 22.4963 211.944 22.525 212.133 22.4855C212.323 22.4461 212.764 22.3888 213.144 22.3494C213.524 22.31 213.857 22.2311 213.893 22.1702C214 21.9946 214.183 22.0376 214.183 22.2419C214.183 22.3386 214.136 22.3924 214.083 22.3601C214.029 22.3279 213.911 22.5966 213.828 22.9549C213.742 23.3133 213.628 23.6358 213.574 23.668C213.52 23.7003 213.474 23.9726 213.474 24.2556C213.474 24.5387 213.42 24.786 213.355 24.786C213.287 24.786 213.266 24.9042 213.309 25.0726C213.348 25.2267 213.323 25.3951 213.255 25.4345C213.187 25.4775 213.155 25.6961 213.183 25.9218C213.216 26.1583 213.183 26.3339 213.119 26.3339C212.936 26.3339 212.761 26.8678 212.692 27.631C212.66 27.9893 212.603 28.3333 212.567 28.3907C212.531 28.448 212.506 28.749 212.506 29.0464C212.506 29.3438 212.463 29.6519 212.406 29.7236C212.273 29.8884 212.191 30.7341 212.309 30.7341C212.363 30.7341 212.406 30.8416 212.406 30.9706C212.406 31.0996 212.359 31.2071 212.298 31.2071C211.976 31.2071 212.112 33.2065 212.513 34.3603C212.768 35.0984 213.312 35.7291 213.689 35.7291C213.807 35.7291 213.954 35.7756 214.015 35.8294C214.076 35.8831 214.377 35.962 214.674 36.0014C215.136 36.0623 215.301 36.0229 215.745 35.7434C216.537 35.2417 217.791 33.6472 218.121 32.7192C218.207 32.4827 218.322 32.2784 218.372 32.2784C218.422 32.2784 218.469 32.1996 218.469 32.1172C218.469 32.0276 218.594 31.7195 218.755 31.422C218.913 31.1246 219.081 30.7054 219.131 30.4833C219.182 30.2611 219.418 29.566 219.665 28.9389C220.303 27.2978 220.765 25.4632 220.704 24.8003C220.644 24.1338 220.092 22.9406 219.741 22.7149C219.056 22.2777 218.408 22.3816 217.361 23.0947C216.48 23.6967 215.785 24.3739 215.229 25.1658C214.964 25.5456 214.724 25.8538 214.699 25.8538C214.599 25.8538 214.986 24.0335 215.229 23.3563C215.265 23.2595 215.283 23.1054 215.269 23.023C215.254 22.9334 215.305 22.7973 215.383 22.7005C215.462 22.6038 215.487 22.482 215.444 22.4103C215.401 22.3386 215.419 22.2849 215.491 22.2849C215.563 22.2849 215.616 22.1846 215.616 22.052C215.616 21.9194 215.666 21.7904 215.735 21.7474C215.806 21.7044 215.835 21.6435 215.806 21.5933C215.781 21.5467 215.996 21.4034 216.283 21.278C216.569 21.1526 216.806 20.9985 216.806 20.9448C216.806 20.891 216.913 20.8767 217.032 20.9161C217.175 20.9627 217.283 20.9161 217.322 20.8014C217.358 20.6975 217.487 20.6187 217.619 20.6187C217.752 20.6187 218.006 20.4897 218.207 20.3213C218.408 20.1529 218.615 20.0239 218.684 20.0239C218.748 20.0239 218.834 19.9415 218.866 19.8447C218.899 19.748 218.981 19.6799 219.038 19.6978C219.096 19.7157 219.382 19.5402 219.669 19.3108C219.956 19.0851 220.597 18.6049 221.084 18.2574C221.572 17.9098 222.002 17.5873 222.037 17.5443C222.07 17.5013 222.238 17.3759 222.406 17.2684C222.697 17.0821 223.797 16.0967 224.56 15.3478C224.739 15.1722 224.893 14.9393 224.893 14.8462C224.893 14.753 224.968 14.6742 225.058 14.6742C225.212 14.6742 226.309 13.3914 226.749 12.6891C226.868 12.5027 227.079 12.2089 227.233 12.0154C227.387 11.8255 227.505 11.5998 227.505 11.4995C227.505 11.3991 227.631 11.1734 227.792 10.9835C227.946 10.8007 228.115 10.4245 228.161 10.1629C228.208 9.90135 228.294 9.68277 228.351 9.68277C228.408 9.68277 228.459 9.58244 228.459 9.44986C228.459 9.31728 228.505 9.09871 228.566 8.94463C228.623 8.79414 228.763 8.34982 228.874 7.95925C228.985 7.56868 229.157 7.00612 229.254 6.70871C229.372 6.35398 229.433 5.61942 229.437 4.52654L229.444 2.87827L228.688 2.17596C228.272 1.78898 227.878 1.48082 227.806 1.48441C227.738 1.49157 227.491 1.53457 227.265 1.58115V1.58832ZM227.742 4.26139C227.742 5.14285 227.326 7.48268 226.954 8.69739C226.645 9.6971 226.327 10.3636 225.463 11.8004C225.212 12.2161 225.004 12.6031 225.004 12.6497C225.004 12.6962 224.875 12.8682 224.725 13.0259C224.574 13.18 224.051 13.7676 223.582 14.3158C223.112 14.8641 222.575 15.4302 222.403 15.5628C222.227 15.699 221.923 15.9641 221.708 16.1648C221.041 16.7883 220.446 17.2899 219.83 17.7414C219.497 17.985 219.153 18.2681 219.045 18.3899C218.942 18.5082 218.795 18.6049 218.719 18.6049C218.648 18.6049 218.583 18.6623 218.583 18.7232C218.583 18.7841 218.522 18.8414 218.451 18.8414C218.34 18.8414 217.677 19.2965 216.974 19.8555C216.405 20.3105 216.032 20.4216 216.38 20.0311C216.541 19.8519 216.559 19.7516 216.455 19.6333C216.351 19.5115 216.365 19.4327 216.509 19.3072C216.698 19.1424 216.888 18.7447 216.974 18.329C216.999 18.2 217.089 17.9958 217.182 17.8525C217.336 17.616 217.788 16.4837 217.949 15.9247C217.985 15.7957 218.139 15.4983 218.279 15.269C218.555 14.8282 218.755 14.2334 218.709 13.9862C218.694 13.9109 218.762 13.8429 218.845 13.8429C218.934 13.8429 219.207 13.463 219.458 12.9865C220.343 11.3095 220.421 11.1698 220.565 11.0766C220.647 11.0229 220.719 10.9154 220.719 10.8437C220.719 10.7147 221.471 9.61827 222.596 8.10974C224.005 6.21781 226.065 4.2148 227.032 3.79915C227.681 3.51966 227.735 3.5555 227.735 4.2578L227.742 4.26139ZM219.11 23.7432C219.063 23.8866 219.031 24.3273 219.038 24.7179C219.056 25.7391 218.271 28.3799 217.469 29.9995C217.121 30.7018 216.767 31.4579 216.677 31.6872C216.587 31.9165 216.279 32.5328 215.993 33.056C215.047 34.7688 214.502 35.2489 214.183 34.6505C213.95 34.2098 213.757 32.8302 213.771 31.6765L213.782 30.5334L214.52 29.0571C214.925 28.2473 215.258 27.5486 215.258 27.5128C215.258 27.373 216.136 25.9326 216.702 25.1479C217.111 24.5781 217.454 24.2592 218.006 23.9296C218.888 23.4064 219.243 23.3491 219.114 23.7432H219.11ZM214.685 23.8615C214.602 23.9439 214.541 23.9547 214.541 23.8866C214.541 23.7325 214.688 23.5856 214.767 23.6644C214.803 23.6967 214.767 23.7791 214.685 23.8651V23.8615ZM214.065 24.6713C214.065 24.743 214.018 24.7895 213.947 24.7895C213.875 24.7895 213.828 24.743 213.828 24.6713C213.828 24.5996 213.875 24.5531 213.947 24.5531C214.018 24.5531 214.065 24.5996 214.065 24.6713Z" fill="#856F5D"/>
<path d="M221.54 6.32178C221.396 6.5081 221.404 6.51169 221.594 6.36478C221.794 6.20712 221.852 6.11395 221.748 6.11395C221.719 6.11395 221.633 6.20353 221.54 6.32178Z" fill="#856F5D"/>
<path d="M221.009 6.97744L220.783 7.24618L221.045 7.02402C221.295 6.81261 221.367 6.71228 221.27 6.71228C221.252 6.71228 221.131 6.83769 221.009 6.98102V6.97744Z" fill="#856F5D"/>
<path d="M219.239 9.51427C219.131 9.6791 219.096 9.78659 219.167 9.7436C219.31 9.6576 219.579 9.20612 219.49 9.20612C219.465 9.20612 219.35 9.34944 219.239 9.51427Z" fill="#856F5D"/>
<path d="M178.964 19.6132C178.702 19.7709 178.559 19.9751 178.483 20.2976C178.405 20.6309 178.279 20.8029 178.025 20.9354C177.835 21.0322 177.649 21.1468 177.616 21.1863C176.523 22.555 174.907 25.5219 175.047 25.8946C175.087 25.9949 175.015 26.2171 174.886 26.3927C174.549 26.8692 174.348 27.722 174.542 27.8438C174.685 27.9334 174.603 27.9943 174.377 27.9693C174.273 27.9549 174.047 28.9403 173.972 29.7358C173.94 30.0905 173.883 30.6997 173.847 31.0687C173.793 31.617 173.832 31.8534 174.047 32.2942C174.291 32.7922 175.208 33.663 175.495 33.663C175.85 33.663 177.724 31.4987 178.734 29.9149C178.946 29.5817 179.852 28.4387 180.003 28.3132C180.078 28.2487 180.569 27.6181 181.715 26.106C182.067 25.6438 182.54 25.0633 182.78 24.7981L183.213 24.3216L183.117 25.6294C183.063 26.3497 183.02 28.1377 183.02 29.6139C183.02 32.6238 183.106 33.0789 183.851 34.05C184.227 34.5409 184.783 34.8705 185.686 35.1428C185.929 35.2181 185.954 35.1894 185.919 34.892C185.89 34.6519 185.736 34.462 185.367 34.2148C184.822 33.8457 184.586 33.4766 184.467 32.8137C184.22 31.445 184.639 26.5181 185.023 26.2708C185.08 26.2314 185.277 25.6438 185.456 24.9665C185.636 24.2893 185.972 23.3254 186.198 22.8381C186.424 22.3508 186.685 21.756 186.775 21.5302C186.861 21.3045 187.008 21.0035 187.094 20.8745C187.513 20.2546 187.101 19.8031 186.005 19.6813C185.102 19.581 184.625 19.7816 184.625 20.2546C184.625 20.4051 184.446 20.6989 184.231 20.9068C183.804 21.3188 183.672 21.3726 183.668 21.1361C183.665 20.8244 183.21 20.4768 182.128 19.9572C181.142 19.4807 180.891 19.4126 180.164 19.4018C179.533 19.3911 179.239 19.4448 178.956 19.6168L178.964 19.6132ZM182.669 21.2866C182.841 21.3511 183.203 21.4156 183.453 21.4263L183.916 21.4443L183.224 22.1681C182.597 22.8238 181.698 23.8916 180.759 25.092C180.153 25.8659 178.982 27.2849 178.849 27.4103C178.777 27.4748 178.541 27.7614 178.333 28.0373C178.125 28.3097 177.871 28.5426 177.781 28.5426C177.684 28.5426 177.616 28.5927 177.616 28.6608C177.616 28.8615 176.437 30.0475 176.434 29.8504C176.434 29.6749 176.724 28.7934 177.107 27.8295C177.197 27.6038 177.308 27.3028 177.348 27.1738C177.505 26.6757 178.913 24.0349 179.483 23.1642C180.58 21.498 181.622 20.8853 182.672 21.283L182.669 21.2866Z" fill="#856F5D"/>
<path d="M224.48 19.5116C224.172 19.637 224.114 20.0061 224.372 20.2211C224.53 20.3501 224.523 20.4397 224.319 20.9521C224.19 21.2746 223.932 21.8443 223.738 22.2241C223.201 23.2955 222.104 26.4057 221.939 27.3373C221.857 27.7924 221.818 28.5735 221.853 29.0608C221.918 30.0247 222.222 30.598 222.839 30.9277C223.107 31.071 223.201 31.0639 223.57 30.8668C223.806 30.7378 224.018 30.573 224.05 30.487C224.082 30.4046 224.175 30.3329 224.251 30.3329C224.415 30.3329 225.379 29.3224 226.214 28.2761C226.508 27.9071 226.92 27.409 227.139 27.1582C227.357 26.9073 227.533 26.6673 227.533 26.6171C227.533 26.5669 227.898 26.1011 228.335 25.5887C228.773 25.0763 229.432 24.2916 229.779 23.8652C230.131 23.4388 230.442 23.102 230.467 23.1271C230.492 23.1522 230.356 23.6502 230.159 24.2343C229.668 25.6962 229.568 26.1011 229.357 27.5631C229.149 28.9892 229.088 29.627 229.088 30.512C229.088 30.8453 229.088 31.2323 229.081 31.3935C229.081 31.5512 229.149 31.9274 229.242 32.2391C229.668 33.6653 230.442 34.4285 231.621 34.5754C232.288 34.6578 233.237 34.2672 233.445 33.8229C233.656 33.3714 233.517 33.2819 233.144 33.633C232.875 33.8838 232.739 33.9233 232.313 33.8731C231.671 33.7978 231.256 33.504 230.93 32.8877C230.729 32.5079 230.682 32.1961 230.672 31.1857C230.661 29.9352 230.973 27.7207 231.198 27.452C231.352 27.2657 231.811 26.0474 231.811 25.8216C231.811 25.7177 231.997 25.3236 232.227 24.9402C232.456 24.5568 232.642 24.1984 232.642 24.1304C232.642 24.0623 232.818 23.7685 233.04 23.4567C233.262 23.1486 233.477 22.7795 233.527 22.6183C233.578 22.4606 233.771 22.07 233.961 21.7511C234.151 21.4286 234.305 21.1205 234.305 21.0596C234.305 20.9987 234.473 20.7801 234.667 20.5794C234.954 20.282 235 20.1709 234.889 20.0384C234.663 19.7696 234.04 19.508 233.445 19.4328C232.66 19.336 232.323 19.4507 232.18 19.8592C232.112 20.0563 231.449 20.8231 230.711 21.5612C229.453 22.8189 228.973 23.3349 227.834 24.6428C227.006 25.5959 225.92 26.8142 225.68 27.0686C225.551 27.2048 225.171 27.6383 224.849 28.0217C224.225 28.7599 224.028 28.9569 223.692 29.154C223.387 29.3368 223.369 29.1397 223.631 28.5556C223.763 28.2654 224.003 27.7243 224.161 27.366C224.319 27.0077 224.526 26.5562 224.62 26.3734C224.713 26.1835 224.784 25.9865 224.784 25.9291C224.784 25.8718 224.996 25.3809 225.261 24.8363C225.96 23.3851 226.451 21.7905 226.451 20.9843C226.451 20.4361 226.386 20.2032 226.146 19.8484C225.87 19.44 225.795 19.4041 225.282 19.4077C224.974 19.4077 224.605 19.4615 224.462 19.5188L224.48 19.5116Z" fill="#856F5D"/>
<path d="M240.162 18.0678C240.004 18.1681 240.008 18.2003 240.187 18.3401C240.588 18.6554 240.868 19.3935 240.803 19.9668C240.549 22.1311 240.377 23.138 240.187 23.5214C239.599 24.711 238.808 26.1264 238.32 26.8502C238.026 27.2909 237.786 27.7137 237.786 27.7961C237.786 27.8786 237.743 27.9431 237.69 27.9431C237.636 27.9431 237.206 28.5271 236.736 29.2258C235.285 31.4008 232.558 34.3928 231.526 34.9375C231.236 35.0915 231.186 35.0736 230.699 34.5971L230.183 34.0918L230.107 34.4967C230.018 34.984 230.154 35.371 230.58 35.8153C230.828 36.0769 231.01 36.1486 231.415 36.1486C231.759 36.1486 231.953 36.0877 231.999 35.9694C232.035 35.8727 232.121 35.7903 232.182 35.7903C232.609 35.7903 234.418 33.7084 235.142 32.3898C235.228 32.2357 235.35 32.1032 235.411 32.1032C235.472 32.1032 235.525 32.0387 235.525 31.9562C235.525 31.8738 235.701 31.6158 235.919 31.3793C236.385 30.8741 237.202 29.7024 237.632 28.9177C237.801 28.6095 238.03 28.2512 238.141 28.1222C238.252 27.9932 238.578 27.4916 238.865 27.015C239.538 25.897 239.581 25.829 239.897 25.3273L240.162 24.9117L240.169 26.8143C240.183 31.7484 240.284 32.6621 240.975 34.2459C241.287 34.959 241.613 35.3352 242.111 35.5645C243.003 35.9694 243.251 35.7759 242.799 35.0199C242.362 34.2889 242.265 33.712 242.272 31.8452C242.276 29.9676 242.376 28.3838 242.527 27.7675C242.573 27.574 242.624 27.1118 242.638 26.757C242.667 26.0368 242.835 24.926 243.079 23.8439C243.587 21.608 243.673 20.7767 243.484 20.0636C243.179 18.9206 240.939 17.5804 240.158 18.0713L240.162 18.0678Z" fill="#856F5D"/>
<path d="M198.998 18.7309C198.69 18.8169 198.621 18.9136 198.496 19.4368C198.181 20.7697 196.934 22.6831 195.608 23.8763C194.479 24.894 192.093 26.5709 191.778 26.5709C191.638 26.5709 191.659 26.1266 191.803 26.037C191.867 25.9976 191.921 25.8328 191.921 25.6787C191.921 25.4028 192.086 24.7256 192.63 22.7405C192.867 21.8841 192.838 21.5795 192.483 21.0635C192.186 20.63 191.681 20.3827 191.039 20.3576C190.624 20.3397 190.434 20.4006 190.194 20.6228C189.896 20.8987 189.893 20.913 190.133 21.0026C190.412 21.1065 190.434 21.3609 190.251 22.2997C190.115 22.9985 189.853 24.7256 189.588 26.6892C189.445 27.7462 189.377 27.9648 189.147 28.1189C188.492 28.5524 187.879 29.2297 187.811 29.5916C187.775 29.7922 187.825 30.3655 187.922 30.8528C188.019 31.3402 188.133 31.9887 188.176 32.279C188.287 33.0744 188.563 33.852 188.857 34.1816C189.237 34.608 190.258 35.1778 190.398 35.038C190.455 34.9807 190.52 34.2175 190.541 33.336C190.591 31.161 191.039 28.3733 191.383 28.083C191.451 28.0293 191.763 27.8215 192.096 27.61C193.523 26.7142 194.368 26.1588 194.472 26.0442C194.537 25.9725 194.891 25.7145 195.246 25.4745C195.604 25.2344 196.163 24.7865 196.479 24.4891C196.801 24.1845 197.077 23.9623 197.102 23.991C197.127 24.0161 197.041 24.8008 196.912 25.7289C196.568 28.1798 196.561 31.4082 196.898 32.6731C197.202 33.8269 197.905 35.1849 198.363 35.511C198.826 35.8407 199.549 35.9302 199.757 35.683C199.954 35.4501 199.886 35.081 199.65 35.0739C199.338 35.0667 199.119 34.8517 198.783 34.2211C198.256 33.2321 198.08 32.1285 198.166 30.3333C198.295 27.6208 198.385 26.9042 198.758 25.625C198.844 25.3311 199.001 24.6862 199.109 24.1988C199.216 23.7115 199.406 23.0916 199.524 22.8301C199.646 22.5685 199.919 21.9271 200.13 21.4039C200.341 20.8808 200.56 20.4042 200.61 20.3469C200.868 20.0531 200.564 19.082 200.148 18.867C199.786 18.6807 199.363 18.6341 198.994 18.738L198.998 18.7309ZM189.223 29.8782C189.183 30.3548 189.115 30.7346 189.069 30.7346C188.868 30.7346 188.592 29.7958 188.703 29.4984C188.796 29.2476 189.18 28.9107 189.269 29.0003C189.284 29.0147 189.262 29.4052 189.223 29.8818V29.8782Z" fill="#856F5D"/>
<path d="M249.15 20.2209C248.519 20.3893 247.709 21.0199 246.91 21.9587C244.746 24.5064 243.761 29.5945 244.879 32.4252C245.054 32.866 245.796 33.6614 246.247 33.8943C246.459 34.0018 246.996 34.1165 247.462 34.1488C248.272 34.2061 248.315 34.1953 249.021 33.7367C249.676 33.3103 250.615 32.2998 250.615 32.0203C250.615 31.9594 250.665 31.8555 250.737 31.7695C250.952 31.5187 251.683 30.3255 251.683 30.2252C251.683 30.175 251.776 29.9887 251.887 29.8202C252.145 29.4261 252.633 28.2329 252.633 27.9892C252.633 27.8817 252.672 27.7599 252.722 27.7097C252.776 27.656 252.815 27.5879 252.823 27.5449C252.83 27.5019 252.873 27.3622 252.923 27.2296C253.195 26.5058 253.256 26.3159 253.36 25.8966C253.424 25.6494 253.532 25.2302 253.6 24.9686C253.668 24.707 253.751 24.3595 253.779 24.1946C253.808 24.0298 253.851 23.8793 253.876 23.8542C253.901 23.8291 253.844 23.6285 253.747 23.392C253.625 23.0946 253.611 22.9333 253.7 22.8438C253.79 22.7542 253.826 22.7721 253.826 22.9154C253.826 23.0229 253.876 23.1412 253.933 23.177C254.052 23.2487 254.03 22.6933 253.908 22.575C253.869 22.5356 253.894 22.36 253.958 22.1952C254.116 21.801 254.105 20.9339 253.94 20.8802C253.88 20.8587 253.822 20.7333 253.822 20.615C253.822 20.3427 253.435 20.1098 253.263 20.2818C253.199 20.3463 253.17 20.6401 253.202 20.9375C253.27 21.5431 253.002 23.5998 252.858 23.5998C252.805 23.5998 252.701 23.9044 252.622 24.2842C252.543 24.664 252.407 25.051 252.317 25.1513C252.231 25.2517 252.12 25.6028 252.081 25.9253C252.038 26.2585 251.909 26.6061 251.783 26.7279C251.665 26.8426 251.565 27.0361 251.565 27.1436C251.565 27.2511 251.396 27.6417 251.196 28C250.991 28.3619 250.637 28.9997 250.404 29.4261C249.418 31.2213 248.003 32.8982 247.329 33.0666C246.878 33.1777 246.692 32.9233 246.434 31.8519C246.09 30.4222 246.219 29.5193 247.114 27.0469C247.222 26.753 247.527 26.1081 247.788 25.6207C248.204 24.8504 248.48 24.4669 249.34 23.4816C249.58 23.2057 250.565 22.4102 251.375 21.844C251.769 21.5681 252.135 21.2636 252.188 21.1632C252.346 20.8802 251.862 20.2961 251.411 20.2244C250.508 20.0811 249.68 20.0811 249.15 20.2244V20.2209Z" fill="#856F5D"/>
<path d="M206.225 20.2209C205.595 20.3893 204.785 21.0199 203.986 21.9587C201.821 24.5064 200.836 29.5945 201.954 32.4252C202.13 32.866 202.871 33.6614 203.323 33.8943C203.534 34.0018 204.072 34.1165 204.537 34.1488C205.347 34.2061 205.39 34.1953 206.096 33.7367C206.752 33.3103 207.691 32.2998 207.691 32.0203C207.691 31.9594 207.741 31.8555 207.813 31.7695C208.028 31.5187 208.758 30.3255 208.758 30.2252C208.758 30.175 208.852 29.9887 208.963 29.8202C209.221 29.4261 209.708 28.2329 209.708 27.9892C209.708 27.8817 209.747 27.7599 209.798 27.7097C209.851 27.656 209.891 27.5879 209.898 27.5449C209.905 27.5019 209.948 27.3622 209.998 27.2296C210.271 26.5058 210.332 26.3159 210.435 25.8966C210.5 25.6494 210.607 25.2302 210.675 24.9686C210.744 24.707 210.826 24.3595 210.855 24.1946C210.883 24.0298 210.926 23.8793 210.951 23.8542C210.976 23.8291 210.919 23.6285 210.822 23.392C210.701 23.0946 210.686 22.9333 210.776 22.8438C210.865 22.7542 210.901 22.7721 210.901 22.9154C210.901 23.0229 210.951 23.1412 211.009 23.177C211.127 23.2487 211.105 22.6933 210.984 22.575C210.944 22.5356 210.969 22.36 211.034 22.1952C211.191 21.801 211.181 20.9339 211.016 20.8802C210.955 20.8587 210.898 20.7333 210.898 20.615C210.898 20.3427 210.511 20.1098 210.339 20.2818C210.274 20.3463 210.246 20.6401 210.278 20.9375C210.346 21.5431 210.077 23.5998 209.934 23.5998C209.88 23.5998 209.776 23.9044 209.697 24.2842C209.618 24.664 209.482 25.051 209.393 25.1513C209.307 25.2517 209.196 25.6028 209.156 25.9253C209.113 26.2585 208.984 26.6061 208.859 26.7279C208.741 26.8426 208.64 27.0361 208.64 27.1436C208.64 27.2511 208.472 27.6417 208.271 28C208.067 28.3619 207.712 28.9997 207.479 29.4261C206.494 31.2213 205.079 32.8982 204.405 33.0666C203.953 33.1777 203.767 32.9233 203.509 31.8519C203.165 30.4222 203.294 29.5193 204.19 27.0469C204.297 26.753 204.602 26.1081 204.864 25.6207C205.279 24.8504 205.555 24.4669 206.415 23.4816C206.655 23.2057 207.641 22.4102 208.45 21.844C208.844 21.5681 209.21 21.2636 209.264 21.1632C209.421 20.8802 208.938 20.2961 208.486 20.2244C207.583 20.0811 206.755 20.0811 206.225 20.2244V20.2209Z" fill="#856F5D"/>
<path d="M137.354 20.2209C136.724 20.3893 135.914 21.0199 135.115 21.9587C132.951 24.5064 131.965 29.5945 133.083 32.4252C133.259 32.866 134 33.6614 134.452 33.8943C134.663 34.0018 135.201 34.1165 135.667 34.1488C136.476 34.2061 136.519 34.1953 137.225 33.7367C137.881 33.3103 138.82 32.2998 138.82 32.0203C138.82 31.9594 138.87 31.8555 138.942 31.7695C139.157 31.5187 139.888 30.3255 139.888 30.2252C139.888 30.175 139.981 29.9887 140.092 29.8202C140.35 29.4261 140.837 28.2329 140.837 27.9892C140.837 27.8817 140.877 27.7599 140.927 27.7097C140.981 27.656 141.02 27.5879 141.027 27.5449C141.034 27.5019 141.077 27.3622 141.127 27.2296C141.4 26.5058 141.461 26.3159 141.565 25.8966C141.629 25.6494 141.737 25.2302 141.805 24.9686C141.873 24.707 141.955 24.3595 141.984 24.1946C142.012 24.0298 142.055 23.8793 142.081 23.8542C142.106 23.8291 142.048 23.6285 141.952 23.392C141.83 23.0946 141.815 22.9333 141.905 22.8438C141.995 22.7542 142.03 22.7721 142.03 22.9154C142.03 23.0229 142.081 23.1412 142.138 23.177C142.256 23.2487 142.235 22.6933 142.113 22.575C142.073 22.5356 142.098 22.36 142.163 22.1952C142.321 21.801 142.31 20.9339 142.145 20.8802C142.084 20.8587 142.027 20.7333 142.027 20.615C142.027 20.3427 141.64 20.1098 141.468 20.2818C141.403 20.3463 141.375 20.6401 141.407 20.9375C141.475 21.5431 141.206 23.5998 141.063 23.5998C141.009 23.5998 140.905 23.9044 140.826 24.2842C140.748 24.664 140.611 25.051 140.522 25.1513C140.436 25.2517 140.325 25.6028 140.285 25.9253C140.242 26.2585 140.113 26.6061 139.988 26.7279C139.87 26.8426 139.769 27.0361 139.769 27.1436C139.769 27.2511 139.601 27.6417 139.4 28C139.196 28.3619 138.841 28.9997 138.608 29.4261C137.623 31.2213 136.208 32.8982 135.534 33.0666C135.083 33.1777 134.896 32.9233 134.638 31.8519C134.294 30.4222 134.423 29.5193 135.319 27.0469C135.427 26.753 135.731 26.1081 135.993 25.6207C136.408 24.8504 136.684 24.4669 137.544 23.4816C137.784 23.2057 138.77 22.4102 139.579 21.844C139.974 21.5681 140.339 21.2636 140.393 21.1632C140.551 20.8802 140.067 20.2961 139.615 20.2244C138.712 20.0811 137.885 20.0811 137.354 20.2244V20.2209Z" fill="#856F5D"/>
<path d="M265.088 19.2009C265.124 19.2977 265.088 19.4625 265.013 19.5593C264.887 19.7169 264.776 19.7169 264.095 19.5736C263.024 19.3443 262.003 19.3514 261.91 19.5843C261.867 19.6918 261.791 19.7492 261.738 19.7169C261.566 19.6094 259.38 21.3939 258.652 22.2395C258.007 22.9884 257.198 24.0813 257.198 24.2031C257.198 24.2282 256.929 24.7012 256.603 25.2494C256.277 25.7976 256.008 26.2849 256.008 26.3315C256.008 26.3781 255.829 26.8081 255.61 27.2846C254.865 28.915 254.578 31.6418 255.001 33.0751C255.442 34.5693 256.803 35.1892 258.824 34.8201C259.778 34.6445 261.652 33.3403 262.06 32.5627C262.15 32.3979 262.293 32.2545 262.372 32.2545C262.451 32.2545 262.547 32.147 262.58 32.018C262.612 31.8855 262.587 31.7816 262.526 31.7816C262.458 31.7816 262.44 31.735 262.483 31.6633C262.526 31.5917 262.601 31.5701 262.666 31.6096C262.727 31.6454 262.78 31.5916 262.78 31.4949C262.78 31.3122 262.97 31.0327 263.411 30.5668C263.518 30.4522 263.615 30.2264 263.615 30.0867C263.615 29.8717 263.594 29.8538 263.5 29.99C263.44 30.0867 263.346 30.1225 263.3 30.0724C263.25 30.0222 263.289 29.9326 263.382 29.8717C263.497 29.7965 263.601 29.8251 263.698 29.9541C263.819 30.1225 263.837 30.101 263.816 29.8072C263.801 29.5815 263.844 29.474 263.948 29.4919C264.056 29.5134 264.07 29.4632 263.991 29.3199C263.93 29.2124 263.923 29.0297 263.973 28.9257C264.196 28.485 264.317 28.1267 264.375 27.7361L264.436 27.3205L264.235 27.7361C264.124 27.9619 263.973 28.2055 263.902 28.27C263.83 28.3345 263.565 28.6857 263.318 29.044C261.791 31.2441 258.66 33.8025 257.491 33.8025C256.323 33.8025 256.008 30.9968 256.889 28.9257C257.072 28.4993 257.298 27.9404 257.398 27.6752C257.728 26.8045 258.516 25.2852 259.14 24.3213C259.871 23.189 261.784 21.5444 263.081 20.9352C264.117 20.4479 264.332 20.5052 263.87 21.143C263.669 21.4225 263.346 21.9457 263.146 22.3255C262.945 22.7053 262.737 23.0672 262.676 23.1389C262.619 23.2105 262.533 23.4614 262.486 23.6871C262.44 23.9164 262.297 24.3285 262.168 24.6044C261.877 25.2243 261.91 26.1058 262.225 26.1631C262.361 26.1882 262.465 26.0986 262.547 25.8944C262.612 25.7295 262.787 25.4572 262.931 25.2924C263.386 24.78 264.973 23.164 265.224 22.9597C265.783 22.4975 267.424 20.3655 267.356 20.1899C267.327 20.1182 266.983 19.8495 266.578 19.5808C265.83 19.0899 264.952 18.8677 265.084 19.2009H265.088Z" fill="#856F5D"/>
<path d="M152.576 19.2009C152.611 19.2977 152.576 19.4625 152.5 19.5593C152.375 19.7169 152.264 19.7169 151.583 19.5736C150.512 19.3443 149.491 19.3514 149.397 19.5843C149.354 19.6918 149.279 19.7492 149.225 19.7169C149.053 19.6094 146.868 21.3939 146.14 22.2395C145.495 22.9884 144.685 24.0813 144.685 24.2031C144.685 24.2282 144.417 24.7012 144.091 25.2494C143.765 25.7976 143.496 26.2849 143.496 26.3315C143.496 26.3781 143.317 26.8081 143.098 27.2846C142.353 28.915 142.066 31.6418 142.489 33.0751C142.93 34.5693 144.291 35.1892 146.312 34.8201C147.265 34.6445 149.139 33.3403 149.548 32.5627C149.637 32.3979 149.781 32.2545 149.86 32.2545C149.938 32.2545 150.035 32.147 150.067 32.018C150.1 31.8855 150.075 31.7816 150.014 31.7816C149.946 31.7816 149.928 31.735 149.971 31.6633C150.014 31.5917 150.089 31.5701 150.153 31.6096C150.214 31.6454 150.268 31.5916 150.268 31.4949C150.268 31.3122 150.458 31.0327 150.899 30.5668C151.006 30.4522 151.103 30.2264 151.103 30.0867C151.103 29.8717 151.081 29.8538 150.988 29.99C150.927 30.0867 150.834 30.1225 150.788 30.0724C150.737 30.0222 150.777 29.9326 150.87 29.8717C150.985 29.7965 151.089 29.8251 151.185 29.9541C151.307 30.1225 151.325 30.101 151.304 29.8072C151.289 29.5815 151.332 29.474 151.436 29.4919C151.544 29.5134 151.558 29.4632 151.479 29.3199C151.418 29.2124 151.411 29.0297 151.461 28.9257C151.683 28.485 151.805 28.1267 151.863 27.7361L151.924 27.3205L151.723 27.7361C151.612 27.9619 151.461 28.2055 151.39 28.27C151.318 28.3345 151.053 28.6857 150.806 29.044C149.279 31.2441 146.147 33.8025 144.979 33.8025C143.811 33.8025 143.496 30.9968 144.377 28.9257C144.56 28.4993 144.786 27.9404 144.886 27.6752C145.216 26.8045 146.004 25.2852 146.628 24.3213C147.359 23.189 149.272 21.5444 150.569 20.9352C151.605 20.4479 151.82 20.5052 151.357 21.143C151.157 21.4225 150.834 21.9457 150.634 22.3255C150.433 22.7053 150.225 23.0672 150.164 23.1389C150.107 23.2105 150.021 23.4614 149.974 23.6871C149.928 23.9164 149.784 24.3285 149.655 24.6044C149.365 25.2243 149.397 26.1058 149.713 26.1631C149.849 26.1882 149.953 26.0986 150.035 25.8944C150.1 25.7295 150.275 25.4572 150.419 25.2924C150.874 24.78 152.461 23.164 152.712 22.9597C153.271 22.4975 154.912 20.3655 154.844 20.1899C154.815 20.1182 154.471 19.8495 154.066 19.5808C153.317 19.0899 152.439 18.8677 152.572 19.2009H152.576Z" fill="#856F5D"/>
<path d="M163.082 16.7997C162.828 17.072 162.814 17.158 162.892 18.0251C162.939 18.5375 163.057 19.1108 163.154 19.2972C163.308 19.5874 163.387 19.6268 163.706 19.5659C163.91 19.5265 164.508 19.4405 165.032 19.3724C166.637 19.1682 166.737 19.1538 167.801 18.9639C169.812 18.6056 170.277 18.5447 171.689 18.4659C172.474 18.4229 173.198 18.3906 173.294 18.3906C176.505 18.4659 177.268 18.534 177.601 18.7812C177.996 19.0714 178.264 19.0571 178.562 18.731C178.722 18.5566 178.698 18.2795 178.49 17.8997C178.16 17.2942 177.58 16.9 177.017 16.9C176.781 16.9 176.548 16.8355 176.501 16.7531C176.451 16.6707 176.362 16.6384 176.294 16.6814C176.229 16.7244 174.842 16.6958 173.201 16.6169C170.6 16.4915 169.819 16.5023 166.941 16.6886C163.885 16.8893 163.641 16.8893 163.505 16.7065C163.373 16.5309 163.33 16.5417 163.082 16.8033V16.7997Z" fill="#856F5D"/>
<path d="M156.904 19.297C156.782 19.4475 156.804 19.5299 157.005 19.7306C157.313 20.0387 157.313 20.5045 156.997 21.6942C156.757 22.6007 156.456 23.3962 154.88 27.2374C154.066 29.2225 153.5 30.9173 153.242 32.1499L153.067 32.9813L153.396 33.4435C153.819 34.0383 154.6 34.3572 154.83 34.0275C155.202 33.4865 155.5 33.0529 155.89 32.4689C156.12 32.1249 156.478 31.6662 156.679 31.4584C156.99 31.1323 157.51 30.4838 158.248 29.4948C158.373 29.3264 158.671 28.9645 158.9 28.7029C159.129 28.4413 159.545 27.954 159.817 27.6315C160.086 27.309 160.491 26.8361 160.702 26.5852C160.917 26.3344 161.742 25.5282 162.526 24.8008C163.87 23.5574 163.963 23.4929 163.995 23.7903C164.013 23.9623 163.791 24.8438 163.497 25.7468C162.573 28.6026 162.007 30.7812 162 31.5157C162 32.0138 162.046 32.1213 162.476 32.5083C162.845 32.8415 163.035 32.9311 163.29 32.8881C163.745 32.8128 164.579 32.2646 165.103 31.6949C165.353 31.4226 165.676 31.075 165.834 30.9102C165.988 30.7489 166.271 30.4228 166.45 30.1971C167.636 28.6993 168.145 28.1511 169.32 27.0905C170.237 26.2663 171.122 25.6142 171.212 25.7002C171.291 25.779 171.011 27.0546 170.581 28.5918C169.764 31.4942 169.653 33.9523 170.259 35.7403C170.56 36.6325 170.889 37.1772 171.355 37.5642C171.771 37.9081 171.807 37.9189 172.011 37.7326C172.298 37.471 172.287 37.2739 171.925 36.3208C171.212 34.436 171.276 32.9777 172.205 30.1971C172.961 27.9254 173.251 26.8755 173.419 25.8077C173.591 24.7148 173.516 23.9014 173.222 23.69C172.875 23.4392 171.878 23.5001 171.366 23.8047C169.983 24.6324 167.575 26.6175 165.966 28.2586C165.303 28.9358 164.712 29.484 164.648 29.484C164.511 29.484 164.845 28.3303 165.386 26.9256C165.726 26.0442 166.099 24.8689 166.195 24.3672C166.228 24.2024 166.371 23.6291 166.518 23.0844C166.83 21.9199 166.762 21.7766 165.801 21.5293C165.042 21.3358 164.612 21.4362 164.178 21.9056C163.788 22.332 163.591 22.4968 162.827 23.0235C162.308 23.3854 158.9 26.7787 157.327 28.5058C156.883 28.9931 156.524 29.3085 156.524 29.2117C156.524 29.115 156.718 28.6097 156.951 28.1009C157.184 27.5921 157.481 26.9328 157.607 26.6569C157.728 26.3846 157.832 26.1087 157.832 26.0549C157.832 25.9223 158.563 24.5643 158.678 24.4855C158.725 24.4532 158.843 24.1881 158.947 23.8907C159.051 23.5933 159.219 23.1776 159.327 22.9555C159.438 22.7333 159.549 22.2352 159.584 21.8303C159.656 20.9632 159.38 20.243 158.728 19.6087C158.395 19.2863 158.212 19.2038 157.689 19.1608C157.212 19.1214 157.015 19.1537 156.904 19.2934V19.297Z" fill="#856F5D"/>
<path d="M27.7365 20.6332C25.798 21.0023 23.3399 23.6073 21.6701 27.0651C20.5056 29.4802 20.0792 32.6047 20.7278 33.9627C21.0897 34.7224 21.7167 35.2599 22.4298 35.4247C22.7738 35.5035 23.2109 35.568 23.3937 35.568C23.881 35.568 25.0957 35.138 25.7371 34.7367C26.0452 34.5432 26.443 34.3211 26.6042 34.2566C26.7726 34.1849 27.0664 34.0057 27.2814 33.8409C27.4964 33.6761 27.7078 33.5507 27.7616 33.5507C27.8153 33.5507 28.0697 33.3572 28.3313 33.1099C28.5929 32.8663 28.8473 32.6835 28.9082 32.6979C28.9691 32.7158 29.1232 32.6298 29.2665 32.4972C29.4027 32.3718 29.7073 32.1711 29.933 32.0565C30.1587 31.9418 30.3773 31.8164 30.4096 31.777C30.4418 31.7376 30.5995 31.6372 30.7679 31.5512C30.9291 31.4652 31.3018 31.1822 31.5884 30.9278C31.8751 30.6698 32.194 30.4584 32.2907 30.4584C32.3875 30.4584 32.5882 30.3437 32.7422 30.1968C33.5377 29.43 33.7419 29.2007 33.7419 29.0681C33.7419 28.9355 33.9784 28.8567 34.2543 28.8997C34.3045 28.9068 34.3798 28.8316 34.4156 28.7348C34.4514 28.6381 34.5267 28.5844 34.5804 28.6166C34.6377 28.6488 34.713 28.57 34.7524 28.4374C34.7918 28.3049 34.8742 28.2296 34.9351 28.2654C34.9961 28.3013 35.0498 28.2224 35.0498 28.0935C35.0498 27.8319 35.3078 27.6061 35.3759 27.8068C35.4189 27.9322 36.5978 26.7605 36.5978 26.5921C36.5978 26.5383 36.7841 26.2839 37.0206 26.008C37.5366 25.4132 37.6011 25.3165 37.6476 25.1051C37.6656 25.0155 37.3538 25.2591 36.9632 25.639C36.5691 26.0224 36.1499 26.3914 36.0352 26.4523C35.9205 26.5133 35.5049 26.8286 35.1143 27.1475C34.7202 27.4664 34.2973 27.8175 34.1755 27.9215C34.0501 28.0254 33.7778 28.2117 33.5628 28.3371C33.3478 28.4625 33.1471 28.6417 33.1113 28.7348C33.0719 28.8352 32.968 28.9068 32.8605 28.9068C32.753 28.9068 32.6777 28.957 32.6777 29.0251C32.6777 29.0932 32.6061 29.1433 32.5129 29.1433C32.4233 29.1433 32.3158 29.2257 32.28 29.3225C32.2442 29.4192 32.1689 29.4873 32.1188 29.473C31.9826 29.4336 31.4487 29.7489 31.2875 29.9639C31.205 30.0714 31.1405 30.1072 31.137 30.0463C31.137 29.9854 31.0402 30.0176 30.922 30.1251C30.8073 30.229 30.4777 30.4369 30.1802 30.5981C28.8831 31.2968 27.9192 31.8271 27.027 32.3324C25.6941 33.0849 24.139 33.8588 23.5298 34.0738C22.7558 34.3461 22.4656 34.3139 22.376 33.952C22.308 33.6797 22.376 32.0386 22.4943 31.1678C22.5409 30.8239 23.1178 29.2831 23.2682 29.0967C23.3256 29.0251 23.5406 28.6703 23.7341 28.312C24.0996 27.6456 24.3504 27.4306 24.3504 27.7781C24.3504 28.1257 24.7194 28.7169 25.2892 29.301C25.8947 29.9209 26.314 30.014 27.0163 29.6844C27.5466 29.4336 29.4063 27.5201 29.7108 26.911C29.8004 26.7354 30.1301 26.2553 30.4454 25.854C31.0474 25.08 31.721 23.8689 31.7246 23.5464C31.7246 23.4389 31.764 23.3206 31.8106 23.274C31.9862 23.1021 32.3015 22.0128 32.2406 21.787C32.2012 21.6329 31.9503 21.4645 31.5239 21.3033C29.503 20.5472 28.8258 20.429 27.7437 20.6332H27.7365ZM30.4132 22.4893C30.4132 23.2131 28.0697 26.9755 26.9052 28.1257C26.5361 28.4876 26.185 28.7958 26.1312 28.7958C26.0775 28.7958 25.9736 28.7169 25.8876 28.613C25.7729 28.4733 25.7586 28.0469 25.8159 26.8214C25.9019 25.0477 26.0166 24.7037 26.64 24.3347C26.8371 24.2164 27.1883 23.9513 27.4248 23.7399C28.2453 23.0053 30.4096 22.1023 30.4096 22.4929L30.4132 22.4893Z" fill="#856F5D"/>
<path d="M9.69735 18.201C9.37486 18.4303 9.37485 18.527 9.70809 18.6704C10.1954 18.8818 10.1238 19.9424 9.4322 22.8197C9.24587 23.5937 9.00222 24.3318 8.89472 24.4501C8.78722 24.5683 8.73347 24.7188 8.77647 24.7905C8.81947 24.8585 8.71555 25.0807 8.55072 25.2849C8.3859 25.4856 8.24616 25.7579 8.24616 25.8869C8.24616 26.0159 8.19599 26.0876 8.1315 26.0482C8.07058 26.0088 7.98457 26.1127 7.94158 26.2811C7.89858 26.4459 7.81616 26.5856 7.75883 26.5856C7.7015 26.5856 7.56175 26.7827 7.44351 27.03C7.32526 27.2808 7.19628 27.528 7.14612 27.5961C7.09595 27.6606 6.85945 28.0118 6.62296 28.3701C5.15743 30.5702 2.17979 33.7628 1.87163 33.4582C1.84655 33.4331 1.68531 32.8777 1.52049 32.2328C1.07617 30.5093 0.65335 30.1724 0.219782 31.1972C-0.0955392 31.9461 -0.0704559 32.7308 0.287864 33.4331C0.520772 33.8882 0.710691 34.0638 1.3055 34.3791C1.97198 34.7303 2.07946 34.7553 2.52019 34.6479C2.82835 34.5726 3.10426 34.3934 3.287 34.1534C3.44466 33.9455 3.85674 33.4869 4.21506 33.1178C4.57338 32.7488 5.09294 32.1719 5.39393 31.81C5.68775 31.4516 5.96007 31.1363 5.9959 31.1041C6.03173 31.0718 6.19297 30.8532 6.34705 30.6275C6.50471 30.3946 6.8057 30.004 7.02428 29.7424C7.24285 29.4809 7.41844 29.205 7.41844 29.119C7.41844 29.033 7.45786 28.9649 7.50802 28.9649C7.55819 28.9649 7.77317 28.6747 7.99533 28.3056C8.21749 27.9365 8.42173 27.6749 8.45756 27.7108C8.49339 27.7466 8.54355 28.1909 8.56505 28.6926C8.65463 30.7027 9.10612 31.8279 9.91592 32.0536C10.5716 32.2364 10.715 32.1969 11.1844 31.7132C11.8616 31.0181 11.8974 30.9643 12.7037 29.5239C13.707 27.7287 13.8467 27.4922 14.4558 26.5283C14.7497 26.0661 15.0686 25.5394 15.1725 25.3387C15.2764 25.1452 15.495 24.7331 15.6526 24.4357C15.9751 23.8302 16.8136 22.6871 16.8136 22.8555C16.8136 22.9129 16.6488 23.9269 16.4517 25.1022C16.251 26.2811 16.0074 27.8863 15.9106 28.6711C15.8139 29.4558 15.6849 30.3803 15.624 30.7278C15.4448 31.7849 15.7494 35.0348 16.122 36.0453C16.638 37.4356 17.1504 38.1271 17.67 38.1271C17.9315 38.1271 18.0749 37.8548 17.9315 37.6291C17.8814 37.5502 17.824 37.3962 17.8133 37.3138C17.799 37.2278 17.7488 37.0629 17.6986 36.9554C17.6485 36.8479 17.6019 36.7046 17.5911 36.6401C17.4908 35.9163 17.3833 34.8843 17.3726 34.5224C17.3654 34.2859 17.326 34.0817 17.2866 34.0817C17.2113 34.0817 17.2579 33.6661 17.5195 31.9999C17.5804 31.6021 17.6664 30.9177 17.7094 30.4555C17.7524 29.9933 17.8814 29.3483 17.9996 29.0043C18.1179 28.6603 18.3042 27.9473 18.4153 27.399C18.5264 26.8508 18.6589 26.3062 18.7127 26.1736C18.8632 25.8009 19.6156 23.3787 19.7482 22.8448C19.8127 22.5868 19.9847 21.9418 20.128 21.4294C20.3789 20.5265 20.3825 20.4799 20.171 20.2506C19.587 19.6092 18.2146 19.2616 17.6055 19.602C17.24 19.8062 17.1647 19.9316 17.1647 20.3365C17.1647 20.5229 17.0286 20.8597 16.8673 21.0747C16.7061 21.2897 16.5699 21.4939 16.5699 21.5262C16.5699 21.5584 16.4266 21.7412 16.2618 21.9203C15.8963 22.3145 15.1438 23.4575 15.1438 23.6223C15.1438 23.694 15.1044 23.7406 15.0471 23.7406C14.8894 23.7406 13.9542 25.1667 13.9542 25.4068C13.9542 25.525 13.8825 25.6791 13.8001 25.7328C13.6353 25.8403 13.0046 26.7397 13.0046 26.8723C13.0046 26.9189 12.8112 27.2521 12.5818 27.6104C12.3525 27.9688 12.1268 28.3557 12.0873 28.4668C11.9583 28.8251 10.844 30.4053 10.7221 30.4053C10.6469 30.4053 10.6361 30.1079 10.6899 29.5955C10.8189 28.3808 10.844 28.2518 11.0482 27.5495C11.2381 26.9081 11.5857 25.6576 12.2199 23.3644C12.6535 21.7949 12.6965 19.946 12.3131 19.2974C12.1733 19.0609 12.0515 18.7814 12.0515 18.6919C12.0515 18.4446 11.0661 18.0361 10.4713 18.0361C10.1847 18.0361 9.84426 18.1185 9.69735 18.2225V18.201Z" fill="#856F5D"/>
<path d="M69.9505 21.0065C69.3199 21.1749 68.5101 21.8056 67.711 22.7444C65.5468 25.292 64.5614 30.3802 65.6793 33.2109C65.8549 33.6516 66.5966 34.4471 67.0481 34.68C67.2595 34.7875 67.797 34.9022 68.2628 34.9344C69.0726 34.9917 69.1156 34.981 69.8215 34.5223C70.4772 34.0959 71.416 33.0855 71.416 32.806C71.416 32.7451 71.4662 32.6412 71.5379 32.5552C71.7529 32.3043 72.4838 31.1111 72.4838 31.0108C72.4838 30.9606 72.577 30.7743 72.6881 30.6059C72.9461 30.2117 73.4334 29.0185 73.4334 28.7749C73.4334 28.6674 73.4728 28.5456 73.5229 28.4954C73.5767 28.4416 73.6161 28.3736 73.6233 28.3306C73.6305 28.2876 73.6734 28.1478 73.7236 28.0152C73.9959 27.2914 74.0569 27.1015 74.1608 26.6823C74.2253 26.435 74.3328 26.0158 74.4008 25.7542C74.4689 25.4927 74.5513 25.1451 74.58 24.9803C74.6087 24.8154 74.6517 24.6649 74.6768 24.6399C74.7018 24.6148 74.6445 24.4141 74.5478 24.1776C74.4259 23.8802 74.4116 23.719 74.5012 23.6294C74.5908 23.5398 74.6266 23.5577 74.6266 23.7011C74.6266 23.8086 74.6767 23.9268 74.7341 23.9626C74.8523 24.0343 74.8308 23.4789 74.709 23.3607C74.6696 23.3212 74.6947 23.1457 74.7592 22.9808C74.9168 22.5867 74.9061 21.7196 74.7412 21.6658C74.6803 21.6443 74.623 21.5189 74.623 21.4007C74.623 21.1283 74.236 20.8954 74.064 21.0674C73.9995 21.1319 73.9709 21.4257 74.0031 21.7231C74.0712 22.3287 73.8024 24.3855 73.6591 24.3855C73.6054 24.3855 73.5015 24.69 73.4226 25.0698C73.3438 25.4497 73.2076 25.8367 73.118 25.937C73.032 26.0373 72.921 26.3885 72.8816 26.711C72.8386 27.0442 72.7096 27.3918 72.5842 27.5136C72.4659 27.6283 72.3656 27.8217 72.3656 27.9292C72.3656 28.0367 72.1972 28.4273 71.9965 28.7856C71.7923 29.1475 71.4375 29.7853 71.2046 30.2117C70.2192 32.0069 68.8039 33.6839 68.1302 33.8523C67.6788 33.9634 67.4924 33.7089 67.2344 32.6376C66.8904 31.2079 67.0195 30.3049 67.9153 27.8325C68.0227 27.5387 68.3273 26.8937 68.5889 26.4064C69.0045 25.636 69.2804 25.2526 70.1404 24.2672C70.3805 23.9913 71.3659 23.1958 72.1757 22.6297C72.5698 22.3538 72.9353 22.0492 72.9891 21.9489C73.1467 21.6658 72.663 21.0817 72.2115 21.0101C71.3085 20.8668 70.4808 20.8668 69.9505 21.0101V21.0065Z" fill="#856F5D"/>
<path d="M73.7943 35.1076C73.7943 35.1687 73.8745 35.2947 73.9687 35.3749C74.2094 35.5887 74.1849 35.9667 73.8745 36.8411C73.7315 37.2496 73.4629 38.1583 73.285 38.8418C73.0234 39.8574 72.971 40.2698 73.0129 40.98C73.0443 41.4992 73.128 41.904 73.2152 41.9612C73.4315 42.1063 73.7943 41.82 73.7943 41.5031C73.7943 41.3503 73.8431 41.2052 73.8989 41.1785C74.0524 41.1136 74.9559 39.6245 75.5105 38.5249C76.0337 37.4863 76.114 36.9212 75.8628 36.1156C75.664 35.4856 75.4407 35.2909 74.7466 35.1305C74.0036 34.9625 73.7943 34.9587 73.7943 35.1076Z" fill="#856F5D"/>
<path d="M43.9653 20.3448C44.0011 20.4415 43.9653 20.6064 43.89 20.7031C43.7646 20.8608 43.6536 20.8608 42.9727 20.7175C41.9014 20.4881 40.8802 20.4953 40.787 20.7282C40.744 20.8357 40.6687 20.893 40.615 20.8608C40.443 20.7533 38.2573 22.5377 37.5299 23.3834C36.8849 24.1322 36.0751 25.2251 36.0751 25.3469C36.0751 25.372 35.8063 25.845 35.4803 26.3932C35.1542 26.9415 34.8855 27.4288 34.8855 27.4754C34.8855 27.522 34.7063 27.9519 34.4877 28.4285C33.7424 30.0589 33.4558 32.7857 33.8786 34.219C34.3193 35.7131 35.6809 36.333 37.7019 35.964C38.655 35.7884 40.529 34.4841 40.9375 33.7066C41.0271 33.5417 41.1704 33.3984 41.2492 33.3984C41.3281 33.3984 41.4248 33.2909 41.4571 33.1619C41.4893 33.0293 41.4642 32.9254 41.4033 32.9254C41.3352 32.9254 41.3173 32.8788 41.3603 32.8072C41.4033 32.7355 41.4786 32.714 41.543 32.7534C41.604 32.7893 41.6577 32.7355 41.6577 32.6388C41.6577 32.456 41.8476 32.1765 42.2884 31.7107C42.3959 31.596 42.4926 31.3703 42.4926 31.2306C42.4926 31.0156 42.4711 30.9977 42.3779 31.1338C42.317 31.2306 42.2239 31.2664 42.1773 31.2162C42.1271 31.1661 42.1665 31.0765 42.2597 31.0156C42.3744 30.9403 42.4783 30.969 42.575 31.098C42.6968 31.2664 42.7148 31.2449 42.6933 30.9511C42.6789 30.7253 42.7219 30.6178 42.8258 30.6357C42.9333 30.6572 42.9477 30.6071 42.8688 30.4638C42.8079 30.3563 42.8008 30.1735 42.8509 30.0696C43.0731 29.6289 43.1949 29.2706 43.2522 28.88L43.3132 28.4643L43.1125 28.88C43.0014 29.1057 42.8509 29.3494 42.7793 29.4139C42.7076 29.4784 42.4424 29.8295 42.1952 30.1878C40.6687 32.3879 37.537 34.9463 36.3689 34.9463C35.2008 34.9463 34.8855 32.1407 35.7669 30.0696C35.9497 29.6432 36.1754 29.0842 36.2757 28.8191C36.6054 27.9484 37.3937 26.4291 38.0172 25.4652C38.7481 24.3329 40.6616 22.6882 41.9587 22.0791C42.9942 21.5918 43.2092 21.6491 42.747 22.2869C42.5463 22.5664 42.2239 23.0895 42.0232 23.4693C41.8225 23.8492 41.6147 24.2111 41.5538 24.2827C41.4965 24.3544 41.4105 24.6052 41.3639 24.831C41.3173 25.0603 41.174 25.4724 41.045 25.7483C40.7547 26.3682 40.787 27.2496 41.1023 27.307C41.2385 27.332 41.3424 27.2425 41.4248 27.0382C41.4893 26.8734 41.6649 26.6011 41.8082 26.4362C42.2633 25.9238 43.8506 24.3078 44.1015 24.1036C44.6604 23.6413 46.3015 21.5093 46.2335 21.3338C46.2048 21.2621 45.8608 20.9934 45.4559 20.7246C44.707 20.2337 43.8291 20.0116 43.9617 20.3448H43.9653Z" fill="#856F5D"/>
<path d="M54.4473 17.5854C54.1929 17.8577 54.1786 17.9437 54.2574 18.8108C54.304 19.3232 54.4223 19.8966 54.519 20.0829C54.6731 20.3731 54.7519 20.4125 55.0708 20.3516C55.2751 20.3122 55.8734 20.2262 56.3966 20.1581C58.0019 19.9539 58.1022 19.9395 59.1664 19.7496C61.1766 19.3913 61.6424 19.3304 63.0542 19.2516C63.8389 19.2086 64.5627 19.1763 64.6595 19.1763C67.87 19.2516 68.6332 19.3197 68.9665 19.5669C69.3606 19.8571 69.6294 19.8428 69.9268 19.5167C70.0868 19.3424 70.0629 19.0652 69.8551 18.6854C69.5254 18.0799 68.945 17.6857 68.3824 17.6857C68.1459 17.6857 67.913 17.6212 67.8664 17.5388C67.8163 17.4564 67.7267 17.4241 67.6586 17.4671C67.5941 17.5101 66.2074 17.4815 64.5663 17.4026C61.9649 17.2772 61.1837 17.288 58.3064 17.4743C55.25 17.675 55.0063 17.675 54.8702 17.4922C54.7376 17.3166 54.6946 17.3274 54.4473 17.589V17.5854Z" fill="#856F5D"/>
<path d="M48.2697 20.0828C48.1479 20.2333 48.1694 20.3157 48.3701 20.5164C48.6782 20.8246 48.6782 21.2904 48.3629 22.48C48.1228 23.3865 47.8218 24.182 46.2452 28.0232C45.4318 30.0083 44.8657 31.7032 44.6077 32.9358L44.4321 33.7671L44.7618 34.2293C45.1846 34.8241 45.9657 35.143 46.1951 34.8134C46.5677 34.2723 46.8651 33.8387 47.2557 33.2547C47.485 32.9107 47.8433 32.452 48.044 32.2442C48.3557 31.9181 48.8753 31.2696 49.6134 30.2806C49.7389 30.1122 50.0363 29.7503 50.2656 29.4887C50.4949 29.2272 50.9106 28.7398 51.1829 28.4174C51.4516 28.0949 51.8565 27.6219 52.0679 27.3711C52.2829 27.1202 53.1071 26.314 53.8918 25.5866C55.2355 24.3433 55.3286 24.2788 55.3609 24.5762C55.3788 24.7482 55.1566 25.6296 54.8628 26.5326C53.9384 29.3884 53.3722 31.567 53.3651 32.3015C53.3651 32.7996 53.4116 32.9071 53.8416 33.2941C54.2107 33.6273 54.4006 33.7169 54.655 33.6739C55.1101 33.5987 55.945 33.0504 56.4681 32.4807C56.7189 32.2084 57.0414 31.8608 57.1991 31.696C57.3532 31.5347 57.6362 31.2087 57.8154 30.9829C59.0014 29.4852 59.5102 28.9369 60.6855 27.8763C61.6028 27.0522 62.4879 26.4 62.5775 26.486C62.6563 26.5648 62.3768 27.8405 61.9468 29.3777C61.1298 32.2801 61.0188 34.7381 61.6243 36.5261C61.9253 37.4184 62.255 37.963 62.7208 38.35C63.1364 38.694 63.1723 38.7047 63.3765 38.5184C63.6632 38.2568 63.6524 38.0597 63.2905 37.1066C62.5775 35.2219 62.642 33.7635 63.57 30.9829C64.3261 28.7112 64.6163 27.6613 64.7847 26.5935C64.9567 25.5006 64.8815 24.6872 64.5876 24.4758C64.2401 24.225 63.2439 24.2859 62.7315 24.5905C61.3484 25.4182 58.9405 27.4033 57.3317 29.0444C56.6688 29.7216 56.0775 30.2699 56.013 30.2699C55.8769 30.2699 56.2101 29.1161 56.7512 27.7115C57.0916 26.83 57.4642 25.6547 57.561 25.1531C57.5932 24.9882 57.7366 24.4149 57.8835 23.8703C58.1952 22.7057 58.1271 22.5624 57.1668 22.3152C56.4072 22.1217 55.9772 22.222 55.5436 22.6914C55.1531 23.1178 54.956 23.2826 54.1928 23.8094C53.6732 24.1713 50.2656 27.5646 48.6926 29.2917C48.2482 29.779 47.8899 30.0943 47.8899 29.9976C47.8899 29.9008 48.0834 29.3956 48.3163 28.8868C48.5492 28.3779 48.8466 27.7186 48.972 27.4427C49.0939 27.1704 49.1978 26.8945 49.1978 26.8408C49.1978 26.7082 49.9288 25.3501 50.0434 25.2713C50.09 25.2391 50.2082 24.9739 50.3122 24.6765C50.4161 24.3791 50.5845 23.9634 50.692 23.7413C50.8031 23.5191 50.9141 23.0211 50.95 22.6162C51.0216 21.749 50.7457 21.0288 50.0936 20.3946C49.7603 20.0721 49.5776 19.9897 49.0545 19.9467C48.5779 19.9073 48.3808 19.9395 48.2697 20.0792V20.0828Z" fill="#856F5D"/>
</svg>
