<svg width="1008" height="126" viewBox="0 0 1008 126" fill="none" xmlns="http://www.w3.org/2000/svg">
<path d="M174 125.616H195.356V21.0919H255.522V125.616H276.84V0.615723H174V125.616Z" fill="white"/>
<path d="M294.318 125.616H384.758V105.178H315.675V72.4926H371.477V52.0165H315.675V21.0919H384.758V0.615723H294.318V125.616Z" fill="white"/>
<path d="M396.774 21.0919H437.535V125.616H458.891V21.0919H499.614V0.615723H396.774V21.0919Z" fill="white"/>
<path d="M600.058 12.71C591.217 4.67269 579.429 0.615723 565.077 0.615723H510.538V125.616H531.894V84.8548H565.077C579.429 84.8548 591.179 80.7979 600.058 72.7605C608.938 64.7232 613.416 54.6191 613.416 42.7161C613.416 30.8132 608.938 20.7091 600.058 12.6718V12.71ZM591.179 42.7544C591.179 49.414 588.921 54.7722 584.519 58.5995C580.08 62.4651 573.535 64.417 565.077 64.417H531.894V21.0919H565.077C573.535 21.0919 580.08 23.0438 584.519 26.9094C588.921 30.7367 591.179 36.0949 591.179 42.7544Z" fill="white"/>
<path d="M687.681 0.615723C669.655 0.615723 654.422 6.62463 642.404 18.5276C630.425 30.3922 624.339 45.3952 624.339 63.1157C624.339 80.8361 630.425 95.8392 642.404 107.704C654.384 119.569 669.616 125.616 687.681 125.616C705.746 125.616 720.941 119.607 732.958 107.704C744.938 95.8009 751.023 80.7979 751.023 63.1157C751.023 45.4335 744.938 30.3922 732.958 18.5276C720.979 6.6629 705.746 0.615723 687.681 0.615723ZM729.935 63.1157C729.935 75.8606 725.954 86.3857 718.108 94.27C710.262 102.193 700.005 106.211 687.681 106.211C675.357 106.211 664.985 102.193 657.178 94.27C649.37 86.3475 645.428 75.8606 645.428 63.1157C645.428 50.3708 649.37 39.8457 657.178 31.9614C664.985 24.0389 675.243 20.0202 687.681 20.0202C700.12 20.0202 710.224 24.0389 718.108 31.9614C725.954 39.8839 729.935 50.3708 729.935 63.1157Z" fill="white"/>
<path d="M854.837 63.9577C851.584 61.7379 847.795 60.1687 843.547 59.1736V59.0205C846.991 57.834 850.015 56.2265 852.579 54.2746C858.932 49.3757 862.147 42.1803 862.147 32.9948C862.147 23.8092 858.626 16.0398 851.699 9.87786C844.771 3.75417 835.318 0.615723 823.568 0.615723H761.948V125.616H822.688C836.581 125.616 847.45 122.248 855.067 115.665C862.721 109.043 866.587 100.317 866.587 89.6772C866.587 78.2336 862.645 69.5839 854.837 63.9195V63.9577ZM783.305 51.0979V21.0536H822.688C828.199 21.0536 832.524 22.3932 835.471 24.9957C838.418 27.5983 839.911 31.1194 839.911 35.4443C839.911 40.3432 838.418 44.2471 835.471 46.9644C832.524 49.7201 828.199 51.0979 822.688 51.0979H783.305ZM844.35 87.9167C844.35 99.5134 836.964 105.14 821.807 105.14H783.305V70.6555H821.807C836.964 70.6555 844.35 76.2816 844.35 87.8784V87.9167Z" fill="white"/>
<path d="M960.985 0.960166L960.908 0.615723H909.661L877.664 125.003L877.511 125.616H898.906L906.867 93.7342H963.166L971.587 125.271L971.701 125.616H993.976L961.023 0.960166H960.985ZM957.923 73.258H912.378L925.429 21.0918H944.183L957.923 73.258Z" fill="white"/>
</svg>
