<svg width="1000" height="349" viewBox="0 0 1000 349" fill="none" xmlns="http://www.w3.org/2000/svg">
<path d="M180 263.616H201.356V159.092H261.522V263.616H282.84V138.616H180V263.616Z" fill="white"/>
<path d="M300.318 263.616H390.758V243.178H321.675V210.493H377.477V190.017H321.675V159.092H390.758V138.616H300.318V263.616Z" fill="white"/>
<path d="M402.774 159.092H443.535V263.616H464.891V159.092H505.614V138.616H402.774V159.092Z" fill="white"/>
<path d="M606.058 150.71C597.217 142.673 585.429 138.616 571.077 138.616H516.538V263.616H537.894V222.855H571.077C585.429 222.855 597.179 218.798 606.058 210.761C614.938 202.723 619.416 192.619 619.416 180.716C619.416 168.813 614.938 158.709 606.058 150.672V150.71ZM597.179 180.754C597.179 187.414 594.921 192.772 590.519 196.599C586.08 200.465 579.535 202.417 571.077 202.417H537.894V159.092H571.077C579.535 159.092 586.08 161.044 590.519 164.909C594.921 168.737 597.179 174.095 597.179 180.754Z" fill="white"/>
<path d="M693.681 138.616C675.655 138.616 660.422 144.625 648.404 156.528C636.425 168.392 630.339 183.395 630.339 201.116C630.339 218.836 636.425 233.839 648.404 245.704C660.384 257.569 675.616 263.616 693.681 263.616C711.746 263.616 726.941 257.607 738.958 245.704C750.938 233.801 757.023 218.798 757.023 201.116C757.023 183.434 750.938 168.392 738.958 156.528C726.979 144.663 711.746 138.616 693.681 138.616ZM735.935 201.116C735.935 213.861 731.954 224.386 724.108 232.27C716.262 240.193 706.005 244.211 693.681 244.211C681.357 244.211 670.985 240.193 663.178 232.27C655.37 224.347 651.428 213.861 651.428 201.116C651.428 188.371 655.37 177.846 663.178 169.961C670.985 162.039 681.243 158.02 693.681 158.02C706.12 158.02 716.224 162.039 724.108 169.961C731.954 177.884 735.935 188.371 735.935 201.116Z" fill="white"/>
<path d="M860.837 201.958C857.584 199.738 853.795 198.169 849.547 197.174V197.021C852.991 195.834 856.015 194.227 858.579 192.275C864.932 187.376 868.147 180.18 868.147 170.995C868.147 161.809 864.626 154.04 857.699 147.878C850.771 141.754 841.318 138.616 829.568 138.616H767.948V263.616H828.688C842.581 263.616 853.45 260.248 861.067 253.665C868.721 247.043 872.587 238.317 872.587 227.677C872.587 216.234 868.645 207.584 860.837 201.919V201.958ZM789.305 189.098V159.054H828.688C834.199 159.054 838.524 160.393 841.471 162.996C844.418 165.598 845.911 169.119 845.911 173.444C845.911 178.343 844.418 182.247 841.471 184.964C838.524 187.72 834.199 189.098 828.688 189.098H789.305ZM850.35 225.917C850.35 237.513 842.964 243.14 827.807 243.14H789.305V208.655H827.807C842.964 208.655 850.35 214.282 850.35 225.878V225.917Z" fill="white"/>
<path d="M966.985 138.96L966.908 138.616H915.661L883.664 263.003L883.511 263.616H904.906L912.867 231.734H969.166L977.587 263.271L977.701 263.616H999.976L967.023 138.96H966.985ZM963.923 211.258H918.378L931.429 159.092H950.183L963.923 211.258Z" fill="white"/>
<path d="M162.15 56.4597H141.697L119.766 0.388584L119.611 0.0775623H97.4468L127.777 76.835H153.829L134.698 123.807L134.465 124.429H156.629L206.167 0.77745L206.4 0.0775623H184.159L162.15 56.4597Z" fill="white"/>
<path d="M317.92 0.0775623H294.823L269.237 52.9602H261.927L236.497 0.310858L236.341 0.0775623H213.244L244.351 63.1478L211.455 124.429H234.552L261.927 72.4023H269.237L296.456 124.196L296.612 124.429H319.709L286.813 63.1478L317.92 0.0775623Z" fill="white"/>
<path d="M427.808 0.0775623H325.465V20.4529H365.982V124.429H387.213V20.4529H427.808V0.0775623Z" fill="white"/>
<path d="M505.727 0.0778444H454.711L422.904 123.807L422.748 124.43H444.057L451.989 92.7H507.982L516.381 124.041V124.43H538.623L505.883 0.388866V0L505.727 0.0778444ZM502.694 72.3247H457.433L470.42 20.3754H489.085L502.772 72.3247H502.694Z" fill="white"/>
<path d="M87.1007 58.6374C79.0905 51.4827 67.8141 47.8276 53.738 47.8276H18.1978V18.3533H86.5563V0.155462H0V124.507H53.6603C67.8141 124.507 79.0128 120.852 87.1007 113.697C95.1109 106.543 99.1548 97.2883 99.1548 86.1674C99.1548 75.0465 95.1109 65.7921 87.1007 58.6374ZM80.957 86.1674C80.957 92.3111 78.7795 97.2106 74.58 100.788H74.4245C70.225 104.365 64.0034 106.076 55.9155 106.076H18.1978V66.181H55.9155C64.0812 66.181 70.3805 67.9696 74.58 71.4692C78.8572 75.0465 80.957 79.946 80.957 86.0897V86.1674Z" fill="white"/>
<path d="M273.51 264.709C271.186 265.413 267.16 268.305 264.012 271.525C261.917 273.666 259.373 277.262 258.046 279.971C257.342 281.398 257.342 281.435 257.909 281.892C259.52 283.192 261.368 283.366 261.368 282.222C261.368 281.078 264.259 276.576 267.206 273.017C269.594 270.135 274.434 267.115 276.74 267.078C279.668 267.024 279.75 268.616 277.024 272.623C275.011 275.588 271.451 280.154 267.407 284.958C263.088 290.091 261.679 292.726 261.679 295.682C261.679 298.637 262.438 300.659 264.021 302.105C264.753 302.773 265.531 303.322 265.787 303.34C266.638 303.413 266.794 303.459 267.032 303.697C267.407 304.072 270.372 303.944 272.192 303.468C273.117 303.23 274.681 302.663 275.624 302.215C277.655 301.263 281.992 298.125 282.02 297.585C282.02 297.383 282.367 297.008 282.797 296.734C283.218 296.459 283.557 295.983 283.557 295.654C283.557 295.325 283.685 295.142 283.85 295.242C284.005 295.343 284.225 295.059 284.335 294.638C284.463 294.126 284.691 293.906 284.984 294.016C285.277 294.126 285.497 293.97 285.588 293.577C285.671 293.238 285.853 292.973 285.982 292.973C286.11 292.973 286.32 292.534 286.439 292.012C286.558 291.5 286.997 290.704 287.409 290.292C287.821 289.88 288.571 288.883 289.065 288.087C289.559 287.3 290.163 286.559 290.419 286.458C290.666 286.358 290.795 286.147 290.712 286.001C290.621 285.854 290.758 285.653 291.005 285.562C291.261 285.47 291.462 285.122 291.462 284.756C291.462 283.878 292.039 282.862 292.405 283.1C292.551 283.192 292.689 283.091 292.698 282.881C292.771 281.609 292.917 281.124 293.338 280.712C293.723 280.337 293.768 279.998 293.549 279.083C293.393 278.443 293.265 277.793 293.256 277.628C293.256 277.464 293.018 277.876 292.753 278.543C292.478 279.221 291.746 280.529 291.096 281.508C290.447 282.478 289.925 283.384 289.925 283.539C289.925 283.695 289.742 283.942 289.532 284.079C289.12 284.345 288.553 285.196 288.132 286.165C287.985 286.513 287.436 287.163 286.915 287.593C286.403 288.023 285.972 288.508 285.972 288.654C285.972 288.801 285.085 289.853 283.996 290.978C282.916 292.104 282.02 293.129 282.02 293.238C282.02 293.348 281.077 294.181 279.897 295.105C278.716 296.029 277.774 296.853 277.774 296.972C277.774 297.091 277.454 297.283 277.088 297.393C276.722 297.512 275.862 297.951 275.221 298.353C272.522 300.055 267.279 301.053 265.623 300.174C264.204 299.424 264.552 297.118 266.51 294.327C267.105 293.476 267.855 292.406 268.212 291.893C268.569 291.381 269.136 290.649 269.511 290.219C270.774 288.764 272.467 286.705 273.226 285.69C273.638 285.141 274.297 284.299 274.663 283.841C275.029 283.384 275.349 282.835 275.349 282.661C275.349 282.487 275.459 282.322 275.596 282.322C275.734 282.322 276.209 281.819 276.676 281.188C277.143 280.556 278.222 279.074 279.101 277.866C282.129 273.703 283.044 271.754 282.871 269.851C282.697 267.975 281.461 266.447 279.183 265.312C277.362 264.397 275.276 264.178 273.538 264.709H273.51Z" fill="#F4CB78"/>
<path d="M345.092 267.957C340.142 268.899 333.865 275.551 329.601 284.381C326.627 290.548 325.538 298.527 327.194 301.995C328.118 303.935 329.72 305.307 331.541 305.728C332.419 305.929 333.535 306.094 334.002 306.094C335.246 306.094 338.348 304.996 339.986 303.971C340.773 303.477 341.789 302.91 342.2 302.745C342.63 302.562 343.381 302.105 343.93 301.684C344.479 301.263 345.019 300.943 345.156 300.943C345.293 300.943 345.943 300.449 346.611 299.817C347.279 299.195 347.928 298.728 348.084 298.765C348.239 298.811 348.633 298.591 348.999 298.253C349.347 297.932 350.124 297.42 350.701 297.127C351.277 296.834 351.835 296.514 351.918 296.413C352 296.313 352.403 296.056 352.833 295.837C353.245 295.617 354.196 294.894 354.928 294.245C355.66 293.586 356.474 293.046 356.722 293.046C356.969 293.046 357.481 292.753 357.874 292.378C359.906 290.42 360.427 289.834 360.427 289.496C360.427 289.157 361.031 288.956 361.736 289.066C361.864 289.084 362.056 288.892 362.148 288.645C362.239 288.398 362.431 288.261 362.568 288.343C362.715 288.425 362.907 288.224 363.008 287.885C363.108 287.547 363.319 287.355 363.474 287.446C363.63 287.538 363.767 287.336 363.767 287.007C363.767 286.339 364.426 285.763 364.6 286.275C364.71 286.595 367.72 283.603 367.72 283.173C367.72 283.036 368.196 282.386 368.8 281.682C370.117 280.163 370.282 279.916 370.401 279.376C370.447 279.147 369.651 279.769 368.653 280.739C367.647 281.718 366.576 282.661 366.283 282.816C365.991 282.972 364.929 283.777 363.932 284.591C362.925 285.406 361.846 286.303 361.534 286.568C361.214 286.833 360.519 287.309 359.97 287.629C359.421 287.95 358.908 288.407 358.817 288.645C358.716 288.901 358.451 289.084 358.176 289.084C357.902 289.084 357.71 289.212 357.71 289.386C357.71 289.56 357.527 289.688 357.289 289.688C357.06 289.688 356.786 289.899 356.694 290.146C356.603 290.393 356.41 290.566 356.282 290.53C355.935 290.429 354.571 291.234 354.16 291.783C353.949 292.058 353.784 292.149 353.775 291.994C353.775 291.838 353.528 291.921 353.226 292.195C352.933 292.461 352.092 292.991 351.332 293.403C348.02 295.187 345.558 296.541 343.28 297.832C339.876 299.753 335.905 301.73 334.35 302.279C332.373 302.974 331.632 302.892 331.403 301.967C331.229 301.272 331.403 297.081 331.705 294.858C331.824 293.979 333.297 290.045 333.682 289.569C333.828 289.386 334.377 288.48 334.871 287.565C335.805 285.863 336.445 285.314 336.445 286.202C336.445 287.089 337.387 288.599 338.842 290.091C340.389 291.674 341.459 291.912 343.253 291.07C344.607 290.429 349.356 285.543 350.134 283.988C350.362 283.539 351.204 282.313 352.009 281.288C353.546 279.312 355.267 276.219 355.276 275.396C355.276 275.121 355.376 274.819 355.495 274.7C355.944 274.261 356.749 271.479 356.593 270.903C356.493 270.51 355.852 270.079 354.763 269.668C349.603 267.737 347.873 267.435 345.11 267.957H345.092ZM351.927 272.696C351.927 274.545 345.943 284.152 342.969 287.089C342.027 288.014 341.13 288.8 340.993 288.8C340.855 288.8 340.59 288.599 340.37 288.334C340.078 287.977 340.041 286.888 340.187 283.759C340.407 279.23 340.7 278.351 342.292 277.409C342.795 277.107 343.692 276.43 344.296 275.89C346.391 274.014 351.918 271.708 351.918 272.706L351.927 272.696Z" fill="#F4CB78"/>
<path d="M302.881 266.328C300.182 268.14 296.668 271.498 295.204 273.666C294.573 274.609 293.96 275.469 293.859 275.56C292.853 276.484 290.382 281.16 288.424 285.872C287.555 287.968 286.43 290.557 285.926 291.646C283.986 295.809 283.108 299.479 283.566 301.519C283.84 302.736 285.615 304.703 286.329 304.593C287.271 304.438 288.168 303.678 289.541 301.885C290.327 300.86 292.167 298.829 293.594 297.42C295.021 296.011 297.025 293.888 298.014 292.744C299.011 291.591 300.164 290.274 300.576 289.816C300.987 289.359 301.536 288.691 301.774 288.343C302.03 287.977 302.332 287.702 302.488 287.702C302.643 287.702 304.675 285.79 307.017 283.448C309.36 281.105 311.327 279.193 311.409 279.193C311.492 279.193 312.242 278.525 313.129 277.683C317.503 273.492 317.357 273.529 316.552 276.823C316.176 278.378 315.49 281.288 315.042 283.292C314.593 285.296 314.008 287.821 313.752 288.91C313.486 290.008 313.093 291.829 312.855 293.009C312.617 294.19 312.306 295.471 312.16 295.892C312.013 296.313 311.656 297.475 311.373 298.472C310.695 300.878 310.275 302.15 308.939 305.765C308.326 307.439 307.502 309.69 307.118 310.779C306.734 311.868 306.056 313.396 305.599 314.192C305.151 314.979 304.885 315.638 305.004 315.638C305.123 315.638 305.041 315.866 304.775 316.168C304.528 316.461 304.089 317.248 303.806 317.916C302.964 319.892 301.344 322.93 301.134 322.93C301.024 322.93 300.877 323.131 300.768 323.397C300.658 323.671 300.713 323.79 300.887 323.69C301.06 323.58 301.189 323.708 301.189 323.982C301.189 324.257 301.015 324.449 300.768 324.449C300.127 324.449 296.678 328.759 297.181 328.923C297.757 329.116 296.787 330.442 295.817 330.799C295.268 331 294.811 331.312 294.811 331.485C294.811 331.659 295.15 331.586 295.57 331.321C295.991 331.046 296.33 330.946 296.33 331.074C296.33 331.431 295.268 333.041 294.564 333.736C293.887 334.413 288.095 339.812 285.999 341.733C285.24 342.429 284.874 342.896 285.176 342.786C286.173 342.429 285.688 343.161 284.481 343.847C283.813 344.222 283.099 344.698 282.888 344.909C282.678 345.119 281.781 345.595 280.866 345.988C279.951 346.382 279.036 346.876 278.798 347.114C278.56 347.352 278.13 347.535 277.856 347.535C277.462 347.535 277.444 347.471 277.764 347.269C278.954 346.519 275.944 346.656 273.848 347.452C273.601 347.544 273.07 347.599 272.714 347.562C272.348 347.525 272.027 347.644 272.027 347.809C272.027 348.12 272.448 348.102 274.974 347.672C275.852 347.516 276.282 347.562 276.282 347.8C276.282 348.001 276.584 348.148 276.978 348.148C277.737 348.148 280.802 347.05 281.379 346.565C281.589 346.391 281.745 346.363 281.745 346.51C281.745 346.638 281.955 346.446 282.211 346.089C282.468 345.723 282.953 345.421 283.273 345.421C283.593 345.421 283.868 345.275 283.868 345.082C283.868 344.89 284.078 344.826 284.352 344.927C284.645 345.037 285.203 344.808 285.752 344.35C286.265 343.92 286.786 343.591 286.951 343.591C287.107 343.591 287.628 343.198 288.077 342.74C288.525 342.282 289.083 341.944 289.275 342.008C289.486 342.081 289.641 341.935 289.641 341.66C289.641 341.386 290.245 340.681 291.005 340.032C291.764 339.391 292.313 338.705 292.231 338.494C292.157 338.284 292.459 337.927 292.917 337.689C293.374 337.451 294.271 336.683 294.948 335.96C295.625 335.237 295.927 334.834 295.634 335.063C295.333 335.301 295.04 335.411 294.948 335.319C294.738 335.109 295.131 334.166 295.433 334.166C295.58 334.166 295.708 333.956 295.708 333.709C295.708 333.444 295.964 333.251 296.33 333.251C296.668 333.251 296.87 333.389 296.769 333.553C296.668 333.718 296.787 333.773 297.025 333.672C297.282 333.562 297.538 333.297 297.648 333.023C297.803 332.62 297.757 332.62 297.327 332.977C296.87 333.37 296.842 333.343 297.062 332.638C297.318 331.815 298.032 331.138 298.645 331.129C298.864 331.129 299.038 330.927 299.038 330.68C299.038 330.433 299.212 330.131 299.413 329.994C299.624 329.857 299.981 329.509 300.219 329.207C300.594 328.722 300.585 328.621 300.127 328.292C299.661 327.963 299.752 327.761 300.996 326.306C301.747 325.428 302.378 324.431 302.378 324.138C302.378 323.561 304.757 321.237 305.05 321.53C305.151 321.631 304.958 321.896 304.592 322.152C304.226 322.399 303.888 322.866 303.806 323.232C303.659 323.845 303.687 323.854 304.409 323.369C304.83 323.086 305.087 323.003 304.986 323.168C304.885 323.342 304.986 323.543 305.233 323.635C305.7 323.809 306.02 323.598 306.02 323.113C306.02 322.939 305.883 322.994 305.718 323.232C305.462 323.616 305.416 323.607 305.416 323.186C305.416 322.912 305.626 322.518 305.873 322.317C306.12 322.125 306.331 321.786 306.331 321.585C306.331 321.384 306.743 320.762 307.273 320.185C307.795 319.618 308.417 318.602 308.655 317.934C308.893 317.266 309.296 316.498 309.533 316.214C309.771 315.939 309.881 315.619 309.78 315.519C309.68 315.418 309.753 315.125 309.963 314.878C310.174 314.631 310.238 314.274 310.119 314.073C309.954 313.817 310.046 313.771 310.412 313.908C310.805 314.055 310.888 313.972 310.76 313.542C310.65 313.185 310.805 312.792 311.171 312.462C311.482 312.179 311.83 311.611 311.931 311.218C312.041 310.797 312.278 310.55 312.507 310.642C313.001 310.825 314.978 308.125 315.06 307.155C315.142 306.24 315.993 304.392 316.332 304.392C316.487 304.392 316.707 303.953 316.835 303.404C316.963 302.855 317.256 302.123 317.503 301.748C317.906 301.135 318.235 300.11 318.665 298.042C318.748 297.639 319.214 295.855 319.69 294.098C320.532 290.969 321.913 284.994 322.289 282.862C322.389 282.286 322.517 281.746 322.591 281.636C322.655 281.526 322.847 280.62 323.011 279.65C323.57 276.338 324.256 273.291 324.604 272.605C324.869 272.074 324.86 271.726 324.558 271.15C324.109 270.299 321.392 268.743 320.77 268.981C320.523 269.073 320.266 269.018 320.157 268.844C319.91 268.451 318.674 268.506 318.244 268.936C318.043 269.137 317.878 269.668 317.878 270.116C317.878 270.702 317.54 271.205 316.698 271.882L315.518 272.824L314.905 271.854C314.282 270.857 313.935 270.546 309.533 266.913C306.468 264.388 305.864 264.333 302.881 266.337V266.328ZM313.01 273.017L314.575 273.822L311.629 276.585C310 278.113 307.173 280.895 305.315 282.807C303.449 284.719 301.481 286.687 300.914 287.199C299.743 288.251 299.642 288.361 293.164 294.922C290.648 297.475 288.497 299.543 288.369 299.543C287.939 299.543 288.113 298.939 289.037 297.173C289.541 296.221 290.547 294.135 291.288 292.524C292.029 290.914 293.237 288.864 293.987 287.94C294.729 287.025 295.525 285.936 295.735 285.543C295.936 285.15 296.202 284.747 296.312 284.665C296.421 284.582 296.906 283.969 297.4 283.301C300.081 279.623 303.824 275.716 305.416 274.92C305.837 274.709 306.532 274.243 306.907 273.904C307.594 273.3 309.973 272.321 310.943 272.248C311.226 272.23 312.169 272.577 313.02 273.017H313.01ZM316.414 301.244C316.057 301.867 315.957 301.665 316.24 300.906C316.341 300.631 316.487 300.476 316.57 300.558C316.652 300.631 316.579 300.933 316.405 301.244H316.414ZM314.722 305.554C314.383 305.893 314.264 305.463 314.474 304.703L314.685 303.944L314.795 304.657C314.85 305.051 314.822 305.454 314.722 305.554ZM309.433 313.872C309.222 314.082 309.067 314.109 309.067 313.936C309.067 313.542 309.442 313.167 309.643 313.368C309.735 313.451 309.643 313.661 309.433 313.881V313.872ZM309.369 315.162C309.369 315.244 309.25 315.372 309.067 315.482C308.893 315.583 308.765 315.528 308.765 315.345C308.765 315.162 308.893 315.024 309.067 315.024C309.25 315.024 309.369 315.079 309.369 315.162ZM308.17 317.422C307.969 317.788 307.703 318.062 307.548 318.062C307.392 318.062 307.228 318.364 307.182 318.73C307.072 319.49 306.239 319.682 306.102 318.977C305.983 318.337 307.859 316.132 308.216 316.488C308.408 316.681 308.39 317.037 308.17 317.431V317.422ZM298.736 328.082C298.736 328.255 298.599 328.384 298.416 328.384C298.233 328.384 298.178 328.255 298.279 328.082C298.389 327.899 298.517 327.78 298.599 327.78C298.681 327.78 298.736 327.899 298.736 328.082ZM297.199 331.577C296.998 331.824 296.751 331.961 296.668 331.879C296.467 331.678 296.916 331.119 297.272 331.119C297.455 331.119 297.428 331.302 297.199 331.577Z" fill="#F4CB78"/>
<path d="M313.651 311.538C313.423 311.813 313.395 311.996 313.578 311.996C313.944 311.996 314.392 311.438 314.182 311.236C314.1 311.154 313.853 311.3 313.651 311.538Z" fill="#F4CB78"/>
<path d="M312.049 314.97C311.482 315.638 311.134 316.242 311.326 316.242C311.409 316.242 311.756 315.848 312.122 315.327C312.827 314.32 312.79 314.101 312.049 314.961V314.97Z" fill="#F4CB78"/>
<path d="M310.76 319.188C310.604 319.609 310.65 319.654 310.943 319.352C311.153 319.142 311.245 318.895 311.144 318.803C311.044 318.712 310.879 318.877 310.769 319.178L310.76 319.188Z" fill="#F4CB78"/>
<path d="M309.579 320.954C309.488 321.201 309.542 321.411 309.698 321.411C309.854 321.411 309.991 321.201 309.991 320.954C309.991 320.707 309.936 320.496 309.872 320.496C309.808 320.496 309.671 320.707 309.579 320.954Z" fill="#F4CB78"/>
<path d="M303.184 324.595C302.901 325.355 303.001 325.547 303.358 324.934C303.532 324.632 303.605 324.33 303.523 324.248C303.44 324.174 303.294 324.321 303.193 324.595H303.184Z" fill="#F4CB78"/>
<path d="M304.263 325.382C304.052 325.721 303.714 325.895 303.522 325.776C303.311 325.648 303.238 325.648 303.357 325.776C303.467 325.895 303.165 326.416 302.652 326.956C301.445 328.265 301.106 328.914 301.518 329.171C301.737 329.308 301.719 329.482 301.472 329.784C301.271 330.031 301.198 330.204 301.307 330.204C301.646 330.204 303.32 327.414 303.147 327.139C303.055 326.993 303.147 326.901 303.33 326.938C303.522 326.984 303.943 326.563 304.272 325.977C304.903 324.888 304.903 324.367 304.272 325.373L304.263 325.382Z" fill="#F4CB78"/>
<path d="M301.876 326.499C301.592 326.956 301.236 327.505 301.089 327.716C300.934 327.926 300.879 328.091 300.952 328.091C301.025 328.091 301.528 327.542 302.059 326.874C302.59 326.206 302.892 325.657 302.709 325.657C302.526 325.657 302.16 326.032 301.876 326.489V326.499Z" fill="#F4CB78"/>
<path d="M299.138 332.977C298.845 333.334 298.205 334.112 297.738 334.661C297.272 335.21 297.025 335.676 297.208 335.676C297.391 335.676 297.546 335.576 297.546 335.448C297.546 335.32 298.095 334.615 298.763 333.883C299.422 333.151 299.98 332.501 299.98 332.456C299.98 332.163 299.614 332.392 299.147 332.968L299.138 332.977Z" fill="#F4CB78"/>
<path d="M283.109 343.755C282.441 344.158 282.029 344.487 282.194 344.487C282.56 344.487 284.472 343.344 284.472 343.115C284.472 342.932 284.5 342.914 283.109 343.755Z" fill="#F4CB78"/>
<path d="M280.74 345.064C280.282 345.339 279.916 345.668 279.916 345.796C279.916 345.924 280.309 345.805 280.831 345.503C281.343 345.201 281.746 344.863 281.746 344.726C281.746 344.442 281.773 344.433 280.74 345.055V345.064Z" fill="#F4CB78"/>
<path d="M268.688 346.491C268.688 346.574 268.944 346.912 269.228 347.223C269.749 347.791 270.207 347.937 271.241 347.864C271.79 347.827 271.79 347.8 271.268 347.223C270.966 346.885 270.664 346.674 270.582 346.738C270.509 346.803 270.051 346.738 269.566 346.601C269.081 346.455 268.688 346.409 268.688 346.491Z" fill="#F4CB78"/>
<path d="M916.448 299.488C917.958 298.81 921.718 295.306 923.704 292.735C924.848 291.253 926.348 289.368 927.007 288.572C927.675 287.766 928.746 286.311 929.404 285.305C931.966 281.425 933.202 279.476 933.202 279.33C933.202 279.257 933.522 278.717 933.925 278.131C935.013 276.539 937.109 272.266 937.109 271.653C937.109 271.369 937.209 271.077 937.319 271.022C937.429 270.967 937.731 270.473 937.978 269.942C938.335 269.164 938.847 268.762 940.494 267.947C941.638 267.38 942.892 266.849 943.303 266.758L944.045 266.593L943.642 268.048C940.595 279.083 939.826 283.502 939.826 289.917C939.826 292.79 940.467 296.148 941.208 297.154C941.501 297.548 942.004 297.978 942.37 298.143C942.797 298.338 942.959 297.941 942.855 296.953C942.489 293.485 942.416 290.09 942.709 289.917C942.864 289.825 942.974 289.413 942.956 288.992C942.919 288.096 943.505 285.003 943.788 284.61C943.898 284.454 944.136 283.832 944.31 283.21C945.124 280.391 946.131 277.271 946.46 276.503C946.661 276.045 946.982 275.176 947.165 274.59C947.348 274.005 947.677 273.181 947.888 272.779C948.107 272.358 948.281 271.854 948.281 271.607C948.281 271.36 948.446 270.939 948.656 270.628C948.867 270.326 949.123 269.777 949.242 269.384C949.361 268.99 949.635 268.478 949.864 268.213C950.697 267.261 949.333 264.187 947.997 263.995C947.759 263.958 947.274 263.72 946.881 263.446C945.984 262.814 945.435 262.842 944.566 263.528C944.173 263.839 943.642 264.077 943.349 264.077C943.056 264.077 942.178 264.324 941.364 264.635C940.549 264.946 939.79 265.193 939.662 265.193C939.534 265.193 939.351 264.69 939.268 264.049C939.039 262.43 937.804 261.222 935.709 260.582C934.364 260.17 933.586 260.115 931.463 260.289C930.036 260.408 928.334 260.481 927.675 260.453C926.833 260.426 926.44 260.545 926.321 260.856C926.229 261.112 925.836 261.487 925.415 261.725C924.994 261.963 924.308 262.384 923.841 262.686C923.365 262.997 922.826 263.317 922.588 263.427C922.158 263.629 919.623 265.385 919.065 265.87C918.882 266.026 918.077 266.675 917.29 267.279C916.512 267.883 915.423 268.807 914.92 269.302C914.417 269.786 913.804 270.207 913.593 270.207C913.154 270.207 912.248 271.882 912.248 272.696C912.248 272.98 912.12 273.273 911.964 273.318C911.507 273.474 912.23 275.377 913.172 276.521C914.709 278.388 916.741 278.744 920.145 277.756C921.179 277.454 922.697 276.896 923.539 276.503C924.381 276.109 925.141 275.789 925.241 275.789C925.342 275.789 926.33 275.249 927.419 274.599C928.508 273.95 929.734 273.254 930.118 273.062C930.512 272.87 930.997 272.605 931.234 272.477C932.378 271.827 932.982 271.562 933.074 271.653C933.247 271.827 932.149 274.718 931.847 274.911C931.692 275.011 931.262 275.643 930.887 276.338C930.228 277.546 928.846 279.742 926.312 283.603C925.369 285.03 922.13 289.13 920.19 291.344C918.552 293.22 915.606 295.965 914.865 296.313C913.996 296.724 913.858 296.724 913.273 296.34C912.404 295.773 910.134 295.452 909.887 295.873C909.787 296.038 909.823 296.184 909.979 296.184C910.134 296.184 910.665 296.77 911.141 297.465C912.596 299.588 914.536 300.32 916.43 299.469L916.448 299.488ZM916.768 273.126C918.781 270.546 922.615 267.618 928.929 263.848C931.61 262.247 933.495 262.375 934.913 264.251C935.48 265.001 935.599 265.385 935.462 266.081C935.306 266.913 934.958 267.124 928.59 270.171C921.27 273.675 917.994 274.956 916.384 274.975H915.322L916.759 273.145L916.768 273.126Z" fill="#F4CB78"/>
<path d="M807.479 212.881C805.814 213.229 802.831 215.031 799.857 217.502C797.606 219.369 796.764 220.293 797.185 220.439C797.35 220.503 797.689 220.293 797.917 219.991C798.146 219.689 798.347 219.579 798.357 219.762C798.375 220.338 796.957 221.491 796.719 221.098C796.563 220.851 796.161 221.061 795.465 221.738C794.376 222.8 794.138 223.413 794.953 223.102C795.31 222.974 795.227 223.193 794.678 223.925C791.457 228.18 787.605 233.926 785.784 237.193C785.364 237.952 784.897 238.758 784.732 239.014C784.577 239.261 783.973 240.505 783.396 241.75C782.82 242.994 782.115 244.54 781.832 245.163C781.539 245.803 780.862 246.791 780.285 247.423C779.727 248.027 779.233 248.768 779.206 249.033C779.087 250.305 778.62 252.172 778.336 252.528C778.199 252.702 778.098 253.178 778.108 253.636C778.108 254.084 777.86 254.816 777.513 255.31C777.174 255.786 776.735 256.618 776.525 257.158C776.314 257.698 776.021 258.073 775.875 257.982C775.729 257.89 775.683 258.028 775.783 258.275C775.884 258.522 775.729 259.354 775.445 260.077C775.17 260.809 775.024 261.587 775.125 261.761C775.234 261.944 775.189 262.099 775.033 262.099C774.878 262.099 774.594 262.474 774.411 262.932C774.136 263.609 773.578 263.948 771.391 264.753C769.9 265.302 768.546 265.741 768.354 265.741C768.171 265.741 768.006 265.897 768.006 266.08C768.006 266.272 768.354 266.345 768.839 266.244C769.323 266.144 770.449 265.997 771.419 265.897C772.389 265.796 773.24 265.595 773.331 265.439C773.606 264.991 774.072 265.101 774.072 265.622C774.072 265.869 773.953 266.006 773.816 265.924C773.679 265.842 773.377 266.528 773.166 267.443C772.947 268.358 772.654 269.181 772.517 269.264C772.38 269.346 772.261 270.042 772.261 270.764C772.261 271.487 772.123 272.119 771.959 272.119C771.785 272.119 771.73 272.421 771.84 272.851C771.94 273.244 771.876 273.674 771.702 273.775C771.529 273.885 771.446 274.443 771.519 275.019C771.602 275.623 771.519 276.071 771.355 276.071C770.888 276.071 770.44 277.435 770.266 279.384C770.184 280.299 770.037 281.177 769.946 281.324C769.854 281.47 769.79 282.239 769.79 282.998C769.79 283.758 769.68 284.544 769.534 284.727C769.195 285.148 768.985 287.308 769.287 287.308C769.424 287.308 769.534 287.582 769.534 287.912C769.534 288.241 769.415 288.516 769.259 288.516C768.436 288.516 768.784 293.621 769.808 296.568C770.458 298.452 771.849 300.063 772.81 300.063C773.112 300.063 773.487 300.182 773.642 300.319C773.798 300.456 774.566 300.658 775.326 300.758C776.506 300.914 776.927 300.813 778.062 300.1C780.084 298.819 783.286 294.747 784.128 292.377C784.348 291.773 784.641 291.251 784.769 291.251C784.897 291.251 785.016 291.05 785.016 290.84C785.016 290.611 785.336 289.824 785.748 289.065C786.15 288.305 786.58 287.235 786.709 286.667C786.837 286.1 787.441 284.325 788.072 282.724C789.701 278.533 790.881 273.848 790.725 272.155C790.57 270.453 789.161 267.406 788.264 266.83C786.516 265.714 784.86 265.979 782.188 267.8C779.938 269.337 778.162 271.066 776.744 273.089C776.067 274.058 775.454 274.845 775.39 274.845C775.134 274.845 776.122 270.197 776.744 268.468C776.836 268.221 776.881 267.827 776.845 267.617C776.808 267.388 776.936 267.04 777.138 266.793C777.339 266.546 777.403 266.235 777.293 266.052C777.183 265.869 777.229 265.732 777.412 265.732C777.595 265.732 777.732 265.476 777.732 265.137C777.732 264.799 777.86 264.469 778.034 264.359C778.217 264.25 778.291 264.094 778.217 263.966C778.153 263.847 778.702 263.481 779.434 263.161C780.166 262.84 780.77 262.447 780.77 262.31C780.77 262.173 781.045 262.136 781.347 262.237C781.713 262.356 781.987 262.237 782.088 261.944C782.179 261.678 782.509 261.477 782.847 261.477C783.186 261.477 783.835 261.148 784.348 260.718C784.86 260.288 785.391 259.958 785.565 259.958C785.73 259.958 785.949 259.748 786.031 259.501C786.114 259.254 786.324 259.08 786.471 259.126C786.617 259.171 787.349 258.723 788.081 258.137C788.813 257.561 790.451 256.335 791.695 255.447C792.94 254.56 794.038 253.736 794.129 253.626C794.212 253.517 794.642 253.196 795.072 252.922C795.813 252.446 798.622 249.93 800.571 248.017C801.028 247.569 801.422 246.974 801.422 246.736C801.422 246.498 801.614 246.297 801.843 246.297C802.236 246.297 805.036 243.021 806.162 241.228C806.464 240.752 807.003 240.002 807.397 239.508C807.79 239.023 808.092 238.446 808.092 238.19C808.092 237.934 808.413 237.358 808.824 236.873C809.218 236.406 809.648 235.445 809.767 234.777C809.886 234.109 810.105 233.551 810.252 233.551C810.398 233.551 810.526 233.295 810.526 232.956C810.526 232.618 810.645 232.06 810.801 231.666C810.947 231.282 811.304 230.147 811.588 229.15C811.871 228.153 812.31 226.716 812.557 225.957C812.859 225.051 813.015 223.175 813.024 220.384L813.042 216.175L811.112 214.382C810.05 213.394 809.044 212.607 808.861 212.616C808.687 212.634 808.056 212.744 807.479 212.863V212.881ZM808.696 219.707C808.696 221.958 807.635 227.933 806.683 231.035C805.896 233.588 805.082 235.29 802.877 238.959C802.236 240.02 801.706 241.008 801.706 241.127C801.706 241.246 801.376 241.686 800.992 242.088C800.608 242.482 799.272 243.982 798.073 245.382C796.874 246.782 795.502 248.228 795.063 248.566C794.614 248.914 793.836 249.591 793.287 250.104C791.586 251.696 790.067 252.977 788.493 254.13C787.642 254.752 786.763 255.475 786.489 255.786C786.224 256.088 785.848 256.335 785.656 256.335C785.473 256.335 785.309 256.481 785.309 256.637C785.309 256.792 785.153 256.939 784.97 256.939C784.686 256.939 782.994 258.101 781.2 259.528C779.745 260.69 778.794 260.974 779.681 259.977C780.093 259.519 780.139 259.263 779.873 258.961C779.608 258.65 779.645 258.448 780.011 258.128C780.496 257.707 780.981 256.692 781.2 255.63C781.264 255.301 781.493 254.779 781.731 254.413C782.124 253.809 783.277 250.918 783.689 249.491C783.781 249.161 784.174 248.402 784.531 247.816C785.235 246.691 785.748 245.172 785.629 244.54C785.592 244.348 785.766 244.174 785.977 244.174C786.205 244.174 786.901 243.204 787.541 241.987C789.801 237.705 790.003 237.348 790.369 237.111C790.579 236.973 790.762 236.699 790.762 236.516C790.762 236.186 792.684 233.386 795.557 229.534C799.153 224.703 804.414 219.588 806.884 218.527C808.541 217.813 808.678 217.905 808.678 219.698L808.696 219.707ZM786.654 269.456C786.535 269.822 786.452 270.947 786.471 271.945C786.516 274.553 784.513 281.296 782.463 285.432C781.575 287.225 780.67 289.156 780.441 289.742C780.212 290.327 779.425 291.901 778.693 293.237C776.278 297.611 774.887 298.837 774.072 297.309C773.478 296.183 772.983 292.661 773.02 289.714L773.048 286.795L774.932 283.025C775.966 280.958 776.817 279.173 776.817 279.082C776.817 278.725 779.059 275.047 780.505 273.043C781.548 271.588 782.426 270.774 783.835 269.932C786.086 268.596 786.992 268.449 786.663 269.456H786.654ZM775.353 269.758C775.143 269.968 774.987 269.996 774.987 269.822C774.987 269.429 775.363 269.053 775.564 269.255C775.655 269.337 775.564 269.547 775.353 269.767V269.758ZM773.77 271.826C773.77 272.009 773.651 272.128 773.468 272.128C773.285 272.128 773.166 272.009 773.166 271.826C773.166 271.643 773.285 271.524 773.468 271.524C773.651 271.524 773.77 271.643 773.77 271.826Z" fill="#F4CB78"/>
<path d="M792.858 224.968C792.492 225.444 792.51 225.453 792.995 225.078C793.507 224.675 793.654 224.438 793.388 224.438C793.315 224.438 793.096 224.666 792.858 224.968Z" fill="#F4CB78"/>
<path d="M791.503 226.643L790.927 227.329L791.595 226.762C792.235 226.222 792.418 225.966 792.171 225.966C792.125 225.966 791.814 226.286 791.503 226.652V226.643Z" fill="#F4CB78"/>
<path d="M786.984 233.121C786.709 233.542 786.618 233.816 786.801 233.706C787.167 233.487 787.853 232.334 787.624 232.334C787.56 232.334 787.267 232.7 786.984 233.121Z" fill="#F4CB78"/>
<path d="M852.559 261.338C847.609 262.28 841.332 268.932 837.068 277.762C834.094 283.929 833.005 291.908 834.662 295.376C835.586 297.316 837.187 298.688 839.008 299.109C839.886 299.31 841.003 299.475 841.469 299.475C842.714 299.475 845.816 298.377 847.453 297.352C848.24 296.858 849.256 296.291 849.668 296.126C850.098 295.943 850.848 295.486 851.397 295.065C851.946 294.644 852.486 294.324 852.623 294.324C852.76 294.324 853.41 293.829 854.078 293.198C854.746 292.576 855.396 292.109 855.551 292.146C855.707 292.192 856.1 291.972 856.466 291.633C856.814 291.313 857.592 290.801 858.168 290.508C858.745 290.215 859.303 289.895 859.385 289.794C859.467 289.694 859.87 289.437 860.3 289.218C860.712 288.998 861.663 288.275 862.395 287.626C863.127 286.967 863.942 286.427 864.189 286.427C864.436 286.427 864.948 286.134 865.342 285.759C867.373 283.801 867.895 283.215 867.895 282.877C867.895 282.538 868.499 282.337 869.203 282.447C869.331 282.465 869.523 282.273 869.615 282.026C869.706 281.779 869.898 281.642 870.036 281.724C870.182 281.806 870.374 281.605 870.475 281.266C870.576 280.928 870.786 280.736 870.942 280.827C871.097 280.919 871.234 280.717 871.234 280.388C871.234 279.72 871.893 279.144 872.067 279.656C872.177 279.976 875.187 276.984 875.187 276.554C875.187 276.417 875.663 275.767 876.267 275.063C877.585 273.544 877.749 273.297 877.868 272.757C877.914 272.528 877.118 273.15 876.121 274.12C875.114 275.099 874.043 276.042 873.751 276.197C873.458 276.353 872.396 277.158 871.399 277.972C870.393 278.787 869.313 279.683 869.002 279.949C868.682 280.214 867.986 280.69 867.437 281.01C866.888 281.33 866.376 281.788 866.284 282.026C866.184 282.282 865.918 282.465 865.644 282.465C865.369 282.465 865.177 282.593 865.177 282.767C865.177 282.941 864.994 283.069 864.756 283.069C864.527 283.069 864.253 283.279 864.161 283.527C864.07 283.774 863.878 283.947 863.75 283.911C863.402 283.81 862.039 284.615 861.627 285.164C861.416 285.439 861.252 285.53 861.243 285.375C861.243 285.219 860.995 285.302 860.694 285.576C860.401 285.841 859.559 286.372 858.799 286.784C855.487 288.568 853.026 289.922 850.747 291.213C847.344 293.134 843.372 295.11 841.817 295.659C839.841 296.355 839.099 296.273 838.871 295.348C838.697 294.653 838.871 290.462 839.173 288.239C839.292 287.36 840.765 283.426 841.149 282.95C841.295 282.767 841.844 281.861 842.338 280.946C843.272 279.244 843.912 278.695 843.912 279.583C843.912 280.47 844.855 281.98 846.31 283.472C847.856 285.055 848.927 285.292 850.72 284.451C852.074 283.81 856.823 278.924 857.601 277.369C857.83 276.92 858.671 275.694 859.477 274.669C861.014 272.693 862.734 269.6 862.743 268.777C862.743 268.502 862.844 268.2 862.963 268.081C863.411 267.642 864.216 264.86 864.061 264.284C863.96 263.89 863.32 263.46 862.231 263.049C857.07 261.118 855.341 260.816 852.577 261.338H852.559ZM859.394 266.077C859.394 267.926 853.41 277.533 850.436 280.47C849.494 281.395 848.597 282.181 848.46 282.181C848.323 282.181 848.057 281.98 847.838 281.715C847.545 281.358 847.508 280.269 847.655 277.14C847.874 272.61 848.167 271.732 849.759 270.79C850.262 270.488 851.159 269.811 851.763 269.271C853.858 267.395 859.385 265.089 859.385 266.086L859.394 266.077Z" fill="#F4CB78"/>
<path d="M884.269 255.127C883.446 255.712 883.446 255.959 884.297 256.325C885.541 256.865 885.358 259.574 883.592 266.921C883.117 268.898 882.494 270.783 882.22 271.084C881.945 271.386 881.808 271.771 881.918 271.954C882.028 272.128 881.762 272.695 881.341 273.216C880.921 273.729 880.564 274.424 880.564 274.754C880.564 275.083 880.436 275.266 880.271 275.165C880.115 275.065 879.896 275.33 879.786 275.76C879.676 276.181 879.466 276.538 879.319 276.538C879.173 276.538 878.816 277.041 878.514 277.673C878.212 278.313 877.883 278.944 877.755 279.118C877.627 279.283 877.023 280.18 876.419 281.095C872.676 286.713 865.073 294.865 864.286 294.088C864.222 294.024 863.81 292.605 863.389 290.958C862.254 286.557 861.175 285.697 860.068 288.314C859.262 290.226 859.326 292.23 860.241 294.024C860.836 295.186 861.321 295.634 862.84 296.439C864.542 297.336 864.816 297.4 865.942 297.126C866.729 296.933 867.433 296.476 867.9 295.863C868.303 295.332 869.355 294.161 870.27 293.218C871.185 292.276 872.512 290.803 873.28 289.879C874.031 288.964 874.726 288.158 874.817 288.076C874.909 287.994 875.321 287.436 875.714 286.859C876.117 286.264 876.885 285.267 877.444 284.599C878.002 283.931 878.45 283.227 878.45 283.007C878.45 282.787 878.551 282.614 878.679 282.614C878.807 282.614 879.356 281.872 879.923 280.93C880.491 279.987 881.012 279.32 881.104 279.411C881.195 279.503 881.323 280.637 881.378 281.918C881.607 287.051 882.76 289.924 884.828 290.501C886.502 290.968 886.868 290.867 888.067 289.632C889.796 287.857 889.888 287.719 891.946 284.041C894.508 279.457 894.865 278.853 896.421 276.391C897.171 275.211 897.985 273.866 898.251 273.354C898.516 272.86 899.074 271.807 899.477 271.048C900.3 269.501 902.442 266.583 902.442 267.013C902.442 267.159 902.021 269.749 901.517 272.75C901.005 275.76 900.383 279.859 900.136 281.863C899.889 283.867 899.559 286.228 899.404 287.115C898.946 289.815 899.724 298.114 900.676 300.694C901.993 304.244 903.302 306.01 904.628 306.01C905.296 306.01 905.662 305.315 905.296 304.738C905.168 304.537 905.022 304.144 904.994 303.933C904.958 303.714 904.83 303.293 904.702 303.018C904.573 302.744 904.454 302.378 904.427 302.213C904.171 300.365 903.896 297.729 903.869 296.805C903.851 296.201 903.75 295.68 903.649 295.68C903.457 295.68 903.576 294.618 904.244 290.364C904.4 289.348 904.619 287.6 904.729 286.42C904.839 285.24 905.168 283.593 905.47 282.714C905.772 281.836 906.248 280.015 906.532 278.615C906.815 277.215 907.154 275.824 907.291 275.486C907.675 274.534 909.597 268.349 909.935 266.985C910.1 266.326 910.539 264.679 910.905 263.371C911.546 261.065 911.555 260.946 911.015 260.361C909.524 258.723 906.019 257.835 904.464 258.704C903.53 259.226 903.338 259.546 903.338 260.58C903.338 261.056 902.991 261.916 902.579 262.465C902.167 263.014 901.819 263.536 901.819 263.618C901.819 263.7 901.453 264.167 901.032 264.625C900.099 265.631 898.178 268.55 898.178 268.971C898.178 269.154 898.077 269.273 897.931 269.273C897.528 269.273 895.14 272.914 895.14 273.528C895.14 273.829 894.957 274.223 894.746 274.36C894.325 274.635 892.715 276.931 892.715 277.27C892.715 277.389 892.221 278.24 891.635 279.155C891.05 280.07 890.473 281.058 890.373 281.342C890.043 282.257 887.198 286.292 886.886 286.292C886.694 286.292 886.667 285.532 886.804 284.224C887.133 281.122 887.197 280.793 887.719 278.999C888.204 277.361 889.092 274.168 890.711 268.312C891.818 264.304 891.928 259.583 890.949 257.927C890.592 257.323 890.281 256.609 890.281 256.38C890.281 255.749 887.765 254.706 886.246 254.706C885.514 254.706 884.645 254.916 884.269 255.182V255.127Z" fill="#F4CB78"/>
<path d="M825.957 266.51C824.027 267.48 820.239 270.957 817.741 274.05C816.396 275.725 812.626 281.068 812.36 281.672C812.251 281.928 811.729 282.734 811.18 283.493C809.981 285.167 805.269 293.128 805.269 293.485C805.269 293.631 804.711 294.455 804.043 295.306C802.835 296.825 802.78 296.852 801.344 296.806C800.127 296.77 799.898 296.678 800.035 296.276C800.127 296.001 800.099 295.882 799.971 296.001C799.843 296.12 799.56 296.029 799.322 295.791C799.011 295.48 798.974 295.15 799.203 294.574C799.367 294.153 799.578 293.238 799.66 292.597C799.743 291.948 800.163 290.621 800.584 289.651C801.005 288.69 801.618 286.86 801.939 285.616C802.25 284.371 802.735 282.523 803 281.535C803.265 280.528 803.54 279.385 803.604 278.955C803.668 278.534 803.915 277.161 804.135 275.944C804.372 274.672 804.464 272.98 804.363 272.01C804.199 270.427 804.061 270.207 802.542 268.853C801.627 268.039 800.42 267.261 799.807 267.087C798.443 266.703 796.467 266.703 796.467 267.087C796.467 267.233 797.016 267.746 797.684 268.212C798.352 268.679 798.983 269.393 799.093 269.795C799.303 270.61 798.947 273.254 797.784 279.394C796.915 283.996 796.522 285.524 792.642 299.707C791.041 305.535 789.696 310.522 789.641 310.788C789.43 311.84 788.552 315.646 787.957 318.108C784.956 330.588 784.123 335.182 783.895 340.525C783.812 342.41 783.675 344.048 783.584 344.204C783.346 344.579 785.093 347.15 785.972 347.717C787.207 348.522 787.82 348.211 787.875 346.747C787.902 346.052 788.122 345.192 788.378 344.789C788.625 344.396 789 343.252 789.202 342.255C789.403 341.248 789.687 340.159 789.824 339.821C789.97 339.482 790.144 338.942 790.227 338.604C790.721 336.563 793.456 327.523 794.829 323.415C796.897 317.22 797.08 316.689 797.748 315.216C798.059 314.521 798.306 313.807 798.306 313.606C798.306 313.405 798.434 313.011 798.608 312.709C798.773 312.416 799.294 311.236 799.779 310.056C800.255 308.875 801.243 306.533 801.984 304.803C803.284 301.766 803.348 301.683 804.199 301.802C805.37 301.976 807.84 301.5 809.359 300.814C810.055 300.494 810.887 300.164 811.253 300.055C811.601 299.954 812.26 299.542 812.653 299.185C813.065 298.819 814.337 297.877 815.49 297.09C819.616 294.281 826.113 287.903 828.08 284.728C831.74 278.808 832.829 275.752 832.527 272.22C832.024 266.209 830.02 264.461 825.967 266.501L825.957 266.51ZM828.767 268.889C829.251 271.854 826.534 278.186 822.627 283.191C821.209 285.012 815.755 290.484 815.362 290.484C815.197 290.484 814.465 291.088 813.724 291.847C813.001 292.588 811.491 293.695 810.43 294.263C809.368 294.83 808.508 295.452 808.545 295.626C808.591 295.809 808.316 295.946 807.923 295.946C807.529 295.946 807.063 296.102 806.861 296.312C806.651 296.523 806.431 296.614 806.349 296.523C806.166 296.34 809.972 288.965 810.97 287.565C811.363 287.016 811.665 286.458 811.665 286.293C811.665 286.11 811.757 285.945 811.894 285.881C812.022 285.826 812.672 284.957 813.34 283.95C817.302 278.03 823.368 271.058 826.333 269.027C827.367 268.322 828.3 267.727 828.401 267.718C828.501 267.718 828.675 268.249 828.776 268.889H828.767ZM813.632 293.219C813.523 293.402 813.33 293.521 813.147 293.521C812.964 293.521 812.919 293.402 813.028 293.219C813.138 293.036 813.33 292.918 813.513 292.918C813.696 292.918 813.742 293.036 813.632 293.219ZM811.354 294.574C811.354 294.656 811.235 294.784 811.052 294.894C810.878 294.995 810.75 294.94 810.75 294.757C810.75 294.574 810.878 294.436 811.052 294.436C811.235 294.436 811.354 294.491 811.354 294.574ZM799.203 296.395C799.203 296.477 799.084 296.605 798.901 296.715C798.727 296.815 798.599 296.761 798.599 296.578C798.599 296.395 798.727 296.257 798.901 296.257C799.084 296.257 799.203 296.312 799.203 296.395ZM799.843 300.027C799.999 300.393 800.264 300.869 800.465 301.153C800.868 301.711 800.008 304.19 798.562 306.588C798.114 307.329 797.519 308.619 797.254 309.415C796.988 310.202 796.577 311.181 796.357 311.538C796.128 311.904 795.643 313.084 795.259 314.182C794.07 317.614 792.102 321.786 791.819 321.502C791.654 321.338 791.672 320.999 791.846 320.67C792.011 320.359 792.377 319.224 792.651 318.135C792.926 317.046 793.338 315.482 793.575 314.64C793.813 313.789 794.088 312.59 794.198 311.904C794.307 311.236 795.003 308.775 795.735 306.469C796.467 304.163 797.071 302.077 797.071 301.866C797.071 301.656 797.29 300.805 797.574 299.954C798.068 298.435 798.086 298.426 798.818 298.902C799.212 299.158 799.688 299.689 799.834 300.027H799.843Z" fill="#F4CB78"/>
<path d="M735.744 300.752C736.613 300.294 737.958 299.37 738.764 298.675C739.578 297.97 740.411 297.421 740.667 297.421C741.271 297.421 743.384 295.326 744.464 293.651C744.967 292.874 745.489 292.105 745.654 291.922C745.827 291.73 745.946 291.41 745.946 291.153C745.946 290.897 746.038 290.723 746.166 290.723C746.294 290.723 746.752 290.01 747.2 289.113C747.648 288.216 748.17 287.31 748.38 287.063C748.884 286.45 750.219 282.314 750.174 281.5C749.991 278.325 747.676 277.566 743.906 279.423C741.692 280.512 739.907 281.784 737.537 283.952L736 285.352L737.492 280.979C738.315 278.572 739.002 276.23 739.011 275.772C739.029 275.296 739.13 274.811 739.258 274.656C740.035 273.649 740.328 269.541 739.77 267.473C739.166 265.24 736.751 263.09 734.82 263.072C734.024 263.063 734.033 263.282 734.902 264.454C735.296 264.984 735.607 265.698 735.607 266.073C735.607 267.07 734.82 269.98 733.301 274.647C730.254 283.98 729.614 287.658 729.998 293.697C730.327 298.977 730.858 300.13 733.438 301.246C734.097 301.53 734.39 301.466 735.753 300.752H735.744ZM733.484 296.579C733.466 294.31 733.877 293.203 735.936 290.074C736.522 289.177 737.007 288.399 737.007 288.344C737.007 287.859 740.109 284.602 741.591 283.531C742.369 282.964 743.082 282.415 743.156 282.305C743.384 281.994 746.029 280.658 746.422 280.658C746.88 280.658 746.889 280.603 746.12 282.644C743.586 289.351 739.331 295.527 735.47 298.098C733.786 299.224 733.511 299.013 733.484 296.579Z" fill="#F4CB78"/>
<path d="M629.345 216.672C627.68 217.019 624.697 218.822 621.723 221.293C619.472 223.159 618.63 224.083 619.051 224.23C619.216 224.294 619.554 224.083 619.783 223.781C620.012 223.479 620.213 223.37 620.222 223.553C620.241 224.129 618.822 225.282 618.584 224.888C618.429 224.641 618.026 224.852 617.331 225.529C616.242 226.59 616.004 227.203 616.819 226.892C617.175 226.764 617.093 226.984 616.544 227.716C613.323 231.971 609.471 237.717 607.65 240.983C607.229 241.743 606.763 242.548 606.598 242.804C606.442 243.051 605.838 244.296 605.262 245.54C604.686 246.785 603.981 248.331 603.697 248.953C603.405 249.594 602.727 250.582 602.151 251.213C601.593 251.817 601.099 252.558 601.071 252.824C600.952 254.095 600.486 255.962 600.202 256.319C600.065 256.493 599.964 256.969 599.973 257.426C599.973 257.874 599.726 258.606 599.378 259.101C599.04 259.576 598.601 260.409 598.39 260.949C598.18 261.489 597.887 261.864 597.741 261.772C597.594 261.681 597.548 261.818 597.649 262.065C597.75 262.312 597.594 263.145 597.311 263.868C597.036 264.6 596.89 265.377 596.99 265.551C597.1 265.734 597.054 265.89 596.899 265.89C596.743 265.89 596.46 266.265 596.277 266.723C596.002 267.4 595.444 267.738 593.257 268.543C591.766 269.092 590.411 269.532 590.219 269.532C590.036 269.532 589.872 269.687 589.872 269.87C589.872 270.062 590.219 270.136 590.704 270.035C591.189 269.934 592.315 269.788 593.285 269.687C594.254 269.587 595.105 269.385 595.197 269.23C595.471 268.781 595.938 268.891 595.938 269.413C595.938 269.66 595.819 269.797 595.682 269.715C595.545 269.632 595.243 270.319 595.032 271.234C594.813 272.149 594.52 272.972 594.383 273.054C594.245 273.137 594.126 273.832 594.126 274.555C594.126 275.278 593.989 275.909 593.824 275.909C593.651 275.909 593.596 276.211 593.705 276.641C593.806 277.035 593.742 277.465 593.568 277.565C593.394 277.675 593.312 278.233 593.385 278.81C593.468 279.414 593.385 279.862 593.221 279.862C592.754 279.862 592.305 281.225 592.132 283.174C592.049 284.089 591.903 284.968 591.811 285.114C591.72 285.261 591.656 286.029 591.656 286.789C591.656 287.548 591.546 288.335 591.4 288.518C591.061 288.939 590.851 291.098 591.153 291.098C591.29 291.098 591.4 291.373 591.4 291.702C591.4 292.032 591.281 292.306 591.125 292.306C590.302 292.306 590.649 297.412 591.674 300.358C592.324 302.243 593.715 303.853 594.675 303.853C594.977 303.853 595.352 303.972 595.508 304.11C595.664 304.247 596.432 304.448 597.192 304.549C598.372 304.704 598.793 304.604 599.928 303.89C601.95 302.609 605.152 298.537 605.994 296.167C606.214 295.564 606.506 295.042 606.634 295.042C606.763 295.042 606.882 294.841 606.882 294.63C606.882 294.401 607.202 293.615 607.614 292.855C608.016 292.096 608.446 291.025 608.574 290.458C608.702 289.89 609.306 288.115 609.938 286.514C611.566 282.323 612.747 277.639 612.591 275.946C612.436 274.244 611.027 271.197 610.13 270.62C608.382 269.504 606.726 269.77 604.054 271.59C601.803 273.128 600.028 274.857 598.61 276.879C597.933 277.849 597.32 278.636 597.256 278.636C596.999 278.636 597.988 273.988 598.61 272.258C598.701 272.011 598.747 271.618 598.711 271.407C598.674 271.179 598.802 270.831 599.003 270.584C599.205 270.337 599.269 270.026 599.159 269.843C599.049 269.66 599.095 269.522 599.278 269.522C599.461 269.522 599.598 269.266 599.598 268.928C599.598 268.589 599.726 268.26 599.9 268.15C600.083 268.04 600.156 267.885 600.083 267.756C600.019 267.638 600.568 267.272 601.3 266.951C602.032 266.631 602.636 266.238 602.636 266.1C602.636 265.963 602.91 265.926 603.212 266.027C603.578 266.146 603.853 266.027 603.954 265.734C604.045 265.469 604.374 265.268 604.713 265.268C605.052 265.268 605.701 264.938 606.214 264.508C606.726 264.078 607.257 263.749 607.431 263.749C607.595 263.749 607.815 263.538 607.897 263.291C607.98 263.044 608.19 262.87 608.336 262.916C608.483 262.962 609.215 262.514 609.947 261.928C610.679 261.351 612.317 260.125 613.561 259.238C614.805 258.35 615.903 257.527 615.995 257.417C616.077 257.307 616.507 256.987 616.937 256.712C617.679 256.237 620.488 253.72 622.437 251.808C622.894 251.36 623.288 250.765 623.288 250.527C623.288 250.289 623.48 250.088 623.708 250.088C624.102 250.088 626.902 246.812 628.027 245.019C628.329 244.543 628.869 243.792 629.263 243.298C629.656 242.813 629.958 242.237 629.958 241.981C629.958 241.725 630.278 241.148 630.69 240.663C631.083 240.197 631.513 239.236 631.632 238.568C631.751 237.9 631.971 237.342 632.117 237.342C632.264 237.342 632.392 237.086 632.392 236.747C632.392 236.408 632.511 235.85 632.666 235.457C632.813 235.072 633.17 233.938 633.453 232.941C633.737 231.943 634.176 230.507 634.423 229.747C634.725 228.841 634.881 226.966 634.89 224.175L634.908 219.966L632.978 218.172C631.916 217.184 630.91 216.397 630.727 216.406C630.553 216.425 629.921 216.534 629.345 216.653V216.672ZM630.562 223.498C630.562 225.749 629.5 231.724 628.549 234.825C627.762 237.378 626.948 239.08 624.742 242.749C624.102 243.811 623.571 244.799 623.571 244.918C623.571 245.037 623.242 245.476 622.858 245.879C622.473 246.272 621.137 247.773 619.939 249.173C618.74 250.573 617.368 252.018 616.928 252.357C616.48 252.705 615.702 253.382 615.153 253.894C613.451 255.486 611.932 256.767 610.359 257.92C609.508 258.542 608.629 259.265 608.355 259.576C608.089 259.878 607.714 260.125 607.522 260.125C607.339 260.125 607.174 260.272 607.174 260.427C607.174 260.583 607.019 260.729 606.836 260.729C606.552 260.729 604.859 261.891 603.066 263.319C601.611 264.481 600.659 264.764 601.547 263.767C601.959 263.31 602.005 263.053 601.739 262.751C601.474 262.44 601.51 262.239 601.876 261.919C602.361 261.498 602.846 260.482 603.066 259.421C603.13 259.091 603.359 258.57 603.597 258.204C603.99 257.6 605.143 254.709 605.555 253.281C605.646 252.952 606.04 252.192 606.397 251.607C607.101 250.481 607.614 248.962 607.495 248.331C607.458 248.139 607.632 247.965 607.842 247.965C608.071 247.965 608.766 246.995 609.407 245.778C611.667 241.496 611.868 241.139 612.234 240.901C612.445 240.764 612.628 240.489 612.628 240.306C612.628 239.977 614.549 237.177 617.422 233.325C621.018 228.494 626.28 223.379 628.75 222.317C630.406 221.604 630.544 221.695 630.544 223.489L630.562 223.498ZM608.519 273.247C608.4 273.613 608.318 274.738 608.336 275.735C608.382 278.343 606.378 285.087 604.329 289.223C603.441 291.016 602.535 292.947 602.307 293.532C602.078 294.118 601.291 295.692 600.559 297.028C598.143 301.401 596.752 302.627 595.938 301.099C595.343 299.974 594.849 296.451 594.886 293.505L594.913 290.586L596.798 286.816C597.832 284.748 598.683 282.964 598.683 282.872C598.683 282.516 600.925 278.837 602.371 276.833C603.414 275.378 604.292 274.564 605.701 273.722C607.952 272.386 608.858 272.24 608.529 273.247H608.519ZM597.219 273.548C597.009 273.759 596.853 273.786 596.853 273.613C596.853 273.219 597.228 272.844 597.43 273.045C597.521 273.128 597.43 273.338 597.219 273.558V273.548ZM595.636 275.616C595.636 275.799 595.517 275.918 595.334 275.918C595.151 275.918 595.032 275.799 595.032 275.616C595.032 275.433 595.151 275.314 595.334 275.314C595.517 275.314 595.636 275.433 595.636 275.616Z" fill="#F4CB78"/>
<path d="M614.724 228.759C614.358 229.235 614.377 229.244 614.862 228.869C615.374 228.466 615.52 228.228 615.255 228.228C615.182 228.228 614.962 228.457 614.724 228.759Z" fill="#F4CB78"/>
<path d="M613.368 230.433L612.792 231.12L613.46 230.552C614.1 230.012 614.283 229.756 614.036 229.756C613.991 229.756 613.68 230.076 613.368 230.442V230.433Z" fill="#F4CB78"/>
<path d="M608.849 236.911C608.574 237.332 608.483 237.607 608.666 237.497C609.032 237.277 609.718 236.124 609.489 236.124C609.425 236.124 609.132 236.49 608.849 236.911Z" fill="#F4CB78"/>
<path d="M506.002 262.7C505.334 263.103 504.968 263.624 504.776 264.448C504.574 265.299 504.254 265.738 503.604 266.077C503.119 266.324 502.644 266.616 502.561 266.717C499.771 270.212 495.644 277.789 496.001 278.74C496.101 278.996 495.918 279.564 495.589 280.012C494.729 281.229 494.216 283.407 494.711 283.718C495.077 283.947 494.866 284.102 494.29 284.038C494.024 284.002 493.448 286.518 493.256 288.549C493.173 289.455 493.027 291.01 492.935 291.953C492.798 293.353 492.899 293.957 493.448 295.082C494.07 296.354 496.413 298.578 497.145 298.578C498.05 298.578 502.836 293.051 505.416 289.007C505.956 288.156 508.271 285.237 508.655 284.917C508.847 284.752 510.101 283.141 513.029 279.28C513.926 278.1 515.134 276.617 515.747 275.94L516.854 274.723L516.607 278.063C516.469 279.902 516.36 284.468 516.36 288.238C516.36 295.924 516.579 297.086 518.482 299.566C519.443 300.819 520.861 301.661 523.167 302.357C523.789 302.549 523.854 302.475 523.762 301.716C523.689 301.103 523.295 300.618 522.353 299.987C520.962 299.044 520.358 298.102 520.056 296.409C519.425 292.914 520.495 280.332 521.475 279.701C521.621 279.6 522.124 278.1 522.582 276.37C523.039 274.641 523.899 272.18 524.476 270.935C525.052 269.691 525.72 268.172 525.949 267.595C526.168 267.019 526.544 266.25 526.763 265.921C527.834 264.338 526.782 263.185 523.982 262.874C521.676 262.618 520.459 263.13 520.459 264.338C520.459 264.722 520.001 265.473 519.452 266.003C518.363 267.056 518.025 267.193 518.016 266.589C518.007 265.793 516.845 264.905 514.081 263.579C511.565 262.362 510.924 262.188 509.067 262.16C507.457 262.133 506.706 262.27 505.983 262.709L506.002 262.7ZM515.463 266.973C515.902 267.138 516.826 267.303 517.467 267.33L518.647 267.376L516.881 269.224C515.28 270.899 512.983 273.625 510.586 276.691C509.04 278.667 506.048 282.29 505.709 282.611C505.526 282.775 504.922 283.507 504.391 284.212C503.861 284.907 503.211 285.502 502.982 285.502C502.735 285.502 502.561 285.63 502.561 285.804C502.561 286.316 499.551 289.345 499.542 288.842C499.542 288.394 500.283 286.143 501.262 283.681C501.491 283.105 501.774 282.336 501.875 282.007C502.278 280.735 505.874 273.991 507.329 271.768C510.128 267.513 512.791 265.948 515.472 266.964L515.463 266.973Z" fill="#F4CB78"/>
<path d="M622.232 262.441C621.445 262.761 621.299 263.703 621.958 264.252C622.36 264.582 622.342 264.811 621.82 266.119C621.491 266.943 620.832 268.397 620.338 269.367C618.966 272.103 616.166 280.045 615.745 282.424C615.534 283.586 615.434 285.581 615.525 286.826C615.69 289.287 616.468 290.751 618.041 291.593C618.728 291.959 618.966 291.94 619.908 291.437C620.512 291.108 621.052 290.687 621.134 290.467C621.216 290.257 621.454 290.074 621.646 290.074C622.067 290.074 624.529 287.494 626.661 284.822C627.411 283.879 628.463 282.607 629.021 281.967C629.58 281.326 630.028 280.713 630.028 280.585C630.028 280.457 630.961 279.268 632.078 277.959C633.194 276.651 634.877 274.647 635.765 273.558C636.662 272.469 637.458 271.609 637.522 271.673C637.586 271.737 637.238 273.009 636.735 274.5C635.481 278.234 635.225 279.268 634.685 283.001C634.155 286.643 633.999 288.271 633.999 290.531C633.999 291.382 633.999 292.371 633.981 292.782C633.981 293.185 634.155 294.146 634.393 294.942C635.481 298.583 637.458 300.532 640.468 300.908C642.17 301.118 644.595 300.121 645.126 298.986C645.665 297.833 645.309 297.604 644.357 298.501C643.671 299.142 643.323 299.242 642.234 299.114C640.596 298.922 639.535 298.172 638.702 296.598C638.19 295.628 638.071 294.832 638.043 292.252C638.016 289.058 638.812 283.403 639.388 282.717C639.782 282.241 640.953 279.13 640.953 278.554C640.953 278.289 641.429 277.282 642.015 276.303C642.6 275.324 643.076 274.409 643.076 274.235C643.076 274.061 643.524 273.311 644.092 272.515C644.659 271.728 645.208 270.786 645.336 270.374C645.464 269.971 645.958 268.974 646.443 268.159C646.928 267.336 647.322 266.549 647.322 266.394C647.322 266.238 647.752 265.68 648.246 265.167C648.978 264.408 649.097 264.124 648.813 263.786C648.237 263.1 646.644 262.432 645.126 262.239C643.122 261.992 642.262 262.285 641.896 263.328C641.722 263.832 640.029 265.79 638.144 267.675C634.932 270.886 633.706 272.204 630.797 275.544C628.683 277.978 625.91 281.089 625.297 281.738C624.968 282.086 623.998 283.193 623.175 284.172C621.582 286.057 621.079 286.56 620.219 287.064C619.441 287.53 619.396 287.027 620.064 285.535C620.402 284.794 621.015 283.413 621.418 282.498C621.82 281.583 622.351 280.43 622.589 279.963C622.827 279.478 623.01 278.975 623.01 278.828C623.01 278.682 623.55 277.429 624.227 276.038C626.011 272.332 627.265 268.26 627.265 266.201C627.265 264.801 627.1 264.207 626.487 263.301C625.782 262.258 625.59 262.166 624.282 262.175C623.495 262.175 622.552 262.313 622.186 262.459L622.232 262.441Z" fill="#F4CB78"/>
<path d="M662.278 258.753C661.875 259.01 661.884 259.092 662.342 259.449C663.366 260.254 664.08 262.139 663.915 263.603C663.266 269.13 662.827 271.701 662.342 272.68C660.841 275.718 658.819 279.332 657.574 281.18C656.824 282.306 656.211 283.385 656.211 283.596C656.211 283.806 656.101 283.971 655.964 283.971C655.827 283.971 654.729 285.463 653.53 287.247C649.824 292.801 642.861 300.441 640.226 301.832C639.485 302.225 639.357 302.18 638.112 300.963L636.795 299.673L636.602 300.707C636.374 301.951 636.721 302.939 637.81 304.074C638.442 304.742 638.908 304.925 639.942 304.925C640.821 304.925 641.315 304.769 641.434 304.467C641.525 304.22 641.745 304.01 641.9 304.01C642.989 304.01 647.61 298.693 649.458 295.326C649.678 294.933 649.989 294.594 650.145 294.594C650.3 294.594 650.437 294.43 650.437 294.219C650.437 294.009 650.886 293.35 651.444 292.746C652.633 291.456 654.72 288.464 655.818 286.46C656.248 285.673 656.833 284.758 657.117 284.429C657.401 284.099 658.233 282.818 658.965 281.601C660.685 278.746 660.795 278.573 661.6 277.292L662.278 276.23L662.296 281.089C662.332 293.688 662.589 296.022 664.355 300.066C665.151 301.887 665.983 302.848 667.255 303.433C669.534 304.467 670.165 303.973 669.012 302.042C667.896 300.176 667.649 298.703 667.667 293.935C667.676 289.141 667.932 285.097 668.317 283.523C668.436 283.029 668.564 281.848 668.6 280.942C668.673 279.103 669.104 276.267 669.726 273.503C671.025 267.794 671.245 265.671 670.76 263.85C669.982 260.931 664.263 257.509 662.268 258.763L662.278 258.753Z" fill="#F4CB78"/>
<path d="M557.161 260.447C556.374 260.667 556.2 260.914 555.88 262.25C555.074 265.653 551.89 270.539 548.505 273.586C545.622 276.185 539.528 280.467 538.723 280.467C538.366 280.467 538.421 279.333 538.787 279.104C538.952 279.003 539.089 278.582 539.089 278.189C539.089 277.484 539.51 275.755 540.901 270.686C541.505 268.499 541.432 267.721 540.526 266.404C539.766 265.296 538.476 264.665 536.838 264.601C535.777 264.555 535.292 264.711 534.679 265.278C533.919 265.983 533.91 266.019 534.523 266.248C535.237 266.513 535.292 267.163 534.825 269.56C534.478 271.345 533.81 275.755 533.132 280.769C532.766 283.469 532.593 284.027 532.007 284.42C530.333 285.527 528.768 287.257 528.594 288.181C528.503 288.693 528.631 290.157 528.878 291.402C529.125 292.646 529.418 294.302 529.527 295.043C529.811 297.075 530.516 299.06 531.266 299.902C532.236 300.991 534.844 302.446 535.2 302.089C535.347 301.942 535.511 299.994 535.566 297.743C535.694 292.189 536.838 285.07 537.717 284.329C537.891 284.191 538.687 283.661 539.538 283.121C543.179 280.833 545.339 279.415 545.604 279.122C545.769 278.939 546.675 278.28 547.58 277.667C548.495 277.054 549.923 275.911 550.728 275.151C551.552 274.373 552.256 273.806 552.32 273.879C552.384 273.943 552.165 275.947 551.835 278.317C550.957 284.576 550.938 292.82 551.799 296.05C552.576 298.996 554.37 302.464 555.541 303.297C556.721 304.138 558.57 304.367 559.1 303.736C559.604 303.141 559.43 302.199 558.826 302.18C558.03 302.162 557.472 301.613 556.612 300.003C555.266 297.477 554.818 294.659 555.038 290.075C555.367 283.148 555.596 281.318 556.547 278.052C556.767 277.301 557.17 275.654 557.444 274.41C557.719 273.166 558.204 271.583 558.506 270.915C558.817 270.247 559.512 268.609 560.052 267.273C560.592 265.937 561.15 264.72 561.278 264.574C561.937 263.823 561.159 261.344 560.098 260.795C559.174 260.319 558.094 260.2 557.151 260.465L557.161 260.447ZM532.199 288.913C532.099 290.13 531.925 291.1 531.806 291.1C531.293 291.1 530.589 288.702 530.872 287.943C531.11 287.302 532.089 286.442 532.318 286.671C532.355 286.708 532.3 287.705 532.199 288.922V288.913Z" fill="#F4CB78"/>
<path d="M685.229 264.252C683.619 264.682 681.551 266.292 679.511 268.689C673.984 275.195 671.468 288.188 674.322 295.417C674.771 296.542 676.665 298.574 677.818 299.168C678.358 299.443 679.73 299.736 680.92 299.818C682.988 299.964 683.097 299.937 684.9 298.766C686.574 297.677 688.972 295.097 688.972 294.383C688.972 294.227 689.1 293.962 689.283 293.742C689.832 293.102 691.698 290.055 691.698 289.799C691.698 289.671 691.936 289.195 692.22 288.765C692.879 287.758 694.123 284.711 694.123 284.089C694.123 283.815 694.224 283.503 694.352 283.375C694.489 283.238 694.59 283.064 694.608 282.954C694.626 282.845 694.736 282.488 694.864 282.149C695.56 280.301 695.715 279.816 695.981 278.745C696.145 278.114 696.42 277.043 696.594 276.376C696.768 275.708 696.978 274.82 697.051 274.399C697.124 273.978 697.234 273.594 697.298 273.53C697.362 273.466 697.216 272.953 696.969 272.349C696.658 271.59 696.621 271.178 696.85 270.95C697.079 270.721 697.17 270.767 697.17 271.133C697.17 271.407 697.298 271.709 697.445 271.8C697.747 271.983 697.692 270.565 697.381 270.263C697.28 270.163 697.344 269.714 697.509 269.293C697.911 268.287 697.884 266.073 697.463 265.935C697.307 265.88 697.161 265.56 697.161 265.258C697.161 264.563 696.173 263.968 695.734 264.407C695.569 264.572 695.496 265.322 695.578 266.082C695.752 267.628 695.066 272.88 694.7 272.88C694.562 272.88 694.297 273.658 694.096 274.628C693.894 275.598 693.547 276.586 693.318 276.842C693.098 277.098 692.815 277.995 692.714 278.819C692.604 279.67 692.275 280.557 691.955 280.868C691.653 281.161 691.396 281.655 691.396 281.93C691.396 282.204 690.966 283.201 690.454 284.116C689.932 285.041 689.027 286.669 688.432 287.758C685.916 292.342 682.301 296.625 680.581 297.055C679.428 297.338 678.952 296.689 678.294 293.953C677.415 290.302 677.745 287.996 680.032 281.683C680.307 280.932 681.084 279.285 681.752 278.041C682.814 276.074 683.518 275.094 685.714 272.578C686.327 271.874 688.844 269.842 690.912 268.397C691.918 267.692 692.851 266.914 692.989 266.658C693.391 265.935 692.156 264.444 691.003 264.261C688.697 263.895 686.584 263.895 685.229 264.261V264.252Z" fill="#F4CB78"/>
<path d="M575.617 264.252C574.007 264.682 571.939 266.292 569.898 268.689C564.372 275.195 561.855 288.188 564.71 295.417C565.159 296.542 567.053 298.574 568.205 299.168C568.745 299.443 570.118 299.736 571.307 299.818C573.375 299.964 573.485 299.937 575.288 298.766C576.962 297.677 579.359 295.097 579.359 294.383C579.359 294.227 579.488 293.962 579.671 293.742C580.22 293.102 582.086 290.055 582.086 289.799C582.086 289.671 582.324 289.195 582.608 288.765C583.267 287.758 584.511 284.711 584.511 284.089C584.511 283.815 584.612 283.503 584.74 283.375C584.877 283.238 584.978 283.064 584.996 282.954C585.014 282.845 585.124 282.488 585.252 282.149C585.947 280.301 586.103 279.816 586.368 278.745C586.533 278.114 586.808 277.043 586.981 276.376C587.155 275.708 587.366 274.82 587.439 274.399C587.512 273.978 587.622 273.594 587.686 273.53C587.75 273.466 587.604 272.953 587.357 272.349C587.045 271.59 587.009 271.178 587.238 270.95C587.466 270.721 587.558 270.767 587.558 271.133C587.558 271.407 587.686 271.709 587.832 271.8C588.134 271.983 588.079 270.565 587.768 270.263C587.668 270.163 587.732 269.714 587.896 269.293C588.299 268.287 588.272 266.073 587.851 265.935C587.695 265.88 587.549 265.56 587.549 265.258C587.549 264.563 586.561 263.968 586.121 264.407C585.957 264.572 585.883 265.322 585.966 266.082C586.14 267.628 585.453 272.88 585.087 272.88C584.95 272.88 584.685 273.658 584.483 274.628C584.282 275.598 583.934 276.586 583.706 276.842C583.486 277.098 583.202 277.995 583.102 278.819C582.992 279.67 582.663 280.557 582.342 280.868C582.04 281.161 581.784 281.655 581.784 281.93C581.784 282.204 581.354 283.201 580.842 284.116C580.32 285.041 579.414 286.669 578.82 287.758C576.303 292.342 572.689 296.625 570.969 297.055C569.816 297.338 569.34 296.689 568.681 293.953C567.803 290.302 568.132 287.996 570.42 281.683C570.694 280.932 571.472 279.285 572.14 278.041C573.201 276.074 573.906 275.094 576.102 272.578C576.715 271.874 579.231 269.842 581.299 268.397C582.306 267.692 583.239 266.914 583.376 266.658C583.779 265.935 582.544 264.444 581.391 264.261C579.085 263.895 576.971 263.895 575.617 264.261V264.252Z" fill="#F4CB78"/>
<path d="M399.748 264.252C398.137 264.682 396.07 266.292 394.029 268.689C388.502 275.195 385.986 288.188 388.841 295.417C389.289 296.542 391.183 298.574 392.336 299.168C392.876 299.443 394.249 299.736 395.438 299.818C397.506 299.964 397.616 299.937 399.419 298.766C401.093 297.677 403.49 295.097 403.49 294.383C403.49 294.227 403.618 293.962 403.801 293.742C404.35 293.102 406.217 290.055 406.217 289.799C406.217 289.671 406.455 289.195 406.739 288.765C407.397 287.758 408.642 284.711 408.642 284.089C408.642 283.815 408.742 283.503 408.87 283.375C409.008 283.238 409.108 283.064 409.127 282.954C409.145 282.845 409.255 282.488 409.383 282.149C410.078 280.301 410.234 279.816 410.499 278.745C410.664 278.114 410.938 277.043 411.112 276.376C411.286 275.708 411.497 274.82 411.57 274.399C411.643 273.978 411.753 273.594 411.817 273.53C411.881 273.466 411.735 272.953 411.487 272.349C411.176 271.59 411.14 271.178 411.368 270.95C411.597 270.721 411.689 270.767 411.689 271.133C411.689 271.407 411.817 271.709 411.963 271.8C412.265 271.983 412.21 270.565 411.899 270.263C411.799 270.163 411.863 269.714 412.027 269.293C412.43 268.287 412.402 266.073 411.982 265.935C411.826 265.88 411.68 265.56 411.68 265.258C411.68 264.563 410.691 263.968 410.252 264.407C410.087 264.572 410.014 265.322 410.097 266.082C410.27 267.628 409.584 272.88 409.218 272.88C409.081 272.88 408.816 273.658 408.614 274.628C408.413 275.598 408.065 276.586 407.837 276.842C407.617 277.098 407.333 277.995 407.233 278.819C407.123 279.67 406.793 280.557 406.473 280.868C406.171 281.161 405.915 281.655 405.915 281.93C405.915 282.204 405.485 283.201 404.973 284.116C404.451 285.041 403.545 286.669 402.95 287.758C400.434 292.342 396.82 296.625 395.1 297.055C393.947 297.338 393.471 296.689 392.812 293.953C391.934 290.302 392.263 287.996 394.551 281.683C394.825 280.932 395.603 279.285 396.271 278.041C397.332 276.074 398.037 275.094 400.233 272.578C400.846 271.874 403.362 269.842 405.43 268.397C406.437 267.692 407.37 266.914 407.507 266.658C407.91 265.935 406.675 264.444 405.522 264.261C403.216 263.895 401.102 263.895 399.748 264.261V264.252Z" fill="#F4CB78"/>
<path d="M725.929 261.647C726.02 261.894 725.929 262.315 725.737 262.562C725.416 262.965 725.133 262.965 723.394 262.599C720.658 262.013 718.051 262.032 717.813 262.626C717.703 262.901 717.511 263.047 717.374 262.965C716.934 262.69 711.353 267.247 709.495 269.406C707.848 271.319 705.78 274.11 705.78 274.421C705.78 274.485 705.094 275.693 704.262 277.093C703.429 278.492 702.743 279.737 702.743 279.856C702.743 279.975 702.285 281.073 701.727 282.29C699.824 286.453 699.092 293.416 700.171 297.076C701.297 300.892 704.774 302.475 709.935 301.532C712.368 301.084 717.154 297.753 718.197 295.768C718.426 295.347 718.792 294.981 718.993 294.981C719.194 294.981 719.441 294.706 719.524 294.377C719.606 294.038 719.542 293.773 719.387 293.773C719.213 293.773 719.167 293.654 719.277 293.471C719.387 293.288 719.579 293.233 719.743 293.334C719.899 293.425 720.036 293.288 720.036 293.041C720.036 292.574 720.521 291.861 721.647 290.671C721.921 290.378 722.168 289.802 722.168 289.445C722.168 288.896 722.113 288.85 721.875 289.198C721.72 289.445 721.482 289.537 721.363 289.409C721.235 289.28 721.336 289.052 721.573 288.896C721.866 288.704 722.132 288.777 722.379 289.107C722.69 289.537 722.735 289.482 722.681 288.731C722.644 288.155 722.754 287.88 723.019 287.926C723.294 287.981 723.33 287.853 723.129 287.487C722.973 287.213 722.955 286.746 723.083 286.481C723.65 285.355 723.962 284.44 724.108 283.443L724.264 282.381L723.751 283.443C723.467 284.019 723.083 284.641 722.9 284.806C722.717 284.971 722.04 285.867 721.409 286.782C717.511 292.401 709.514 298.934 706.531 298.934C703.548 298.934 702.743 291.769 704.994 286.481C705.46 285.392 706.037 283.964 706.293 283.287C707.135 281.064 709.148 277.184 710.74 274.723C712.606 271.831 717.493 267.631 720.805 266.076C723.449 264.831 723.998 264.978 722.818 266.607C722.305 267.32 721.482 268.656 720.97 269.626C720.457 270.596 719.926 271.52 719.771 271.703C719.624 271.886 719.405 272.527 719.286 273.103C719.167 273.689 718.801 274.741 718.472 275.446C717.73 277.028 717.813 279.279 718.618 279.426C718.966 279.49 719.231 279.261 719.441 278.74C719.606 278.319 720.055 277.623 720.421 277.202C721.583 275.894 725.636 271.767 726.277 271.246C727.704 270.065 731.895 264.621 731.721 264.173C731.648 263.99 730.769 263.303 729.735 262.617C727.823 261.364 725.581 260.796 725.92 261.647H725.929Z" fill="#F4CB78"/>
<path d="M438.617 261.647C438.709 261.894 438.617 262.315 438.425 262.562C438.105 262.965 437.821 262.965 436.083 262.599C433.347 262.013 430.739 262.032 430.501 262.626C430.391 262.901 430.199 263.047 430.062 262.965C429.623 262.69 424.041 267.247 422.184 269.406C420.537 271.319 418.469 274.11 418.469 274.421C418.469 274.485 417.783 275.693 416.95 277.093C416.117 278.492 415.431 279.737 415.431 279.856C415.431 279.975 414.974 281.073 414.415 282.29C412.512 286.453 411.78 293.416 412.86 297.076C413.985 300.892 417.462 302.475 422.623 301.532C425.057 301.084 429.842 297.753 430.886 295.768C431.114 295.347 431.48 294.981 431.682 294.981C431.883 294.981 432.13 294.706 432.212 294.377C432.295 294.038 432.231 293.773 432.075 293.773C431.901 293.773 431.855 293.654 431.965 293.471C432.075 293.288 432.267 293.233 432.432 293.334C432.587 293.425 432.725 293.288 432.725 293.041C432.725 292.574 433.21 291.861 434.335 290.671C434.61 290.378 434.857 289.802 434.857 289.445C434.857 288.896 434.802 288.85 434.564 289.198C434.408 289.445 434.17 289.537 434.051 289.409C433.923 289.28 434.024 289.052 434.262 288.896C434.555 288.704 434.82 288.777 435.067 289.107C435.378 289.537 435.424 289.482 435.369 288.731C435.332 288.155 435.442 287.88 435.708 287.926C435.982 287.981 436.019 287.853 435.817 287.487C435.662 287.213 435.644 286.746 435.772 286.481C436.339 285.355 436.65 284.44 436.796 283.443L436.952 282.381L436.44 283.443C436.156 284.019 435.772 284.641 435.589 284.806C435.406 284.971 434.729 285.867 434.097 286.782C430.199 292.401 422.202 298.934 419.219 298.934C416.236 298.934 415.431 291.769 417.682 286.481C418.149 285.392 418.725 283.964 418.981 283.287C419.823 281.064 421.836 277.184 423.428 274.723C425.295 271.831 430.181 267.631 433.493 266.076C436.138 264.831 436.687 264.978 435.506 266.607C434.994 267.32 434.17 268.656 433.658 269.626C433.146 270.596 432.615 271.52 432.459 271.703C432.313 271.886 432.093 272.527 431.974 273.103C431.855 273.689 431.489 274.741 431.16 275.446C430.419 277.028 430.501 279.279 431.306 279.426C431.654 279.49 431.92 279.261 432.13 278.74C432.295 278.319 432.743 277.623 433.109 277.202C434.271 275.894 438.325 271.767 438.965 271.246C440.392 270.065 444.583 264.621 444.409 264.173C444.336 263.99 443.458 263.303 442.424 262.617C440.511 261.364 438.27 260.796 438.608 261.647H438.617Z" fill="#F4CB78"/>
<path d="M465.447 255.515C464.797 256.211 464.761 256.43 464.962 258.645C465.081 259.953 465.383 261.417 465.63 261.893C466.024 262.634 466.225 262.735 467.039 262.579C467.561 262.478 469.089 262.259 470.425 262.085C474.524 261.563 474.78 261.527 477.498 261.042C482.631 260.127 483.82 259.971 487.426 259.77C489.429 259.66 491.278 259.578 491.525 259.578C499.723 259.77 501.672 259.944 502.523 260.575C503.53 261.316 504.216 261.28 504.975 260.447C505.384 260.002 505.323 259.294 504.792 258.324C503.951 256.778 502.468 255.771 501.032 255.771C500.428 255.771 499.833 255.607 499.714 255.396C499.586 255.186 499.357 255.104 499.183 255.213C499.019 255.323 495.478 255.25 491.287 255.049C484.644 254.728 482.649 254.756 475.302 255.232C467.497 255.744 466.874 255.744 466.527 255.277C466.188 254.829 466.078 254.856 465.447 255.524V255.515Z" fill="#F4CB78"/>
<path d="M449.671 261.893C449.36 262.277 449.415 262.487 449.928 263C450.714 263.787 450.714 264.976 449.909 268.014C449.296 270.329 448.528 272.36 444.502 282.169C442.424 287.238 440.979 291.566 440.32 294.714L439.872 296.837L440.713 298.017C441.793 299.536 443.788 300.35 444.373 299.508C445.325 298.127 446.084 297.02 447.082 295.528C447.667 294.65 448.582 293.479 449.095 292.948C449.891 292.115 451.218 290.459 453.103 287.934C453.423 287.504 454.182 286.579 454.768 285.911C455.353 285.244 456.415 283.999 457.11 283.176C457.797 282.352 458.831 281.144 459.37 280.504C459.919 279.863 462.024 277.805 464.028 275.947C467.459 272.772 467.697 272.607 467.779 273.367C467.825 273.806 467.258 276.057 466.507 278.363C464.147 285.655 462.701 291.218 462.683 293.094C462.683 294.366 462.802 294.641 463.9 295.629C464.842 296.48 465.327 296.709 465.977 296.599C467.139 296.407 469.271 295.007 470.607 293.552C471.247 292.856 472.071 291.969 472.473 291.548C472.867 291.136 473.59 290.303 474.047 289.727C477.076 285.902 478.375 284.502 481.376 281.794C483.719 279.689 485.979 278.024 486.207 278.244C486.409 278.445 485.695 281.702 484.597 285.628C482.511 293.039 482.227 299.316 483.774 303.882C484.542 306.161 485.384 307.551 486.573 308.54C487.635 309.418 487.726 309.445 488.248 308.97C488.98 308.302 488.952 307.798 488.028 305.364C486.207 300.552 486.372 296.827 488.742 289.727C490.673 283.926 491.414 281.245 491.844 278.518C492.283 275.727 492.091 273.65 491.341 273.111C490.453 272.47 487.909 272.626 486.601 273.403C483.069 275.517 476.92 280.586 472.812 284.777C471.119 286.506 469.609 287.906 469.445 287.906C469.097 287.906 469.948 284.96 471.329 281.373C472.199 279.122 473.15 276.121 473.397 274.84C473.48 274.419 473.846 272.955 474.221 271.564C475.017 268.59 474.843 268.224 472.391 267.593C470.451 267.099 469.353 267.355 468.246 268.554C467.249 269.643 466.745 270.064 464.796 271.409C463.47 272.333 454.768 280.998 450.751 285.408C449.616 286.653 448.701 287.458 448.701 287.211C448.701 286.964 449.196 285.674 449.79 284.374C450.385 283.075 451.144 281.391 451.465 280.687C451.776 279.991 452.041 279.287 452.041 279.15C452.041 278.811 453.908 275.343 454.201 275.142C454.32 275.059 454.621 274.382 454.887 273.623C455.152 272.863 455.582 271.802 455.857 271.235C456.14 270.667 456.424 269.396 456.516 268.362C456.699 266.147 455.994 264.308 454.329 262.689C453.478 261.865 453.011 261.655 451.675 261.545C450.458 261.444 449.955 261.527 449.671 261.883V261.893Z" fill="#F4CB78"/>
<path d="M119.827 265.305C114.877 266.247 108.6 272.899 104.336 281.729C101.362 287.896 100.274 295.875 101.93 299.343C102.854 301.283 104.455 302.655 106.276 303.076C107.154 303.277 108.271 303.442 108.737 303.442C109.982 303.442 113.084 302.344 114.721 301.319C115.508 300.825 116.524 300.258 116.936 300.093C117.366 299.91 118.116 299.453 118.665 299.032C119.214 298.611 119.754 298.291 119.891 298.291C120.028 298.291 120.678 297.797 121.346 297.165C122.014 296.543 122.664 296.076 122.819 296.113C122.975 296.159 123.368 295.939 123.734 295.601C124.082 295.28 124.86 294.768 125.436 294.475C126.013 294.182 126.571 293.862 126.653 293.761C126.735 293.661 127.138 293.405 127.568 293.185C127.98 292.965 128.931 292.242 129.663 291.593C130.395 290.934 131.21 290.394 131.457 290.394C131.704 290.394 132.216 290.101 132.61 289.726C134.641 287.768 135.163 287.182 135.163 286.844C135.163 286.505 135.767 286.304 136.471 286.414C136.599 286.432 136.791 286.24 136.883 285.993C136.974 285.746 137.167 285.609 137.304 285.691C137.45 285.773 137.642 285.572 137.743 285.234C137.844 284.895 138.054 284.703 138.21 284.794C138.365 284.886 138.502 284.685 138.502 284.355C138.502 283.687 139.161 283.111 139.335 283.623C139.445 283.943 142.455 280.951 142.455 280.521C142.455 280.384 142.931 279.734 143.535 279.03C144.853 277.511 145.017 277.264 145.136 276.724C145.182 276.495 144.386 277.117 143.389 278.087C142.382 279.066 141.312 280.009 141.019 280.164C140.726 280.32 139.664 281.125 138.667 281.939C137.661 282.754 136.581 283.651 136.27 283.916C135.95 284.181 135.254 284.657 134.705 284.977C134.156 285.298 133.644 285.755 133.552 285.993C133.452 286.249 133.186 286.432 132.912 286.432C132.637 286.432 132.445 286.56 132.445 286.734C132.445 286.908 132.262 287.036 132.024 287.036C131.795 287.036 131.521 287.247 131.429 287.494C131.338 287.741 131.146 287.914 131.018 287.878C130.67 287.777 129.307 288.582 128.895 289.131C128.684 289.406 128.52 289.497 128.511 289.342C128.511 289.186 128.264 289.269 127.962 289.543C127.669 289.809 126.827 290.339 126.068 290.751C122.755 292.535 120.294 293.889 118.015 295.18C114.612 297.101 110.641 299.078 109.085 299.627C107.109 300.322 106.367 300.24 106.139 299.315C105.965 298.62 106.139 294.429 106.441 292.206C106.56 291.327 108.033 287.393 108.417 286.917C108.563 286.734 109.112 285.828 109.607 284.913C110.54 283.211 111.18 282.662 111.18 283.55C111.18 284.437 112.123 285.947 113.578 287.439C115.124 289.022 116.195 289.26 117.988 288.418C119.342 287.777 124.091 282.891 124.869 281.336C125.098 280.887 125.939 279.661 126.745 278.636C128.282 276.66 130.002 273.567 130.011 272.744C130.011 272.469 130.112 272.167 130.231 272.048C130.679 271.609 131.484 268.827 131.329 268.251C131.228 267.858 130.588 267.428 129.499 267.016C124.338 265.085 122.609 264.783 119.845 265.305H119.827ZM126.662 270.044C126.662 271.893 120.678 281.5 117.704 284.437C116.762 285.362 115.865 286.149 115.728 286.149C115.591 286.149 115.325 285.947 115.106 285.682C114.813 285.325 114.776 284.236 114.923 281.107C115.142 276.578 115.435 275.699 117.027 274.757C117.531 274.455 118.427 273.778 119.031 273.238C121.126 271.362 126.653 269.056 126.653 270.054L126.662 270.044Z" fill="#F4CB78"/>
<path d="M73.7632 259.094C72.9396 259.679 72.9396 259.927 73.7906 260.293C75.035 260.832 74.852 263.541 73.0861 270.888C72.6103 272.865 71.988 274.75 71.7135 275.052C71.439 275.353 71.3018 275.738 71.4116 275.921C71.5214 276.095 71.256 276.662 70.8351 277.184C70.4142 277.696 70.0574 278.391 70.0574 278.721C70.0574 279.05 69.9293 279.233 69.7646 279.132C69.609 279.032 69.3894 279.297 69.2796 279.727C69.1698 280.148 68.9593 280.505 68.8129 280.505C68.6665 280.505 68.3097 281.008 68.0077 281.64C67.7058 282.28 67.3764 282.911 67.2483 283.085C67.1202 283.25 66.5163 284.147 65.9124 285.062C62.17 290.68 54.5663 298.833 53.7794 298.055C53.7153 297.991 53.3036 296.572 52.8827 294.925C51.7481 290.524 50.6684 289.664 49.5612 292.281C48.756 294.193 48.8201 296.197 49.7351 297.991C50.3298 299.153 50.8148 299.601 52.3337 300.406C54.0356 301.303 54.3101 301.367 55.4356 301.093C56.2225 300.9 56.927 300.443 57.3937 299.83C57.7963 299.299 58.8486 298.128 59.7636 297.186C60.6786 296.243 62.0053 294.77 62.7739 293.846C63.5242 292.931 64.2196 292.126 64.3111 292.043C64.4026 291.961 64.8144 291.403 65.2078 290.826C65.6104 290.231 66.379 289.234 66.9372 288.566C67.4953 287.898 67.9437 287.194 67.9437 286.974C67.9437 286.754 68.0444 286.581 68.1725 286.581C68.3006 286.581 68.8496 285.839 69.4169 284.897C69.9842 283.955 70.5057 283.287 70.5972 283.378C70.6887 283.47 70.8168 284.604 70.8717 285.885C71.1005 291.018 72.2534 293.892 74.3213 294.468C75.9958 294.935 76.3617 294.834 77.5604 293.599C79.2898 291.824 79.3813 291.686 81.4401 288.008C84.0021 283.424 84.3589 282.82 85.9144 280.359C86.6647 279.178 87.4791 277.833 87.7444 277.321C88.0098 276.827 88.5679 275.774 88.9705 275.015C89.794 273.469 91.9352 270.55 91.9352 270.98C91.9352 271.126 91.5142 273.716 91.011 276.717C90.4986 279.727 89.8764 283.826 89.6293 285.83C89.3823 287.834 89.0529 290.195 88.8973 291.082C88.4398 293.782 89.2176 302.081 90.1692 304.661C91.4868 308.211 92.7953 309.977 94.122 309.977C94.79 309.977 95.156 309.282 94.79 308.705C94.6619 308.504 94.5154 308.111 94.488 307.9C94.4514 307.681 94.3233 307.26 94.1952 306.985C94.0671 306.711 93.9482 306.345 93.9207 306.18C93.6645 304.332 93.39 301.697 93.3626 300.772C93.3443 300.168 93.2436 299.647 93.143 299.647C92.9508 299.647 93.0698 298.585 93.7377 294.331C93.8933 293.315 94.1129 291.567 94.2227 290.387C94.3325 289.207 94.6619 287.56 94.9638 286.681C95.2658 285.803 95.7416 283.982 96.0253 282.582C96.3089 281.182 96.6474 279.791 96.7847 279.453C97.169 278.501 99.0905 272.316 99.4291 270.952C99.5938 270.294 100.033 268.647 100.399 267.338C101.039 265.032 101.049 264.913 100.509 264.328C99.0173 262.69 95.5128 261.802 93.9573 262.672C93.024 263.193 92.8318 263.513 92.8318 264.547C92.8318 265.023 92.4842 265.883 92.0724 266.432C91.6607 266.981 91.313 267.503 91.313 267.585C91.313 267.667 90.947 268.134 90.5261 268.592C89.5928 269.598 87.6712 272.517 87.6712 272.938C87.6712 273.121 87.5706 273.24 87.4242 273.24C87.0216 273.24 84.6334 276.882 84.6334 277.495C84.6334 277.797 84.4504 278.19 84.24 278.327C83.8191 278.602 82.2086 280.898 82.2086 281.237C82.2086 281.356 81.7145 282.207 81.1289 283.122C80.5433 284.037 79.9669 285.025 79.8662 285.309C79.5368 286.224 76.6912 290.259 76.3801 290.259C76.1879 290.259 76.1604 289.499 76.2977 288.191C76.6271 285.089 76.6911 284.76 77.2127 282.966C77.6976 281.328 78.5852 278.135 80.2048 272.279C81.3119 268.271 81.4217 263.55 80.4427 261.894C80.0858 261.29 79.7747 260.576 79.7747 260.347C79.7747 259.716 77.2584 258.673 75.7395 258.673C75.0075 258.673 74.1383 258.883 73.7632 259.149V259.094Z" fill="#F4CB78"/>
<path d="M227.625 266.258C226.015 266.688 223.947 268.298 221.907 270.696C216.38 277.201 213.864 290.195 216.718 297.423C217.167 298.549 219.061 300.58 220.214 301.175C220.754 301.449 222.126 301.742 223.316 301.824C225.384 301.971 225.493 301.943 227.296 300.772C228.97 299.683 231.368 297.103 231.368 296.389C231.368 296.234 231.496 295.968 231.679 295.749C232.228 295.108 234.094 292.061 234.094 291.805C234.094 291.677 234.332 291.201 234.616 290.771C235.275 289.764 236.519 286.718 236.519 286.095C236.519 285.821 236.62 285.51 236.748 285.382C236.885 285.244 236.986 285.071 237.004 284.961C237.022 284.851 237.132 284.494 237.26 284.156C237.956 282.307 238.111 281.822 238.377 280.752C238.541 280.12 238.816 279.05 238.99 278.382C239.164 277.714 239.374 276.826 239.447 276.405C239.52 275.985 239.63 275.6 239.694 275.536C239.758 275.472 239.612 274.96 239.365 274.356C239.054 273.596 239.017 273.185 239.246 272.956C239.475 272.727 239.566 272.773 239.566 273.139C239.566 273.413 239.694 273.715 239.841 273.807C240.143 273.99 240.088 272.572 239.777 272.27C239.676 272.169 239.74 271.721 239.905 271.3C240.307 270.293 240.28 268.079 239.859 267.942C239.703 267.887 239.557 267.566 239.557 267.265C239.557 266.569 238.569 265.974 238.13 266.414C237.965 266.578 237.892 267.329 237.974 268.088C238.148 269.634 237.462 274.887 237.096 274.887C236.958 274.887 236.693 275.664 236.492 276.634C236.29 277.604 235.943 278.592 235.714 278.848C235.494 279.105 235.211 280.001 235.11 280.825C235 281.676 234.671 282.563 234.351 282.875C234.049 283.167 233.792 283.661 233.792 283.936C233.792 284.21 233.362 285.208 232.85 286.123C232.328 287.047 231.423 288.676 230.828 289.764C228.312 294.349 224.697 298.631 222.977 299.061C221.824 299.345 221.348 298.695 220.69 295.959C219.811 292.308 220.141 290.002 222.428 283.689C222.703 282.939 223.48 281.292 224.148 280.047C225.21 278.08 225.914 277.101 228.11 274.585C228.723 273.88 231.24 271.849 233.308 270.403C234.314 269.698 235.247 268.921 235.385 268.664C235.787 267.942 234.552 266.45 233.399 266.267C231.093 265.901 228.98 265.901 227.625 266.267V266.258Z" fill="#F4CB78"/>
<path d="M237.853 299.23C237.853 299.361 238.041 299.631 238.26 299.803C238.822 300.261 238.765 301.071 238.041 302.944C237.707 303.819 237.08 305.765 236.665 307.229C236.055 309.405 235.932 310.288 236.03 311.81C236.103 312.922 236.299 313.789 236.502 313.912C237.007 314.222 237.853 313.609 237.853 312.93C237.853 312.603 237.967 312.292 238.098 312.235C238.456 312.096 240.564 308.906 241.858 306.551C243.079 304.326 243.266 303.115 242.68 301.39C242.216 300.04 241.695 299.623 240.075 299.28C238.342 298.92 237.853 298.912 237.853 299.23Z" fill="#F4CB78"/>
<path d="M161.27 264.568C161.361 264.815 161.27 265.236 161.078 265.483C160.757 265.886 160.474 265.886 158.735 265.52C155.999 264.934 153.391 264.953 153.154 265.547C153.044 265.822 152.852 265.968 152.714 265.886C152.275 265.611 146.694 270.168 144.836 272.327C143.189 274.24 141.121 277.031 141.121 277.342C141.121 277.406 140.435 278.614 139.602 280.014C138.77 281.413 138.083 282.658 138.083 282.777C138.083 282.896 137.626 283.994 137.068 285.211C135.165 289.374 134.433 296.337 135.512 299.997C136.638 303.813 140.115 305.396 145.275 304.453C147.709 304.005 152.495 300.674 153.538 298.689C153.767 298.268 154.133 297.902 154.334 297.902C154.535 297.902 154.782 297.627 154.865 297.298C154.947 296.959 154.883 296.694 154.727 296.694C154.554 296.694 154.508 296.575 154.618 296.392C154.727 296.209 154.92 296.154 155.084 296.255C155.24 296.346 155.377 296.209 155.377 295.962C155.377 295.495 155.862 294.782 156.987 293.592C157.262 293.299 157.509 292.723 157.509 292.366C157.509 291.817 157.454 291.771 157.216 292.119C157.061 292.366 156.823 292.458 156.704 292.33C156.576 292.201 156.676 291.973 156.914 291.817C157.207 291.625 157.472 291.698 157.719 292.028C158.031 292.458 158.076 292.403 158.021 291.652C157.985 291.076 158.095 290.801 158.36 290.847C158.634 290.902 158.671 290.774 158.47 290.408C158.314 290.133 158.296 289.667 158.424 289.401C158.991 288.276 159.302 287.361 159.449 286.364L159.604 285.302L159.092 286.364C158.808 286.94 158.424 287.562 158.241 287.727C158.058 287.892 157.381 288.788 156.75 289.703C152.852 295.322 144.854 301.855 141.872 301.855C138.889 301.855 138.083 294.69 140.334 289.401C140.801 288.313 141.377 286.885 141.634 286.208C142.475 283.985 144.488 280.105 146.081 277.644C147.947 274.752 152.833 270.552 156.146 268.997C158.79 267.752 159.339 267.899 158.159 269.528C157.646 270.241 156.823 271.577 156.31 272.547C155.798 273.517 155.267 274.441 155.112 274.624C154.965 274.807 154.746 275.448 154.627 276.024C154.508 276.61 154.142 277.662 153.812 278.367C153.071 279.949 153.154 282.2 153.959 282.347C154.306 282.411 154.572 282.182 154.782 281.661C154.947 281.24 155.395 280.544 155.761 280.123C156.923 278.815 160.977 274.688 161.617 274.167C163.045 272.986 167.236 267.542 167.062 267.094C166.988 266.911 166.11 266.224 165.076 265.538C163.164 264.285 160.922 263.717 161.261 264.568H161.27Z" fill="#F4CB78"/>
<path d="M188.037 257.522C187.387 258.217 187.351 258.437 187.552 260.651C187.671 261.959 187.973 263.423 188.22 263.899C188.613 264.64 188.815 264.741 189.629 264.586C190.151 264.485 191.679 264.265 193.015 264.091C197.114 263.57 197.37 263.533 200.088 263.048C205.221 262.133 206.41 261.978 210.015 261.776C212.019 261.667 213.868 261.584 214.115 261.584C222.313 261.776 224.262 261.95 225.113 262.582C226.119 263.323 226.806 263.286 227.565 262.454C227.974 262.008 227.913 261.301 227.382 260.331C226.54 258.784 225.058 257.778 223.621 257.778C223.018 257.778 222.423 257.613 222.304 257.403C222.176 257.192 221.947 257.11 221.773 257.22C221.608 257.33 218.067 257.256 213.877 257.055C207.234 256.735 205.239 256.762 197.892 257.238C190.087 257.75 189.464 257.75 189.117 257.284C188.778 256.835 188.668 256.863 188.037 257.531V257.522Z" fill="#F4CB78"/>
<path d="M172.262 263.899C171.951 264.284 172.005 264.494 172.518 265.007C173.305 265.793 173.305 266.983 172.5 270.021C171.886 272.336 171.118 274.367 167.092 284.176C165.015 289.245 163.569 293.573 162.91 296.721L162.462 298.843L163.304 300.024C164.383 301.543 166.378 302.357 166.964 301.515C167.915 300.134 168.675 299.026 169.672 297.535C170.258 296.657 171.173 295.485 171.685 294.955C172.481 294.122 173.808 292.466 175.693 289.94C176.013 289.51 176.773 288.586 177.358 287.918C177.944 287.25 179.005 286.006 179.701 285.182C180.387 284.359 181.421 283.151 181.961 282.511C182.51 281.87 184.614 279.811 186.618 277.954C190.049 274.779 190.287 274.614 190.37 275.374C190.415 275.813 189.848 278.064 189.098 280.37C186.737 287.662 185.291 293.225 185.273 295.101C185.273 296.373 185.392 296.647 186.49 297.636C187.432 298.487 187.917 298.715 188.567 298.606C189.729 298.413 191.861 297.013 193.197 295.559C193.837 294.863 194.661 293.976 195.064 293.555C195.457 293.143 196.18 292.31 196.637 291.734C199.666 287.909 200.965 286.509 203.967 283.801C206.309 281.696 208.569 280.031 208.798 280.251C208.999 280.452 208.285 283.709 207.187 287.635C205.101 295.046 204.818 301.323 206.364 305.889C207.133 308.167 207.974 309.558 209.164 310.546C210.225 311.425 210.317 311.452 210.838 310.976C211.57 310.309 211.543 309.805 210.619 307.371C208.798 302.558 208.963 298.834 211.332 291.734C213.263 285.933 214.004 283.252 214.434 280.525C214.873 277.734 214.681 275.657 213.931 275.117C213.043 274.477 210.5 274.632 209.191 275.41C205.659 277.524 199.51 282.593 195.402 286.784C193.709 288.513 192.2 289.913 192.035 289.913C191.687 289.913 192.538 286.967 193.92 283.38C194.789 281.129 195.741 278.128 195.988 276.847C196.07 276.426 196.436 274.962 196.811 273.571C197.607 270.597 197.433 270.231 194.981 269.6C193.041 269.106 191.943 269.362 190.836 270.561C189.839 271.65 189.336 272.07 187.387 273.415C186.06 274.34 177.358 283.005 173.341 287.415C172.207 288.659 171.292 289.465 171.292 289.218C171.292 288.971 171.786 287.68 172.381 286.381C172.975 285.082 173.735 283.398 174.055 282.694C174.366 281.998 174.631 281.294 174.631 281.156C174.631 280.818 176.498 277.35 176.791 277.149C176.91 277.066 177.212 276.389 177.477 275.63C177.743 274.87 178.173 273.809 178.447 273.242C178.731 272.674 179.014 271.402 179.106 270.369C179.289 268.154 178.584 266.315 176.919 264.695C176.068 263.872 175.601 263.662 174.265 263.552C173.049 263.451 172.545 263.533 172.262 263.89V263.899Z" fill="#F4CB78"/>
</svg>
