<svg width="60" height="60" viewBox="0 0 60 60" fill="none" xmlns="http://www.w3.org/2000/svg">
<path d="M54.4688 28.6562H58.1562V22.2031L31.1177 1.47016C30.6752 1.17516 30.1497 1 29.5781 1C29.0066 1 28.4811 1.17516 28.0386 1.47016L1 22.2031V28.6562H4.6875V56.3125C4.6875 57.3266 5.51719 58.1562 6.53125 58.1562H52.625C53.6391 58.1562 54.4688 57.3266 54.4688 56.3125V28.6562Z" stroke="#856F5D" stroke-width="2" stroke-linecap="round" stroke-linejoin="round"/>
<path d="M43.4062 5.60938V1.92188H54.4688V12.9844" stroke="#856F5D" stroke-width="2" stroke-linecap="round" stroke-linejoin="round"/>
<path d="M23.0605 37.8105C24.7291 36.1419 27.0338 35.1094 29.5782 35.1094C32.1226 35.1094 34.4273 36.1419 36.0959 37.8105" stroke="#856F5D" stroke-width="2" stroke-linecap="round" stroke-linejoin="round"/>
<path d="M18.4961 33.2472C21.3355 30.4078 25.2534 28.6562 29.577 28.6562C33.9006 28.6562 37.8186 30.4078 40.658 33.2472" stroke="#856F5D" stroke-width="2" stroke-linecap="round" stroke-linejoin="round"/>
<path d="M13.9336 28.6839C17.9345 24.683 23.4658 22.2031 29.5778 22.2031C35.6898 22.2031 41.2211 24.683 45.222 28.6839" stroke="#856F5D" stroke-width="2" stroke-linecap="round" stroke-linejoin="round"/>
<path d="M29.5781 47.0938C31.1055 47.0938 32.3438 45.8555 32.3438 44.3281C32.3438 42.8007 31.1055 41.5625 29.5781 41.5625C28.0507 41.5625 26.8125 42.8007 26.8125 44.3281C26.8125 45.8555 28.0507 47.0938 29.5781 47.0938Z" stroke="#856F5D" stroke-width="2" stroke-linecap="round" stroke-linejoin="round"/>
</svg>
